<svg width="46" height="104" viewBox="0 0 46 104" fill="none" xmlns="http://www.w3.org/2000/svg">
<path d="M-0.000106812 103.5L5.77268 103.591L2.96518 98.5461L-0.000106812 103.5ZM13.9274 1.6347C14.2022 1.66216 14.4472 1.46167 14.4747 1.1869C14.5021 0.912125 14.3016 0.667115 14.0269 0.639654L13.9274 1.6347ZM19.9022 1.78426C19.6373 1.70615 19.3593 1.85754 19.2812 2.1224C19.2031 2.38727 19.3545 2.66531 19.6193 2.74342L19.9022 1.78426ZM23.2541 4.07339C23.5068 4.1847 23.8019 4.07006 23.9132 3.81734C24.0245 3.56463 23.9099 3.26953 23.6571 3.15822L23.2541 4.07339ZM28.884 6.08353C28.6568 5.92657 28.3454 5.9835 28.1884 6.2107C28.0315 6.43789 28.0884 6.74931 28.3156 6.90628L28.884 6.08353ZM31.3617 9.29874C31.5682 9.48209 31.8842 9.46334 32.0676 9.25686C32.2509 9.05037 32.2322 8.73435 32.0257 8.55099L31.3617 9.29874ZM36.139 12.8992C35.9669 12.6832 35.6523 12.6477 35.4364 12.8198C35.2204 12.9919 35.1849 13.3065 35.357 13.5224L36.139 12.8992ZM37.6086 16.683C37.7567 16.9161 38.0657 16.985 38.2987 16.8368C38.5318 16.6887 38.6007 16.3797 38.4525 16.1467L37.6086 16.683ZM41.2693 21.4229C41.1576 21.1704 40.8623 21.0563 40.6097 21.1681C40.3572 21.2798 40.2431 21.5752 40.3549 21.8277L41.2693 21.4229ZM41.7601 25.4521C41.8479 25.7139 42.1314 25.8549 42.3932 25.767C42.655 25.6792 42.796 25.3957 42.7081 25.1339L41.7601 25.4521ZM44.2279 30.9035C44.175 30.6324 43.9124 30.4556 43.6414 30.5086C43.3703 30.5615 43.1935 30.8241 43.2465 31.0951L44.2279 30.9035ZM43.8338 34.9469C43.8642 35.2213 44.1113 35.4192 44.3858 35.3888C44.6603 35.3584 44.8581 35.1112 44.8277 34.8367L43.8338 34.9469ZM45.1317 40.7873C45.1337 40.5112 44.9115 40.2857 44.6353 40.2838C44.3592 40.2818 44.1337 40.5041 44.1318 40.7802L45.1317 40.7873ZM43.9575 44.6757C43.935 44.9509 44.1398 45.1923 44.415 45.2149C44.6902 45.2374 44.9316 45.0326 44.9542 44.7574L43.9575 44.6757ZM44.1473 50.6601C44.1992 50.3889 44.0213 50.1269 43.7501 50.0751C43.4789 50.0232 43.217 50.201 43.1651 50.4723L44.1473 50.6601ZM42.3014 54.2758C42.2312 54.5429 42.3907 54.8163 42.6578 54.8866C42.9248 54.9568 43.1983 54.7972 43.2685 54.5302L42.3014 54.2758ZM41.4667 60.2185C41.5628 59.9596 41.4309 59.6718 41.172 59.5758C40.9131 59.4797 40.6253 59.6116 40.5292 59.8705L41.4667 60.2185ZM39.0592 63.4804C38.9472 63.7328 39.061 64.0282 39.3134 64.1402C39.5658 64.2522 39.8612 64.1384 39.9732 63.886L39.0592 63.4804ZM37.3173 69.2108C37.4514 68.9693 37.3643 68.665 37.1229 68.5309C36.8815 68.3969 36.5771 68.4839 36.443 68.7254L37.3173 69.2108ZM34.4485 72.0887C34.3011 72.3222 34.3708 72.631 34.6043 72.7785C34.8378 72.9259 35.1466 72.8562 35.294 72.6227L34.4485 72.0887ZM31.9182 77.5158C32.0839 77.2949 32.0392 76.9815 31.8183 76.8158C31.5974 76.6501 31.284 76.6948 31.1183 76.9157L31.9182 77.5158ZM28.6957 79.9788C28.519 80.191 28.5479 80.5063 28.7601 80.683C28.9723 80.8597 29.2876 80.8308 29.4643 80.6186L28.6957 79.9788ZM25.4956 85.0481C25.6871 84.8491 25.681 84.5326 25.482 84.3411C25.283 84.1497 24.9664 84.1558 24.775 84.3548L25.4956 85.0481ZM22.0118 87.1001C21.8116 87.2903 21.8035 87.6068 21.9938 87.807C22.184 88.0072 22.5005 88.0152 22.7006 87.825L22.0118 87.1001ZM18.2688 91.7731C18.4806 91.596 18.5088 91.2807 18.3317 91.0688C18.1546 90.857 17.8392 90.8288 17.6274 91.0059L18.2688 91.7731ZM14.5702 93.4592C14.3515 93.6277 14.3108 93.9417 14.4793 94.1604C14.6479 94.3792 14.9618 94.4199 15.1806 94.2513L14.5702 93.4592ZM10.3775 97.7391C10.6054 97.5831 10.6636 97.2719 10.5076 97.044C10.3516 96.8162 10.0405 96.7579 9.8126 96.9139L10.3775 97.7391ZM6.53562 99.0732C6.30242 99.2211 6.23327 99.53 6.38116 99.7632C6.52906 99.9964 6.83799 100.066 7.07119 99.9177L6.53562 99.0732ZM1.99543 102.962C2.23565 102.825 2.31996 102.52 2.18375 102.28C2.04755 102.04 1.7424 101.955 1.50218 102.092L1.99543 102.962ZM11.9801 1.49937C12.6364 1.52527 13.2856 1.57056 13.9274 1.6347L14.0269 0.639654C13.365 0.573507 12.6958 0.526839 12.0196 0.500145L11.9801 1.49937ZM19.6193 2.74342C20.8681 3.11169 22.0806 3.55655 23.2541 4.07339L23.6571 3.15822C22.4448 2.62426 21.1922 2.16467 19.9022 1.78426L19.6193 2.74342ZM28.3156 6.90628C29.3758 7.63874 30.3921 8.43779 31.3617 9.29874L32.0257 8.55099C31.0264 7.66362 29.9782 6.83946 28.884 6.08353L28.3156 6.90628ZM35.357 13.5224C36.1566 14.5257 36.908 15.5806 37.6086 16.683L38.4525 16.1467C37.7333 15.0148 36.9612 13.9308 36.139 12.8992L35.357 13.5224ZM40.3549 21.8277C40.8738 22.9999 41.3429 24.2093 41.7601 25.4521L42.7081 25.1339C42.2813 23.8622 41.8009 22.6239 41.2693 21.4229L40.3549 21.8277ZM43.2465 31.0951C43.4925 32.3552 43.689 33.6402 43.8338 34.9469L44.8277 34.8367C44.6799 33.503 44.4793 32.1908 44.2279 30.9035L43.2465 31.0951ZM44.1318 40.7802C44.1226 42.0644 44.0651 43.3638 43.9575 44.6757L44.9542 44.7574C45.0638 43.4209 45.1224 42.0966 45.1317 40.7873L44.1318 40.7802ZM43.1651 50.4723C42.924 51.7333 42.6365 53.0019 42.3014 54.2758L43.2685 54.5302C43.6094 53.2344 43.9019 51.9436 44.1473 50.6601L43.1651 50.4723ZM40.5292 59.8705C40.0831 61.0725 39.5934 62.2764 39.0592 63.4804L39.9732 63.886C40.5158 62.6632 41.0133 61.4401 41.4667 60.2185L40.5292 59.8705ZM36.443 68.7254C35.8191 69.8493 35.1546 70.9709 34.4485 72.0887L35.294 72.6227C36.01 71.4891 36.6842 70.3512 37.3173 69.2108L36.443 68.7254ZM31.1183 76.9157C30.3481 77.9423 29.5408 78.9637 28.6957 79.9788L29.4643 80.6186C30.32 79.5907 31.1378 78.556 31.9182 77.5158L31.1183 76.9157ZM24.775 84.3548C23.8876 85.2772 22.9667 86.1926 22.0118 87.1001L22.7006 87.825C23.6663 86.9073 24.5978 85.9814 25.4956 85.0481L24.775 84.3548ZM17.6274 91.0059C16.6391 91.8321 15.6203 92.6501 14.5702 93.4592L15.1806 94.2513C16.241 93.4343 17.2703 92.6079 18.2688 91.7731L17.6274 91.0059ZM9.8126 96.9139C8.74813 97.6427 7.65593 98.3627 6.53562 99.0732L7.07119 99.9177C8.20129 99.201 9.30327 98.4745 10.3775 97.7391L9.8126 96.9139ZM-0.000106812 103.5L11.5455 103.682L5.93047 93.5922L-0.000106812 103.5ZM13.8777 2.13222C14.4272 2.18714 14.9173 1.78617 14.9722 1.23662C15.0271 0.687074 14.6261 0.197055 14.0766 0.142133L13.8777 2.13222ZM20.0436 1.30468C19.5139 1.14846 18.9578 1.45124 18.8016 1.98097C18.6454 2.5107 18.9482 3.06677 19.4779 3.223L20.0436 1.30468ZM23.0525 4.53098C23.558 4.75359 24.1482 4.52431 24.3708 4.01888C24.5934 3.51345 24.3641 2.92325 23.8587 2.70064L23.0525 4.53098ZM29.1682 5.67216C28.7138 5.35823 28.091 5.4721 27.7771 5.92649C27.4631 6.38088 27.577 7.00372 28.0314 7.31765L29.1682 5.67216ZM31.0297 9.67261C31.4427 10.0393 32.0747 10.0018 32.4414 9.58885C32.8081 9.17589 32.7706 8.54383 32.3577 8.17712L31.0297 9.67261ZM36.53 12.5875C36.1858 12.1556 35.5567 12.0846 35.1248 12.4288C34.6929 12.773 34.6218 13.4021 34.966 13.834L36.53 12.5875ZM37.1866 16.9512C37.4828 17.4173 38.1008 17.5551 38.5669 17.2588C39.033 16.9626 39.1708 16.3446 38.8745 15.8785L37.1866 16.9512ZM41.7265 21.2206C41.503 20.7155 40.9124 20.4873 40.4074 20.7109C39.9023 20.9344 39.6741 21.525 39.8977 22.03L41.7265 21.2206ZM41.2861 25.6112C41.4618 26.1348 42.0287 26.4168 42.5523 26.241C43.0759 26.0653 43.3578 25.4984 43.1821 24.9748L41.2861 25.6112ZM44.7187 30.8076C44.6128 30.2656 44.0876 29.912 43.5455 30.0178C43.0035 30.1237 42.6499 30.6489 42.7557 31.191L44.7187 30.8076ZM43.3368 35.0019C43.3977 35.5509 43.892 35.9466 44.4409 35.8857C44.9898 35.8249 45.3855 35.3306 45.3247 34.7817L43.3368 35.0019ZM45.6317 40.7909C45.6357 40.2386 45.1911 39.7877 44.6389 39.7838C44.0866 39.7799 43.6357 40.2244 43.6318 40.7766L45.6317 40.7909ZM43.4592 44.6348C43.4141 45.1853 43.8237 45.6681 44.3741 45.7132C44.9246 45.7583 45.4074 45.3487 45.4525 44.7983L43.4592 44.6348ZM44.6384 50.754C44.7421 50.2115 44.3865 49.6877 43.844 49.584C43.3016 49.4802 42.7777 49.8359 42.674 50.3784L44.6384 50.754ZM41.8179 54.1486C41.6774 54.6827 41.9965 55.2296 42.5306 55.3701C43.0647 55.5106 43.6116 55.1915 43.7521 54.6574L41.8179 54.1486ZM41.9355 60.3925C42.1277 59.8747 41.8637 59.2992 41.346 59.107C40.8282 58.9148 40.2527 59.1788 40.0605 59.6965L41.9355 60.3925ZM38.6022 63.2776C38.3781 63.7824 38.6058 64.3732 39.1106 64.5972C39.6154 64.8212 40.2062 64.5936 40.4302 64.0888L38.6022 63.2776ZM37.7545 69.4535C38.0226 68.9706 37.8485 68.3618 37.3656 68.0938C36.8827 67.8257 36.274 67.9998 36.0059 68.4827L37.7545 69.4535ZM34.0258 71.8217C33.7309 72.2887 33.8703 72.9063 34.3373 73.2012C34.8042 73.4961 35.4219 73.3567 35.7168 72.8897L34.0258 71.8217ZM32.3181 77.8159C32.6496 77.3741 32.5601 76.7473 32.1183 76.4159C31.6766 76.0844 31.0498 76.1739 30.7183 76.6156L32.3181 77.8159ZM28.3115 79.6589C27.9581 80.0834 28.0157 80.7139 28.4402 81.0673C28.8646 81.4206 29.4952 81.363 29.8485 80.9385L28.3115 79.6589ZM25.856 85.3948C26.2389 84.9968 26.2266 84.3637 25.8286 83.9808C25.4306 83.5979 24.7976 83.6102 24.4147 84.0082L25.856 85.3948ZM21.6673 86.7377C21.267 87.1181 21.2509 87.7511 21.6313 88.1514C22.0118 88.5518 22.6447 88.5679 23.0451 88.1875L21.6673 86.7377ZM18.5895 92.1567C19.0132 91.8025 19.0695 91.1718 18.7153 90.7481C18.361 90.3244 17.7304 90.2681 17.3067 90.6223L18.5895 92.1567ZM14.2651 93.0631C13.8276 93.4002 13.7462 94.0281 14.0833 94.4656C14.4203 94.9031 15.0483 94.9845 15.4857 94.6474L14.2651 93.0631ZM10.66 98.1516C11.1157 97.8396 11.2322 97.2173 10.9202 96.7616C10.6082 96.3058 9.98585 96.1893 9.53014 96.5014L10.66 98.1516ZM6.26783 98.6509C5.80144 98.9467 5.66313 99.5646 5.95892 100.031C6.25471 100.497 6.87258 100.636 7.33898 100.34L6.26783 98.6509ZM2.24205 103.396C2.72248 103.124 2.89111 102.514 2.61869 102.033C2.34628 101.553 1.73598 101.384 1.25556 101.657L2.24205 103.396ZM11.9604 1.99898C12.6067 2.02449 13.2459 2.06908 13.8777 2.13222L14.0766 0.142133C13.4047 0.0749833 12.7255 0.0276209 12.0393 0.000534058L11.9604 1.99898ZM19.4779 3.223C20.7061 3.58519 21.8985 4.0227 23.0525 4.53098L23.8587 2.70064C22.6269 2.15812 21.3542 1.69117 20.0436 1.30468L19.4779 3.223ZM28.0314 7.31765C29.0746 8.03839 30.075 8.82487 31.0297 9.67261L32.3577 8.17712C31.3435 7.27654 30.2793 6.43981 29.1682 5.67216L28.0314 7.31765ZM34.966 13.834C35.7542 14.8231 36.4953 15.8635 37.1866 16.9512L38.8745 15.8785C38.1459 14.7319 37.3635 13.6334 36.53 12.5875L34.966 13.834ZM39.8977 22.03C40.4102 23.1879 40.8738 24.3829 41.2861 25.6112L43.1821 24.9748C42.7504 23.6887 42.2645 22.4359 41.7265 21.2206L39.8977 22.03ZM42.7557 31.191C42.9992 32.4374 43.1935 33.7088 43.3368 35.0019L45.3247 34.7817C45.1754 33.4344 44.9727 32.1086 44.7187 30.8076L42.7557 31.191ZM43.6318 40.7766C43.6227 42.0484 43.5658 43.3353 43.4592 44.6348L45.4525 44.7983C45.5631 43.4494 45.6223 42.1127 45.6317 40.7909L43.6318 40.7766ZM42.674 50.3784C42.435 51.6281 42.1501 52.8856 41.8179 54.1486L43.7521 54.6574C44.0958 53.3506 44.3908 52.0487 44.6384 50.754L42.674 50.3784ZM40.0605 59.6965C39.6179 60.8888 39.1322 62.0831 38.6022 63.2776L40.4302 64.0888C40.977 62.8566 41.4784 61.6238 41.9355 60.3925L40.0605 59.6965ZM36.0059 68.4827C35.3865 69.5983 34.7268 70.7118 34.0258 71.8217L35.7168 72.8897C36.4378 71.7481 37.1167 70.6022 37.7545 69.4535L36.0059 68.4827ZM30.7183 76.6156C29.9532 77.6354 29.1512 78.6502 28.3115 79.6589L29.8485 80.9385C30.7096 79.9042 31.5326 78.8629 32.3181 77.8159L30.7183 76.6156ZM24.4147 84.0082C23.5325 84.9251 22.617 85.8353 21.6673 86.7377L23.0451 88.1875C24.0161 87.2647 24.9529 86.3335 25.856 85.3948L24.4147 84.0082ZM17.3067 90.6223C16.3236 91.4442 15.3099 92.2581 14.2651 93.0631L15.4857 94.6474C16.5514 93.8263 17.5858 92.9958 18.5895 92.1567L17.3067 90.6223ZM9.53014 96.5014C8.47055 97.2268 7.38326 97.9435 6.26783 98.6509L7.33898 100.34C8.47397 99.6201 9.58085 98.8905 10.66 98.1516L9.53014 96.5014Z" fill="#7FEEDF"/>
</svg>
