<svg width="698" height="198" viewBox="0 0 698 198" fill="none" xmlns="http://www.w3.org/2000/svg">
<g clip-path="url(#clip0_465_34)">
<path d="M222.873 32.8602V196.083L26.5818 196.783C27.0684 189.662 -5.23122 95.5446 36.1926 41.776C94.9523 -34.5407 145.166 27.1699 211.468 32.5255C215.209 32.8298 218.98 32.9819 222.873 32.8602Z" fill="#BEF4ED"/>
<path d="M673.851 192.949C673.578 194.988 652.318 192.614 652.014 194.622L519.348 195.079H222.873V32.8603C226.614 32.769 230.386 32.4647 234.279 31.9474C247.265 30.1825 260.921 25.7094 275.368 17.2805C425.035 -69.5647 546.903 -45.982 615.335 21.8144C623.759 30.1825 631.363 39.22 638.145 48.7748C667.221 89.9761 680.39 141.31 673.851 192.949Z" fill="white"/>
<path opacity="0.6" d="M675.494 167.266C675.524 176.182 674.977 185.098 673.851 194.075C673.578 196.113 652.318 193.77 652.014 195.779L519.349 196.235H222.873V196.083L519.349 195.079L652.014 194.622C652.318 192.614 673.578 194.988 673.851 192.949C674.916 184.368 675.494 175.787 675.494 167.266Z" fill="#E2EBFD"/>
<path d="M617.129 71.0186V195.079H234.279V87.1461H263.628V57.6601H292.977V97.4616H316.731V88.5763H358.124V103.608H376.129V69.8623H424.335V11.9553H462.474V42.8411H471.173V16.9762H509.281V56.8081H543.832V32.3429H580.815V56.8081H587.688V71.0186H617.129Z" fill="#BEF4ED"/>
<path d="M177.739 81.9122H145.592C143.523 81.9122 141.79 80.1777 141.79 78.1085V47.1315C141.79 45.0319 143.523 43.3279 145.592 43.3279H177.739C179.838 43.3279 181.541 45.0319 181.541 47.1315V78.1085C181.541 80.1777 179.838 81.9122 177.739 81.9122Z" fill="#25DEBE"/>
<path d="M176.34 80.2387H146.991C145.074 80.2387 143.523 78.6564 143.523 76.7698V48.4705C143.523 46.5535 145.074 45.0016 146.991 45.0016H176.34C178.256 45.0016 179.807 46.5535 179.807 48.4705V76.7698C179.807 78.6564 178.256 80.2387 176.34 80.2387Z" fill="#B0FFF4"/>
<path d="M160.859 48.5313C160.859 48.0749 161.224 47.7097 161.68 47.7097C162.137 47.7097 162.502 48.0749 162.502 48.5313C162.502 48.9877 162.137 49.3529 161.68 49.3529C161.224 49.3529 160.859 48.9877 160.859 48.5313Z" fill="#25DEBE"/>
<path d="M167.49 49.6876C167.702 49.2921 168.22 49.1399 168.615 49.3833C169.01 49.5964 169.132 50.0832 168.919 50.4788C168.706 50.8744 168.189 51.0265 167.794 50.8135C167.398 50.6005 167.277 50.0832 167.49 49.6876Z" fill="#25DEBE"/>
<path d="M173.177 54.2216C173.542 53.9781 174.059 54.0694 174.302 54.465C174.546 54.8302 174.454 55.3475 174.059 55.5909C173.694 55.8343 173.177 55.743 172.934 55.3475C172.69 54.9823 172.782 54.465 173.177 54.2216Z" fill="#25DEBE"/>
<path d="M176.005 61.2203C176.462 61.2203 176.827 61.5855 176.827 62.0419C176.827 62.4984 176.462 62.8635 176.005 62.8635C175.549 62.8635 175.184 62.4984 175.184 62.0419C175.184 61.5855 175.549 61.2203 176.005 61.2203Z" fill="#25DEBE"/>
<path d="M174.546 69.3449C174.88 69.6492 174.88 70.1665 174.546 70.5012C174.241 70.836 173.724 70.836 173.39 70.5012C173.055 70.1665 173.055 69.6492 173.39 69.3449C173.724 69.0102 174.241 69.0102 174.546 69.3449Z" fill="#25DEBE"/>
<path d="M169.375 74.5179C169.71 74.8526 169.71 75.3699 169.375 75.6742C169.071 76.0089 168.554 76.0089 168.219 75.6742C167.915 75.3699 167.915 74.8526 168.219 74.5179C168.554 74.1832 169.071 74.1832 169.375 74.5179Z" fill="#25DEBE"/>
<path d="M160.859 77.1957C160.859 76.7393 161.224 76.3741 161.68 76.3741C162.137 76.3741 162.502 76.7393 162.502 77.1957C162.502 77.6522 162.137 78.0173 161.68 78.0173C161.224 78.0173 160.859 77.6522 160.859 77.1957Z" fill="#25DEBE"/>
<path d="M155.506 50.8135C155.111 51.0265 154.594 50.8744 154.381 50.4788C154.168 50.0832 154.32 49.5964 154.716 49.3833C155.111 49.1399 155.598 49.2921 155.811 49.6876C156.054 50.0832 155.902 50.6005 155.506 50.8135Z" fill="#25DEBE"/>
<path d="M150.366 55.3475C150.123 55.743 149.637 55.8343 149.241 55.5909C148.846 55.3475 148.755 54.8302 148.998 54.465C149.241 54.0694 149.758 53.9781 150.123 54.2216C150.519 54.465 150.64 54.9823 150.366 55.3475Z" fill="#25DEBE"/>
<path d="M148.146 62.0419C148.146 62.4984 147.781 62.8635 147.325 62.8635C146.869 62.8635 146.504 62.4984 146.504 62.0419C146.504 61.5855 146.869 61.2203 147.325 61.2203C147.781 61.2203 148.146 61.5855 148.146 62.0419Z" fill="#25DEBE"/>
<path d="M149.91 69.3449C150.245 69.6492 150.245 70.1665 149.91 70.5012C149.606 70.836 149.089 70.836 148.755 70.5012C148.42 70.1665 148.42 69.6492 148.755 69.3449C149.089 69.0102 149.606 69.0102 149.91 69.3449Z" fill="#25DEBE"/>
<path d="M155.081 74.518C155.415 74.8527 155.415 75.37 155.081 75.6743C154.777 76.009 154.259 76.009 153.925 75.6743C153.59 75.37 153.59 74.8527 153.925 74.518C154.259 74.1833 154.777 74.1833 155.081 74.518Z" fill="#25DEBE"/>
<path d="M161.437 62.0421C161.437 61.5856 161.802 61.2205 162.258 61.2205C162.715 61.2205 163.08 61.5856 163.08 62.0421C163.08 62.4985 162.715 62.8636 162.258 62.8636C161.802 62.8636 161.437 62.4985 161.437 62.0421Z" fill="#25DEBE"/>
<path d="M162.38 62.042H162.167V51.7568H162.38V62.042Z" fill="#25DEBE"/>
<path d="M162.38 62.2854L161.954 61.7681L167.398 57.4775L167.824 57.9948L162.38 62.2854Z" fill="#25DEBE"/>
<path d="M234.279 31.9474V194.227H211.438V32.5255C218.859 33.1341 226.432 33.0124 234.279 31.9474Z" fill="#80EDDE"/>
<path d="M638.145 48.7748V194.227H615.335V21.8145C623.759 30.1825 631.393 39.22 638.145 48.7748Z" fill="#80EDDE"/>
<path d="M690.549 196.539H5.6874C4.95746 196.539 4.34918 195.961 4.34918 195.231V194.927C4.34918 194.196 4.95746 193.588 5.6874 193.588H690.549C691.279 193.588 691.856 194.196 691.856 194.927V195.231C691.856 195.961 691.279 196.539 690.549 196.539Z" fill="#178D7D"/>
<path d="M262.685 193.679H253.804L249.303 136.959H252.983L262.685 193.679Z" fill="#106559"/>
<path d="M325.733 120.375L324.943 120.557C321.445 121.257 318.008 118.975 317.309 115.476L316.487 111.368C315.758 107.869 318.039 104.43 321.536 103.7L322.327 103.548C325.825 102.848 329.261 105.13 329.991 108.629L330.813 112.737C331.512 116.237 329.231 119.675 325.733 120.375Z" fill="#26D8C0"/>
<path d="M249.303 136.959C262.624 130.691 278.409 129.636 296.658 133.794L252.983 136.959H249.303Z" fill="#106559"/>
<path d="M262.685 194.227L252.983 136.959C273.381 130.082 291.497 130.082 307.333 136.959L321.475 193.862L262.685 194.227Z" fill="#26D8C0"/>
<path d="M474.366 176.487C473.819 182.694 470.321 184.611 468.77 184.459C467.219 184.276 458.216 180.838 458.004 182.116C457.821 183.364 463.235 187.502 467.036 187.685C462.251 192.979 458.277 194.866 455.114 193.344C450.339 191.032 449.913 187.411 446.963 186.072C443.983 184.702 441.428 184.702 442.675 186.102C443.891 187.472 449.275 188.841 450.978 191.823C451.373 192.553 451.769 193.192 452.073 193.77H442.036C438.843 192.188 436.166 189.997 435.953 187.654C435.933 187.472 435.923 187.299 435.923 187.137C435.7 184.723 435.588 183.516 435.588 183.516C432.162 179.499 431.341 175.827 433.125 172.5C433.581 171.648 434.22 170.857 435.163 170.127C438.366 168.179 441.276 167.287 443.891 167.449C441.864 170.837 440.566 173.545 439.998 175.574C439.694 176.639 439.664 177.43 440.151 177.673C440.637 177.947 441.306 177.186 442.006 175.939C443.141 173.89 444.338 170.857 445.595 166.84C447.521 166.658 449.579 166.556 451.769 166.536C453.229 166.506 454.78 166.536 456.209 166.658C457.76 166.81 459.129 167.053 460.041 167.479C459.92 167.581 459.747 167.733 459.524 167.936C459.038 168.331 458.247 169.001 457.365 169.762C454.78 172.074 451.404 175.3 452.651 175.604C453.685 175.848 456.878 173.93 459.737 172.044C461.501 170.867 463.164 169.701 464.725 168.544C471.517 169.701 474.731 172.348 474.366 176.487Z" fill="#24CBB4"/>
<path d="M435.953 187.654C434.818 187.857 432.648 189.642 429.445 193.01L430.084 191.245C432.861 188.79 434.696 186.214 435.588 183.516C439.664 178.221 450.927 175.939 469.378 176.669C445.311 177.44 434.169 181.102 435.953 187.654Z" fill="#24CBB4"/>
<path d="M431.27 191.184C431.026 191.458 430.661 191.792 430.144 192.279C429.962 192.442 429.789 192.614 429.627 192.797C429.384 193.081 429.141 193.395 428.897 193.74H427.589C428.482 192.644 429.313 191.813 430.083 191.245C430.205 191.184 432.577 189.723 431.27 191.184Z" fill="#24CBB4"/>
<path d="M403.319 177.673C401.251 182.146 390.819 182.877 385.04 181.69C379.231 180.503 381.756 178.86 384.888 176.213C388.021 173.535 394.56 174.235 396.476 173.2C398.423 172.166 395.594 171.131 391.732 171.405C387.869 171.709 385.922 175.574 379.688 176.182C375.511 176.588 371.841 172.865 368.678 165.015C372.966 166.354 380.722 163.98 381.026 162.489C381.3 160.998 369.864 161.15 368.069 160.694C366.275 160.268 363.173 156.677 365.089 149.526C366.387 144.779 371.05 143.146 379.079 144.627C384.534 152.965 388.051 157.235 389.633 157.438C391.235 157.62 389.603 153.594 384.736 145.357C387.818 145.073 393.273 146.818 401.099 150.591C400.612 160.308 401.16 165.065 402.741 164.863C404.323 164.66 404.323 160.349 402.741 151.93C405.722 152.823 408.591 155.003 411.348 158.472C414.836 164.132 412.859 169.041 405.418 173.2C405.418 173.2 404.718 174.691 403.319 177.673Z" fill="#24CCB5"/>
<path d="M370.594 151.778C391.417 158.513 403.025 165.654 405.418 173.2C405.316 176.568 406.31 180.189 408.398 184.063V186.315C406.208 181.244 404.515 178.363 403.319 177.673C407.983 171.121 397.074 162.489 370.594 151.778Z" fill="#24CCB5"/>
<path d="M411.288 193.709H409.493C409.432 191.123 409.128 188.232 408.246 186.011C408.145 185.727 408.033 185.463 407.912 185.22C407.516 184.489 407.273 183.942 407.121 183.546C406.513 182.065 406.938 182.238 408.398 184.063C410.142 186.721 411.105 189.936 411.288 193.709Z" fill="#24CCB5"/>
<path d="M423.149 164.589C413.356 159.091 410.75 152.62 415.333 145.175C418.982 140.59 422.774 137.709 426.708 136.533C424.599 147.65 424.599 153.34 426.708 153.604C428.796 153.867 429.506 147.589 428.837 134.768C439.177 129.798 446.375 127.505 450.43 127.891C444.023 138.744 441.864 144.039 443.952 143.775C446.041 143.511 450.684 137.892 457.882 126.917C468.466 124.949 474.61 127.11 476.313 133.399C478.868 142.801 474.731 147.518 472.389 148.096C470.017 148.705 454.932 148.492 455.327 150.469C455.722 152.417 465.911 155.551 471.599 153.786C467.422 164.132 462.586 169.041 457.091 168.514C448.849 167.723 446.294 162.611 441.215 162.215C436.105 161.85 432.395 163.219 434.919 164.589C437.474 165.958 446.112 165.045 450.218 168.544C454.354 172.044 457.669 174.204 450.035 175.756C442.371 177.339 428.654 176.365 425.917 170.462C424.072 166.546 423.149 164.589 423.149 164.589Z" fill="#22C5AF"/>
<path d="M425.917 170.461C424.335 171.374 422.115 175.168 419.256 181.842V178.921C421.993 173.809 423.291 169.031 423.149 164.589C426.292 154.648 441.59 145.225 469.044 136.32C434.149 150.459 419.773 161.84 425.917 170.461Z" fill="#26D8C0"/>
<path d="M420.929 178.221C420.929 178.221 420.919 178.221 420.898 178.221C420.716 178.738 420.381 179.469 419.895 180.412C419.712 180.757 419.55 181.112 419.408 181.477C418.009 185.007 417.705 189.875 417.766 193.71H415.424C415.221 188.009 416.498 183.08 419.256 178.921C419.256 178.921 419.256 178.911 419.256 178.89C419.317 178.83 422.115 175.3 420.929 178.221Z" fill="#26D8C0"/>
<path d="M349.943 193.862H294.012C293.16 191.853 292.43 189.723 291.822 187.472C290.21 181.903 289.176 175.756 288.537 169.731C288.517 169.65 288.507 169.569 288.507 169.488C287.381 159.051 287.351 149.009 287.503 142.953C287.594 139.454 287.746 137.324 287.746 137.202C287.868 137.162 287.99 137.111 288.111 137.05C291.061 135.803 293.92 134.738 296.658 133.794C298.949 133.023 301.159 132.344 303.288 131.755C307.029 130.751 310.496 129.991 313.72 129.504C317.491 128.895 320.928 128.621 324 128.53C324.142 128.53 324.273 128.53 324.395 128.53C325.206 128.51 325.997 128.51 326.767 128.53C334.401 128.713 339.511 130.234 342.096 131.238C342.441 131.38 342.745 131.512 343.008 131.634C343.049 131.654 343.079 131.664 343.1 131.664C343.404 131.806 343.637 131.918 343.799 131.999C343.82 131.999 343.84 132.009 343.86 132.029C343.921 132.07 343.992 132.11 344.073 132.151L348.118 174.569L349.943 193.862Z" fill="#178D7D"/>
<path d="M405.691 184.702C400.065 187.289 366.731 189.48 363.538 188.567C361.895 188.08 355.022 182.025 348.118 174.569C341.549 167.51 334.949 159.233 332.728 153.269C329.687 145.073 329.474 137.354 332.09 130.112C337.767 130.072 341.761 130.751 344.073 132.151C347.54 134.251 367.37 170.796 370.016 171.74C372.662 172.713 404.08 174.509 407.668 176.213C410.081 180.128 409.422 182.958 405.691 184.702Z" fill="#178D7D"/>
<path d="M324.395 130.021V132.09C324.78 136.391 322.317 138.856 317.005 139.485C309.067 140.458 303.045 136.989 303.257 132.029C303.957 128.165 304.748 125.487 304.778 122.322C304.809 121.136 304.717 119.858 304.504 118.427L319.894 118.123L324.426 118.853L324.395 130.021Z" fill="#FDA6A4"/>
<path d="M324.426 118.854L324.395 130.021C322.753 130.782 320.928 131.238 318.86 131.238C311.773 131.269 304.717 119.858 304.504 118.427L324.426 118.854Z" fill="#FC9290"/>
<path d="M325.338 124.27C312.199 126.948 304.859 124.179 303.318 115.963C301.007 103.639 296.901 95.849 309.401 92.7756C321.901 89.6718 325.216 93.9319 326.98 97.8573C328.775 101.783 330.417 122.901 325.338 124.27Z" fill="#FDA6A4"/>
<path d="M327.771 98.8919C327.923 100.778 316.792 99.3483 313.75 101.813C310.709 104.278 313.629 108.325 310.161 109.786C306.694 111.216 303.927 111.216 304.504 114.411C304.91 116.541 304.646 118.245 303.714 119.523C301.159 114.086 298.817 110.171 296.688 107.777C294.042 104.765 294.802 91.7714 302.984 87.7852C302.963 87.7649 302.943 87.7345 302.923 87.6939C302.801 87.491 302.578 87.4099 302.254 87.4505C302.72 87.2476 303.318 87.207 304.048 87.3287C304.018 87.3287 304.079 87.2679 304.17 87.207C304.271 86.5579 304.636 86 305.265 85.5334C304.961 86.0203 304.809 86.5071 304.748 86.8419C306.907 85.716 313.537 83.1599 318.829 85.4421C323.148 87.3287 327.142 88.4039 330.812 88.6676C330.812 89.0936 331.907 97.3704 327.771 98.8919Z" fill="#E1473D"/>
<path d="M294.012 193.862C293.16 191.853 292.43 189.723 291.822 187.472C290.21 181.903 289.176 175.756 288.537 169.731C288.517 169.65 288.507 169.569 288.507 169.488C288.537 169.518 288.598 169.64 288.659 169.579C290.849 166.932 296.779 164.041 303.987 174.57C305.417 176.669 311.712 191.397 312.716 193.862H294.012Z" fill="#137669"/>
<path d="M299.851 193.862C299.669 192.918 299.851 191.701 300.611 190.21C301.22 189.825 301.929 189.399 302.74 188.932C304.565 187.898 307.09 186.65 308.215 186.833C308.397 186.893 308.671 186.954 309.006 187.015C311.682 187.654 317.947 189.602 318.89 190.727C319.681 191.64 320.745 192.827 321.475 193.862H299.851Z" fill="#FDA6A4"/>
<path d="M303.987 193.862H251.28C251.128 193.192 251.128 192.553 251.31 192.097C252.892 188.111 255.964 181.568 259.492 174.57C262.077 169.397 264.936 163.98 267.612 159.111C271.353 152.387 274.79 146.757 276.797 144.445C278.379 142.619 280.386 141.097 282.454 139.85C284.218 138.785 286.073 137.902 287.746 137.202C287.868 137.162 287.99 137.111 288.111 137.05C290.565 136.056 292.754 135.346 294.681 134.92C294.721 136.036 294.741 137.446 294.741 139.15C294.741 146.575 294.468 161.546 292.095 165.197C291.426 166.232 290.21 167.784 288.659 169.579C288.618 169.62 288.578 169.67 288.537 169.731C287.685 170.705 286.773 171.74 285.8 172.835C280.295 179.012 273.33 186.254 272.478 187.137C272.438 187.177 272.407 187.208 272.387 187.228H272.509L287.29 187.411L291.822 187.472L301.22 187.624C301.858 187.898 302.375 188.354 302.74 188.932C303.653 190.241 303.926 192.188 303.987 193.862Z" fill="#178D7D"/>
<path d="M405.692 184.702C400.065 187.289 366.731 189.48 363.538 188.567C361.895 188.08 355.022 182.025 348.118 174.57C348.452 174.63 351.616 169.336 366.032 181.964C368.546 183.08 373.23 183.323 380.083 182.694C390.363 181.781 403.563 181.416 405.692 184.702Z" fill="#137669"/>
<path d="M372.936 193.77H334.827C334.827 192.097 336.196 190.727 337.868 190.727H372.936V193.77Z" fill="#CA4037"/>
<path d="M372.814 152.234H431.756L417.614 193.77H358.307L372.814 152.234Z" fill="#A83F3F"/>
<path d="M432.608 152.234L418.496 193.77H359.189L373.696 152.234H432.608Z" fill="#E1473D"/>
<path d="M400.856 172.622C400.491 174.204 398.909 175.482 397.328 175.482C395.716 175.482 394.743 174.204 395.108 172.622C395.472 171.04 397.054 169.731 398.635 169.731C400.217 169.731 401.221 171.04 400.856 172.622Z" fill="#FD7F7C"/>
<path d="M432.608 152.234L418.496 193.77H390.88L423.94 152.234H432.608Z" fill="#CA4037"/>
<path d="M309.036 120.375L308.245 120.557C304.748 121.257 301.311 118.975 300.611 115.476L299.79 111.368C299.091 107.869 301.372 104.43 304.869 103.7L305.63 103.548C309.127 102.848 312.594 105.13 313.294 108.629L314.115 112.737C314.815 116.237 312.534 119.675 309.036 120.375Z" fill="#26D8C0"/>
<path d="M302.923 105.586C302.406 104.643 301.645 97.0052 303.744 90.9193C304.748 87.9677 306.39 86.2941 308.458 85.1682C309.188 84.7422 310.04 84.5292 310.891 84.5292L312.96 84.5596C306.147 87.4504 304.565 102.908 305.082 104.552C305.062 104.491 305.042 104.45 305.021 104.43L302.923 105.586Z" fill="#26D8C0"/>
<path d="M322.814 121.683C311.378 121.683 305.691 112.615 305.63 112.524L306.664 111.885L306.147 112.22L306.664 111.885C306.725 111.976 312.047 120.466 322.814 120.466C322.895 120.466 322.966 120.466 323.027 120.466L323.057 121.683C322.976 121.683 322.895 121.683 322.814 121.683Z" fill="#26D8C0"/>
<path d="M307.211 116.358L306.816 116.45C305.052 116.784 303.349 115.658 302.984 113.924L302.588 111.855C302.223 110.12 303.379 108.416 305.113 108.051L305.508 107.99C307.242 107.625 308.945 108.751 309.31 110.516L309.736 112.555C310.07 114.289 308.945 116.024 307.211 116.358Z" fill="#56FFE8"/>
<path d="M324.243 122.079H323.179C322.631 122.079 322.175 121.623 322.175 121.075C322.175 120.527 322.631 120.071 323.179 120.071H324.243C324.791 120.071 325.247 120.527 325.247 121.075C325.247 121.623 324.791 122.079 324.243 122.079Z" fill="#178D7D"/>
<path d="M95.074 104.126C88.6668 107.412 87.7949 112.575 92.4584 119.614C86.9636 120.243 83.5167 119.766 82.1176 118.184C82.3407 118.894 82.5738 119.411 82.8172 119.736C77.4846 119.046 73.8552 117.687 71.929 115.658C69.0701 112.616 78.0118 72.2663 99.3319 80.543C111.944 81.6791 116.465 89.3777 112.897 103.639C109.308 117.88 109.865 125.396 114.569 126.187C113.15 126.613 112.126 126.765 111.498 126.643C110.626 126.136 110.149 125.619 110.068 125.092C110.109 125.923 110.23 126.481 110.433 126.765C105.263 126.4 101.572 125.041 99.3624 122.688C96.0168 119.188 93.2187 108.416 95.074 104.126Z" fill="#E1473D"/>
<path d="M108.791 114.685L108.03 114.806C104.594 115.263 101.4 112.859 100.913 109.42L100.366 105.404C99.8794 101.965 102.313 98.7702 105.719 98.3138L106.51 98.1921C109.916 97.7356 113.109 100.14 113.596 103.578L114.143 107.595C114.63 111.033 112.227 114.228 108.791 114.685Z" fill="#26D8C0"/>
<path d="M110.98 146.94C108.122 149.161 106.297 157.164 101.674 158.472C84.3379 163.432 75.0312 142.832 71.9898 132.79C74.3317 131.299 76.5519 130.873 77.8597 130.66C79.1067 130.447 80.4449 130.264 81.5398 130.173C83.4255 128.56 86.041 122.231 86.1931 112.615L87.0447 112.768L101.066 115.871C100.782 118.813 100.609 121.673 100.549 124.452C100.488 127.739 100.366 128.5 100.64 128.895C101.349 129.017 102.14 130.011 103.012 131.877C103.195 132.182 107.544 138.572 110.98 146.94Z" fill="#FDA6A4"/>
<path d="M101.065 115.871C100.782 118.813 100.609 121.673 100.548 124.453C92.6713 124.087 88.6566 116.815 87.0447 112.798L101.065 115.871Z" fill="#FC9290"/>
<path d="M172.356 188.597C166.861 188.8 161.133 188.912 155.172 188.932C154.107 188.932 153.043 188.932 151.948 188.932C144.679 188.902 137.501 188.658 134.46 187.867C131.479 187.076 120.013 179.316 110.859 169.914C110.159 171.587 109.612 172.896 109.581 172.987C109.338 175.117 108.882 177.217 108.334 179.256C106.266 187.015 102.799 193.527 102.677 193.74H97.7504L59.4288 193.679C64.2545 186.254 66.0185 173.007 64.7209 153.938C64.7006 153.472 66.9309 145.55 71.4119 130.173C74.8791 129.565 78.6302 129.098 82.6651 128.773C83.2429 129.291 84.3987 144.445 91.9413 145.327C92.7726 145.428 95.814 149.486 101.066 157.499L103.438 145.205L100.609 128.895C104.259 129.96 106.236 130.325 109.247 131.542C111.285 132.364 112.988 133.886 114.052 135.803C119.314 145.449 136.437 176.578 138.201 177.308C139.843 177.978 145.987 179.195 152.526 180.412C158.345 181.467 164.377 182.501 170.622 183.516L172.356 188.597Z" fill="#7FEEDF"/>
<path d="M105.415 193.74L102.647 193.77C102.667 193.75 102.677 193.74 102.677 193.74H105.415Z" fill="#7FEEDF"/>
<path d="M103.407 120.071C90.9782 119.827 84.8954 115.841 85.159 108.112C85.5848 96.488 83.4254 88.6372 95.3477 88.3633C107.27 88.1199 109.429 92.6234 110.251 96.5488C111.041 100.444 108.243 119.888 103.407 120.071Z" fill="#FDA6A4"/>
<path d="M155.172 188.932C154.107 188.932 153.043 188.932 151.948 188.932C144.679 188.902 137.501 188.658 134.46 187.867C131.479 187.076 120.013 179.316 110.859 169.914C112.136 164.964 113.059 162.083 113.626 161.272C114.448 160.024 117.732 172.074 125.427 176.973C133.122 181.872 145.135 185.311 150.975 183.911C154.929 182.968 155.324 186.528 155.172 188.932Z" fill="#178D7D"/>
<path d="M105.597 113.924C105.516 114.918 104.624 115.354 102.921 115.232C100.873 115.09 99.8084 114.553 99.7273 113.62C102.079 112.889 104.036 112.991 105.597 113.924Z" fill="white"/>
<path d="M100.731 118.306C90.1469 114.959 87.5617 104.947 87.5313 104.826L88.6566 104.552L88.1092 104.704L88.6566 104.552C88.687 104.643 91.1506 114.046 101.096 117.21C101.157 117.231 101.228 117.251 101.309 117.271L100.944 118.367C100.883 118.346 100.812 118.326 100.731 118.306Z" fill="#25DEBE"/>
<path d="M101.948 119.097L100.944 118.793C100.427 118.61 100.153 118.062 100.305 117.576C100.488 117.058 101.035 116.784 101.522 116.937L102.525 117.241C103.042 117.423 103.316 117.971 103.164 118.458C103.012 118.975 102.465 119.249 101.948 119.097Z" fill="#178D7D"/>
<path d="M104.441 86.8419C101.278 96.2546 97.3043 101.762 92.5192 103.365C87.7544 104.968 84.5812 104.826 82.9996 102.939C86.5074 99.7134 88.464 95.4838 88.8695 90.2499C96.5744 84.1235 101.765 82.9875 104.441 86.8419Z" fill="#E1473D"/>
<path d="M110.251 87.7548C113.17 90.818 113.211 94.5405 110.372 98.9223C110.22 96.2445 110.251 95.21 108.152 93.232C106.226 91.386 102.018 90.6354 95.5302 90.9803C102.262 85.5841 107.169 84.509 110.251 87.7548Z" fill="#E1473D"/>
<path d="M104.046 88.3329C102.424 97.3603 98.6426 103.507 92.7017 106.773C98.4601 100.89 101.39 95.0071 101.491 89.1241C101.593 83.2411 102.444 82.9774 104.046 88.3329Z" fill="#E1473D"/>
<path d="M99.3015 80.543C99.4434 80.543 99.6361 80.5633 99.8794 80.6039C98.3891 85.503 95.226 96.4271 93.6445 105.191C90.8769 105.708 88.2917 117.332 96.3514 119.097C89.6197 120.72 84.8752 120.416 82.1176 118.184C82.3407 118.894 82.5738 119.411 82.8172 119.736C77.4846 119.046 73.8552 117.687 71.929 115.658C69.07 112.616 78.0118 72.2663 99.3015 80.543Z" fill="#E1473D"/>
<path d="M89.4474 113.498L88.6566 113.62C85.2503 114.076 82.0568 111.672 81.5702 108.234L81.0227 104.217C80.5361 100.779 82.9388 97.5835 86.3756 97.127L87.1359 97.0053C90.5727 96.5489 93.7662 98.9528 94.2528 102.391L94.8002 106.408C95.2869 109.816 92.8538 113.011 89.4474 113.498Z" fill="#26D8C0"/>
<path d="M84.3987 98.8311C83.9425 97.9486 85.5544 91.2846 87.8963 86.142C89.052 83.6164 91.9109 80.2692 93.979 79.4172C94.709 79.1129 95.7126 79.2346 96.5034 79.4172C96.8886 79.4983 97.6287 79.8026 98.7236 80.33C91.9717 82.4297 86.1018 96.5793 86.5276 98.0399C86.5276 97.9993 86.5175 97.9689 86.4972 97.9486L84.3987 98.8311Z" fill="#26D8C0"/>
<path d="M87.8963 109.512L87.5009 109.542C85.7977 109.786 84.2162 108.599 83.9729 106.864L83.6992 104.886C83.4558 103.152 84.6724 101.57 86.3756 101.326L86.7406 101.296C88.4437 101.052 90.0557 102.239 90.2686 103.943L90.5727 105.951C90.7856 107.656 89.5995 109.268 87.8963 109.512Z" fill="#56FFE8"/>
<path d="M133.122 181.873C138.454 181.568 141.374 181.558 141.881 181.842C143.158 182.512 147.447 185.281 148.116 186.072C148.562 186.62 149.373 187.969 150.549 190.119C150.042 190.261 149.667 190.231 149.424 190.028C149.201 189.804 148.217 188.77 146.474 186.924L149.15 191.001C148.542 190.981 148.116 190.829 147.873 190.545C147.629 190.281 146.676 189.297 145.014 187.593L144.162 187.441C144.73 187.908 145.176 188.354 145.5 188.78C145.804 189.186 146.058 189.622 146.261 190.089C145.754 189.987 145.419 189.906 145.257 189.845C145.115 189.764 144.294 189.064 142.793 187.745L143.98 189.389C143.452 189.348 143.098 189.267 142.915 189.145C142.641 188.993 140.908 187.38 140.604 187.38C140.269 187.38 138.049 187.289 137.076 186.772C136.447 186.427 135.129 185.869 133.122 185.098V181.873Z" fill="#FDA6A4"/>
<path d="M101.065 157.499L93.0058 152.234V148.765L90.8464 150.287C85.4733 145.844 80.9213 138.856 77.1906 129.321C78.0016 128.51 80.1914 127.587 83.76 126.552C83.4761 129.433 89.2446 139.748 101.065 157.499Z" fill="#178D7D"/>
<path d="M108.334 179.256C106.266 187.015 102.799 193.527 102.677 193.74H105.415L102.647 193.77H77.1906C79.1573 193.77 80.1407 193.76 80.1407 193.74C80.0799 193.497 84.4595 181.629 77.1906 176.76C72.3446 173.515 69.0498 167.895 67.306 159.903L90.4206 154.243C96.767 163.514 100.842 169.031 102.647 170.796C104.046 172.156 106.358 172.886 109.581 172.987L108.334 179.256Z" fill="#178D7D"/>
<path d="M100.488 126.552C100.913 126.714 101.694 127.698 102.83 129.504C103.965 131.33 105.151 137.405 106.388 147.731L104.259 147.001L104.837 150.348C104.512 151.078 103.255 153.462 101.066 157.499C102.404 151.393 102.262 141.858 100.64 128.895L100.488 126.552Z" fill="#178D7D"/>
<path d="M172.356 188.597C165.482 188.841 158.68 188.953 151.948 188.932C150.285 186.336 150.478 183.496 152.526 180.412C158.345 181.467 164.377 182.501 170.622 183.516L172.356 188.597Z" fill="#FDA6A4"/>
<path d="M173.329 193.77H135.22C135.22 192.097 136.589 190.727 138.262 190.727H173.329V193.77Z" fill="#178D7D"/>
<path d="M232.15 152.234L218.007 193.77H158.7L173.238 152.234H232.15Z" fill="#178D7D"/>
<path d="M232.15 152.234L218.129 193.375L218.007 193.77H159.582L174.089 152.234H232.15Z" fill="#1DB49F"/>
<path d="M201.249 172.622C200.884 174.204 199.303 175.482 197.721 175.482C196.14 175.482 195.136 174.204 195.501 172.622C195.866 171.04 197.447 169.731 199.029 169.731C200.61 169.731 201.614 171.04 201.249 172.622Z" fill="#25DEBE"/>
<path d="M232.15 152.234L218.129 193.375H191.304L224.029 152.234H232.15Z" fill="#178D7D"/>
<path d="M133.122 185.098C120.044 186.254 109.886 186.67 102.647 186.346V175.665C107.392 176.984 117.55 179.053 133.122 181.873V185.098Z" fill="#FDA6A4"/>
<path d="M101.157 174.661C101.278 175.026 102.84 175.624 105.841 176.456C103.245 179.012 102.647 182.319 104.046 186.376C102.607 186.356 100.366 186.143 97.3246 185.737C90.3497 184.52 79.8873 175.371 65.9374 158.29C61.3348 144.15 60.1892 135.833 62.5007 133.338C64.8121 130.822 69.7088 129.483 77.1906 129.321C93.0464 159.182 101.035 174.296 101.157 174.661Z" fill="#7FEEDF"/>
<path d="M552.895 109.542C552.348 124.818 574.459 132.121 564.331 146.24C559.677 152.721 506.088 155.642 503.929 154.151C501.171 152.244 499.975 149.06 500.34 144.597C499.792 145.915 499.884 147.842 500.613 150.378C498.951 148.938 498.018 146.767 497.815 143.866C497.511 139.515 523.515 89.8543 527.591 85.1073C532.335 79.5692 538.489 78.21 546.052 81.0298C561.898 81.9122 553.199 100.718 552.895 109.542Z" fill="#148172"/>
<path d="M556.879 112.646L556.119 112.798C552.743 113.498 549.398 111.276 548.728 107.868L547.907 103.913C547.238 100.505 549.428 97.1573 552.834 96.4878L553.595 96.3357C556.971 95.6358 560.316 97.8572 561.016 101.265L561.806 105.221C562.506 108.629 560.286 111.976 556.879 112.646Z" fill="#26D8C0"/>
<path d="M605.511 193.679H569.957C563.935 184.094 558.613 171.161 557.396 161.12C556.788 156.312 557.123 152.204 558.735 149.374C562.04 143.511 561.066 137.152 555.815 130.295C563.053 132.344 567.504 136.35 569.167 142.314C570.89 148.38 574.053 161.515 578.656 181.72L605.055 187.167C605.866 189.236 606.018 191.407 605.511 193.679Z" fill="#7FEEDF"/>
<path d="M605.511 193.679H569.957C563.935 184.094 558.613 171.161 557.396 161.12L562.658 159.477C567.119 179.803 570.636 190.119 573.212 190.423C575.807 190.727 586.573 191.813 605.511 193.679Z" fill="#178D7D"/>
<path d="M561.076 144.718C558.339 147.092 554.811 149.222 550.279 150.804C533.278 156.829 524.945 142.832 521.265 132.973C523.515 131.329 525.705 130.782 526.982 130.477C528.229 130.203 529.537 129.96 530.632 129.777C532.426 128.043 534.647 121.562 534.221 111.946L535.072 112.068L549.245 114.289C549.164 117.251 549.174 120.121 549.276 122.9C549.397 126.156 549.702 129.26 550.401 129.96C551.131 130.021 551.719 130.082 552.165 130.143C552.408 130.447 557.123 136.563 561.076 144.718Z" fill="#FDA6A4"/>
<path d="M549.246 114.289C549.164 117.251 549.175 120.121 549.276 122.9C541.399 123.022 536.928 115.993 535.073 112.098L549.246 114.289Z" fill="#FC9290"/>
<path d="M567.828 159.476C567.798 159.781 563.996 172.135 563.966 172.439C563.073 179.316 561.837 186.427 560.255 193.77L555.054 193.74L520.687 193.679C523.464 185.341 521.204 174.782 513.904 162.002C513.539 161.373 513.164 160.734 512.779 160.085C511.745 158.381 514.502 148.41 521.052 130.173C523.91 129.666 527.357 129.25 531.392 128.925C531.97 129.443 536.137 144.779 543.74 145.236C550.33 145.641 552.378 140.154 549.884 128.773C553.929 129.564 555.358 129.869 560.559 132.364C565.547 149.323 567.97 158.361 567.828 159.476Z" fill="#7FEEDF"/>
<path d="M551.831 118.367C539.422 118.874 533.116 115.263 532.913 107.534C532.609 95.9098 529.993 88.1807 541.855 87.207C553.747 86.2028 556.18 90.5847 557.214 94.4492C558.278 98.2833 556.666 117.849 551.831 118.367Z" fill="#FDA6A4"/>
<path d="M553.656 112.068C553.635 113.062 552.773 113.559 551.07 113.559C549.022 113.538 547.927 113.062 547.786 112.129C550.077 111.256 552.033 111.236 553.656 112.068Z" fill="white"/>
<path d="M549.093 116.754C538.296 114.076 535.103 104.217 535.073 104.126L536.168 103.76L535.62 103.943L536.168 103.76C536.198 103.852 539.239 113.102 549.367 115.628C549.428 115.648 549.499 115.668 549.58 115.689L549.306 116.815C549.225 116.794 549.154 116.774 549.093 116.754Z" fill="#26D8C0"/>
<path d="M550.34 117.454L549.306 117.21C548.789 117.088 548.485 116.541 548.607 116.023C548.728 115.506 549.276 115.202 549.793 115.324L550.797 115.597C551.314 115.719 551.648 116.236 551.496 116.754C551.374 117.271 550.857 117.606 550.34 117.454Z" fill="#178D7D"/>
<path d="M541.277 79.9952C549.286 78.7375 554.943 81.4355 558.248 88.0894C562.019 95.6967 558.856 100.444 557.396 101.904C556.078 94.6216 554.203 90.6658 551.77 90.0369C550.188 89.5703 548.86 89.9557 547.785 91.1932C546.174 93.0798 543.862 101.448 541.186 102.726C535.63 104.085 532.72 103.801 532.457 101.874C532.031 98.9527 532.274 89.9456 534.373 88.485C535.772 87.5113 538.073 84.6813 541.277 79.9952Z" fill="#148172"/>
<path d="M537.506 112.646L536.745 112.798C533.339 113.498 530.024 111.276 529.324 107.868L528.533 103.913C527.834 100.505 530.054 97.1573 533.43 96.4878L534.19 96.3357C537.597 95.6358 540.942 97.8572 541.611 101.265L542.433 105.221C543.102 108.629 540.881 111.976 537.506 112.646Z" fill="#26D8C0"/>
<path d="M531.575 98.3136C531.058 97.492 530.328 90.828 532.366 85.5029C533.339 82.9468 534.92 81.4862 536.928 80.5124C537.658 80.1473 538.448 79.9647 539.27 79.9647L541.277 79.9952C534.677 82.4904 533.156 95.9705 533.673 97.4007C533.653 97.3601 533.633 97.3196 533.613 97.279L531.575 98.3136Z" fill="#26D8C0"/>
<path d="M535.711 108.751L535.316 108.842C533.643 109.177 531.97 108.051 531.636 106.377L531.24 104.399C530.906 102.695 532.001 101.052 533.673 100.687L534.069 100.626C535.742 100.292 537.414 101.387 537.749 103.061L538.175 105.069C538.509 106.743 537.384 108.416 535.711 108.751Z" fill="#56FFE8"/>
<path d="M520.687 193.679C523.465 185.341 521.204 174.782 513.904 162.002L517.98 156.89C522.785 170.522 528.189 179.327 534.19 183.303C543.193 189.236 553.777 187.989 555.054 193.74L520.687 193.679Z" fill="#178D7D"/>
<path d="M523.88 150.987C523.779 157.316 518.801 167.794 508.947 182.42L533.491 187.167C534.322 189.236 534.474 191.407 533.947 193.679H494.287C494.287 181.142 503.716 148.37 508.673 139.576C511.978 133.733 516.104 130.599 521.052 130.173C523.039 137.74 523.982 144.678 523.88 150.987Z" fill="#7FEEDF"/>
<path d="M534.191 189.662C539.361 189.155 542.372 189.013 543.223 189.236C544.501 189.601 548.15 191.092 548.972 191.64C549.519 191.985 550.31 192.665 551.344 193.679C550.695 193.801 550.178 193.821 549.793 193.74C549.215 193.618 547.451 193.496 546.995 193.466C546.691 193.425 545.981 193.527 544.866 193.77H532.883L534.191 189.662Z" fill="#FDA6A4"/>
<path d="M604.203 193.77H566.095C566.095 192.097 567.463 190.727 569.136 190.727H604.203V193.77Z" fill="#178D7D"/>
<path d="M663.024 152.234L648.882 193.77H589.605L604.112 152.234H663.024Z" fill="#178D7D"/>
<path d="M663.024 152.234L649.034 193.375L648.881 193.77H590.456L604.964 152.234H663.024Z" fill="#1DB49F"/>
<path d="M632.123 172.622C631.758 174.204 630.177 175.482 628.595 175.482C627.014 175.482 626.01 174.204 626.375 172.622C626.74 171.04 628.322 169.731 629.934 169.731C631.515 169.731 632.488 171.04 632.123 172.622Z" fill="#26D8C0"/>
<path d="M663.024 152.234L649.034 193.375H622.178L654.903 152.234H663.024Z" fill="#178D7D"/>
</g>
<defs>
<clipPath id="clip0_465_34">
<rect width="698" height="198" fill="white"/>
</clipPath>
</defs>
</svg>
