<svg width="154" height="120" viewBox="0 0 154 120" fill="none" xmlns="http://www.w3.org/2000/svg">
<path d="M23.278 115.28C9.51373 110.794 0.545229 96.7235 1.313 82.6641C2.06965 68.6048 12.5069 55.5806 26.0598 51.7847C33.7487 49.6252 42.0941 50.204 49.527 47.3098C64.2817 41.5547 71.047 24.2559 84.1993 15.4285C98.6757 5.73275 119.439 8.51568 132.625 19.9034C145.81 31.2912 151.674 49.7031 150.284 67.0797C148.893 84.4452 140.926 100.775 130.333 114.612C91.6322 113.777 57.4607 114.534 23.278 115.28Z" fill="#FDEEEB"/>
<path d="M69.389 17.6772C65.9173 31.3358 52.1753 41.6215 38.0994 41.1095C30.6553 40.8423 22.9553 37.4471 19.25 30.9907C15.5447 24.5232 17.2249 14.9722 23.801 11.488C29.4536 8.49353 36.5194 10.475 42.6282 8.58258C48.392 6.80151 52.9876 1.65865 59.0074 1.17999C62.3789 0.912826 65.8617 2.29316 68.1316 4.80893C70.4016 7.3247 71.136 10.8312 69.389 17.6772Z" fill="#FDEEEB"/>
<path fill-rule="evenodd" clip-rule="evenodd" d="M38.8116 56.0259C38.411 56.9053 37.8657 57.7068 37.2204 58.3858L38.9451 60.9907L35.7405 63.1057L34.0269 60.5009C33.1367 60.8348 32.202 61.0241 31.234 61.0463L30.6108 64.1075L26.8499 63.3395L27.473 60.2894C26.5828 59.8886 25.7928 59.3432 25.114 58.6864L22.5103 60.4118L20.3961 57.217L22.9999 55.4916C22.666 54.6122 22.4769 53.666 22.4546 52.6975L19.3947 52.0741L20.1624 48.3116L23.2224 48.935C23.623 48.0556 24.1571 47.2652 24.8025 46.5751L23.0889 43.9814L26.2824 41.8552L28.0071 44.46C28.8861 44.1261 29.8319 43.948 30.8 43.9146L31.4231 40.8645L35.173 41.6215L34.561 44.6827C35.44 45.0834 36.2301 45.6289 36.9199 46.2745L39.5126 44.5491L41.6267 47.755L39.0341 49.4693C39.3679 50.3487 39.5571 51.2949 39.5793 52.2634L42.6282 52.8868L41.8715 56.6493L38.8116 56.0259ZM35.7516 53.4434C36.2857 50.8274 34.5944 48.2671 31.9683 47.7328C29.3535 47.1985 26.7942 48.8905 26.2601 51.5176C25.7371 54.1335 27.4285 56.6938 30.0434 57.2281C32.6582 57.7625 35.2175 56.0704 35.7516 53.4434Z" fill="#26D8C0"/>
<path fill-rule="evenodd" clip-rule="evenodd" d="M52.409 68.6159C52.0418 69.217 51.5856 69.7402 51.0514 70.1854L52.0751 72.2003L49.5938 73.447L48.5701 71.4322C47.9136 71.5992 47.2126 71.6548 46.5116 71.588L45.8106 73.7253L43.1734 72.8571L43.8744 70.7086C43.2736 70.3524 42.7506 69.8849 42.3166 69.3617L40.2915 70.3858L39.0452 67.9034L41.0593 66.8793C40.9035 66.2225 40.8478 65.5212 40.9146 64.8199L38.7671 64.1186L39.635 61.4693L41.7825 62.1817C42.1497 61.5806 42.6059 61.0574 43.1289 60.6233L42.1163 58.5973L44.5977 57.3506L45.6103 59.3654C46.2779 59.2096 46.9678 59.1539 47.6688 59.2207L48.3809 57.0723L51.0181 57.9405L50.3059 60.089C50.9068 60.4563 51.4298 60.9127 51.8749 61.4359L53.8889 60.4118L55.1351 62.9053L53.1211 63.9183C53.288 64.5862 53.3436 65.2763 53.2769 65.9776L55.4244 66.6789L54.5454 69.3283L52.409 68.6159ZM50.4283 66.4897C51.0403 64.653 50.0389 62.6715 48.2029 62.0593C46.3558 61.4582 44.3752 62.46 43.7743 64.2968C43.1623 66.1335 44.1637 68.1261 45.9997 68.7272C47.8468 69.3394 49.8275 68.3376 50.4283 66.4897Z" fill="#26D8C0" stroke="#26D8C0" stroke-width="3"/>
<path fill-rule="evenodd" clip-rule="evenodd" d="M57.8168 52.0519C57.6276 52.4749 57.3828 52.8422 57.0824 53.165L57.8947 54.3673L56.4147 55.3802L55.6025 54.1669C55.1908 54.3339 54.7568 54.4229 54.3006 54.434L54.0224 55.87L52.2643 55.5361L52.5425 54.1001C52.1308 53.922 51.7525 53.666 51.4298 53.3654L50.228 54.1891L49.2266 52.7086L50.4283 51.8849C50.2725 51.473 50.1835 51.0389 50.1613 50.5825L48.737 50.3153L49.0708 48.5565L50.4951 48.8237C50.6843 48.4118 50.929 48.0444 51.2295 47.7216L50.4172 46.5083L51.8971 45.5064L52.7094 46.7086C53.1211 46.5528 53.5551 46.4637 54.0113 46.4415L54.2895 45.0166L56.0475 45.3506L55.7694 46.7865C56.1811 46.9647 56.5594 47.2096 56.8821 47.5101L58.0838 46.6975L59.0853 48.178L57.8835 49.0018C58.0393 49.4025 58.1394 49.8478 58.1506 50.293L59.586 50.5713L59.241 52.3301L57.8168 52.0519ZM56.3814 50.8608C56.615 49.6363 55.8139 48.4563 54.5899 48.2225C53.3659 47.9776 52.1753 48.7903 51.9416 50.0147C51.7079 51.2392 52.5091 52.4192 53.7331 52.653C54.9571 52.8979 56.1477 52.0964 56.3814 50.8608Z" fill="#26D8C0" stroke="#26D8C0" stroke-width="3"/>
<path fill-rule="evenodd" clip-rule="evenodd" d="M149.939 59.7773C149.794 60.7792 149.482 61.7365 149.026 62.6159L151.496 64.7198L148.915 67.7699L146.434 65.6549C145.643 66.2448 144.753 66.7012 143.785 67.0129L144.052 70.2523L140.058 70.5751L139.802 67.3358C138.8 67.191 137.843 66.8682 136.975 66.4118L134.872 68.8942L131.824 66.3005L133.927 63.8293C133.348 63.0389 132.881 62.1484 132.58 61.1799L129.331 61.4359L129.02 57.4508L132.258 57.1947C132.402 56.1929 132.714 55.2356 133.17 54.3673L130.689 52.2523L133.292 49.2022L135.763 51.3172C136.553 50.7272 137.443 50.2708 138.411 49.9703L138.144 46.7198L142.127 46.397L142.394 49.6474C143.396 49.7922 144.342 50.1038 145.221 50.5602L147.324 48.0779L150.373 50.6716L148.269 53.1539C148.848 53.9332 149.315 54.8237 149.616 55.7922L152.865 55.5361L153.177 59.5213L149.939 59.7773ZM146.133 58.0742C145.911 55.3024 143.474 53.2207 140.692 53.4434C137.921 53.666 135.84 56.1038 136.063 58.8868C136.297 61.6697 138.722 63.7402 141.504 63.5176C144.286 63.2949 146.356 60.8571 146.133 58.0742Z" fill="#26D8C0"/>
<path fill-rule="evenodd" clip-rule="evenodd" d="M114.009 20.9833C113.82 21.4063 113.575 21.7736 113.275 22.0964L114.087 23.2987L112.607 24.3116L111.795 23.0983C111.383 23.2653 110.949 23.3543 110.493 23.3766L110.215 24.8014L108.457 24.4675L108.735 23.0315C108.323 22.8534 107.945 22.5974 107.622 22.2968L106.42 23.1206L105.419 21.64L106.621 20.8163C106.465 20.4044 106.365 19.9703 106.353 19.5139L104.918 19.2467L105.263 17.4879L106.687 17.7551C106.876 17.3432 107.121 16.9758 107.422 16.653L106.598 15.4508L108.089 14.4378L108.902 15.64C109.313 15.4842 109.747 15.3951 110.204 15.3729L110.482 13.948L112.24 14.282L111.962 15.7179C112.373 15.8961 112.752 16.141 113.074 16.4415L114.276 15.6289L115.277 17.1094L114.076 17.9332C114.232 18.3339 114.332 18.7792 114.343 19.2244L115.767 19.5027L115.433 21.2616L114.009 20.9833ZM112.574 19.7922C112.807 18.5677 112.006 17.3877 110.782 17.1539C109.558 16.9202 108.368 17.7217 108.134 18.9461C107.9 20.1706 108.701 21.3506 109.925 21.5844C111.149 21.8293 112.34 21.0278 112.574 19.7922Z" stroke="#26D8C0" stroke-width="3"/>
<path d="M49.9832 6.50098C56.7263 6.50098 62.1897 11.9778 62.1897 18.7236C62.1897 25.4695 56.7263 30.9351 49.9832 30.9351C43.2291 30.9351 37.7656 25.4695 37.7656 18.7236C37.7656 11.9778 43.2291 6.50098 49.9832 6.50098Z" fill="#FF8B2E"/>
<path d="M49.9832 8.24854C55.7582 8.24854 60.4539 12.935 60.4539 18.7235C60.4539 24.512 55.7582 29.1984 49.9832 29.1984C44.1971 29.1984 39.5126 24.512 39.5126 18.7235C39.5126 12.935 44.1971 8.24854 49.9832 8.24854Z" fill="#FDFEFD"/>
<path d="M49.9832 8.77173L49.9722 10.1632" stroke="#212B3B" stroke-width="6"/>
<path d="M49.9944 27.2837L49.9722 28.664" stroke="#212B3B" stroke-width="6"/>
<path d="M40.0356 18.7124L41.4265 18.7235" stroke="#212B3B" stroke-width="6"/>
<path d="M58.54 18.7124L59.9198 18.7235" stroke="#212B3B" stroke-width="6"/>
<path d="M42.9508 11.677L43.9189 12.6677" stroke="#212B3B" stroke-width="3"/>
<path d="M56.0364 24.7678L57.0156 25.7585" stroke="#212B3B" stroke-width="3"/>
<path d="M42.9397 25.7586L43.9301 24.7791" stroke="#212B3B" stroke-width="3"/>
<path d="M56.0253 12.6564L57.0156 11.688" stroke="#212B3B" stroke-width="3"/>
<path d="M49.9832 17.8774C50.4395 17.8774 50.8178 18.2559 50.8178 18.7235C50.8178 19.1799 50.4395 19.5583 49.9832 19.5583C49.5159 19.5583 49.1376 19.1799 49.1376 18.7235C49.1376 18.2559 49.5159 17.8774 49.9832 17.8774Z" fill="#212B3B"/>
<path d="M111.094 36.0889V30.3226C111.094 27.8069 113.13 25.7698 115.645 25.7698H138.711C141.226 25.7698 143.262 27.8069 143.262 30.3226V36.0889C143.262 38.6046 141.226 40.6417 138.711 40.6417H115.645C113.13 40.6306 111.094 38.5935 111.094 36.0889Z" fill="white"/>
<path d="M133.359 38.4154L124.068 48.1333L125.114 38.2595L133.359 38.4154Z" fill="white"/>
<path d="M117.992 32.2261C118.938 32.2261 119.706 32.9496 119.706 33.8402C119.706 34.7307 118.938 35.4543 117.992 35.4543C117.047 35.4543 116.29 34.7307 116.29 33.8402C116.29 32.9496 117.047 32.2261 117.992 32.2261Z" fill="#0A4494"/>
<path d="M127.306 32.2261C128.252 32.2261 129.02 32.9496 129.02 33.8402C129.02 34.7307 128.252 35.4543 127.306 35.4543C126.36 35.4543 125.592 34.7307 125.592 33.8402C125.592 32.9496 126.36 32.2261 127.306 32.2261Z" fill="#0A4494"/>
<path d="M136.363 32.2261C137.309 32.2261 138.066 32.9496 138.066 33.8402C138.066 34.7307 137.309 35.4543 136.363 35.4543C135.418 35.4543 134.65 34.7307 134.65 33.8402C134.65 32.9496 135.418 32.2261 136.363 32.2261Z" fill="#0A4494"/>
<path d="M84.8669 3.76245C92.3221 3.76245 98.3753 9.87377 98.3753 17.3988C98.3753 24.935 92.3221 31.0352 84.8669 31.0352C77.4006 31.0352 71.3474 24.935 71.3474 17.3988C71.3474 9.87377 77.4006 3.76245 84.8669 3.76245Z" fill="#FDEEEB"/>
<path d="M85.7571 4.85327C93.2234 4.85327 99.2766 10.9535 99.2766 18.4785C99.2766 26.0147 93.2234 32.1148 85.7571 32.1148C78.3019 32.1148 72.2487 26.0147 72.2487 18.4785C72.2487 10.9535 78.3019 4.85327 85.7571 4.85327Z" fill="white"/>
<path fill-rule="evenodd" clip-rule="evenodd" d="M82.074 25.4802C81.1282 26.4153 79.6149 26.4041 78.6914 25.4468C77.7567 24.5006 77.7678 22.9644 78.7025 22.0405C79.6483 21.1054 81.1616 21.1277 82.0851 22.0739C83.0086 23.0312 83.0086 24.5563 82.074 25.4802ZM81.5733 24.9681L82.0072 23.3429L80.8278 22.1295L79.2032 22.5526L78.7581 24.1778L79.9487 25.3911L81.5733 24.9681Z" fill="#26D8C0"/>
<path d="M92.756 14.9831C91.7657 15.9627 90.2191 15.9849 89.2955 15.0388C88.3608 14.0814 88.4053 12.5119 89.3956 11.5434C90.0633 10.8755 90.998 10.6529 91.8214 10.8866L89.952 12.7456C89.6627 13.035 89.6627 13.5026 89.9409 13.792L90.5306 14.3931C90.8199 14.6825 91.2761 14.6937 91.5654 14.4042L93.4459 12.5452C93.6685 13.369 93.4237 14.3152 92.756 14.9831Z" fill="#26D8C0"/>
<path d="M82.3076 23.5212L80.761 21.9405C83.298 19.1056 85.9907 16.4303 88.8393 13.9146L90.386 15.5064C87.8267 18.319 85.1339 20.9906 82.3076 23.5212Z" fill="#26D8C0"/>
<path d="M92.667 25.8699L92.7227 35.0535L87.7934 29.5656L92.667 25.8699Z" fill="white"/>
<path d="M113.697 113.555C115.133 105.852 117.136 98.1595 120.452 90.8683C123.767 83.5881 128.441 76.6753 134.728 71.1206C137.109 69.0278 140.358 66.9907 143.451 67.8701C146.545 68.7607 147.747 72.167 147.479 75.1169C147.012 80.2486 143.552 84.846 139.935 88.9536C132.28 97.6586 123.4 105.451 113.697 113.555Z" fill="#FFD6D0"/>
<path d="M143.997 70.7642C132.68 83.6658 122.71 97.6807 114.276 112.53" stroke="#CC8F8D" stroke-width="3" stroke-linecap="round"/>
<path d="M146.812 75.1947C144.787 74.6158 142.628 74.4822 140.536 74.8162C140.325 72.8793 139.857 70.9646 139.145 69.1501" stroke="#CC8F8D" stroke-width="3" stroke-linecap="round"/>
<path d="M142.572 84.6343C139.501 83.6102 136.13 83.4209 132.959 84.0888C132.625 81.5731 131.579 79.1463 129.954 77.176" stroke="#CC8F8D" stroke-width="3" stroke-linecap="round"/>
<path d="M133.893 94.6196C130.855 94.4081 127.807 94.5973 124.825 95.1984C124.669 92.9721 123.923 90.8014 122.677 88.9424" stroke="#CC8F8D" stroke-width="3" stroke-linecap="round"/>
<path d="M124.491 101.944C122.811 102.245 121.164 102.723 119.584 103.358C119.361 102.145 118.872 100.976 118.171 99.9517" stroke="#CC8F8D" stroke-width="3" stroke-linecap="round"/>
<path d="M111.439 115.28C118.604 108.512 125.948 101.622 135.284 96.9797C137.676 95.7886 140.291 94.7423 143.04 94.6643C145.788 94.5864 148.681 95.7441 149.527 97.848C150.35 99.8962 149.026 102.278 146.99 103.77C144.954 105.273 142.328 106.085 139.779 106.854C130.511 109.67 121.242 112.475 111.439 115.28Z" fill="#FFD6D0"/>
<path d="M147.546 98.4827C134.828 101.533 122.877 107.01 112.785 114.434" stroke="#CC8F8D" stroke-width="3" stroke-linecap="round"/>
<path d="M145.109 103.102C144.675 101.744 143.607 100.542 142.216 99.8184C142.673 98.5717 142.895 97.2581 142.873 95.9446" stroke="#CC8F8D" stroke-width="3" stroke-linecap="round"/>
<path d="M137.376 106.13C136.719 104.739 135.651 103.514 134.294 102.601C134.85 101.154 135.217 99.6515 135.362 98.1265" stroke="#CC8F8D" stroke-width="3" stroke-linecap="round"/>
<path d="M130.299 108.39C129.453 107.265 128.096 106.453 126.594 106.163C126.839 104.995 126.839 103.792 126.616 102.624" stroke="#CC8F8D" stroke-width="3" stroke-linecap="round"/>
<path d="M123.033 111.507C122.132 110.683 120.863 110.171 119.561 110.104C119.873 109.436 119.94 108.501 119.851 108.1" stroke="#CC8F8D" stroke-width="3" stroke-linecap="round"/>
<path d="M115.478 61.514C116.802 57.5065 118.671 53.5103 121.653 51.3618C124.635 49.2245 128.953 49.6809 130.744 53.3099C132.469 56.8052 131.323 61.4027 130.121 65.2876C124.836 82.2412 118.994 98.9277 112.629 115.28C111.617 99.5733 109.536 79.3915 115.478 61.514Z" fill="#FFD6D0"/>
<path d="M126.583 52.6196C118.883 67.1243 115.3 88.4527 113.063 114.891" stroke="#CC8F8D" stroke-width="3" stroke-linecap="round"/>
<path d="M128.085 66.9906C125.259 67.2911 122.488 68.293 119.973 69.9182C119.027 67.6808 117.725 65.7104 116.157 64.1409" stroke="#CC8F8D" stroke-width="3" stroke-linecap="round"/>
<path d="M124.413 78.4228C121.82 79.2688 119.361 80.7494 117.236 82.7531C115.901 80.7716 114.365 79.0128 112.651 77.5657" stroke="#CC8F8D" stroke-width="3" stroke-linecap="round"/>
<path d="M119.973 90.8347C118.237 91.5805 116.59 92.6492 115.111 93.9961C114.41 92.8718 113.542 91.9145 112.562 91.1687" stroke="#CC8F8D" stroke-width="3" stroke-linecap="round"/>
<path d="M130.199 59.0536C127.873 58.408 125.359 58.831 123.278 60.2225C123.011 57.9071 121.965 55.7475 120.418 54.3672" stroke="#CC8F8D" stroke-width="3" stroke-linecap="round"/>
<path d="M70.1902 56.2043C77.1335 70.6199 81.8514 86.1042 84.1103 101.945" stroke="#FFD6D0" stroke-width="6" stroke-linecap="round"/>
<path d="M70.346 56.8054C67.2526 56.1041 64.6711 53.8332 63.6919 50.9501C63.4026 50.0819 63.3358 48.9464 64.1259 48.3898C64.927 47.8444 66.0286 48.2563 66.7964 48.7906C69.4669 50.6496 71.0803 53.7776 70.346 56.8054Z" fill="#FFD6D0"/>
<path d="M71.6701 59.1096C70.9579 56.271 71.0025 53.2543 71.7702 50.438C71.8815 50.0372 72.015 49.6365 72.2598 49.3025C72.5046 48.9686 72.8829 48.7014 73.2947 48.7014C73.7064 48.7014 74.0958 48.9574 74.3295 49.3025C74.5632 49.6365 74.6744 50.0484 74.7412 50.4602C75.0082 51.9964 74.7301 53.5882 74.1737 55.0465C73.6285 56.5159 72.8051 57.8517 71.6701 59.1096Z" fill="#FFD6D0"/>
<path d="M73.8288 63.54C73.6507 60.835 74.1737 58.0966 75.3198 55.6476C75.7871 54.6347 76.388 53.6439 77.2782 52.9538C77.7455 52.5976 78.3909 52.3304 78.925 52.5864C79.3367 52.7868 79.5704 53.2655 79.5926 53.7219C79.6149 54.1894 79.4591 54.6347 79.3033 55.0688C78.0905 58.3193 76.0431 61.2469 73.8288 63.54Z" fill="#FFD6D0"/>
<path d="M75.5646 67.6589C75.3087 64.4195 77.1113 61.1245 79.9709 59.5995C80.5829 59.2655 81.3729 59.0206 81.9515 59.4102C82.4189 59.7108 82.5969 60.3342 82.519 60.8796C82.43 61.4362 82.1296 61.926 81.818 62.3824C80.2491 64.6978 78.1461 66.657 75.5646 67.6589Z" fill="#FFD6D0"/>
<path d="M77.1113 72.7794C77.3227 69.2952 79.4925 66.0113 82.6081 64.4306C83.0977 64.1857 83.7097 63.9853 84.177 64.2859C84.6221 64.5753 84.7 65.2098 84.6221 65.7442C84.4441 66.9575 83.7097 68.015 82.8974 68.9501C81.3507 70.7312 79.4925 72.2451 77.1113 72.7794Z" fill="#FFD6D0"/>
<path d="M78.7692 76.9872C79.6149 73.6699 82.1074 70.7979 85.2786 69.4955C85.8016 69.284 86.4136 69.117 86.9254 69.3508C87.4373 69.5846 87.7155 70.1857 87.6932 70.7534C87.6821 71.31 87.4373 71.8443 87.1368 72.323C86.2244 73.7701 84.8335 74.8833 83.3314 75.707C81.8181 76.5196 80.1935 77.0762 78.7692 76.9872Z" fill="#FFD6D0"/>
<path d="M65.45 59.8556C64.5042 59.5773 63.4916 59.1543 63.0354 58.2749C62.6905 57.5958 62.8351 56.6162 63.5027 56.26C63.8588 56.0708 64.2928 56.0819 64.6934 56.1264C67.5975 56.4159 70.3348 58.0968 71.9149 60.5457C69.1331 60.6571 67.2526 60.3788 65.45 59.8556Z" fill="#FFD6D0"/>
<path d="M66.8298 65.1098C66.0509 65.0208 65.1607 64.8538 64.7935 64.1636C64.4597 63.5625 64.7045 62.7499 65.2052 62.2712C65.717 61.7925 66.4292 61.6033 67.1191 61.5143C69.9676 61.1692 72.9497 62.6497 74.3962 65.1209C71.4364 65.3992 69.122 65.3436 66.8298 65.1098Z" fill="#FFD6D0"/>
<path d="M68.2318 70.1301C67.7978 70.1079 67.3528 70.0856 66.9522 69.9298C66.5516 69.7628 66.1844 69.4511 66.0843 69.0281C65.9619 68.5383 66.24 68.0151 66.6517 67.7145C67.0523 67.414 67.5642 67.3027 68.0649 67.2248C71.0692 66.8129 74.2405 68.004 76.2434 70.2971C73.4059 70.3862 70.8244 70.2526 68.2318 70.1301Z" fill="#FFD6D0"/>
<path d="M70.1345 74.8276C69.6338 74.7719 69.122 74.7051 68.688 74.4602C68.254 74.2153 67.9091 73.7255 67.9981 73.2357C68.0871 72.7348 68.5545 72.3897 69.0218 72.1782C70.6241 71.4324 72.5603 71.566 74.1737 72.2784C75.7983 73.002 77.1335 74.271 78.1684 75.707C74.1626 75.2728 72.1486 75.0502 70.1345 74.8276Z" fill="#FFD6D0"/>
<path d="M71.3919 79.8482C70.6575 79.7814 69.8007 79.6478 69.4335 79.0133C69.0552 78.3788 69.3779 77.5106 69.9676 77.0764C70.5685 76.6423 71.3363 76.5532 72.0707 76.5532C74.8636 76.5866 77.6231 77.889 79.4035 80.0375C75.1195 80.1822 73.2501 80.0152 71.3919 79.8482Z" fill="#FFD6D0"/>
<path d="M72.3043 84.6905C71.8036 84.735 71.2472 84.7573 70.8689 84.4234C70.3571 83.9892 70.4906 83.0875 70.9802 82.62C71.4698 82.1413 72.1708 81.9855 72.8496 81.8853C75.4422 81.5068 78.3464 81.7962 80.2825 83.5773C76.9666 84.312 74.641 84.5013 72.3043 84.6905Z" fill="#FFD6D0"/>
<path d="M73.8287 89.6216C73.0387 89.6884 72.0595 89.5994 71.7257 88.887C71.492 88.386 71.7146 87.7626 72.104 87.3842C72.5046 86.9946 73.0387 86.7942 73.5617 86.6272C74.9192 86.1931 76.3546 85.9036 77.7678 86.0372C79.192 86.1597 80.6052 86.7608 81.5176 87.8517C78.2574 88.8536 76.0542 89.4324 73.8287 89.6216Z" fill="#FFD6D0"/>
<path d="M74.641 94.1857C74.1848 94.1857 73.7063 94.1523 73.2835 93.9631C72.8718 93.7627 72.5157 93.3731 72.4824 92.9056C72.4378 92.1709 73.1834 91.6366 73.8844 91.3694C76.6773 90.2896 79.9042 90.9687 82.5413 92.4047C79.3033 93.5512 77 94.1969 74.641 94.1857Z" fill="#FFD6D0"/>
<path d="M75.9095 99.3175C75.2085 99.3286 74.4074 99.2618 73.9846 98.7052C73.5728 98.1598 73.7286 97.3472 74.1626 96.824C74.6077 96.3119 75.2642 96.0447 75.9207 95.8555C78.2462 95.1876 80.8277 95.4102 83.0087 96.49C79.9376 98.8722 77.9347 99.2507 75.9095 99.3175Z" fill="#FFD6D0"/>
<path d="M80.2269 81.6513C80.8166 79.0131 82.8084 76.72 85.3454 75.7738C86.0019 75.5178 86.714 75.3619 87.4039 75.5066C88.0938 75.6513 88.728 76.1745 88.8504 76.8647C88.9283 77.4102 88.6835 77.9667 88.3163 78.3786C87.938 78.7794 87.4484 79.0576 86.9588 79.3248C85.1117 80.3155 83.1533 81.117 80.2269 81.6513Z" fill="#FFD6D0"/>
<path d="M81.1949 86.694C82.1519 83.4881 84.8446 80.861 88.0604 79.9927C88.4721 79.8814 88.9283 79.8146 89.2732 80.0484C89.7628 80.3935 89.6961 81.1393 89.4624 81.6847C88.8615 83.0317 87.6042 83.9667 86.3134 84.668C85.0115 85.3582 83.6207 85.8925 81.1949 86.694Z" fill="#FFD6D0"/>
<path d="M82.0406 90.3899C82.5858 89.0986 83.5873 88.0188 84.789 87.273C85.9796 86.5383 87.3594 86.1153 88.7503 85.926C89.2621 85.8481 89.7962 85.8147 90.2858 85.9706C90.7754 86.1264 91.2205 86.5383 91.2762 87.0503C91.3207 87.4622 91.1092 87.8852 90.7977 88.1746C90.4973 88.4641 90.1078 88.6422 89.7184 88.798C87.5263 89.6886 85.1562 90.0114 82.0406 90.3899Z" fill="#FFD6D0"/>
<path d="M83.0198 94.8647C84.7667 92.1486 87.6153 89.9445 90.8422 89.822C91.6545 89.7886 92.6337 90.0113 92.9007 90.7794C93.0565 91.2692 92.8451 91.8258 92.4779 92.1931C92.1107 92.5604 91.6211 92.7608 91.1315 92.9278C88.3942 93.8295 85.2118 93.7404 83.0198 94.8647Z" fill="#FFD6D0"/>
<path d="M7.4552 102.613C26.9389 101.143 46.7675 104.538 64.6599 112.42" stroke="#FFD6D0" stroke-width="6" stroke-linecap="round"/>
<path d="M3.14899 105.262C2.53699 105.295 1.82485 105.229 1.49104 104.716C1.25737 104.36 1.27962 103.882 1.45766 103.503C1.63569 103.125 1.94725 102.824 2.28107 102.557C4.65115 100.676 8.26748 100.553 10.7488 102.29C8.62355 103.926 5.97529 105.128 3.14899 105.262Z" fill="#FFD6D0"/>
<path d="M12.9186 108.023C12.5737 108.345 12.1731 108.646 11.7169 108.791C11.2496 108.924 10.7043 108.869 10.3483 108.546C9.9922 108.234 9.8698 107.733 9.92543 107.266C9.98107 106.798 10.1925 106.375 10.4373 105.974C11.5834 104.126 13.4861 102.768 15.6003 102.279C15.8006 103.369 14.8325 106.219 12.9186 108.023Z" fill="#FFD6D0"/>
<path d="M18.3376 110.405C17.8035 110.906 17.0134 111.395 16.4014 110.995C15.8228 110.627 15.8785 109.781 16.0565 109.136C16.9801 105.941 19.7173 103.347 22.9553 102.613C22.2321 105.607 20.5853 108.279 18.3376 110.405Z" fill="#FFD6D0"/>
<path d="M24.6689 111.039C24.3574 111.44 24.0235 111.841 23.5896 112.086C23.1445 112.342 22.577 112.431 22.1431 112.175C21.6423 111.885 21.442 111.24 21.5311 110.661C21.6201 110.093 21.9316 109.581 22.2543 109.102C24.0124 106.442 26.3046 104.004 29.2756 102.846C27.8402 106.331 26.4159 108.802 24.6689 111.039Z" fill="#FFD6D0"/>
<path d="M31.5344 110.093C31.3452 110.627 31.1561 111.173 30.7889 111.585C30.4217 112.008 29.8319 112.286 29.2978 112.119C28.875 111.986 28.5634 111.596 28.4299 111.162C28.3075 110.739 28.3186 110.271 28.3854 109.837C28.786 106.999 30.8556 104.449 33.5595 103.503C33.0588 105.629 32.3022 107.867 31.5344 110.093Z" fill="#FFD6D0"/>
<path d="M38.0327 108.902C37.7656 110.293 37.1981 111.651 36.2189 112.676C35.9519 112.954 35.5958 113.232 35.2175 113.165C34.7724 113.099 34.5165 112.631 34.3941 112.197C33.9823 110.739 34.2828 109.136 34.917 107.755C35.5513 106.364 36.4971 105.151 37.4429 103.959C38.2775 106.097 38.2997 107.522 38.0327 108.902Z" fill="#FFD6D0"/>
<path d="M42.9509 111.818C42.7839 112.375 42.5614 112.943 42.1497 113.355C41.738 113.767 41.0704 113.978 40.5585 113.711C40.1134 113.488 39.8798 112.987 39.8464 112.497C39.813 112.008 39.9576 111.529 40.1023 111.061C40.4695 109.893 40.8812 108.735 41.5266 107.7C42.1831 106.664 43.0844 105.752 44.2082 105.273C43.8299 107.867 43.5629 109.904 42.9509 111.818Z" fill="#FFD6D0"/>
<path d="M13.297 101.956C11.1828 101.299 9.36907 99.7406 8.40101 97.748C8.27861 97.5031 8.16734 97.2249 8.20072 96.9466C8.26748 96.4679 8.74595 96.1451 9.22442 96.056C10.1035 95.9002 11.0159 96.3566 11.6168 97.0245C12.2065 97.6924 12.5403 98.5495 12.8185 99.4067C13.0855 100.264 13.3192 101.143 13.297 101.956Z" fill="#FFD6D0"/>
<path d="M19.5282 102.49C17.8257 101.488 16.4126 99.9966 15.5224 98.2267C15.3221 97.826 15.1552 97.4029 15.1218 96.9577C15.0884 96.5124 15.2331 96.0449 15.578 95.7555C15.9564 95.4438 16.5238 95.4215 16.9801 95.5885C17.4363 95.7666 17.8146 96.1117 18.1484 96.4679C19.3835 97.8259 20.129 99.6182 19.5282 102.49Z" fill="#FFD6D0"/>
<path d="M26.1933 102.624C23.8678 101.243 22.4101 98.5049 22.577 95.7999C22.5993 95.4326 22.6883 95.0096 23.011 94.8537C23.2558 94.7313 23.5674 94.8092 23.7899 94.9762C24.0013 95.1432 24.1571 95.3769 24.2906 95.6218C25.3143 97.414 26.0376 99.3732 26.1933 102.624Z" fill="#FFD6D0"/>
<path d="M32.113 103.091C30.2214 101.989 28.964 99.852 28.9084 97.659C28.8973 96.9355 29.0753 96.1006 29.7207 95.7666C30.1769 95.5329 30.7444 95.633 31.1783 95.9113C31.6012 96.1785 31.9127 96.6126 32.1686 97.0468C33.2591 98.8946 33.6152 101.154 32.113 103.091Z" fill="#FFD6D0"/>
<path d="M36.8977 104.138C35.9519 103.625 35.3288 102.624 35.0617 101.577C34.7947 100.531 34.828 99.4288 34.9059 98.349C34.9393 97.7145 35.0061 97.0578 35.3176 96.5012C35.6292 95.9446 36.2746 95.5327 36.8977 95.6885C37.5542 95.8444 37.9102 96.5457 38.1217 97.1802C38.8338 99.4399 38.6335 101.956 36.8977 104.138Z" fill="#FFD6D0"/>
<path d="M42.2276 105.006C40.7588 102.846 40.6698 99.8185 42.0051 97.5699C42.261 97.1246 42.6727 96.6682 43.1846 96.7239C43.663 96.7795 43.9635 97.2359 44.1526 97.6701C45.2097 100.086 44.6978 103.091 42.2276 105.006Z" fill="#FFD6D0"/>
<path d="M90.0633 91.1023C87.1109 100.497 84.4107 106.279 81.9627 108.445C80.1527 110.041 72.5009 111.325 59.0074 112.297L57.3049 103.759C68.3431 102.26 74.3109 100.883 75.2085 99.6292C76.5549 97.7479 78.6468 84.2451 81.9627 77.2989C82.9419 75.2581 84.967 73.5735 88.0381 72.2451L89.7629 78.0893L90.0633 91.1023Z" fill="#F7746F"/>
<path d="M100.734 43.0353C101.313 40.642 103.894 39.0167 106.342 39.2171C108.801 39.4175 110.96 41.2208 111.95 43.4806C112.93 45.7403 112.829 48.3674 112.028 50.7051C111.494 52.2746 110.637 53.9666 111.249 55.5251C111.695 56.6717 112.852 57.3952 113.987 57.8961C115.122 58.3971 116.346 58.7867 117.269 59.6216C118.193 60.4453 118.705 61.9147 118.015 62.95C117.024 64.4527 114.276 64.1633 113.664 65.8553C113.341 66.7125 113.786 67.6587 113.731 68.5715C113.675 69.718 112.796 70.7088 111.761 71.2097C110.726 71.7106 109.558 71.8108 108.401 71.8331C106.376 71.8887 104.273 71.7106 102.515 70.7088C100.768 69.6958 99.4769 67.6475 99.8997 65.6661C100.245 64.052 101.647 62.5492 101.157 60.9574C100.801 59.8108 99.5993 59.1986 98.7425 58.3637C96.9177 56.6049 96.6284 53.6884 97.3739 51.2616C98.0971 48.8238 99.833 46.7978 100.734 43.0353Z" fill="#6B2E40"/>
<path d="M103.227 68.0148C100.345 72.4674 95.2374 77.4879 93.4126 77.243C91.9104 77.0426 90.3637 74.9387 90.3637 71.1984C90.5751 71.1205 90.7865 70.9981 90.998 70.8422C91.4319 70.4971 91.8325 69.9962 92.0662 69.3951C92.1329 69.2504 92.1774 69.0834 92.2108 68.9276C92.4445 67.8812 92.1552 66.6789 91.5209 65.9665C91.4876 65.9331 91.4542 65.8997 91.4208 65.8663C93.8576 63.6511 96.2945 62.0815 98.7313 60.512C98.8204 61.9702 99.1319 63.3172 99.666 64.486C99.7921 64.7532 99.9294 65.0129 100.078 65.2652C100.857 66.5676 101.98 67.5472 103.227 68.0148Z" fill="#FAC8BF"/>
<path d="M99.6549 64.475C97.8634 66.9574 94.7701 70.898 90.9868 70.8424C91.4319 70.4973 91.8325 69.9852 92.0662 69.3952C92.1218 69.2394 92.1663 69.0835 92.1997 68.9277C92.4334 67.8813 92.1552 66.6791 91.5098 65.9667C91.4764 65.9333 91.4431 65.8887 91.4097 65.8553C93.8577 63.6401 96.2945 62.0705 98.7202 60.501C98.8204 61.9704 99.1319 63.3173 99.6549 64.475Z" fill="#EDA19F"/>
<path d="M112.284 73.8701C113.542 78.1558 110.07 93.3617 110.381 100.163C110.582 104.705 111.209 109.113 112.262 113.388L82.4634 113.466C83.9174 108.642 84.6444 105.228 84.6444 103.224C84.6444 100.208 81.729 96.5899 81.4286 91.0463C81.2617 87.974 83.1867 76.2189 84.7556 74.2819C85.6532 73.1613 87.6672 71.8664 90.7977 70.397C90.4787 74.4415 91.2576 76.4192 93.1344 76.3302C96.4132 76.1669 99.4249 73.1613 102.17 67.3135C108.319 69.6808 111.691 71.8663 112.284 73.8701Z" fill="#FF9185"/>
<path d="M93.0231 76.3414C97.3256 74.6791 100.289 71.5548 101.914 66.9685C104.273 67.6438 105.526 68.1744 105.675 68.5603C106.053 69.5399 104.395 76.5418 102.303 77.5882C101.101 78.1893 98.0081 77.7737 93.0231 76.3414Z" fill="#F25C61"/>
<path d="M85.4789 78.4341C84.7556 77.9109 87.3371 72.6011 88.8282 71.243C89.5032 70.6345 90.4713 70.115 91.7324 69.6846C91.176 72.0816 91.6063 74.2968 93.0231 76.3302C88.3275 77.9777 85.8127 78.679 85.4789 78.4341Z" fill="#F25C61"/>
<path d="M92.6225 78.4788C93.1121 78.4788 93.5127 78.8684 93.5127 79.3693C93.5127 79.8591 93.1121 80.2598 92.6225 80.2598C92.1218 80.2598 91.7324 79.8591 91.7324 79.3693C91.7324 78.8684 92.1218 78.4788 92.6225 78.4788Z" fill="#BF4753"/>
<path d="M91.9883 83.9556C92.4779 83.9556 92.8785 84.3563 92.8785 84.8572C92.8785 85.347 92.4779 85.7478 91.9883 85.7478C91.4987 85.7478 91.0981 85.347 91.0981 84.8572C91.0981 84.3563 91.4987 83.9556 91.9883 83.9556Z" fill="#BF4753"/>
<path d="M81.4063 51.6624C83.4982 51.2951 85.6124 53.4324 86.1465 56.4268C86.6695 59.4212 85.3899 62.1485 83.298 62.5159C81.2061 62.8832 79.0808 60.7459 78.5578 57.7515C78.0348 54.757 79.3033 52.0298 81.4063 51.6624Z" fill="#0387D9"/>
<path d="M91.3541 67.5251C85.312 68.7051 81.284 62.2375 81.284 52.1299C81.284 44.6271 88.027 39.3062 94.2471 40.1077C100.478 40.9091 104.773 47.5993 103.839 55.0353C102.904 62.4824 97.1513 66.3897 91.3541 67.5251Z" fill="#FAC8BF"/>
<path d="M102.682 54.0891C100.656 53.7552 98.8204 52.4305 97.8523 50.6272C98.0637 51.7849 97.5741 53.0539 96.6395 53.7663C96.2834 54.0335 95.8049 54.2338 95.3821 54.0669C95.0705 53.9333 94.8591 53.6216 94.7145 53.3099C94.1804 52.2079 94.0357 50.9277 94.2916 49.7255C93.4015 51.796 91.4431 53.3656 89.2399 53.7997C88.639 53.911 87.938 53.911 87.5263 53.4658C87.1814 53.0984 87.1591 52.5196 87.326 52.0409C87.4929 51.5622 87.8267 51.1726 88.1606 50.7941C86.102 52.2413 83.4871 52.8758 80.9947 52.5418C81.8181 49.1133 83.91 45.9518 86.9143 44.104C89.9186 42.2672 93.8465 41.8888 97.0178 43.4249C100.189 44.9611 102.381 48.4899 102.036 51.9964" fill="#EDA19F"/>
<path d="M102.993 58.4861C102.782 57.2505 102.381 55.8367 101.847 54.3562C99.9442 52.9425 98.5088 50.9165 97.5074 48.757C97.5074 48.8349 97.5074 48.9128 97.5074 48.9907C97.4517 50.705 96.2389 53.9889 95.7048 53.6549C94.8257 53.1095 94.9592 47.1317 94.592 43.8701C94.848 45.8738 94.5698 47.9889 93.6128 49.7588C92.6559 51.5399 90.9423 52.9425 88.9617 53.321C88.6946 53.3655 88.3942 53.3878 88.2162 53.1985C87.9936 52.9536 88.1049 52.564 88.2273 52.2746C89.2287 49.9258 90.2191 47.5881 91.1983 45.2505C90.4193 47.0538 89.5292 48.8238 88.0048 49.9926C86.3023 51.3061 84.0324 51.8961 81.4954 51.8627C81.2839 53.3878 81.3173 54.7458 81.4731 55.8813C80.8277 54.6902 80.416 53.41 80.2157 52.1076C79.7039 48.757 80.6052 45.2282 82.6415 42.5455C85.4678 38.8386 90.5084 36.9685 95.0705 37.9147C96.0497 37.9703 97.0066 38.1373 97.9079 38.4156C101.558 39.5065 104.529 42.2672 105.797 45.718C107.388 50.0371 106.242 55.2245 102.993 58.4861Z" fill="#904B57"/>
<path d="M97.9079 38.4045C94.0023 38.1485 90.0299 38.9611 86.7585 41.0761C83.0309 43.4806 80.3938 47.6995 80.2157 52.0965C79.7039 48.7459 80.6052 45.2171 82.6415 42.5455C85.4678 38.8387 90.5084 36.9574 95.0705 37.9147C96.0386 37.9704 96.9955 38.1374 97.9079 38.4045Z" fill="#BD7D81"/>
<path d="M101.502 53.6662C101.962 48.3156 100.653 44.4194 97.5741 41.9779C93.8502 39.0168 89.4772 38.5716 84.4552 40.6421C84.1585 39.9297 85.5531 39.0948 88.639 38.1374C90.8978 37.425 96.4058 36.7348 100.189 40.2413C103.201 43.0391 104.614 46.8833 104.428 51.7738L101.502 53.6662Z" fill="#0A4494"/>
<path d="M99.4435 56.271C99.8441 53.2543 101.869 51.0279 103.983 51.3062C106.086 51.5845 107.477 54.2561 107.077 57.2728C106.687 60.2895 104.651 62.5047 102.548 62.2264C100.434 61.9481 99.054 59.2765 99.4435 56.271Z" fill="#0387D9"/>
<path d="M102.181 56.6272C102.537 53.9333 103.928 51.8962 105.296 52.0743C106.665 52.2636 107.488 54.5901 107.132 57.2728C106.776 59.9667 105.385 62.0038 104.017 61.8257C102.648 61.6365 101.825 59.3099 102.181 56.6272Z" fill="#75C0E0"/>
<path d="M95 54.6903C93.7285 53.4294 91.9663 53.3179 90.8064 53.8311" stroke="#904B57" stroke-linecap="round"/>
<path d="M86.044 53.9874C84.7391 53.0055 83.0326 53.3514 82.3076 54.2217" stroke="#904B57" stroke-linecap="round"/>
<path d="M87.1259 57.4241C87.0812 58.4171 87.1816 59.4102 87.4381 60.3697" stroke="#B35267" stroke-linecap="round"/>
<path d="M92.3232 56.5425C92.6467 56.5425 92.9032 56.9442 92.9032 57.4239C92.9032 57.9149 92.6467 58.3054 92.3232 58.3054C91.9998 58.3054 91.7433 57.9149 91.7433 57.4239C91.7433 56.9442 91.9998 56.5425 92.3232 56.5425Z" fill="#363857"/>
<path d="M84.1814 56.5425C84.4937 56.5425 84.7614 56.9442 84.7614 57.4239C84.7614 57.9149 84.4937 58.3054 84.1814 58.3054C83.8579 58.3054 83.6014 57.9149 83.6014 57.4239C83.6014 56.9442 83.8579 56.5425 84.1814 56.5425Z" fill="#363857"/>
<path d="M91.7879 64.1521C90.7172 64.4757 89.9588 64.1409 89.4457 63.6388C88.9996 63.1925 88.6947 62.6532 88.5311 62.021L88.6761 61.9763L92.9924 60.7043C93.0668 60.8606 93.1337 61.054 93.1932 61.2845C93.2303 61.4184 93.2601 61.5672 93.2824 61.7309C93.4051 62.5789 93.2601 63.7058 91.7879 64.1521Z" fill="#B35267"/>
<path d="M93.1932 61.2845C92.0667 61.7309 89.6241 62.3669 89.2895 62.3669C89.0776 62.3669 88.8434 62.166 88.6761 61.9763L92.9924 60.7043C93.0668 60.8606 93.1337 61.054 93.1932 61.2845Z" fill="#FFEDEF"/>
<path d="M91.7879 64.1521C90.7172 64.4757 89.9588 64.141 89.4457 63.6389C90.7283 62.1772 92.3009 61.7978 93.2824 61.7197C93.4051 62.5789 93.2601 63.7058 91.7879 64.1521Z" fill="#E6919D"/>
<path d="M88.1049 68.3601C86.7326 68.3749 85.4233 67.8406 84.177 66.7571C82.3744 65.1987 82.163 63.2506 82.2298 62.438" stroke="#363857" stroke-width="3"/>
<path d="M88.8059 67.2803C89.7851 67.2803 90.5863 67.7701 90.5863 68.36C90.5863 68.9612 89.7851 69.451 88.8059 69.451C87.8156 69.451 87.0256 68.9612 87.0256 68.36C87.0256 67.7701 87.8156 67.2803 88.8059 67.2803Z" fill="#363857"/>
<path d="M146.111 111.562V113.599L120.685 119.076L5.64148 118.831V116.716L146.111 111.562Z" fill="#1B2E34"/>
<path d="M47.1681 111.596L146.111 111.562L120.507 116.75L5.64148 116.716L47.1681 111.596Z" fill="white"/>
<g opacity="0.9">
<g opacity="0.9">
<path opacity="0.9" d="M57.9614 112.152C55.8139 112.408 53.3993 112.575 50.8623 112.664C48.4032 112.765 45.8217 112.798 43.229 112.798C43.8522 110.661 45.2431 108.724 47.1458 107.588C47.7356 107.232 48.3809 106.954 49.0486 106.765C50.5285 106.353 52.1197 106.375 53.5662 106.898C55.6581 107.666 57.5497 109.959 57.9614 112.152Z" fill="#12252B"/>
<path opacity="0.9" d="M50.8623 112.664C48.4032 112.765 45.8217 112.798 43.229 112.798C43.8522 110.661 45.2431 108.724 47.1458 107.588C47.7355 107.232 48.3809 106.954 49.0486 106.765C49.8942 107.377 50.4617 108.356 50.7399 109.381C51.0181 110.449 50.9958 111.574 50.8623 112.664Z" fill="#597375"/>
</g>
<path opacity="0.9" d="M59.1743 110.204C57.8947 110.805 56.8264 110.972 55.2353 110.839C54.6789 111.574 51.8971 113.922 51.1738 113.299C50.6175 112.809 52.6426 110.85 53.0432 110.104C53.3436 109.559 53.5773 108.946 53.5884 108.301C52.9097 107.488 51.541 106.698 50.6731 106.921C49.3045 107.266 47.6243 109.269 45.9107 110.716C45.6659 110.917 45.4322 111.117 45.1429 111.206C44.8647 111.295 44.5309 111.24 44.3418 110.984C44.0079 110.527 44.2861 109.837 44.5754 109.347C46.1555 106.754 48.1695 104.527 50.484 102.857C53.377 103.214 55.3465 103.937 57.9503 105.095C58.6513 106.631 59.1965 108.679 59.1743 110.204Z" fill="#FAC8BF"/>
</g>
<path d="M109.814 110.494V111.496L99.7327 113.477H54.1114V111.885L109.814 110.494Z" fill="#1B2E34"/>
<path d="M70.5796 110.505L109.814 110.494L99.666 111.896L54.1114 111.885L70.5796 110.505Z" fill="#324B4F"/>
<path d="M110.215 106.197C110.051 108.319 109.065 109.555 107.255 109.903C105.207 106.519 105.23 103.792 107.322 101.722C109.354 103.347 110.318 104.839 110.215 106.197Z" fill="#BF4753"/>
<path d="M109.169 106.842C109.068 107.032 107.755 107.21 106.81 107.31C106.565 107.321 105.652 107.299 105.485 107.31C105.63 108.379 105.063 109.102 104.462 109.247C103.727 109.436 102.982 109.002 102.481 108.546C101.769 109.091 101.079 109.236 100.412 108.902C99.755 108.557 99.1764 107.555 99.0985 106.575C98.9539 107.232 98.8204 107.8 98.9094 108.134C99.0318 108.579 100.645 110.783 99.4769 111.15C98.9428 111.317 97.1847 109.425 96.9844 108.59C96.7396 107.555 96.773 106.319 97.3293 104.75C96.3168 105.963 95.9607 106.564 95.8605 107.076C95.5824 108.39 95.7938 110.716 94.8702 110.638C93.7686 110.638 93.5684 107.31 94.0134 105.885C94.3361 104.861 96.3946 101.622 97.4962 101.343C98.5199 101.087 104.061 101.321 105.107 101.466C105.63 101.555 106.142 101.599 106.62 101.644C107.933 101.755 108.968 101.755 109.024 101.8C109.669 102.49 109.458 106.297 109.169 106.842Z" fill="#FAC8BF"/>
<path d="M109.169 106.842C109.068 107.032 107.755 107.21 106.81 107.31C107.032 106.753 107.199 106.186 107.266 105.596C107.444 104.249 107.21 102.857 106.621 101.655C107.922 101.766 108.957 101.755 109.024 101.8C109.669 102.49 109.458 106.297 109.169 106.842Z" fill="#EDA19F"/>
<path d="M101.079 104.56C101.179 106.041 101.513 107.043 102.325 108.289" stroke="#B35267" stroke-width="3" stroke-linecap="round"/>
<path d="M105.363 107.254C105.141 107.199 104.829 106.987 104.662 106.831" stroke="#B35267" stroke-width="3" stroke-linecap="round"/>
<path d="M104.64 106.197C104.707 106.631 104.629 107.087 104.428 107.477" stroke="#B35267" stroke-width="3" stroke-linecap="round"/>
<path d="M123.011 108.412C121.876 109.896 116.602 110.368 107.188 109.826C108.89 107.778 109.391 104.56 107.221 101.522C110.856 101.833 112.696 101.689 112.74 101.087C112.807 100.186 107.878 91.5809 107.221 87.1282C106.899 84.9909 106.042 79.2581 105.352 74.7497C105.397 74.6941 105.441 74.6384 105.486 74.5828C106.576 73.3249 107.744 72.0781 109.146 71.1653C109.224 71.1208 109.313 71.0763 109.391 71.0317C111.861 72.4009 114.521 74.2488 115.389 76.2525C116.657 79.169 124.713 106.186 123.011 108.412Z" fill="#FF9185"/>
<path d="M109.469 74.3713C107.244 81.2507 107.555 88.9205 110.348 95.5995" stroke="#EB6E6A" stroke-width="3" stroke-linecap="round"/>
<path d="M104.618 86.093C105.486 89.2656 107.21 92.0151 109.747 94.1079" stroke="#EB6E6A" stroke-width="3" stroke-linecap="round"/>
<path d="M107.533 101.477C108.334 101.666 109.158 101.744 109.992 101.722" stroke="#EB6E6A" stroke-width="3" stroke-linecap="round"/>
<path d="M111.372 109.982C109.859 109.982 108.879 109.937 107.399 109.859" stroke="#EB6E6A" stroke-width="3" stroke-linecap="round"/>
<path d="M16.5572 106.531L14.7324 64.9426H71.7257L73.5506 106.531H16.5572Z" fill="#1B2E34"/>
<path d="M71.6033 106.531L69.7784 64.9426H71.7257L73.5506 106.531H71.6033Z" fill="#324B4F"/>
<path d="M32.9809 114.779L38.2886 92.4492H48.6257L43.3069 114.779H32.9809Z" fill="#12252B"/>
<path d="M42.6393 114.779L47.9581 92.4492H48.6257L43.3069 114.779H42.6393Z" fill="#324B4F"/>
<path d="M28.0739 112.442H49.1376V114.78H28.0739V112.442Z" fill="#12252B"/>
<path d="M47.7801 112.442H49.1376V114.78H47.7801V112.442Z" fill="#324B4F"/>
</svg>
