<svg width="142" height="132" viewBox="0 0 142 132" fill="none" xmlns="http://www.w3.org/2000/svg">
<g clip-path="url(#clip0_471_601)">
<path d="M5.24753 75.7689C1.20253 70.1992 0.138055 63.5117 2.33353 57.4172C4.52901 51.3129 9.95782 45.8696 17.2228 42.4773C26.7632 38.0157 38.8316 37.1506 48.3587 32.6696C58.5377 27.8776 64.4988 19.6251 72.7617 13.1515C80.5324 7.08609 90.738 2.47872 101.968 1.19566C113.212 -0.0971274 125.413 2.21628 133.437 8.1067C141.46 13.9874 144.521 23.5326 139.69 31.0463C134.634 38.91 122.1 44.0714 120.663 52.6932C119.638 58.8558 124.775 64.5421 128.873 69.9854C132.971 75.4287 136.124 82.3786 131.494 87.5886C128.62 90.8254 123.471 92.4876 118.88 94.4025C117.563 94.9565 116.219 95.598 114.995 96.3076C108.98 99.768 101.476 101.547 93.8117 101.547H24.4347C16.3447 101.547 10.1973 96.0355 12.14 90.3103C12.3795 89.5813 12.5259 88.8328 12.5525 88.0746C12.6722 83.545 8.14821 79.7736 5.24753 75.7689Z" fill="#26D8C0"/>
<path d="M33.618 40.1832C33.5597 38.8418 34.2305 37.2185 35.4847 36.7228C36.6805 36.2465 38.6638 36.5381 39.6263 37.3838C40.5986 38.2294 41.1333 39.0459 41.8138 40.1346C43.3013 42.5063 44.6236 44.7711 46.6458 46.6374C50.0291 43.4977 51.8763 40.9316 54.7444 37.3254C55.5222 37.8017 56.6791 38.8029 57.4569 39.2792C54.2388 45.1113 50.6027 50.7198 46.5972 56.0368C43.8652 53.4512 41.2597 50.7296 38.6638 48.0176C37.4097 46.7054 36.1458 45.3835 35.1152 43.8963C34.3375 42.7882 33.6763 41.5343 33.618 40.1832Z" fill="#EF6F6F"/>
<path d="M54.8805 36.9463C55.6485 36.0715 55.8916 34.837 56.5819 33.9039C57.3597 32.8541 58.6041 32.2903 59.7999 31.7751C60.043 31.6682 60.3347 31.5613 60.568 31.6877C60.811 31.8043 60.8985 32.1056 60.9569 32.3681C61.0541 32.8444 61.161 33.3304 61.0152 33.7872C60.7916 34.526 60.0041 34.9536 59.6541 35.6341C59.3624 36.227 59.411 36.956 59.0708 37.5198C58.7499 38.0738 58.1277 38.3751 57.5347 38.6376C57.2527 38.764 56.9416 38.8903 56.6305 38.832C55.7652 38.6667 55.7166 37.2476 54.8805 36.9463Z" fill="#014273"/>
<path d="M53.7916 37.9473C54.2097 37.4127 54.6763 36.9073 55.1722 36.4504C56.1962 37.0855 57.2203 37.7238 58.2444 38.3653C57.8166 39.1138 57.486 39.9205 57.2527 40.7565C55.9499 40.0372 54.8513 38.9971 53.7916 37.9473Z" fill="#64BCD1"/>
<path d="M57.8652 39.0167C57.8393 39.0167 57.8166 39.0102 57.7972 38.9972L55.6388 37.5101C55.5902 37.4712 55.5805 37.4031 55.6194 37.3545C55.6486 37.3059 55.7166 37.2865 55.7652 37.3254L57.9236 38.8223C57.9722 38.8514 57.9819 38.9195 57.9527 38.9778C57.9333 39.007 57.8944 39.0167 57.8652 39.0167Z" fill="#014273"/>
<path d="M60.9861 24.1741L69.0166 26.8957L64 39.8041L56.5916 36.1007L60.9861 24.1741Z" fill="#DCC2AB"/>
<path d="M61.268 24.6406L68.2097 27.0026L63.8736 38.1614L57.4569 34.9635L61.268 24.6406Z" fill="white"/>
<path d="M66.4499 26.6722L62.8333 25.4086L63.1541 24.4949L66.7708 25.7585L66.4499 26.6722Z" fill="#014273"/>
<path fill-rule="evenodd" clip-rule="evenodd" d="M66.5861 27.4206C66.5472 27.4206 66.5115 27.4141 66.4791 27.4012L62.4639 25.9918C62.2889 25.9334 62.2014 25.739 62.2597 25.5641L62.425 25.0781C62.493 24.9031 62.6875 24.8156 62.8625 24.874L66.868 26.2736C67.043 26.3417 67.1402 26.5264 67.0722 26.7013L66.9069 27.1873C66.8583 27.3234 66.7319 27.4206 66.5861 27.4206ZM62.7458 25.0684C62.6972 25.0684 62.6486 25.1072 62.6389 25.1461L62.4639 25.6321C62.4444 25.7002 62.4736 25.7682 62.5416 25.7876L66.5472 27.1971C66.6055 27.2165 66.6833 27.1776 66.7027 27.1193L66.868 26.6333C66.8875 26.575 66.8583 26.5069 66.8 26.4778L62.7847 25.0781C62.7717 25.0716 62.7588 25.0684 62.7458 25.0684Z" fill="#014273"/>
<path d="M64.7874 28.072L61.6763 26.8375L61.7541 26.6528L64.8749 27.8679L64.7874 28.072Z" fill="#014273"/>
<path d="M66.4402 29.6661L61.3652 27.6248L61.443 27.4304L66.518 29.4717L66.4402 29.6661Z" fill="#014273"/>
<path d="M66.1194 30.463L61.0735 28.3829L61.1416 28.1982L66.1972 30.2686L66.1194 30.463Z" fill="#014273"/>
<path d="M65.7888 31.2602L60.7722 29.1412L60.8499 28.9565L65.8763 31.0561L65.7888 31.2602Z" fill="#014273"/>
<path d="M63.2028 32.0378L60.1597 30.7062L60.2374 30.5215L63.2805 31.8434L63.2028 32.0378Z" fill="#014273"/>
<path d="M64.8069 33.6902L59.8583 31.474L59.9361 31.2893L64.8847 33.4958L64.8069 33.6902Z" fill="#014273"/>
<path d="M64.4861 34.4678L59.5667 32.2225L59.6444 32.0281L64.5639 34.2734L64.4861 34.4678Z" fill="#014273"/>
<path d="M64.1652 35.2455L59.275 32.9613L59.3527 32.7766L64.2527 35.0511L64.1652 35.2455Z" fill="#014273"/>
<path d="M58.5555 33.0194C58.4194 33.0194 58.293 33.0097 58.1666 33.0485C57.943 33.1166 57.8263 33.3596 57.7777 33.5832C57.6513 34.1761 57.8166 34.7885 57.7583 35.3911C57.7194 35.8674 57.4958 36.402 57.136 36.7228C56.8152 37.0047 56.5333 36.9366 56.1541 36.9269C56.0083 36.9172 55.8722 36.9561 55.736 36.9366C55.4638 36.8977 55.2305 36.645 55.0166 36.4895C55.0847 36.1784 55.211 35.4397 55.3083 35.1384C55.3958 34.8468 55.4055 34.5357 55.4055 34.2247C55.4152 33.8067 55.4444 33.3207 55.7944 33.0874C55.9013 33.0194 56.0277 32.9805 56.1541 32.9416C56.6985 32.7667 57.2138 32.5237 57.6902 32.2223C57.7874 32.164 57.8847 32.096 57.9916 32.0668C58.118 32.0279 58.2541 32.0279 58.3902 32.0279C58.7305 32.0182 59.0805 31.9793 59.411 31.8918C59.518 32.4167 59.0805 32.9805 58.5555 33.0194Z" fill="#64BCD1"/>
<path d="M95.0236 98.5627H42.7764V6.6001H95.0236V98.5627Z" fill="#CDF7F9"/>
<path d="M43.068 13.1222V6.73608H95.3055V13.1222H43.068Z" fill="white"/>
<path d="M47.2194 12.3832H46.6555V10.9058H47.2194V12.3832Z" fill="#64BCD1"/>
<path d="M48.318 12.3835H47.7542V10.5366H48.318V12.3835Z" fill="#64BCD1"/>
<path d="M49.4264 12.3834H48.8625V10.2158H49.4264V12.3834Z" fill="#64BCD1"/>
<path d="M50.5347 12.3834H49.9708V9.79785H50.5347V12.3834Z" fill="#64BCD1"/>
<path d="M90.8722 11.6643H90.668V12.1989H85.9722V10.3521H90.668V10.8769H90.8722V11.6643Z" fill="#64BCD1"/>
<path d="M89.8222 50.9436C89.8222 62.6078 80.3722 72.0558 68.7152 72.0558C57.0583 72.0558 47.5986 62.6078 47.5986 50.9436C47.5986 39.2891 57.0583 29.8411 68.7152 29.8411C80.3722 29.8411 89.8222 39.2891 89.8222 50.9436Z" fill="white"/>
<path d="M95.3055 91.8362V98.6986H43.068V91.8362H95.3055Z" fill="white"/>
<path d="M68.6569 95.588H67.393C66.8971 95.588 66.4985 95.1797 66.4985 94.684V93.7411C66.4985 93.2454 66.8971 92.8372 67.393 92.8372H68.6569C69.1527 92.8372 69.5611 93.2454 69.5611 93.7411V94.684C69.5611 95.1797 69.1527 95.588 68.6569 95.588Z" fill="#64BCD1"/>
<path d="M87.0805 95.588H85.8069C85.3111 95.588 84.9125 95.1797 84.9125 94.684V93.7411C84.9125 93.2454 85.3111 92.8372 85.8069 92.8372H87.0805C87.5764 92.8372 87.975 93.2454 87.975 93.7411V94.684C87.975 95.1797 87.5764 95.588 87.0805 95.588Z" fill="#64BCD1"/>
<path d="M50.9819 95.588H49.718C49.2222 95.588 48.8138 95.1797 48.8138 94.684V93.7411C48.8138 93.2454 49.2222 92.8372 49.718 92.8372H50.9819C51.4777 92.8372 51.8763 93.2454 51.8763 93.7411V94.684C51.8763 95.1797 51.4777 95.588 50.9819 95.588Z" fill="#64BCD1"/>
<path fill-rule="evenodd" clip-rule="evenodd" d="M91.9611 102.752H46.6069C44.2347 102.752 42.3097 100.827 42.3097 98.4557V6.91106C42.3097 4.53934 44.2347 2.61475 46.6069 2.61475H91.9611C94.3333 2.61475 96.2583 4.53934 96.2583 6.91106V98.4557C96.2583 100.827 94.3333 102.752 91.9611 102.752ZM46.6069 4.18941C45.1097 4.18941 43.8944 5.41416 43.8944 6.91106V98.4557C43.8944 99.9526 45.1097 101.168 46.6069 101.168H91.9611C93.4583 101.168 94.6736 99.9526 94.6736 98.4557V6.91106C94.6736 5.41416 93.4583 4.18941 91.9611 4.18941H46.6069Z" fill="#014273"/>
<path d="M95.2861 92.9539V98.1347C95.2861 100.059 93.7305 101.624 91.8055 101.624H46.7625C44.8375 101.624 43.2819 100.059 43.2819 98.1347V92.9539C43.2819 94.8785 44.8375 96.4337 46.7625 96.4337H91.8055C93.7305 96.4337 95.2861 94.8785 95.2861 92.9539Z" fill="#014273"/>
<path d="M95.2861 7.22201V11.9849C95.2861 10.0603 93.7305 8.49535 91.8055 8.49535H46.7625C44.8375 8.49535 43.2819 10.0603 43.2819 11.9849V7.22201C43.2819 5.29741 44.8375 3.74219 46.7625 3.74219H91.8055C93.7305 3.74219 95.2861 5.29741 95.2861 7.22201Z" fill="#014273"/>
<path d="M70.3778 5.78343C70.3778 6.22084 70.018 6.57076 69.5805 6.57076C69.143 6.57076 68.793 6.22084 68.793 5.78343C68.793 5.34602 69.143 4.99609 69.5805 4.99609C70.018 4.99609 70.3778 5.34602 70.3778 5.78343Z" fill="#0B2E3F"/>
<path d="M60.2375 5.78342C60.2375 6.04587 60.0333 6.25971 59.7708 6.25971H48.2889C48.0264 6.25971 47.8125 6.04587 47.8125 5.78342C47.8125 5.52097 48.0264 5.30713 48.2889 5.30713H59.7708C60.0333 5.30713 60.2375 5.52097 60.2375 5.78342Z" fill="#0B2E3F"/>
<path d="M76.8625 99.0973C76.8625 99.3986 76.6194 99.6416 76.3083 99.6416H62.3764C62.075 99.6416 61.8222 99.3986 61.8222 99.0973C61.8222 98.7862 62.075 98.5432 62.3764 98.5432H76.3083C76.6194 98.5432 76.8625 98.7862 76.8625 99.0973Z" fill="#0B2E3F"/>
<path d="M63.3389 123.757C63.3389 127.869 55.9986 131.193 46.9569 131.193C37.9055 131.193 30.5652 127.869 30.5652 123.757C30.5652 119.655 37.9055 116.321 46.9569 116.321C55.9986 116.321 63.3389 119.655 63.3389 123.757Z" fill="#DCC2AB"/>
<path d="M81.3541 71.8324H66.2166V50.2341H81.3541V71.8324Z" fill="#64BCD1"/>
<path d="M81.3346 50.2534H66.4305L67.4902 49.5146H80.2652L81.3346 50.2534Z" fill="#014273"/>
<path d="M70.0568 41.4567C70.086 41.2332 70.1249 41.0096 70.2513 40.8249C70.3874 40.6402 70.6305 40.5236 70.8346 40.6014C70.9902 40.6694 71.0777 40.8249 71.1555 40.961C72.9152 44.0909 74.6846 47.2402 75.9679 50.5937C75.3133 50.5483 74.6555 50.5029 73.9943 50.4576C73.2457 47.5512 72.3027 44.6838 71.1943 41.8941C71.068 41.5734 70.8443 41.1943 70.5041 41.2429C70.0471 44.3922 69.7555 47.5707 69.6291 50.7589C69.2855 50.733 68.942 50.7103 68.5985 50.6909C69.0846 47.6128 69.5707 44.5348 70.0568 41.4567Z" fill="#014273"/>
<path d="M73.343 50.2341C75.6666 56.9216 78.4277 63.4536 81.3541 69.937V71.8324H66.2166V50.2341H73.343Z" fill="#46A3B2"/>
<path d="M81.3541 50.2341V69.9369C78.4277 63.4535 75.6666 56.9216 73.343 50.2341H81.3541Z" fill="#64BCD1"/>
<path d="M70.0763 50.4284C69.8235 47.2596 69.736 44.0811 69.8041 40.9124C69.8041 40.6791 69.8138 40.4361 69.911 40.2319C70.0083 40.0181 70.2124 39.8334 70.4458 39.8431C70.6985 39.8626 70.8833 40.0764 71.0388 40.2805C73.6541 43.6632 76.1333 47.1527 78.4763 50.7297C77.9837 50.801 77.4911 50.8691 76.9986 50.9339C75.3944 47.143 73.2069 43.5951 70.5333 40.4555C70.2708 41.3206 70.368 42.2537 70.4652 43.1577C70.7634 45.821 71.0615 48.4844 71.3596 51.1477C70.9416 51.0991 70.5138 51.1477 70.1249 51.3032L70.0763 50.4284Z" fill="#64BCD1"/>
<path d="M74.3152 75.2051L59.2555 73.7859C60.4999 66.3014 61.2485 59.0988 61.2874 52.2849L76.3569 53.7138C74.9277 60.1291 74.3541 67.3998 74.3152 75.2051Z" fill="#64BCD1"/>
<path d="M76.3277 53.7331L61.4916 52.3237L62.6194 51.6919L75.3361 52.8875L76.3277 53.7331Z" fill="#014273"/>
<path d="M71.4083 41.5926C71.6416 42.0495 71.6513 42.5841 71.6708 43.0895C71.7291 45.6881 71.7907 48.2899 71.8555 50.8949C71.875 51.7016 71.9041 52.5279 72.1277 53.3055C71.6222 53.3055 71.1134 53.3022 70.6013 53.2958C70.8282 49.6539 71.0518 46.0121 71.2722 42.3703C71.2819 42.1953 71.2916 42.0203 71.2333 41.8551C71.175 41.6996 71.0194 41.5538 70.8541 41.5635C70.6208 41.5732 70.4847 41.8259 70.3972 42.0495C69.0166 45.4645 67.6361 48.8828 66.2555 52.3043C65.7888 52.2071 65.3254 52.1099 64.8652 52.0127C66.6736 49.0675 68.5111 46.025 69.1333 42.6327C69.1916 42.2731 69.25 41.9134 69.3958 41.5926C69.5416 41.2621 69.8138 40.9705 70.1638 40.8928C70.6597 40.7761 71.175 41.1358 71.4083 41.5926Z" fill="#014273"/>
<path d="M70.7082 40.8928C71.2332 41.3594 71.3207 42.1176 71.3694 42.8077C71.674 46.6374 71.9786 50.464 72.2832 54.2872C71.9203 54.2354 71.5541 54.1835 71.1846 54.1317C71.2624 50.2534 71.2235 46.3653 71.0582 42.4772C71.0388 42.0884 70.9999 41.651 70.718 41.3788C69.1721 45.2377 67.9569 49.2327 67.111 53.3152C66.5342 53.1986 65.9573 53.0819 65.3805 52.9653C67.1564 48.9411 68.9323 44.917 70.7082 40.8928Z" fill="#64BCD1"/>
<path d="M37.925 27.664C37.8375 26.7406 37.8181 25.7977 37.8958 24.8743C37.9347 24.4758 38.0125 24.0675 38.2847 23.7954C38.6153 23.4746 39.1208 23.4357 39.5875 23.426C41.1819 23.3677 42.7764 23.3126 44.3708 23.2607L44.9833 25.4672C44.8861 26.2448 44.5264 26.6628 44.8472 27.1877C45.0222 27.4696 45.1194 27.8001 45.0806 28.1305C44.9736 29.2289 45.0514 30.3467 45.3139 31.4257C45.4014 31.7853 45.1778 32.145 44.8083 32.213C43.9236 32.388 43.0389 32.5143 42.1444 32.456C41.0167 32.388 39.8597 31.9895 39.1111 31.1535C38.275 30.2204 38.0417 28.8887 37.925 27.664Z" fill="#EF6F6F"/>
<path d="M38.9167 30.9006C40.6472 31.7366 42.5625 32.1351 44.5167 32.2712C43.7292 32.4072 42.9417 32.5044 42.1445 32.4558C41.0167 32.3878 39.8597 31.9893 39.1111 31.1534C39.0431 31.0659 38.9847 30.9881 38.9167 30.9006Z" fill="#D65050"/>
<path d="M42.3875 27.1778C42.2222 26.7015 41.9597 26.2446 41.5806 25.9141C42.0958 25.8753 42.6014 25.7489 43.0778 25.5642L43.3014 25.6809C43.107 26.4779 43.0292 27.3041 43.0583 28.1206C42.9222 28.1465 42.7894 28.1725 42.6597 28.1984C42.5917 27.8485 42.5139 27.5082 42.3875 27.1778Z" fill="#014273"/>
<path d="M35.6694 36.8202C36.4958 33.4668 36.9722 30.0258 37.0792 26.5654C38.5861 26.546 40.0931 26.3516 41.5611 25.9919C41.6778 29.88 42.4167 33.7389 43.7292 37.384C41.0944 36.7522 38.3625 36.5578 35.6694 36.8202Z" fill="#EF6F6F"/>
<path d="M36.6514 28.1011C36.6805 27.6345 36.7972 27.1776 37.0014 26.75C38.3916 27.1193 39.9083 26.9638 41.2014 26.3223C41.2597 27.3526 40.8708 28.3732 40.2389 29.1897C39.6166 30.0062 38.7514 30.6186 37.8278 31.0754C37.6916 31.1435 37.5264 31.2115 37.3805 31.1435C37.2444 31.0852 37.1861 30.9296 37.1375 30.7936C36.9819 30.314 36.8588 29.8313 36.768 29.3452L36.6514 28.1011Z" fill="#D65050"/>
<path d="M43.9333 24.2034C42.6014 24.4561 41.9889 26.6334 41.25 27.7707C40.5208 28.8982 38.2167 29.5009 36.875 29.6272C36.525 28.6163 36.2333 27.5957 36 26.5557C35.8736 25.9919 35.7667 25.399 35.8833 24.8352C36.0486 24.0673 36.6028 23.4355 37.2639 23.0175C37.9153 22.5898 38.6736 22.3468 39.4125 22.1135L43.9333 24.2034Z" fill="#014273"/>
<path d="M42.5236 29.3162C42.3583 29.5203 42.0472 29.5397 41.8236 29.4231C41.5902 29.3064 41.4444 29.0732 41.3569 28.8302C41.2694 28.5969 41.2694 28.4705 41.2208 28.2178C41.1527 27.8679 40.7541 27.6735 40.6277 27.343C40.4916 27.0222 40.4819 26.6042 40.7055 26.3224C40.8805 26.0988 41.1527 25.9627 41.425 25.9433C41.7069 25.9238 42.1639 26.3418 42.368 26.5362L42.5236 29.3162Z" fill="#EF6F6F"/>
<path d="M43.3403 25.4766C41.1528 26.4389 38.4305 25.914 36.4666 27.2845L36.0778 23.6394C35.9125 22.1814 37.0111 20.8886 38.4694 20.8109C39.7398 20.7525 41.0102 20.7169 42.2805 20.7039C44.9444 20.6845 45.8194 24.3393 43.3889 25.4474C43.3694 25.4539 43.3532 25.4636 43.3403 25.4766Z" fill="#014273"/>
<path d="M47.6277 22.8523C48.1236 23.0272 48.5611 23.4452 48.6388 23.9604C46.8694 24.4788 45.1226 25.0587 43.3986 25.7003C43.0194 24.9712 42.4944 24.3297 41.8527 23.8243C43.2333 23.3674 44.6236 22.9106 46.0722 22.7453C46.5972 22.687 47.1319 22.6676 47.6277 22.8523Z" fill="#64BCD1"/>
<path d="M44.2055 20.9276C45.3722 21.8704 45.2264 23.552 45.3041 25.0101C43.1361 26.507 40.7639 26.9735 38.1097 26.7791C37.4291 26.7305 36.3597 26.8569 35.9222 26.3612C35.4069 25.7877 35.4555 24.942 35.5333 24.1936C35.6402 23.0563 35.8152 21.8121 36.6805 21.0248C37.5652 20.2277 38.8972 20.1694 40.1027 20.15C41.4347 20.1305 43.1944 20.1111 44.2055 20.9276Z" fill="#64BCD1"/>
<path d="M44.5458 24.8935C44.4972 24.8935 44.4486 24.8546 44.4389 24.7963C44.3319 23.9409 44.225 23.0564 43.8847 22.2496C43.5152 21.3748 42.9027 20.7138 42.1833 20.4417C42.125 20.4222 42.0958 20.3542 42.125 20.2959C42.1444 20.2473 42.2027 20.2181 42.2611 20.2375C43.0291 20.5291 43.7 21.2387 44.0889 22.1718C44.4389 22.9981 44.5458 23.902 44.6625 24.7671C44.6625 24.8352 44.6236 24.8838 44.5652 24.8935C44.5588 24.8935 44.5523 24.8935 44.5458 24.8935Z" fill="#014273"/>
<path d="M38.2847 26.5168C38.2264 26.5168 38.1777 26.4682 38.1777 26.4098C38.1291 24.9227 38.2847 23.4355 38.6444 21.9872C38.7708 21.4623 38.9847 20.8305 39.5291 20.568C39.5778 20.5389 39.6458 20.568 39.675 20.6166C39.6944 20.675 39.675 20.743 39.6166 20.7624C39.1694 20.986 38.975 21.5303 38.8486 22.0455C38.4986 23.4646 38.3527 24.9324 38.4014 26.4001C38.4014 26.4682 38.3528 26.5168 38.2944 26.5168C38.2944 26.5168 38.2912 26.5168 38.2847 26.5168Z" fill="#014273"/>
<path d="M35.8736 25.2432C35.7083 25.078 35.6014 24.835 35.6305 24.6017C35.6694 24.3684 35.8541 24.1546 36.0875 24.1254C36.3014 24.106 36.5055 24.2226 36.6319 24.3878C36.768 24.5628 36.8264 24.7669 36.8847 24.9711C36.9333 25.1655 36.9528 25.4182 36.7778 25.5154C36.7 25.5543 36.6028 25.5445 36.5153 25.5348C36.2819 25.4959 36.0486 25.3987 35.8736 25.2432Z" fill="#014273"/>
<path d="M45.6055 29.141C45.4791 30.0644 45.4402 30.6768 45.4013 31.8627C45.1097 31.9696 44.4097 31.7849 44.2638 31.5127C44.118 31.2406 44.1083 30.9198 44.0888 30.6185C44.0564 29.8085 43.9722 29.0017 43.8361 28.1982C44.1212 27.9325 44.4097 27.6668 44.7013 27.4011C44.7499 27.3622 44.7888 27.3136 44.8472 27.2942C44.993 27.2359 45.1486 27.3234 45.2555 27.44C45.6833 27.858 45.6833 28.5481 45.6055 29.141Z" fill="#64BCD1"/>
<path d="M44.118 28.451C44.0985 28.451 44.0791 28.4445 44.0597 28.4315C43.1458 27.7511 43.0291 27.5859 42.611 26.9929C42.5041 26.8471 42.3777 26.6722 42.2222 26.4486C42.193 26.4 42.2027 26.332 42.2513 26.3028C42.2999 26.2639 42.368 26.2736 42.3972 26.3222C42.5624 26.5361 42.6791 26.711 42.786 26.8666C43.2041 27.4595 43.3013 27.5956 44.186 28.2468C44.2347 28.2857 44.2444 28.3538 44.2055 28.4024C44.186 28.4315 44.1569 28.451 44.118 28.451Z" fill="white"/>
<path d="M44.2541 31.2989C44.2282 31.2989 44.2055 31.2924 44.1861 31.2795C42.9416 30.4241 41.6388 29.5396 40.9583 27.9746C40.9388 27.9163 40.9583 27.858 41.0166 27.8288C41.0749 27.8094 41.1333 27.8288 41.1624 27.8871C41.8138 29.3938 43.0875 30.2589 44.3125 31.0948C44.3611 31.1337 44.3805 31.2017 44.3416 31.2503C44.3222 31.2795 44.2833 31.2989 44.2541 31.2989Z" fill="white"/>
<path d="M40.3069 122.95C39.5777 122.979 39.15 123.495 38.4791 123.485C37.293 123.475 36.2041 123.222 35.3097 122.61C35.3486 122.124 35.3583 121.55 35.4361 121.045C35.4944 120.656 35.4264 120.228 35.5819 119.869C35.718 119.558 36.3014 119.441 36.6125 119.315C36.9236 119.188 37.2541 119.15 37.5847 119.12C38.7222 119.013 39.8597 119.033 40.9972 119.169C41.668 119.684 42.3 119.529 43.1555 119.519C43.6805 119.519 44.4583 119.84 44.9347 120.083C45.2555 120.248 45.4597 120.491 45.5958 120.821C45.7319 121.123 45.7708 121.385 45.6736 121.774C44.0111 122.338 42.9514 122.853 40.3069 122.95Z" fill="#0B2E3F"/>
<path d="M47.1416 63.4531C48.9305 82.4269 44.2541 99.8747 42.6208 119.014C41.7847 119.568 40.7152 119.82 39.675 119.908C38.6055 119.986 37.1375 120.073 36.0583 119.383C36.243 118.362 36.2722 117.39 36.3597 116.593C37.4194 106.533 37.0791 95.3353 36.1944 84.8861C35.7083 79.1221 32.1305 75.9922 34.6291 66.6122L34.6486 63.4531H47.1416Z" fill="#014273"/>
<path d="M47.1416 63.4531C48.9305 82.4269 44.2541 99.8746 42.6208 119.014C41.7847 119.568 40.7152 119.82 39.6749 119.908C39.1305 119.947 38.4208 119.937 37.7111 119.84C41.4541 105.172 43.2138 90.4558 39.7722 74.8355C38.8874 71.0835 38.8388 67.1662 39.4902 63.4531H47.1416Z" fill="#0B2E3F"/>
<path d="M38.8 120.501C37.7208 120.481 36.6319 120.267 35.6986 119.723C36.0681 118.877 35.5139 117.633 36.3111 117.449C37.3125 118.1 38.3625 118.528 39.568 118.537C40.7639 118.537 41.7458 118.051 42.7569 117.419C43.3208 117.808 42.7375 118.518 42.7861 118.887C42.8347 119.257 43.068 119.47 42.8055 119.743C42.6014 119.956 42.2903 120.034 41.9986 120.102C40.9486 120.326 39.8792 120.51 38.8 120.501Z" fill="#64BCD1"/>
<path d="M34.9014 77.596C34.843 77.596 34.7944 77.5571 34.7944 77.5085C34.7847 77.4502 34.8236 77.3919 34.8819 77.3822C35.7861 77.2461 37.3222 76.2449 37.5069 75.5256C37.6916 74.7869 37.4972 74.0093 37.2833 73.2803L37.2444 73.1248C37.0403 72.4444 36.8458 71.7445 36.8944 71.0447C35.7083 70.8308 34.7944 70.5781 34.0944 70.2671C34.0361 70.2476 34.0167 70.1796 34.0361 70.1213C34.0653 70.0727 34.1236 70.0435 34.1819 70.0727C34.8819 70.374 35.8153 70.6364 37.0305 70.8406C37.0889 70.8503 37.1278 70.9086 37.118 70.9572C37.0403 71.657 37.2541 72.3763 37.4486 73.0665L37.4972 73.222C37.7111 73.9801 37.9153 74.7966 37.7111 75.584C37.5166 76.381 35.9028 77.4502 34.9111 77.596C34.9111 77.596 34.9079 77.596 34.9014 77.596Z" fill="#0B2E3F"/>
<path d="M51.1375 63.4531C55.143 82.9421 54.8999 103.306 55.2597 122.902C52.3819 125.303 48.8333 124.71 48.3277 123.291C47.7736 109.877 46.3347 95.8699 41.493 81.9992C41.0069 80.619 40.4236 80.3371 39.9666 79.4914C38.3041 76.4101 36.9722 74.087 38.2652 63.4531H51.1375Z" fill="#014273"/>
<path d="M53.5583 123.213C53.5583 123.213 53.555 123.213 53.5485 123.213C53.4902 123.213 53.4416 123.154 53.4416 123.096C53.9569 104.647 53.0916 86.0039 50.8944 67.6814C50.8847 67.623 50.9333 67.5744 50.9916 67.5647C51.0499 67.555 51.1083 67.6036 51.1083 67.6619C53.3152 85.9942 54.1708 104.647 53.6652 123.106C53.6652 123.164 53.6166 123.213 53.5583 123.213Z" fill="#46A3B2"/>
<path fill-rule="evenodd" clip-rule="evenodd" d="M46.5 79.3748C46.15 79.3748 45.8194 79.2679 45.4597 79.1415C44.2444 78.7236 43.0097 78.2278 42.3583 77.1781C42.018 76.624 41.8819 75.9825 41.7555 75.3118C41.493 73.9121 41.2791 72.4735 41.1236 71.0543C41.1138 71.0155 41.1333 70.9766 41.1625 70.9571C41.1819 70.928 41.2208 70.928 41.2597 70.928C43.6222 71.5112 46.1208 71.6862 48.5416 71.4334C48.6 71.4237 48.6583 71.4626 48.668 71.5209C48.7458 72.0847 48.9014 72.6387 49.0569 73.1831C49.1639 73.5622 49.2708 73.951 49.3583 74.3495C49.6111 75.5354 49.5333 76.5171 49.125 77.2655C48.843 77.7807 48.425 78.1792 48.0069 78.568C47.6861 78.8694 47.2875 79.2485 46.7819 79.3457C46.6912 79.3651 46.5972 79.3748 46.5 79.3748ZM41.3569 71.1807C41.5125 72.5512 41.7166 73.9218 41.9694 75.2729C42.0861 75.9242 42.2222 76.5462 42.543 77.0614C43.1555 78.0529 44.3513 78.5292 45.5277 78.9374C45.8777 79.0541 46.1889 79.1513 46.5 79.1513C46.5842 79.1513 46.6652 79.1448 46.743 79.1318C47.1902 79.0443 47.5597 78.6944 47.8611 78.4028C48.2597 78.0334 48.668 77.6446 48.9305 77.1586C49.3097 76.4588 49.3875 75.5256 49.1444 74.3884C49.0569 74.0093 48.95 73.6108 48.843 73.2414C48.6972 72.7262 48.5514 72.1916 48.4639 71.657C46.0916 71.8903 43.6708 71.7348 41.3569 71.1807Z" fill="#0B2E3F"/>
<path d="M41.318 81.6007C41.2791 81.6007 41.25 81.5813 41.2305 81.5619C38.2847 77.9654 37.2736 72.7651 38.6541 68.323C38.6736 68.2647 38.7319 68.2355 38.7902 68.2452C38.8486 68.2647 38.8875 68.3327 38.868 68.3813C37.5069 72.7651 38.4986 77.8779 41.3958 81.4161C41.4347 81.4647 41.4347 81.5327 41.3861 81.5716C41.3666 81.591 41.3439 81.6007 41.318 81.6007Z" fill="#0B2E3F"/>
<path d="M53.1014 127.703C52.343 127.733 51.9055 128.267 51.2152 128.257C50 128.238 48.8819 127.985 47.968 127.353C47.9972 126.848 48.0166 126.255 48.0944 125.74C48.1527 125.332 48.075 124.904 48.2402 124.525C48.3861 124.214 48.9791 124.088 49.3 123.961C49.6208 123.825 49.9611 123.786 50.3014 123.757C51.468 123.65 52.6347 123.66 53.8014 123.806C54.4916 124.331 55.143 124.175 56.018 124.175C56.5528 124.165 57.3597 124.505 57.8458 124.749C58.1667 124.914 58.3805 125.166 58.5264 125.507C58.6625 125.827 58.7014 126.09 58.6041 126.488C56.9028 127.072 55.8139 127.597 53.1014 127.703Z" fill="#0B2E3F"/>
<path d="M49.0375 124.758C48.6291 124.515 48.2597 124.214 47.8902 123.913C47.8513 123.874 47.8027 123.835 47.7736 123.776C47.6861 123.572 47.9583 123.388 48.0069 123.174C48.0555 122.97 47.8999 122.785 47.7833 122.61C47.6666 122.435 47.5888 121.842 48.1041 121.706C49.0083 122.445 49.8152 123.174 50.9819 123.242C52.1583 123.31 53.325 123.067 54.4138 122.639C54.9388 122.445 55.1041 122.221 55.3666 121.735C55.9305 122.056 55.8333 122.552 55.5513 122.863C55.7361 122.853 55.9013 123.009 55.9597 123.184C56.018 123.368 55.9888 123.553 55.9694 123.738C55.95 123.922 55.9208 124.117 55.8138 124.272C55.6972 124.457 55.493 124.564 55.2888 124.661C54.3069 125.108 53.2472 125.429 52.168 125.477C51.0791 125.526 49.9708 125.312 49.0375 124.758Z" fill="#64BCD1"/>
<path d="M50.875 64.6394L50.9236 66.6029C45.5699 68.5858 40.2551 68.3881 34.9791 66.0099L35.0569 64.4255L50.875 64.6394Z" fill="#DCC2AB"/>
<path d="M37.5555 67.7595H36.9528V64.1921H37.5555V67.7595Z" fill="#014273"/>
<path d="M40.968 68.2065H40.3652V64.6392H40.968V68.2065Z" fill="#014273"/>
<path d="M43.2139 33.4569C43.2203 33.917 43.2236 34.3803 43.2236 34.8469C40.7671 35.1644 38.3106 35.4819 35.8541 35.7995C35.8152 35.145 35.7796 34.4937 35.7472 33.8457C38.1972 33.3402 40.725 33.2042 43.2139 33.4569Z" fill="#014273"/>
<path d="M50.6709 42.4774C51.3028 51.1478 51.1959 57.5631 51.9153 64.9504C45.9847 66.4473 38.4403 66.5737 33.2292 63.7451C33.5014 61.7816 34.0458 57.1159 33.1708 52.0809C32.675 49.2134 32.1208 46.3363 32.1597 43.4299C32.1986 40.5236 32.8986 37.5298 34.6875 35.2455C38.0903 34.4874 41.5806 34.1277 45.0708 34.186C46.432 35.8774 49.7181 40.5625 50.6709 42.4774Z" fill="#64BCD1"/>
<path d="M43.4083 38.3367C44.5944 41.1069 46.9472 43.362 49.7667 44.4118C50.1653 46.7641 50.2819 49.1747 50.1069 51.5561C46.6069 49.8454 43.9528 46.4919 43.0778 42.701C42.7472 41.243 42.6889 39.6392 43.4083 38.3367Z" fill="#014273"/>
<path d="M50.4666 65.1738C50.4537 65.1738 50.4407 65.1738 50.4277 65.1738C50.3791 65.1446 50.35 65.0863 50.3694 65.028C51.0791 63.2103 51.1472 61.762 50.6125 60.1776C49.6208 57.2907 49.6791 54.3066 49.7375 51.4294C49.7569 50.5449 49.7763 49.6215 49.7569 48.7272C49.7569 48.6689 49.8055 48.6106 49.8638 48.6106C49.9319 48.6106 49.9805 48.6592 49.9805 48.7175C49.9902 49.6215 49.9708 50.5449 49.9513 51.4392C49.9027 54.2969 49.8444 57.2518 50.8166 60.1096C51.3805 61.7426 51.3027 63.2395 50.5736 65.1058C50.5541 65.1544 50.5152 65.1738 50.4666 65.1738Z" fill="#014273"/>
<path d="M54.4625 42.7785C53.9277 45.0336 52.7319 46.9582 51.1375 48.562C50.8782 48.4065 50.6092 48.2542 50.3305 48.1051C47.6083 46.6082 44.5555 45.1502 42.9416 42.4869C42.3 41.4371 41.8041 40.2707 41.775 39.0362C41.7458 37.8115 42.2611 36.5284 43.2916 35.8577C43.7875 35.537 44.4 35.4009 44.9833 35.4592L44.6528 35.2842C47.4625 35.2745 48.5805 36.6062 50.6319 38.5405C52.1389 39.9596 53.2083 41.3982 54.4625 42.7785Z" fill="#64BCD1"/>
<path d="M49.9222 48.2217C49.9027 48.2217 49.8865 48.2185 49.8736 48.212C49.8347 48.1926 49.8055 48.144 49.8152 48.0954L49.8444 47.8913C49.8541 47.8329 49.9125 47.7941 49.9708 47.7941C49.9967 47.8005 50.0194 47.8135 50.0388 47.8329C51.4972 46.2777 52.7708 44.0809 53.568 41.7773C53.5875 41.7287 53.6555 41.6898 53.7138 41.7092C53.7722 41.7287 53.8013 41.7967 53.7819 41.855C52.9361 44.2851 51.5555 46.5985 50 48.1926C49.9805 48.212 49.9514 48.2217 49.9222 48.2217Z" fill="#014273"/>
<path d="M43.175 41.7289C43.1264 41.7289 43.0875 41.6998 43.0681 41.6512C42.3972 39.4641 43.0972 36.9661 44.7986 35.4303C44.8375 35.3914 44.9056 35.4011 44.9542 35.44C44.9931 35.4886 44.9833 35.5566 44.9445 35.5955C43.3306 37.0438 42.6403 39.5127 43.282 41.5831C43.2917 41.6415 43.2625 41.6998 43.2042 41.7192C43.1912 41.7257 43.1815 41.7289 43.175 41.7289Z" fill="#014273"/>
<path d="M69.5416 42.2731C66.7319 45.2669 64.0875 48.1732 61.2583 51.1671C60.8305 51.6142 60.3638 52.0905 59.7611 52.2557C59.1291 52.421 58.4583 52.2071 57.8263 52.003C55.1819 51.1087 53.4416 49.8743 51.1375 48.562C52.7319 46.9582 53.9277 45.0336 54.4625 42.7786C55.318 43.7214 56.2708 44.6351 57.5055 45.4905C60.4805 43.8478 65.1763 42.1467 67.2277 39.4348C68.7055 40.3874 68.7444 40.7373 69.5416 42.2731Z" fill="#EF6F6F"/>
<path d="M69.1722 41.5344C69.2791 41.7483 69.3958 41.9913 69.5416 42.2732C66.7319 45.267 64.0875 48.1733 61.2583 51.1671C60.8305 51.6142 60.3638 52.0905 59.7611 52.2558C59.1291 52.421 58.4583 52.2072 57.8263 52.003C55.1819 51.1088 53.4416 49.8743 51.1375 48.5621C51.4486 48.2511 51.7305 47.9303 52.0027 47.5998C54.5791 49.5924 57.0777 51.8475 59.2166 50.8949C63.4944 49.1356 66.1777 45.16 69.1722 41.5344Z" fill="#D65050"/>
<path d="M71.2333 41.4955C71.0194 41.8454 70.7958 42.2148 70.4652 42.4675C69.8138 42.9827 68.8805 43.0021 68.2291 43.5173C68.268 42.4772 67.8013 41.4274 66.9944 40.7567C66.8583 40.6498 66.7027 40.5332 66.6833 40.3582C66.6541 40.2124 66.7416 40.0763 66.8096 39.95C67.1985 39.2598 67.4513 38.4919 67.5485 37.7046C67.568 37.5005 67.5874 37.2963 67.6652 37.1117C67.743 36.9173 67.9083 36.752 68.1124 36.7228C68.336 36.7034 68.5596 36.8589 68.793 36.8395C69.1916 36.8006 69.4152 36.2563 69.8235 36.266C70.2902 36.266 70.4458 36.9853 70.9027 37.0922C71.0485 37.1311 71.2041 37.1019 71.3305 37.1797C71.4763 37.2672 71.5152 37.4713 71.5055 37.6463C71.4958 37.8212 71.4569 38.0059 71.5152 38.1712C71.6902 38.1128 71.8749 38.2781 71.9138 38.4628C71.9527 38.6475 71.8846 38.8419 71.836 39.0265C71.7874 39.2015 71.7485 39.4056 71.8263 39.5806C71.8944 39.7167 72.0305 39.8236 72.0596 39.9791C72.0791 40.1055 72.011 40.2416 71.9333 40.3582C71.6999 40.7341 71.4666 41.1131 71.2333 41.4955Z" fill="#64BCD1"/>
<path d="M67.1499 39.1433C67.7527 39.3183 68.2583 39.7557 68.618 40.2708C68.9777 40.786 69.2208 41.3692 69.4638 41.9427C69.5416 42.1177 69.6097 42.3024 69.6097 42.487C69.6 42.7106 69.4833 42.905 69.3569 43.0897C69.0749 43.4979 68.7444 43.877 68.3652 44.1978C68.268 44.2853 68.1222 44.363 68.0152 44.2853C67.9374 44.227 67.9472 44.1103 67.9374 44.0131C67.9374 43.7993 67.8888 43.5854 67.8208 43.3716C67.4611 42.1857 66.7999 41.0971 65.9152 40.232C66.33 39.8691 66.7416 39.5062 67.1499 39.1433Z" fill="#64BCD1"/>
<path d="M69.2792 42.9828C69.2208 42.9828 69.1722 42.944 69.1722 42.8856C69.0069 41.8359 68.4431 40.8444 67.6264 40.164C67.5875 40.1251 67.5778 40.0571 67.6167 40.0085C67.6556 39.9599 67.7236 39.9599 67.7722 39.9987C68.6278 40.7083 69.2111 41.7484 69.3861 42.8565C69.3958 42.9148 69.3569 42.9731 69.2889 42.9828C69.2889 42.9828 69.2856 42.9828 69.2792 42.9828Z" fill="#014273"/>
<path d="M108.917 111.16C108.917 115.194 101.722 118.46 92.8361 118.46C83.9597 118.46 76.7653 115.194 76.7653 111.16C76.7653 107.126 83.9597 103.86 92.8361 103.86C101.722 103.86 108.917 107.126 108.917 111.16Z" fill="#DCC2AB"/>
<path d="M91.6889 96.0357C91.1153 98.7088 90.2208 101.382 90.0555 104.084C90.1009 104.324 90.143 104.564 90.1819 104.803C90.3375 105.853 91.1347 106.874 90.5514 107.787C90.25 108.264 89.2291 108.866 88.8305 109.275C88.0722 110.081 87.7513 111.16 87.1097 112.045C86.4583 112.92 84.5624 113.552 83.561 113.017C82.6569 112.541 83.1721 111.384 83.5902 110.49C83.9985 109.605 84.786 108.925 85.3888 108.128C86.2833 106.952 86.6624 105.484 86.8763 103.987L85.6902 86.9668H92.4278C92.5736 89.9995 92.3305 93.0419 91.6889 96.0357Z" fill="#EF6F6F"/>
<path d="M91.6889 96.0357C91.1153 98.7088 90.2208 101.382 90.0555 104.084C90.1009 104.324 90.143 104.564 90.1819 104.803C90.318 105.746 90.9694 106.67 90.6875 107.506C90.5805 106.806 90.2889 106.106 89.7541 105.425C89.1805 104.269 88.8889 102.83 89.1805 101.392C90.5416 96.4926 90.6194 91.8463 90.6194 86.9668H92.4278C92.5736 89.9995 92.3305 93.0419 91.6889 96.0357Z" fill="#D65050"/>
<path d="M98.2902 58.9045C98.2513 61.1305 97.6 63.3661 96.7541 65.4657C95.5583 68.4595 95.0138 69.1982 94.2944 72.3087C93.5749 75.3705 92.6708 80.6875 92.7972 83.8271C92.9073 86.6783 93.0208 89.5296 93.1374 92.3808C89.443 93.0807 87.7319 92.2156 85.2819 92.2448C85.1166 88.483 84.7666 84.1673 84.8249 80.0751C84.9319 72.9696 85.9819 65.6892 86.5555 58.9045H98.2902Z" fill="#014273"/>
<path d="M90.9013 92.6433C91.5624 92.6142 92.3013 92.5364 93.1374 92.3809C93.0208 89.5296 92.9073 86.6784 92.7972 83.8271C92.6708 80.6875 93.5749 75.3706 94.2944 72.3087C95.0138 69.1983 95.5583 68.4595 96.7541 65.4657C97.036 64.7756 97.2888 64.066 97.5124 63.3564C91.3972 71.9102 90.5902 82.2816 90.9013 92.6433Z" fill="#0B2E3F"/>
<path d="M98.2902 58.9045C98.261 60.6833 97.8333 62.4815 97.2305 64.202C93.5069 64.6977 89.7541 64.5617 86.118 63.4341C86.2833 61.9081 86.4292 60.3917 86.5555 58.9045H98.2902Z" fill="#0B2E3F"/>
<path d="M84.2611 113.338C83.9305 113.299 83.6777 113.143 83.3958 112.968C83.1236 112.793 82.9388 112.424 83.075 112.132C83.5805 112.638 84.3486 112.871 85.0485 112.725C85.7972 112.56 86.4096 112.006 86.8763 111.394C87.3527 110.791 87.7221 110.101 88.2471 109.537C88.6846 109.051 89.2096 108.662 89.6763 108.205C90.1429 107.758 90.561 107.214 90.6874 106.572C90.9596 106.961 90.9402 107.486 90.7554 107.914C90.5707 108.341 90.2304 108.682 89.8707 108.983C89.511 109.274 89.1221 109.547 88.8013 109.887C88.3055 110.412 87.9944 111.063 87.6055 111.675C87.2263 112.278 86.7402 112.871 86.0596 113.114C85.5152 113.318 84.8347 113.386 84.2611 113.338Z" fill="#481B26"/>
<path d="M83.5707 110.042C83.7555 109.702 84.0082 109.372 84.3777 109.236C84.6985 109.119 85.0583 109.187 85.3888 109.284C86.1958 109.547 86.9152 110.033 87.4499 110.694C87.0416 111.374 86.536 112.035 85.8458 112.453C85.1652 112.871 84.2707 113.007 83.5513 112.638C83.3082 112.511 83.0749 112.307 82.9971 112.045C82.9194 111.802 82.968 111.549 83.036 111.316C83.1624 110.869 83.3374 110.441 83.5707 110.042Z" fill="#481B26"/>
<path d="M102.461 87.2485C103.19 90.4562 103.112 93.7805 102.237 96.9687C101.586 99.3405 101.44 102.772 101.703 103.87C101.839 104.444 102.111 105.202 102.169 105.785C102.257 106.66 101.635 107.467 101.45 108.322C101.226 109.352 101.44 109.819 101.294 110.859C101.187 111.675 100.439 112.56 99.7194 113.124C99.1166 113.6 97.8138 114.319 97.0069 114.135C96.0638 113.921 95.6749 113.571 95.6361 112.754C95.5194 110.402 97.1624 108.196 97.7263 105.95C98.5333 102.752 97.5319 95.6273 95.8597 90.7672L95.4319 87.2485H102.461Z" fill="#EF6F6F"/>
<path d="M102.237 96.9687C101.586 99.3404 101.44 102.772 101.703 103.87C101.839 104.444 102.111 105.202 102.169 105.785C102.257 106.66 101.635 107.467 101.45 108.322C101.226 109.352 101.44 109.819 101.294 110.859C101.246 111.248 101.042 111.656 100.769 112.035C101.129 110.966 101.265 109.858 101.265 108.876C102.13 104.269 99.8263 100.244 100.692 95.6371C101.479 92.7502 101.071 90.0965 100.769 87.2485H102.461C103.19 90.4562 103.112 93.7805 102.237 96.9687Z" fill="#D65050"/>
<path d="M104.658 92.6238C101.975 94.4901 98.3874 94.8594 95.4221 93.4889C94.2554 82.369 93.7402 72.3475 92.5735 61.2277L92.136 58.9045H101.703C103.083 61.2957 103.258 64.3867 103.414 67.2542C103.608 70.9187 102.636 75.4677 102.548 79.1322C102.432 84.42 103.521 87.7151 104.658 92.6238Z" fill="#014273"/>
<path d="M104.658 92.6238C104.6 92.6627 103.696 93.2459 103.637 93.2848C103.287 91.438 103.715 89.0468 103.171 87.2C100.507 78.6171 103.171 70.3258 101.401 61.4512C101.139 60.557 100.828 59.7113 100.478 58.9045H101.703C103.083 61.2957 103.258 64.3867 103.414 67.2542C103.608 70.9187 102.636 75.4677 102.549 79.1322C102.432 84.42 103.521 87.7151 104.658 92.6238Z" fill="#0B2E3F"/>
<path d="M101.703 58.9045C102.403 60.1098 102.792 61.4998 103.025 62.9481C99.8555 64.1923 96.3457 64.7075 92.9235 64.7464C92.8068 63.5897 92.6902 62.4135 92.5735 61.2277L92.136 58.9045H101.703Z" fill="#0B2E3F"/>
<path d="M99.5833 112.852C100.322 112.161 101.081 111.374 101.207 110.373C101.285 109.77 101.119 109.148 101.207 108.546C101.343 107.515 102.267 106.533 102.14 105.493C102.364 105.843 102.315 106.359 102.228 106.767C102.15 107.175 101.975 107.564 101.868 107.962C101.567 109.051 101.703 110.217 101.382 111.296C101.129 112.191 100.565 112.988 99.8069 113.522C99.0486 114.057 98.1153 114.329 97.1819 114.29C96.8514 114.271 96.5014 114.212 96.2097 114.047C95.9083 113.882 95.743 113.513 95.675 113.182C96.3167 113.571 96.9292 114.057 97.668 113.979C98.4264 113.911 99.0389 113.367 99.5833 112.852Z" fill="#481B26"/>
<path d="M100.701 112.064C100.069 112.91 99.175 113.552 98.1736 113.872C97.7166 114.018 97.2305 114.106 96.7541 114.008C96.2874 113.921 95.8402 113.62 95.6457 113.182C95.4902 112.813 95.5194 112.405 95.568 112.016C95.6263 111.562 95.7073 111.112 95.811 110.665C95.8499 110.49 95.8985 110.295 96.0249 110.159C96.2096 109.965 96.5013 109.936 96.7735 109.916C97.4055 109.877 98.0472 109.839 98.6888 109.907C99.3208 109.984 99.9527 110.179 100.458 110.577C100.75 110.811 101.012 111.16 100.964 111.54C100.935 111.734 100.818 111.909 100.701 112.064Z" fill="#481B26"/>
<path d="M82.3361 49.4857C82.1125 49.1358 81.9083 48.7664 81.8111 48.3679C81.6166 47.5611 81.85 46.7057 82.2194 45.9573C82.5889 45.2185 83.0944 44.5478 83.4639 43.7994C84.0569 42.6232 84.3097 41.3013 84.6402 40.028C84.9319 38.9004 85.2916 37.7923 85.7194 36.7036C86.0888 35.7705 86.5361 34.8082 87.3819 34.2542C87.5569 34.1375 87.7611 34.0403 87.9847 34.0306C88.2374 34.0209 88.4805 34.1375 88.6944 34.2736C89.7638 34.954 90.3958 36.2662 90.2597 37.5201C90.2013 38.152 89.9583 38.7449 89.7249 39.3281C88.6458 42.0303 87.5375 44.7811 87.2847 47.6777C87.2458 48.1443 87.2166 48.64 86.9638 49.0386C86.7694 49.3496 86.4583 49.5635 86.1472 49.7676C85.3013 50.3411 84.2416 50.934 83.318 50.4869C82.8903 50.2828 82.5889 49.8842 82.3361 49.4857Z" fill="#DCC2AB"/>
<path d="M86.7305 36.7329C86.8666 40.0669 88.4221 43.3232 87.9263 46.6281C87.8485 47.1238 87.7221 47.6292 87.4791 48.0666C87.2263 48.504 86.8374 48.8831 86.3513 49.0387C86.818 47.8236 86.5263 46.4628 86.118 45.2283C85.7096 43.9939 85.1749 42.7691 85.136 41.4764C85.0874 39.785 85.8943 38.2007 86.7305 36.7329Z" fill="#481B26"/>
<path d="M94.4305 20.0919C95.6069 20.0433 96.9194 20.053 97.7458 20.8792C98.3097 21.4333 98.5236 22.24 98.7083 23.0079C100.04 28.5679 101.081 34.1959 101.81 39.8627C97.7555 39.4059 93.6527 39.3962 89.5888 39.8238C90.9499 35.1387 90.0652 30.1425 90.0652 25.263C90.0652 24.3979 90.0944 23.5328 90.3374 22.7066C90.5805 21.8804 91.0666 21.1028 91.7958 20.6556C92.5735 20.1794 93.5263 20.121 94.4305 20.0919Z" fill="#481B26"/>
<path d="M85.5056 49.6994C84.7278 50.2826 83.5903 50.234 82.7542 49.7383C81.9181 49.2425 81.3542 48.3775 81.0528 47.454C80.7417 46.5306 80.6639 45.5489 80.6153 44.5769C80.4889 42.2926 80.1097 40.3097 79.4778 37.8991C78.9042 37.8408 78.3597 37.5686 78.068 37.0826C77.8736 36.7521 77.8153 36.3439 77.5917 36.0328C77.3972 35.7607 77.0764 35.5274 77.0861 35.1969C77.1055 34.847 77.4944 34.6429 77.65 34.3221C77.7569 34.0888 77.7472 33.7778 77.9417 33.6125C78.0097 33.5639 78.0875 33.525 78.1361 33.4667C78.2236 33.3598 78.1847 33.1946 78.2042 33.0585C78.2528 32.6988 78.7389 32.4753 79.0403 32.6794C79.0792 32.4655 79.3805 32.3878 79.575 32.4947C79.7694 32.5919 79.8861 32.796 79.993 32.9904C80.1972 33.3209 80.45 33.6222 80.7319 33.8847C80.975 34.1082 81.2375 34.3124 81.4222 34.5845C81.8014 35.158 81.7236 35.8968 81.8306 36.5772C81.8792 36.5772 81.918 36.5772 81.9667 36.5772C82.5597 39.4932 84.4167 41.9913 85.5542 44.4213C85.9625 45.2864 86.3806 46.171 86.4681 47.1236C86.5653 48.0858 86.2736 49.1356 85.5056 49.6994Z" fill="#EF6F6F"/>
<path d="M85.5055 49.6994C84.7277 50.2826 83.5902 50.234 82.7541 49.7383C82.6374 49.667 82.5272 49.5892 82.4235 49.505C82.7833 49.5147 83.1624 49.4758 83.5805 49.3786C84.5138 49.0676 85.4472 48.1344 85.4472 47.2013C85.4472 44.8587 84.3972 42.7203 83.4541 40.4944C84.1638 41.8552 84.9611 43.148 85.5541 44.4213C85.9625 45.2864 86.3805 46.171 86.468 47.1235C86.5652 48.0858 86.2736 49.1356 85.5055 49.6994Z" fill="#D65050"/>
<path d="M78.7 33.7972C79.0597 33.5542 79.5458 33.6222 79.9444 33.7972C80.168 33.8944 80.3819 34.0305 80.5472 34.2151C80.7028 34.4095 80.8 34.6623 80.7611 34.9053C80.7319 35.09 80.6347 35.2552 80.5472 35.4107C80.2944 35.8773 80.1291 36.3925 80.0611 36.9174C79.6527 36.4605 79.1375 36.0912 78.5638 35.8579C78.3986 35.7898 78.2236 35.7218 78.1263 35.576C77.9805 35.3816 78.0388 35.1094 78.1069 34.8761C78.2138 34.4679 78.3402 34.0207 78.7 33.7972Z" fill="#D65050"/>
<path d="M81.4222 34.5649C80.4889 34.6038 79.5653 34.8371 78.7292 35.2454C78.6417 35.294 78.5542 35.3328 78.4569 35.3231C78.3792 35.3231 78.3111 35.2745 78.243 35.2259C76.6097 34.0692 75.4625 32.2515 75.1125 30.2881C76.1722 30.2978 77.2319 30.1908 78.2625 29.9673C78.8555 31.4545 79.4972 33.0097 80.7611 33.9817L81.4222 34.5649Z" fill="#64BCD1"/>
<path d="M81.1208 34.5261C80.1972 34.39 79.2541 34.4483 78.35 34.7011C78.2625 34.7205 78.1652 34.7497 78.068 34.7205C77.9902 34.7011 77.9319 34.6427 77.8736 34.5844C76.493 33.1458 75.6958 31.1532 75.7153 29.1509C76.7555 29.3647 77.8152 29.4522 78.875 29.423C79.1763 30.988 79.5263 32.6404 80.5763 33.836L81.1208 34.5261Z" fill="#014273"/>
<path d="M81.607 34.3318C80.6833 34.186 79.7306 34.2443 78.8361 34.497C78.7389 34.5262 78.6417 34.5553 78.5542 34.5262C78.4764 34.497 78.4083 34.4387 78.35 34.3804C76.9695 32.9418 76.182 30.9492 76.1917 28.9565C77.232 29.1607 78.2917 29.2579 79.3514 29.2287C79.6625 30.7936 80.0028 32.4363 81.0625 33.6319L81.607 34.3318Z" fill="#64BCD1"/>
<path d="M82.1708 38.0548C81.8305 38.2978 81.3152 38.1131 81.0721 37.7729C80.8291 37.4327 80.7902 36.9855 80.7999 36.5676C80.7999 36.2565 80.8226 35.9455 80.868 35.6344C80.9069 35.3525 80.9555 35.0707 80.9263 34.7888C80.9069 34.5166 80.7805 34.225 80.5374 34.0792C80.4305 34.0014 80.2944 33.9723 80.1874 33.8945C79.9638 33.7584 79.8471 33.4863 79.818 33.2238C79.7985 32.9516 79.8569 32.6892 79.9152 32.4268C80.1874 32.8933 80.693 33.2141 81.2374 33.253C81.4221 33.6904 81.6846 34.0986 82.0152 34.4486C82.2096 34.6527 82.4333 34.8568 82.4721 35.1387C82.5013 35.3039 82.4527 35.4886 82.4235 35.6539C82.3166 36.169 82.3458 36.6939 82.3749 37.2091L82.1708 38.0548Z" fill="#EF6F6F"/>
<path d="M95.393 31.8047C97.9111 31.9505 100.351 32.6503 102.772 33.3599C103.161 35.5081 103.035 37.7534 102.412 39.8433C101.829 41.8067 100.818 43.6438 100.449 45.6462C100.069 47.6972 100.381 49.8064 100.682 51.8574C101.003 53.9958 102.51 59.3517 102.821 61.4901C97.8236 62.501 90.3666 63.9396 86.2055 61.0624C86.2832 56.63 87.9749 49.1358 86.7305 44.8783C86.2735 43.3522 85.4957 41.8456 85.6318 40.2612C85.7582 38.8712 86.5749 37.6368 86.818 36.2662C86.9152 35.6733 86.9152 35.0415 87.2069 34.5069C87.4305 34.0986 87.7999 33.7973 88.1888 33.5349C90.2596 32.1157 92.8847 31.6589 95.393 31.8047Z" fill="#DCC2AB"/>
<path d="M99.8069 61.704C99.9916 59.2545 100.137 56.6398 98.9125 54.5305C98.8541 54.5176 98.7958 54.5046 98.7375 54.4916C97.5027 54.307 96.2389 54.3653 95.043 54.6861C93.7791 55.0165 92.593 55.6192 91.3194 55.9205C90.0458 56.2121 88.5777 56.1344 87.6055 55.2595C87.3527 55.0263 87.1389 54.7152 87.1972 54.3847C87.275 53.9473 87.7611 53.7335 88.1791 53.5974C90.0069 53.0045 91.8444 52.431 93.7402 52.1588C95.2277 51.945 96.7541 51.9352 98.2222 52.256C98.368 51.7894 98.6791 51.3618 98.825 50.8855C99.1264 49.9815 98.825 48.9706 98.368 48.1249C97.9111 47.2598 97.2694 46.3947 97.3569 45.4227C97.425 44.6743 97.9111 44.0424 98.3486 43.4301C99.7875 41.4083 100.867 39.124 101.499 36.7231C102.043 38.1715 101.79 39.7947 101.314 41.2528C100.837 42.7205 100.147 44.1202 99.8069 45.6268C99.2041 48.261 99.7097 51.0313 100.41 53.646C101.11 56.2607 102.014 58.5061 102.189 61.2083C101.528 61.2569 100.662 61.6554 99.8069 61.704Z" fill="#481B26"/>
<path d="M92.2721 38.0159C91.7083 38.0159 91.1249 37.8896 90.6097 37.5396C89.968 37.112 89.5013 36.3829 89.2972 35.479C89.1124 34.6625 89.1513 33.8265 89.2194 33.0392C89.2194 32.9711 89.268 32.9323 89.336 32.9323C89.3944 32.942 89.443 32.9906 89.4333 33.0586C89.3652 33.8265 89.3263 34.643 89.511 35.4304C89.7055 36.276 90.1333 36.9662 90.736 37.3647C92.0388 38.2298 93.7888 37.5688 94.4791 37.248C96.5207 36.2857 98.2027 34.5555 99.1068 32.5046C99.1263 32.4463 99.1943 32.4171 99.2527 32.4463C99.3013 32.4657 99.3304 32.5337 99.3013 32.5921C98.3777 34.6916 96.6568 36.4607 94.5763 37.4424C94.1194 37.6563 93.2249 38.0159 92.2721 38.0159Z" fill="#481B26"/>
<path d="M94.3819 62.3357C90.9111 62.3357 88.0333 61.6553 86.3611 60.6249C86.3125 60.5958 86.293 60.5277 86.3319 60.4791C86.3611 60.4208 86.4291 60.4111 86.4777 60.4402C89.3264 62.1899 95.7722 62.9091 102.597 60.9068C102.656 60.8874 102.714 60.9165 102.733 60.9748C102.753 61.0332 102.724 61.1012 102.665 61.1109C99.7583 61.9663 96.9097 62.3357 94.3819 62.3357Z" fill="#481B26"/>
<path d="M98.6111 32.6795C98.5236 33.321 98.1347 33.8848 97.6972 34.3611C96.6277 35.5567 95.218 36.4412 93.6819 36.8883C93.3027 36.9953 92.9041 37.0827 92.5055 37.0827C91.5819 37.0633 90.6971 36.5093 90.2207 35.7219C89.7346 34.9249 89.6568 33.914 89.9582 33.0294C90.8041 32.6795 91.6888 32.4171 92.593 32.2615C92.8652 30.7711 93.1374 29.2839 93.4096 27.8C94.4111 27.7514 95.4027 27.5375 96.2875 27.1584C96.2777 28.8692 96.4916 30.5799 96.9194 32.2615C97.493 32.3587 98.0569 32.5045 98.6111 32.6795Z" fill="#EF6F6F"/>
<path d="M92.593 32.2227C92.8652 30.7452 93.1374 29.271 93.4096 27.8C94.2652 27.7611 95.1013 27.5861 95.8791 27.314C96.5111 29.9481 94.6735 31.3284 92.593 32.2227Z" fill="#D65050"/>
<path d="M94.975 29.1997C94.3041 29.8801 93.5264 30.4341 92.7389 30.959C92.4472 31.1631 92.1069 31.2701 91.7569 31.2701H91.7472C91.2222 31.2701 90.9208 31.0562 90.5903 30.6383C90.2403 30.2009 89.7639 29.6857 89.4625 29.1219C89.2583 28.7331 89.0542 27.8 89.0736 27.3528C89.1125 26.5752 89.3944 26.5072 89.1222 25.7782C89.0347 25.5352 88.9667 25.3602 88.8792 25.1269C88.7917 24.8645 88.85 24.4368 88.9083 24.1743C89.0639 23.4356 89.1514 22.726 89.5986 22.1331L91.5333 21.9193C92.6028 21.8026 93.7305 21.9679 94.6736 22.5316C95.6166 23.0857 96.3555 24.0577 96.5305 25.1755C96.7638 26.653 96.0055 28.1499 94.975 29.1997Z" fill="#EF6F6F"/>
<path d="M96.1222 20.3154C97.1333 20.4806 97.9791 21.2777 98.3291 22.24C98.6888 23.2023 98.6013 24.2812 98.2513 25.2435C97.8916 26.2058 97.2986 27.0514 96.6277 27.8291C96.5597 27.9068 96.4916 27.9943 96.3944 28.0429C96.2194 28.1304 96.0055 28.1012 95.8402 27.9943C95.6749 27.8874 95.5486 27.7221 95.4513 27.5472C95.111 26.9445 94.9749 26.2155 95.0916 25.5254C93.7597 25.4379 92.7388 25.0685 91.9805 23.9604C91.7569 23.6494 90.8527 23.3189 90.4541 22.7746C90.2402 22.4732 90.0263 22.8135 89.7249 23.0273C89.4235 23.2411 89.3555 23.6591 88.9763 23.6494C87.8874 23.0079 89.8221 20.8111 91.018 20.0238C92.2138 19.2364 93.7791 19.0323 95.1499 19.4892C95.743 19.6836 96.3555 20.0724 96.5111 20.675L96.1222 20.3154Z" fill="#481B26"/>
<path d="M89.2291 25.2726C89.2226 25.2726 89.2161 25.2694 89.2096 25.2629L88.879 25.2046C88.8207 25.1949 88.7818 25.1463 88.7915 25.0782C88.8013 25.0199 88.8596 24.981 88.9179 24.9907L89.2485 25.0491C89.3069 25.0588 89.3457 25.1171 89.336 25.1754C89.3263 25.2337 89.2874 25.2726 89.2291 25.2726Z" fill="#481B26"/>
<path d="M93.1957 25.1949C93.1763 25.1949 93.1601 25.1916 93.1471 25.1852C92.9138 25.0685 92.6804 24.9519 92.4276 24.9033C92.1651 24.8547 91.9123 24.8935 91.7471 25.0199C91.6985 25.0588 91.6304 25.0491 91.5915 25.0005C91.5526 24.9519 91.5623 24.8838 91.6109 24.8449C91.8346 24.6894 92.1457 24.6311 92.4665 24.6894C92.7485 24.738 93.0013 24.8644 93.2443 24.981C93.2929 25.0102 93.3221 25.0782 93.2929 25.1366C93.2735 25.1754 93.2346 25.1949 93.1957 25.1949Z" fill="#481B26"/>
<path d="M90.8624 28.8983C90.856 28.8983 90.8527 28.8983 90.8527 28.8983L89.9679 28.7817C89.8707 28.772 89.7249 28.7525 89.6276 28.6359C89.4429 28.4415 89.5888 28.1401 89.6374 28.0332C89.8124 27.6639 90.0263 27.1778 90.0457 26.6627C90.0749 26.1475 89.8999 25.6809 89.5985 25.3893C89.5499 25.3407 89.5499 25.2727 89.5888 25.2338C89.6374 25.1852 89.7054 25.1852 89.7443 25.2241C90.1041 25.5643 90.2888 26.0892 90.2693 26.6724C90.2402 27.2264 90.0263 27.7416 89.8415 28.1304C89.7443 28.3151 89.7346 28.4317 89.7832 28.4901C89.8318 28.5387 89.9096 28.5484 89.9971 28.5678L90.8819 28.6845C90.9402 28.6942 90.9791 28.7428 90.9694 28.8011C90.9694 28.8594 90.9208 28.8983 90.8624 28.8983Z" fill="#481B26"/>
<path d="M90.9402 29.6954C90.8559 29.6954 90.7717 29.6857 90.6874 29.6662C90.6291 29.6565 90.5902 29.5982 90.5999 29.5398C90.6097 29.4815 90.668 29.4426 90.7263 29.4524C91.086 29.5204 91.4749 29.4135 91.7374 29.1608C91.786 29.1219 91.8541 29.1219 91.8929 29.1608C91.9318 29.2094 91.9318 29.2774 91.8929 29.3163C91.6402 29.5593 91.2902 29.6954 90.9402 29.6954Z" fill="#481B26"/>
<path d="M92.2138 25.8752C92.311 26.0405 92.3596 26.3321 92.2624 26.4196C92.1943 26.4779 92.0679 26.4487 92.0096 26.3807C91.9512 26.3127 91.9221 26.2154 91.9123 26.1182C91.8929 26.0308 91.8735 25.9336 91.9123 25.8558C91.9415 25.7683 92.0485 25.71 92.1262 25.7586C92.1554 25.778 92.1943 25.8169 92.2138 25.8752Z" fill="#481B26"/>
<path d="M89.5402 25.8266C89.618 25.9822 89.6666 26.2446 89.5791 26.3224C89.5208 26.3807 89.4235 26.3515 89.3652 26.2932C89.3166 26.2252 89.2971 26.1377 89.2874 26.0599C89.268 25.9724 89.2485 25.885 89.2777 25.8169C89.3069 25.7392 89.4041 25.6808 89.4721 25.7294C89.4916 25.7489 89.5208 25.7878 89.5402 25.8266Z" fill="#481B26"/>
<path d="M102.267 33.3988C102.704 33.3502 103.044 33.7779 103.268 34.1861C103.686 34.9249 104.017 35.7219 104.24 36.5579C104.58 37.7826 104.833 39.0559 104.853 40.3293C104.989 47.6486 107.225 49.1357 105.465 52.3142C102.587 53.9667 100.04 51.1089 100.555 49.301C100.633 45.7531 100.021 45.131 99.3694 42.0497C99.1555 41.0583 98.9416 40.0668 98.9513 39.0559C98.9708 36.8689 100.108 34.7207 101.839 33.5932C101.975 33.5057 102.121 33.428 102.267 33.3988Z" fill="#DCC2AB"/>
<path d="M99.9041 44.9949C99.8652 44.9949 99.8263 44.9657 99.8069 44.9268C98.8347 42.419 98.7277 39.6293 99.4958 37.0535C99.5152 36.9952 99.5736 36.966 99.6319 36.9757C99.6902 36.9952 99.7194 37.0632 99.7097 37.1118C98.9513 39.639 99.0583 42.3899 100.011 44.8491C100.03 44.9074 100.001 44.9657 99.9527 44.9851C99.9333 44.9916 99.9171 44.9949 99.9041 44.9949Z" fill="#481B26"/>
<path d="M100.458 49.1553C100.439 49.1553 100.419 49.1488 100.4 49.1358C100.351 49.097 100.342 49.0289 100.371 48.9803C100.954 48.1444 101.907 47.5709 102.908 47.4445C103.919 47.3182 104.979 47.6389 105.747 48.3096C105.796 48.3485 105.796 48.4166 105.757 48.4652C105.718 48.504 105.65 48.5138 105.601 48.4749C104.882 47.8528 103.89 47.5417 102.937 47.6681C101.994 47.7847 101.1 48.3194 100.556 49.1067C100.526 49.1358 100.497 49.1553 100.458 49.1553Z" fill="#481B26"/>
<path d="M105.319 51.4201C104.775 52.4018 103.686 52.9753 102.587 53.2086C101.489 53.4516 100.351 53.3835 99.2236 53.3933C97.4055 53.403 95.5777 53.5877 93.7888 53.9376C93.6398 54.0283 93.4939 54.1223 93.3513 54.2195C92.9106 54.5176 92.4698 54.8156 92.0291 55.1137C91.5624 55.4345 90.9597 55.765 90.4541 55.4928C90.3569 55.4345 90.2597 55.347 90.143 55.3179C89.8513 55.2498 89.5208 55.5317 89.268 55.3665C89.0055 55.2012 89.1027 54.7055 88.811 54.5986C88.7333 54.5694 88.6555 54.5791 88.568 54.5888C88.3638 54.618 88.1499 54.6472 87.936 54.6083C87.7319 54.5597 87.5374 54.4139 87.4985 54.2C87.4791 54.1028 87.4985 54.0056 87.4596 53.9084C87.3527 53.6363 86.9055 53.7237 86.711 53.5099C86.5749 53.3641 86.6041 53.1211 86.7208 52.9656C86.8374 52.8003 87.0124 52.7031 87.1874 52.6156C87.6735 52.3629 88.1564 52.1102 88.636 51.8575C88.9472 51.6922 89.268 51.527 89.4624 51.2354C89.6569 50.934 89.7735 50.4966 90.1333 50.4577C90.2499 50.448 90.3666 50.4869 90.4735 50.5258C91.086 50.7396 91.718 50.8757 92.3597 50.9438C94.4694 50.934 96.5791 50.5258 98.5333 49.7482C99.7291 49.2719 100.876 48.6595 102.101 48.2804C102.986 48.0083 104.017 47.8916 104.785 48.4068C105.718 49.0289 105.874 50.448 105.319 51.4201Z" fill="#EF6F6F"/>
<path d="M93.4972 53.9181C96.8222 51.3617 102.403 53.3349 105.631 50.3994C105.601 50.7591 105.494 51.109 105.319 51.42C104.775 52.4018 103.686 52.9753 102.587 53.2086C101.489 53.4516 100.351 53.3835 99.2236 53.3932C97.4055 53.403 95.5778 53.5876 93.7889 53.9376C93.6398 54.0283 93.494 54.1222 93.3514 54.2195C92.9106 54.5175 92.4699 54.8156 92.0291 55.1137C91.5625 55.4345 90.9597 55.765 90.4541 55.4928C90.4153 55.4636 90.3666 55.4345 90.3278 55.4053C91.4361 55.1429 92.525 54.6471 93.4972 53.9181Z" fill="#D65050"/>
</g>
<defs>
<clipPath id="clip0_471_601">
<rect width="142" height="132" fill="white"/>
</clipPath>
</defs>
</svg>
