<svg width="143" height="123" viewBox="0 0 143 123" fill="none" xmlns="http://www.w3.org/2000/svg">
<path d="M119.991 60.9432C119.888 61.815 116.59 62.9846 110.097 64.452C116.667 64.0377 119.94 63.9945 119.914 64.3225C119.837 65.7467 119.489 67.4817 118.961 69.3979C118.896 69.6439 106.065 71.0163 105.988 71.2752C105.807 71.8579 118.381 71.327 118.188 71.9356C116.848 75.9881 114.928 80.5067 113.073 84.5334C112.901 84.8959 108.839 85.3318 100.886 85.841C108.126 86.8337 111.656 87.5199 111.476 87.8997C109.917 91.1236 105.807 95.4221 93.2206 94.1662L82.6051 89.7641C84.1124 81.7756 94.5346 67.1839 98.5154 61.8755C98.8375 61.4482 102.793 64.8145 103.128 64.4002C103.424 64.0377 100.1 59.8686 100.409 59.5061C103.102 56.3081 105.91 53.7057 108.435 51.7118C108.684 51.5132 109.024 53.2094 109.453 56.8001C109.985 52.6828 110.471 50.4775 110.909 50.184C113.503 48.4231 115.748 47.1457 117.647 46.3516C119.231 51.66 120.468 56.5541 119.991 60.9432Z" fill="#84C4E2"/>
<path d="M100.512 82.902L109.775 63.1313C109.749 62.8983 109.723 62.6652 109.698 62.4322C109.608 61.6295 109.517 60.8138 109.427 60.011C109.208 58.0301 109.079 56.0362 108.835 54.0552C108.637 52.4757 108.504 51.6945 108.435 51.7118C108.731 51.5823 108.95 53.2266 109.054 53.8222C109.234 54.7544 109.324 55.5701 109.466 56.5152C109.749 58.3797 110.033 60.2441 110.252 62.1214L117.646 46.3516C115.139 52.5318 112.725 58.3192 110.406 63.714C110.432 63.7053 110.458 63.6967 110.484 63.6881C110.754 63.5974 117.054 63.3126 119.978 60.8526L119.901 61.1633C117.015 64.0247 110.342 64.4131 110.097 64.452C108.912 67.1839 108.512 68.0254 107.327 70.6279C107.469 70.6538 107.662 70.602 107.791 70.589C108.057 70.5545 108.324 70.52 108.59 70.4854C109.517 70.3732 110.445 70.261 111.372 70.1488C113.524 69.8899 115.688 69.7086 117.84 69.4755C118.175 69.441 118.458 69.4238 118.69 69.4238C117.273 69.7259 116.096 69.9589 115.16 70.1229C113.047 70.4854 110.934 70.8221 108.809 71.1458C108.508 71.1976 108.212 71.245 107.92 71.2882C107.611 71.34 107.289 71.4047 107.031 71.2752C104.145 77.5677 101.53 82.6301 100.512 82.902Z" fill="#AEE4F4"/>
<path d="M99.5074 86.0224L99.6491 85.3232L113.073 84.5334C111.02 84.9564 106.499 85.4527 99.5074 86.0224Z" fill="#4E9DC4"/>
<path d="M100.409 59.5061L107.559 68.5175L106.747 70.2265C102.427 63.7356 100.315 60.1621 100.409 59.5061Z" fill="#AEE4F4"/>
<path d="M24.6321 35.644C26.9768 36.8784 29.7208 38.7859 32.8643 41.3668C33.3967 41.7984 33.2207 46.5975 32.3361 55.7643C34.3887 47.3916 35.5697 43.3477 35.8788 43.6326C38.9836 46.5716 42.4362 50.417 45.6183 55.0522C45.8244 55.3499 43.1577 59.4154 43.3638 59.7262C48.4139 67.3392 55.5768 73.2432 56.6589 84.611C57.1571 89.2462 57.1528 91.4127 56.6461 91.1106C56.1307 90.8085 49.5519 95.7587 36.9095 105.961C35.2261 103.225 33.3753 100.079 31.357 96.5226C30.9576 95.8105 38.6615 92.2629 38.2493 91.5119C37.953 90.994 29.5534 93.2857 29.257 92.7549C26.2167 87.1746 23.1377 81.0634 21.9267 77.0756C21.7721 76.5577 29.9398 76.5966 29.7981 76.0657C29.6865 75.6428 26.7492 74.8098 20.9862 73.5669C19.9685 69.2036 19.3372 64.1283 19.5562 58.4314C19.5734 58.0085 23.2364 58.5523 30.5453 60.0628C23.3653 56.6188 19.8053 54.6249 19.8654 54.0811C20.4838 48.436 21.9396 42.2601 24.6321 35.644Z" fill="#F7AB61"/>
<path d="M24.6321 35.644C26.9768 36.8784 29.7208 38.7859 32.8642 41.3668C33.3967 41.7984 33.2207 46.5975 32.336 55.7643C34.3887 47.3916 35.5696 43.3477 35.8788 43.6326C38.9836 46.5716 42.4362 50.417 45.6183 55.0522C45.8373 55.3629 44.1883 57.9912 44.3944 58.3019C49.4316 65.915 55.5767 73.2561 56.6589 84.611C57.157 89.2462 57.1528 91.4127 56.646 91.1106C56.1307 90.8085 50.5095 87.1357 39.7823 80.0924L24.6321 35.644Z" fill="#FFC68D"/>
<path d="M42.3847 84.611C41.0964 84.1449 40.4136 84.6887 37.4505 76.2729C36.9352 78.7847 21.0249 73.6187 20.9862 73.5669C21.5144 73.7352 37.4505 76.2729 37.1413 75.4054C36.3254 73.0835 32.1557 59.8297 24.6321 35.644L42.3847 84.611Z" fill="#FFE2CF"/>
<path d="M23.5628 56.5281C23.6487 56.5367 26.6933 57.9954 32.6968 60.9042L33.1219 61.8882L23.5628 56.5281Z" fill="#FFE2CF"/>
<path d="M32.0398 58.3149L31.9238 57.292L34.2427 48.4231L32.0398 58.3149Z" fill="#FFE2CF"/>
<path d="M55.7442 118.235C54.8424 119.103 52.9486 119.608 50.4107 119.608C47.2029 119.608 42.9515 118.818 38.3266 116.979C36.7162 116.345 34.6678 115.413 32.4005 114.105C32.0269 113.807 31.6146 113.535 31.1637 113.354C28.9478 111.969 26.5774 110.247 24.2585 108.085C23.0475 109.276 15.6914 113.872 8.76037 109.405C12.6166 106.885 17.641 106.311 23.8333 107.683C23.7475 107.605 23.6659 107.528 23.5886 107.45C23.5714 107.45 23.5628 107.45 23.5628 107.45C23.5628 107.441 23.5628 107.433 23.5628 107.424C21.4371 105.353 19.363 102.919 17.5078 100.057C17.4177 99.8889 16.8379 98.9566 16.8251 98.9566C15.1116 96.1341 13.6043 92.9102 12.4578 89.2591C11.7621 89.6604 5.56542 90.9163 1.18524 89.1684C3.47839 85.0512 7.21872 85.0253 12.4062 89.0907C11.659 86.7084 11.0664 84.1449 10.6542 81.3871C8.91497 74.771 11.6719 70.3689 11.775 70.8867C13.5399 79.2637 11.7106 81.9179 11.1695 82.5005C11.5946 84.9476 12.1615 87.2263 12.8442 89.3626C12.8442 89.3109 12.8442 89.272 12.8571 89.2202C12.8657 89.2806 12.8786 89.3411 12.8958 89.4015C12.9215 89.4964 12.9516 89.5914 12.986 89.6863C12.9688 89.695 12.9559 89.6993 12.9473 89.6993C14.081 93.1433 15.5239 96.1859 17.16 98.866C17.7655 89.9064 27.4792 86.7602 27.286 87.2781C24.1683 95.5126 18.6029 98.62 17.379 99.2285C19.2084 102.155 22.3776 105.806 23.3438 106.725C27.505 110.7 30.2748 112.513 32.9673 114.04C33.9722 107.217 40.6068 100.238 40.697 100.782C42.681 113.108 34.4488 114.053 33.1348 114.131C35.1574 115.257 36.9868 116.086 38.4425 116.669C44.7294 119.155 53.0388 120.372 55.5123 118.002L55.7442 118.235Z" fill="#64BCD1"/>
<path d="M32.3876 114.312C30.8932 115.814 25.6627 119.167 19.1826 115.4C23.5886 112.646 27.9945 112.215 32.4005 114.105C32.4133 114.118 32.671 114.066 32.3876 114.312Z" fill="#64BCD1"/>
<path d="M12.9473 89.6992C12.9087 89.5956 12.8829 89.3884 12.8442 89.3625C13.8491 81.1927 21.6304 78.5256 21.4371 79.0176C18.5642 86.6047 14.2871 89.0906 12.9473 89.6992Z" fill="#64BCD1"/>
<path d="M17.2373 99.6168C17.2459 99.6427 17.3361 99.7895 17.5078 100.057C15.8073 100.51 8.82478 100.873 4.38019 98.6587C7.8328 94.9902 12.1185 95.3096 17.2373 99.6168Z" fill="#64BCD1"/>
<path d="M24.1554 107.489C24.0781 107.424 24.0008 107.36 23.9493 107.36C25.2762 100.769 31.2023 93.5706 31.2925 94.1014C33.0575 105.003 26.5259 107.126 24.1554 107.489Z" fill="#64BCD1"/>
<path d="M93.1174 98.2186C95.1401 100.122 101.865 99.0861 106.928 97.0404C108.113 96.5613 109.582 95.8751 111.218 94.9559C110.149 94.9041 103.475 94.179 105.021 84.1966C105.086 83.7435 110.496 89.3497 111.347 94.8782C113.524 93.6223 115.753 92.1333 119.102 88.8965C119.875 88.1456 122.426 85.1806 123.882 82.7854C122.89 82.3063 118.368 79.8204 115.791 73.1784C115.637 72.7641 123.521 75.25 124.062 82.5005C125.363 80.3124 126.523 77.8524 127.412 75.0558C127.403 75.0472 127.394 75.0428 127.386 75.0428C127.412 74.9651 127.433 74.8875 127.45 74.8098C127.467 74.758 127.48 74.7105 127.489 74.6674C127.489 74.7019 127.493 74.7407 127.502 74.7839C128.043 73.0489 128.481 71.1975 128.816 69.2165C128.365 68.7504 126.871 66.6141 128.249 59.8167C128.339 59.4024 130.594 62.95 129.215 68.3102C128.906 70.5501 128.442 72.6217 127.85 74.5508C132.024 71.2277 135.051 71.2277 136.932 74.5508C133.402 76.0009 128.378 75.0169 127.811 74.6933C126.896 77.6582 125.698 80.2736 124.333 82.5653C124.32 82.5782 123.856 83.3291 123.779 83.4586C122.297 85.7891 120.635 87.783 118.922 89.4662C118.922 89.4748 118.922 89.4791 118.922 89.4791C118.922 89.4791 118.918 89.4791 118.909 89.4791C118.84 89.5482 118.776 89.6129 118.716 89.6733C123.714 88.5253 127.781 88.9612 130.916 90.981C125.338 94.6451 119.36 90.9681 118.368 89.997C116.5 91.7708 114.593 93.1821 112.802 94.3085C112.442 94.4639 112.107 94.684 111.811 94.93C111.811 94.93 111.806 94.9257 111.798 94.917C109.981 95.9917 108.332 96.7556 107.031 97.2864C103.295 98.8012 99.8552 99.4616 97.2528 99.4874C95.2045 99.5004 93.6714 99.112 92.9242 98.4128L93.1174 98.2186Z" fill="#F7AB61"/>
<path d="M111.965 95.0077C112.133 94.917 112.313 94.8264 112.519 94.8135C112.661 94.8135 112.687 94.6451 112.609 94.5804C112.695 94.52 112.785 94.4509 112.88 94.3732C112.888 94.3646 112.897 94.356 112.906 94.3474C117.449 93.6827 120.652 94.1963 122.516 95.8881C117.299 98.9825 113.034 96.3024 111.811 95.0983C111.862 95.0724 111.914 95.0422 111.965 95.0077Z" fill="#FFCDA4"/>
<path d="M120.481 66.4588C120.326 66.0574 126.639 68.1678 127.502 74.7839C127.463 74.7969 127.45 74.9652 127.412 75.0558C126.317 74.5768 122.851 72.5829 120.481 66.4588Z" fill="#FFCDA4"/>
<path d="M123.998 83.0961C128.12 79.5831 131.59 79.3025 134.407 82.2545C130.826 84.0672 125.157 83.8212 123.779 83.4586C123.916 83.2429 123.989 83.1263 123.998 83.1091C123.998 83.1091 123.998 83.1048 123.998 83.0961Z" fill="#FFCDA4"/>
<path d="M112.583 78.72C112.661 78.2928 117.492 84.0932 118.613 89.4146C118.574 89.4146 118.51 89.4664 118.445 89.5182C116.526 89.2463 111.218 87.5631 112.583 78.72Z" fill="#FFCDA4"/>
<path d="M137.1 121.575H97.3559C94.9082 121.575 92.9242 119.582 92.9242 117.135V95.5513C92.9242 93.1042 94.9082 91.1104 97.3559 91.1104H137.1C139.534 91.1104 141.518 93.1042 141.518 95.5513V117.135C141.518 119.582 139.534 121.575 137.1 121.575Z" fill="#178D7D"/>
<path d="M132.41 121.692H92.6666C90.2317 121.692 88.2477 119.711 88.2477 117.251V95.6809C88.2477 93.2339 90.2317 91.24 92.6666 91.24H132.41C134.858 91.24 136.829 93.2339 136.829 95.6809V117.251C136.829 119.711 134.858 121.692 132.41 121.692Z" fill="#26D8C0"/>
<path fill-rule="evenodd" clip-rule="evenodd" d="M114.954 96.4913H107.482C102.702 96.4913 98.8246 93.3666 98.8246 89.5153C98.8246 85.664 102.702 82.5393 107.482 82.5393H114.954C119.721 82.5393 123.611 85.664 123.611 89.5153C123.611 93.3666 119.721 96.4913 114.954 96.4913ZM107.482 85.5083C104.738 85.5083 102.509 87.3042 102.509 89.5153C102.509 91.7264 104.738 93.5223 107.482 93.5223H114.954C117.698 93.5223 119.927 91.7264 119.927 89.5153C119.927 87.3042 117.698 85.5083 114.954 85.5083H107.482Z" fill="#178D7D"/>
<path d="M88.2477 97.3121C88.2477 93.894 91.0047 91.1104 94.4058 91.1104H133.016C136.43 91.1104 137.035 93.5703 136.829 97.3121H88.2477Z" fill="#49EDD7"/>
<path d="M120.764 107.955C120.764 108.81 120.068 109.496 119.231 109.496H114.078V115.503C114.078 116.345 113.382 117.044 112.545 117.044C111.695 117.044 110.999 116.345 110.999 115.503V109.496H105.846C105.008 109.496 104.313 108.81 104.313 107.955C104.313 107.1 105.008 106.414 105.846 106.414H110.999V102.064C110.999 101.209 111.695 100.523 112.545 100.523C113.382 100.523 114.078 101.209 114.078 102.064V106.414H119.231C120.068 106.414 120.764 107.1 120.764 107.955Z" fill="white"/>
<path d="M90.9918 121.641H44.0852C39.486 121.641 35.7629 117.886 35.7629 113.264V9.3999C35.7629 4.77769 39.486 1.02295 44.0852 1.02295H90.9918C95.591 1.02295 99.327 4.77769 99.327 9.3999V113.264C99.327 117.886 95.591 121.641 90.9918 121.641Z" fill="#0065AA"/>
<path d="M39.1926 3.50879C48.7277 3.50879 58.2663 3.50879 67.8084 3.50879C67.8084 42.0488 67.8084 80.5888 67.8084 119.129C58.2663 119.129 48.7277 119.129 39.1926 119.129C39.1926 80.5888 39.1926 42.0488 39.1926 3.50879ZM67.8084 3.50879C77.3365 3.50879 86.8645 3.50879 96.3926 3.50879C96.3926 42.0488 96.3926 80.5888 96.3926 119.129C86.8645 119.129 77.3365 119.129 67.8084 119.129C67.8084 80.5888 67.8084 42.0488 67.8084 3.50879Z" fill="url(#paint0_linear_469_341)"/>
<path d="M80.6597 7.28945H54.8038C53.2707 7.28945 52.0211 6.03356 52.0211 4.49282V2.6543H83.4424V4.49282C83.4424 6.03356 82.2056 7.28945 80.6597 7.28945Z" fill="#0065AA"/>
<path d="M121.086 41.8846C112.931 43.037 101.62 43.6584 94.483 39.4505C93.388 40.0591 88.7888 42.3637 86.1865 39.8519C85.684 39.3599 89.3299 38.7255 90.2317 35.6052C88.763 33.5336 87.8484 30.8923 87.7195 27.5649C87.3459 17.4271 87.9128 14.0608 102.702 12.2999C117.492 10.5391 132.925 12.9085 133.802 21.4926C134.755 30.9053 131.934 40.3439 121.086 41.8846Z" fill="#26D8C0"/>
<path d="M104.274 26.9563C104.274 27.8238 103.565 28.5229 102.702 28.5229C101.839 28.5229 101.131 27.8238 101.131 26.9563C101.131 26.0759 101.839 25.3767 102.702 25.3767C103.565 25.3767 104.274 26.0759 104.274 26.9563Z" fill="white"/>
<path d="M112.017 26.9563C112.017 27.8238 111.321 28.5229 110.458 28.5229C109.582 28.5229 108.886 27.8238 108.886 26.9563C108.886 26.0759 109.582 25.3767 110.458 25.3767C111.321 25.3767 112.017 26.0759 112.017 26.9563Z" fill="white"/>
<path d="M119.476 26.9563C119.476 27.8238 118.767 28.5229 117.904 28.5229C117.041 28.5229 116.345 27.8238 116.345 26.9563C116.345 26.0759 117.041 25.3767 117.904 25.3767C118.767 25.3767 119.476 26.0759 119.476 26.9563Z" fill="white"/>
<path d="M62.5722 50.443C62.7396 50.197 68.7431 53.2267 75.4937 49.2648C79.9855 46.6235 80.9174 59.2084 78.2893 87.0193L77.7482 108.667L76.9752 119.129H60.1631L56.7233 86.2166C59.0594 64.8621 61.009 52.9375 62.5722 50.443Z" fill="#5DCEC1"/>
<path d="M103.746 83.2905C103.746 86.4238 103.231 87.7444 101.092 90.1008C99.1982 92.1724 95.7714 94.0627 91.3139 95.2021L91.2366 119.129H75.8029L75.8158 108.538C76.0477 102.228 75.9403 83.7523 75.4937 53.1102L77.555 49.4072C85.9804 52.6182 91.1078 55.0178 92.9371 56.606C95.6812 58.9753 103.746 80.1572 103.746 83.2905Z" fill="white"/>
<path d="M62.8556 105.676C62.8899 106.074 62.8899 110.558 62.8556 119.129H46.0949C46.3354 116.246 46.5244 113.842 46.6618 111.917C46.2324 112.219 45.8974 112.422 45.6569 112.526C38.494 102.09 35.0157 92.7334 35.2218 84.4557C35.2991 81.3354 43.2736 59.3896 46.0305 57.0073C47.8599 55.4277 52.9873 53.0325 61.4127 49.8215V90.5151C61.3612 90.6014 61.2882 90.7223 61.1937 90.8776C61.9151 97.3254 62.8169 105.327 62.8556 105.676Z" fill="white"/>
<path d="M88.0803 79.8076L85.2589 81.4908C85.1945 81.5296 85.1043 81.5296 85.0399 81.4908L82.0639 79.8076C81.9866 79.7688 81.948 79.6911 81.948 79.6134V73.3339C81.948 73.2174 82.0511 73.1138 82.167 73.1138H87.9643C88.0931 73.1138 88.1833 73.2174 88.1833 73.3339V79.6263C88.1833 79.6911 88.1447 79.7688 88.0803 79.8076Z" fill="#D5E1ED"/>
<path d="M88.0803 79.8078L85.2589 81.4909C85.1945 81.5298 85.1043 81.5298 85.0399 81.4909L82.0639 79.8078C81.9866 79.7689 81.948 79.6913 81.948 79.6136V74.6029C81.948 74.4864 82.0511 74.3828 82.167 74.3828H87.9643C88.0931 74.3828 88.1833 74.4864 88.1833 74.6029V79.6265C88.1833 79.6913 88.1447 79.7689 88.0803 79.8078Z" fill="#B8DDFF"/>
<g opacity="0.5">
<g opacity="0.5">
<path opacity="0.5" d="M75.8157 108.952V89.0652V45.8728C76.1679 46.5288 76.9924 47.5128 78.2893 48.8248C79.9039 50.4821 81.4069 52.5536 82.7983 55.0395L78.4052 54.185L84.1123 59.9466L79.8223 85.2716L76.782 85.7248L78.7015 91.8489L75.8157 108.952Z" fill="#8FA7D7"/>
</g>
</g>
<g opacity="0.5">
<path opacity="0.5" d="M61.9538 45.8337L62.8556 107.657L53.6572 59.9075L59.3643 54.146L54.9713 55.0005C56.3626 52.5146 57.8656 50.443 59.4803 48.7857C60.7772 47.4737 61.6017 46.4897 61.9538 45.8337Z" fill="#8FA7D7"/>
</g>
<path d="M75.8158 106.311L74.8624 45.3806C75.5152 45.6655 76.49 46.4682 77.7868 47.7888C79.4101 49.4375 80.7628 51.6903 81.8449 54.5474L77.4519 53.6928L83.159 59.4544L79.0751 85.5175L76.9752 85.9965L78.5083 89.0909L75.8158 106.311Z" fill="white"/>
<path d="M54.559 59.4544L60.2532 53.6928L55.873 54.5474C56.9552 51.6903 58.3036 49.4375 59.9182 47.7888C61.2151 46.4682 62.1942 45.6655 62.8555 45.3806V105.677L54.559 59.4544Z" fill="white"/>
<path d="M69.6706 110.609C65.8444 110.609 62.92 110.027 62.8813 110.014V109.664C62.9458 109.677 69.6062 110.998 75.8157 109.651V110.001C73.7158 110.454 71.603 110.609 69.6706 110.609Z" fill="#38A595"/>
<path d="M68.8204 56.0234C65.3678 56.0234 62.8942 54.8193 62.8556 54.7934V54.3661C62.9071 54.405 69.0265 57.3181 74.9913 54.1072L75.0042 54.5215C72.827 55.6868 70.727 56.0234 68.8204 56.0234Z" fill="#38A595"/>
<path opacity="0.5" d="M40.7872 84.4688C43.8275 85.0557 46.1379 86.1476 47.7182 87.7444C43.776 85.7592 41.4657 84.6673 40.7872 84.4688Z" fill="#8FA7D7"/>
<path d="M52.8842 104.913L53.8376 106.078C52.5579 109.237 51.2052 111.65 49.7795 113.315L48.0403 110.894C49.8181 109.53 51.4328 107.537 52.8842 104.913Z" fill="#FFCCA9"/>
<path opacity="0.5" d="M46.1851 84.4688C46.301 84.663 47.8341 86.126 48.3365 87.5632L45.9274 84.8054L46.1851 84.4688Z" fill="#8FA7D7"/>
<path opacity="0.5" d="M50.4236 89.2074L55.2418 102.194C54.2455 108.357 52.0426 112.457 48.6329 114.494C50.7972 112.629 52.6481 109.496 54.1854 105.094C51.1193 109.349 48.6114 111.624 46.6618 111.917C49.7022 109.94 52.034 107.105 53.6572 103.411L49.0451 89.2074C49.6378 86.7992 51.0291 68.3363 51.042 68.5564C51.188 71.2926 50.9819 78.1763 50.4236 89.2074Z" fill="#8FA7D7"/>
<path opacity="0.5" d="M91.3139 97.1184L89.433 97.8434L89.0851 95.8495L91.3139 95.2021V97.1184Z" fill="#8FA7D7"/>
<path opacity="0.5" d="M96.4541 79.3804C91.5157 82.1597 87.7195 83.9076 85.0657 84.624C82.4118 85.3318 80.0027 85.9662 77.8384 86.5273C81.9094 84.8096 85.8344 83.2257 89.6133 81.7756L89.0851 67.4299L90.7857 81.3354H90.7728C92.9242 80.5327 94.9468 79.8206 96.4541 79.3804Z" fill="#8FA7D7"/>
<path opacity="0.1" d="M103.733 83.7436C103.87 85.2196 103.643 86.4237 103.05 87.356C100.474 93.2427 92.4218 96.6349 78.8948 97.5326C79.0408 97.3427 79.1438 96.7298 79.204 95.6941C86.8478 95.5301 93.7659 93.1866 99.9583 88.6636C100.912 87.9645 102.239 86.0353 102.226 83.7048C102.2 79.5271 100.997 74.2187 98.6184 67.7795C101.053 73.7224 103.359 79.5746 103.733 83.7436Z" fill="#8FA7D7"/>
<path opacity="0.1" d="M42.127 64.2319C42.2688 63.8565 36.3555 79.0178 36.407 84.4687C36.5101 95.9271 44.9226 110.376 46.6618 111.917L45.6569 112.526C38.2106 101.408 34.7323 92.0515 35.2218 84.4557C35.3635 82.2029 35.6341 81.2059 42.127 64.2319Z" fill="#8FA7D7"/>
<path d="M89.549 95.7327L89.4202 102.919L67.313 103.825L67.8155 70.8997L89.9999 71.793L89.8066 81.6848C85.4651 83.3809 80.08 85.5043 77.9157 86.4883C77.6838 86.5919 79.6034 90.735 78.9463 97.4418C82.3732 97.1569 85.9074 96.5872 89.549 95.7327Z" fill="#AE376D"/>
<path d="M76.5243 71.2493L76.5372 70.7444L82.5535 71.094L82.5406 71.4953L76.5243 71.2493Z" fill="#A1B5BF"/>
<path d="M77.2973 71.9097C77.2973 71.9874 77.2457 72.0392 77.1813 72.0392C77.104 72.0392 77.0525 71.9874 77.0525 71.9097C77.0525 71.845 77.104 71.7932 77.1813 71.7932C77.2457 71.7932 77.2973 71.845 77.2973 71.9097Z" fill="#A1B5BF"/>
<path d="M82.064 72.1167C82.064 72.1555 82.0382 72.1943 81.9995 72.1943C81.948 72.1943 81.9222 72.1555 81.9222 72.1167C81.9222 72.0779 81.948 72.0391 81.9995 72.0391C82.0382 72.0391 82.064 72.0779 82.064 72.1167Z" fill="#A1B5BF"/>
<path d="M78.547 37.4437C77.9157 39.7354 76.8078 41.4833 76.3182 41.3538C76.5501 40.3784 76.8164 39.1139 77.117 37.5602C77.6452 34.8672 77.7225 32.951 78.8175 33.0545C79.3199 33.1063 79.1782 35.152 78.547 37.4437Z" fill="#F0BA92"/>
<g opacity="0.6">
<g opacity="0.6">
<path opacity="0.6" d="M77.7096 36.4987C77.1299 38.8034 76.8078 41.4835 76.3182 41.354C76.6446 39.9643 76.9581 38.4926 77.2587 36.9389C77.7869 34.2459 77.7354 33.3007 78.8304 33.4043C78.547 33.6028 78.1734 34.6343 77.7096 36.4987Z" fill="#D88D64"/>
</g>
</g>
<path d="M58.965 33.0545C60.0729 32.9509 60.1631 34.7765 60.5753 37.4954C60.7814 38.8161 61.0563 40.1065 61.3998 41.3667C60.9232 41.5091 59.8668 39.7353 59.2355 37.4436C58.6043 35.152 58.4754 33.1063 58.965 33.0545Z" fill="#F0BA92"/>
<g opacity="0.6">
<g opacity="0.6">
<path opacity="0.6" d="M58.8877 33.4302C59.9956 33.3266 59.9055 33.961 60.4337 36.667C60.7343 38.2207 61.0563 39.7873 61.3999 41.3669C60.9232 41.5093 60.3177 38.5573 59.738 36.2527C59.2742 34.3883 58.9908 33.4474 58.8877 33.4302Z" fill="#D88D64"/>
</g>
</g>
<path d="M74.9397 50.7538C74.3901 52.2212 72.3632 52.9548 68.859 52.9548C65.3549 52.9548 63.3494 52.2643 62.8427 50.8833V44.1636H74.8624L74.9397 50.7538Z" fill="#F0BA92"/>
<g opacity="0.6">
<g opacity="0.6">
<path opacity="0.6" d="M74.8624 45.8725C73.7803 48.1512 69.5418 49.938 68.859 49.938C68.1633 49.938 64.569 48.5655 62.8427 45.9113V42.4026H74.8624V45.8725Z" fill="#D88D64"/>
</g>
</g>
<path d="M76.3183 41.3539C74.987 45.7646 72.5006 48.0045 68.8591 48.0736C65.0114 48.0649 62.5121 45.7733 61.3612 41.1985C60.2147 36.667 57.4835 29.7272 60.7686 24.6C62.6238 21.6869 76.125 20.5216 77.7225 24.6C79.32 28.6655 77.4906 37.4826 76.3183 41.3539Z" fill="#FFCCA9"/>
<path d="M71.7963 41.108C72.0153 41.2892 71.3325 43.6845 68.859 43.7104C66.7591 43.7363 65.7156 41.5611 65.896 41.2504C66.1408 40.849 66.9653 41.1209 68.7689 41.1209C70.5725 41.1209 71.5516 40.9138 71.7963 41.108Z" fill="white"/>
<path fill-rule="evenodd" clip-rule="evenodd" d="M68.8333 43.8398C67.4934 43.8398 66.5015 42.9594 66.0248 42.1307C65.8444 41.7941 65.6769 41.3798 65.7929 41.1856C65.9861 40.8489 66.437 40.8878 67.2487 40.9396C67.648 40.9655 68.1634 40.9914 68.7688 40.9914C69.5161 40.9914 70.0958 40.9525 70.5725 40.9266C71.3197 40.8878 71.6933 40.8619 71.8736 41.0172C72.0411 41.1597 71.9123 41.5869 71.8479 41.7682C71.719 42.1048 71.0105 43.8139 68.859 43.8398C68.8504 43.8398 68.8419 43.8398 68.8333 43.8398ZM66.553 41.1467C66.2567 41.1467 66.0763 41.1856 65.999 41.3021C65.9733 41.3668 66.0377 41.6776 66.3211 42.1307C66.5401 42.4803 67.3646 43.5938 68.8333 43.5938C68.8419 43.5938 68.8504 43.5938 68.859 43.5938C70.289 43.5679 71.0234 42.7392 71.3454 42.2472C71.6546 41.7423 71.7319 41.3021 71.7062 41.1985C71.5773 41.1208 71.1393 41.1467 70.5853 41.1726C70.1087 41.1985 69.5161 41.2374 68.7688 41.2374C68.1505 41.2374 67.648 41.2115 67.2358 41.1856C66.9652 41.1597 66.7462 41.1467 66.553 41.1467Z" fill="#D3976E"/>
<path d="M68.859 39.0883C68.5756 38.8811 68.1247 38.415 68.3824 37.6382C68.6143 36.9649 68.64 35.6831 68.64 35.6702H68.8848C68.8848 35.7349 68.859 37.0037 68.6142 37.7159C68.421 38.3114 68.7173 38.6869 69.0007 38.8941L68.859 39.0883Z" fill="#D88D64"/>
<path d="M79.0752 95.4479C75.1502 97.0447 72.4748 97.9381 71.0491 98.128C70.9718 98.141 70.8945 98.1539 70.8172 98.1539C70.8087 98.1539 70.8044 98.1539 70.8044 98.1539C70.7958 98.1539 70.7872 98.1539 70.7786 98.1539C70.6841 98.1625 70.5896 98.1669 70.4952 98.1669C70.4351 98.1669 70.3706 98.1669 70.3019 98.1669C70.2332 98.1669 70.1688 98.1625 70.1087 98.1539C70.0486 98.1539 69.9884 98.1496 69.9283 98.141C68.1634 97.9597 66.5144 96.8333 66.2953 95.4608C65.78 94.6322 65.7156 93.9417 66.1021 93.3893C65.5438 92.4657 65.531 91.6025 66.0635 90.7998C65.7714 89.2288 66.188 88.4304 67.3131 88.4045C67.1156 87.7226 67.8671 87.2738 69.5676 87.058C72.1184 86.7214 73.1877 88.9613 76.0863 88.7023L78.3408 88.3657C78.8905 90.0057 79.1353 92.3664 79.0752 95.4479Z" fill="#FFCCA9"/>
<path d="M67.3131 88.4045C68.2922 88.5944 69.048 88.7067 69.5805 88.7412C70.3663 88.8059 72.2086 89.1037 72.6466 89.2073C71.0577 89.0778 70.0271 89.0001 69.5547 88.9742C69.0265 88.9354 67.0941 88.4175 67.3131 88.4045Z" fill="#D88D64"/>
<path d="M66.0635 90.7999C65.9862 90.3425 65.9819 89.9756 66.0506 89.6994C66.0506 89.6606 66.0635 90.1526 66.3855 90.5798C66.5917 90.8733 67.0554 91.1668 67.7769 91.4602L66.0635 90.7999Z" fill="#D88D64"/>
<path d="M66.115 93.3765C65.9003 93.0485 65.7757 92.6946 65.7414 92.3148C65.7414 92.2889 65.9089 92.8586 66.3727 93.2341C66.6561 93.4585 67.137 93.7217 67.8155 94.0238L66.115 93.3765Z" fill="#D88D64"/>
<path d="M66.3082 95.4609C66.0677 95.0898 65.9303 94.7143 65.8959 94.3345C65.8959 94.3086 66.1021 94.956 66.5658 95.3185C66.8493 95.5429 67.3302 95.8062 68.0087 96.1083L66.3082 95.4609Z" fill="#D88D64"/>
<path d="M67.5321 87.7961C67.3603 88.2018 67.429 88.4306 67.7382 88.4824L67.8155 88.5859L67.3131 88.4047C67.2873 88.1716 67.3603 87.9688 67.5321 87.7961Z" fill="#D88D64"/>
<g opacity="0.1">
<g opacity="0.1">
<g opacity="0.1">
<path opacity="0.1" d="M64.1568 72.7125C64.1568 72.7211 64.1525 72.7297 64.1439 72.7384L64.1568 73.2951C64.1955 74.7064 62.9845 75.1854 61.9152 75.3278C61.8508 75.548 61.6704 75.7163 61.4385 75.7422C61.1293 75.781 60.8459 75.5609 60.8201 75.2502L60.7557 74.797C60.7171 74.4863 60.9361 74.2144 61.2453 74.1755C61.5287 74.1367 61.7864 74.318 61.8508 74.5769C62.5207 74.4863 63.1906 74.2662 63.4483 73.7742C63.7188 73.2174 63.59 72.1299 63.5642 71.3918C63.371 65.4878 62.0955 61.0081 59.3644 61.0081C56.6332 61.0081 55.989 65.5008 55.7958 71.4177C55.77 72.1816 55.6026 73.334 55.8989 73.8777C56.1952 74.4215 57.1099 74.5899 57.8571 74.6287C57.8957 74.3568 58.1147 74.1367 58.3982 74.1367C58.7073 74.1367 58.965 74.3956 58.965 74.7064V75.1595C58.965 75.4703 58.7073 75.7292 58.3982 75.7292C58.1663 75.7292 57.973 75.5868 57.8828 75.3926C57.5608 75.3796 57.2 75.3537 56.8651 75.302C55.9246 75.1595 55.1903 74.81 55.1903 73.4375L55.2032 73.0621C55.2032 73.0534 55.2032 73.0491 55.2032 73.0491C55.3063 66.2906 55.8989 60.9822 58.8748 60.4772L58.9779 53.9517L59.5318 53.8352L59.4159 60.4384C62.6753 60.5031 64.028 65.7986 64.1568 72.7125Z" fill="#0E3368"/>
</g>
</g>
<g opacity="0.1">
<g opacity="0.1">
<path opacity="0.1" d="M88.4539 68.4397C88.4539 69.9287 87.2558 71.1328 85.7871 71.1328C84.3056 71.1328 83.1075 69.9287 83.1075 68.4397C83.1075 67.0802 84.1124 65.9668 85.4135 65.7726C85.0786 58.1336 82.6308 54.1847 81.0591 51.9966C80.0457 50.5896 79.423 49.7955 79.1911 49.6143C79.4488 49.7308 85.4908 52.6957 86.0448 65.7596C87.3975 65.8891 88.4539 67.0414 88.4539 68.4397Z" fill="#0E3368"/>
</g>
</g>
<path opacity="0.1" d="M90.7857 95.4092V105.366L69.3486 106.285L69.3743 103.734L89.4072 102.97L89.5232 95.7329L90.7857 95.4092Z" fill="#0E3368"/>
</g>
<path d="M63.3838 72.0651L63.3967 72.6219C63.4353 74.0202 62.2243 74.4992 61.1551 74.6546C61.0906 74.8617 60.9103 75.0301 60.6784 75.0689C60.3692 75.0948 60.0858 74.8747 60.06 74.5769L59.9956 74.1108C59.9569 73.8001 60.1759 73.5282 60.4851 73.4893C60.7686 73.4505 61.0262 73.6317 61.0906 73.9036C61.7605 73.813 62.4305 73.5929 62.6881 73.088C62.9587 72.5312 62.8298 71.4436 62.8041 70.7056C62.6108 64.8016 61.6446 60.3736 58.9263 60.3736C56.1951 60.3736 55.2289 64.8146 55.0357 70.7315C55.0099 71.5084 54.8424 72.6477 55.1387 73.1915C55.435 73.7483 56.3497 73.9036 57.0969 73.9425C57.1356 73.6706 57.3546 73.4505 57.638 73.4505C57.9472 73.4505 58.2049 73.7094 58.2049 74.0202V74.4733C58.2049 74.797 57.9472 75.043 57.638 75.043C57.4061 75.043 57.2129 74.9006 57.1227 74.7064C56.8006 74.6934 56.4399 74.6805 56.105 74.6287C55.1645 74.4733 54.4302 74.1367 54.4302 72.7513L54.4431 72.3759C54.5461 65.2548 55.551 59.791 58.9134 59.791C62.2243 59.791 63.2678 65.0735 63.3967 72.0392C63.3967 72.0479 63.3924 72.0565 63.3838 72.0651Z" fill="#383F47"/>
<path d="M58.9779 60.0758H58.4239V54.0552L58.9779 53.9517V60.0758Z" fill="#383F47"/>
<path d="M84.6534 64.2061C84.1639 50.9221 78.0574 47.9183 77.7997 47.8018C78.0316 47.983 78.65 48.7771 79.6549 50.1841C81.2523 52.3981 83.7387 56.4118 84.0222 64.232L84.6534 64.2061Z" fill="#383F47"/>
<path d="M84.6534 64.4521C84.1639 51.1551 78.0445 47.9053 77.7869 47.7888C78.5341 48.1686 79.4144 49.062 80.4279 50.4689C82.0124 52.6829 83.9449 56.2434 84.37 64.3744L84.6534 64.4521Z" fill="#1A2026"/>
<path d="M87.0625 66.6271C87.0625 68.1161 85.8644 69.3202 84.3828 69.3202C82.9013 69.3202 81.7032 68.1161 81.7032 66.6271C81.7032 65.1382 82.9013 63.9341 84.3828 63.9341C85.8644 63.9341 87.0625 65.1382 87.0625 66.6271Z" fill="#BCBCBC"/>
<path fill-rule="evenodd" clip-rule="evenodd" d="M84.3829 69.3979C82.8627 69.3979 81.6259 68.1549 81.6259 66.6272C81.6259 65.0994 82.8627 63.8564 84.3829 63.8564C85.903 63.8564 87.1398 65.0994 87.1398 66.6272C87.1398 68.1549 85.903 69.3979 84.3829 69.3979ZM84.3829 64.0118C82.9529 64.0118 81.7805 65.19 81.7805 66.6272C81.7805 68.0643 82.9529 69.2425 84.3829 69.2425C85.8129 69.2425 86.9852 68.0643 86.9852 66.6272C86.9852 65.19 85.8129 64.0118 84.3829 64.0118Z" fill="#444444"/>
<g opacity="0.3">
<g opacity="0.3">
<path opacity="0.3" d="M85.7098 69.0614L85.0399 67.6372L85.5166 66.3166L86.9853 65.6821C87.5607 66.951 87.1356 68.0774 85.7098 69.0614Z" fill="white"/>
</g>
</g>
<path d="M85.581 66.8213C85.581 67.5205 85.0399 68.0902 84.3829 68.0902C83.713 68.0902 83.1719 67.5205 83.1719 66.8213C83.1719 66.1222 83.713 65.5525 84.3829 65.5525C85.0399 65.5525 85.581 66.1222 85.581 66.8213Z" fill="#635B53"/>
<g opacity="0.4">
<g opacity="0.4">
<path opacity="0.4" d="M83.9578 63.8435L84.1124 65.4749L83.2105 66.5495L81.6001 66.6272C81.4971 65.203 82.283 64.2751 83.9578 63.8435Z" fill="white"/>
</g>
</g>
<path d="M85.4521 66.6274C85.4521 67.2229 84.9755 67.702 84.3829 67.702C83.7903 67.702 83.3136 67.2229 83.3136 66.6274C83.3136 66.0318 83.7903 65.5527 84.3829 65.5527C84.9755 65.5527 85.4521 66.0318 85.4521 66.6274Z" fill="#D3D3D3"/>
<path fill-rule="evenodd" clip-rule="evenodd" d="M84.3828 67.7797C83.7515 67.7797 83.2362 67.2618 83.2362 66.6274C83.2362 65.993 83.7515 65.4751 84.3828 65.4751C85.0141 65.4751 85.5294 65.993 85.5294 66.6274C85.5294 67.2618 85.0141 67.7797 84.3828 67.7797ZM84.3828 65.6305C83.8288 65.6305 83.3908 66.0836 83.3908 66.6274C83.3908 67.1842 83.8288 67.6244 84.3828 67.6244C84.9239 67.6244 85.3748 67.1842 85.3748 66.6274C85.3748 66.0836 84.9239 65.6305 84.3828 65.6305Z" fill="#A8A6A0"/>
<path d="M84.7952 66.7566C84.7952 66.9897 84.6148 67.1709 84.3829 67.1709C84.151 67.1709 83.9578 66.9897 83.9578 66.7566C83.9578 66.5236 84.151 66.3293 84.3829 66.3293C84.6148 66.3293 84.7952 66.5236 84.7952 66.7566Z" fill="#BABABA"/>
<path d="M84.7952 66.6272C84.7952 66.8603 84.6148 67.0545 84.3829 67.0545C84.151 67.0545 83.9578 66.8603 83.9578 66.6272C83.9578 66.3942 84.151 66.2 84.3829 66.2C84.6148 66.2 84.7952 66.3942 84.7952 66.6272Z" fill="white"/>
<path d="M57.5736 74.7841H57.4576C57.3675 74.7841 57.2902 74.7064 57.2902 74.6028V73.8648C57.2902 73.7742 57.3675 73.6965 57.4576 73.6965H57.5736C57.6766 73.6965 57.7539 73.7742 57.7539 73.8648V74.6028C57.7539 74.7064 57.6766 74.7841 57.5736 74.7841Z" fill="#AAA9A2"/>
<path d="M60.717 74.7712L60.6011 74.7841C60.498 74.7971 60.4207 74.7194 60.4078 74.6288L60.3434 73.8908C60.3305 73.7872 60.4078 73.7095 60.498 73.6965L60.6139 73.6836C60.7041 73.6836 60.7943 73.7483 60.8072 73.839L60.8716 74.5899C60.8845 74.6806 60.8072 74.7583 60.717 74.7712Z" fill="#AAA9A2"/>
<g opacity="0.4">
<g opacity="0.4">
<path opacity="0.4" d="M84.2025 66.3683L84.0479 66.5237L83.4424 66.4848C83.4682 66.105 83.6915 65.8461 84.1124 65.708L84.2025 66.3683Z" fill="white"/>
</g>
</g>
<g opacity="0.4">
<g opacity="0.4">
<path opacity="0.4" d="M84.6277 66.8345L84.7307 66.6273L85.3105 66.459C85.4136 66.8215 85.2933 67.1409 84.9498 67.4171L84.6277 66.8345Z" fill="white"/>
</g>
</g>
<path d="M60.1502 36.7577C59.3772 33.6935 58.922 31.3888 58.7846 29.8438C58.5785 27.5133 58.3337 24.3929 60.936 23.3313C62.6795 22.6235 63.2807 23.3528 62.7397 25.5194C61.3655 26.4429 60.5453 28.0657 60.279 30.3876C60.1244 31.6564 60.0815 33.7798 60.1502 36.7577Z" fill="#2A445D"/>
<path d="M77.4648 30.3876C77.19 28.0657 76.3655 26.4429 74.9913 25.5194C74.4502 23.3528 75.0514 22.6235 76.7949 23.3313C79.3973 24.3929 79.1525 27.5133 78.9464 29.8438C78.809 31.3888 78.3108 33.6719 77.452 36.693C77.6066 33.7582 77.6108 31.6564 77.4648 30.3876Z" fill="#2A445D"/>
<path d="M75.3262 26.6327C73.2134 26.9694 71.4484 26.801 70.0313 26.1278C69.413 25.8429 66.3855 27.1377 64.9941 26.8658C62.3403 26.3738 61.1679 24.1986 61.1164 23.9785C60.9618 23.3182 60.3305 22.386 62.2501 20.9359C64.9168 18.929 68.1891 19.421 68.743 18.8384C69.2841 18.2428 69.8381 17.8933 70.9074 17.9968C73.7545 18.2817 73.8962 19.9648 75.4937 20.2108C77.5807 20.5345 78.2893 21.389 78.4181 23.1499C78.5899 25.3768 77.5592 26.5378 75.3262 26.6327Z" fill="#2A445D"/>
<path d="M66.4757 21.7904C65.1101 23.5944 63.7832 24.3842 62.4949 24.1598C62.7396 24.108 63.912 24.2763 66.1536 21.648C67.648 19.9044 68.6915 18.8168 69.2842 18.3853C68.7774 18.8514 67.8413 19.9864 66.4757 21.7904Z" fill="#1F384C"/>
<path d="M72.8141 26.5422C75.3048 26.8357 77.0955 26.3307 78.1863 25.0273C77.9544 26.3911 76.1894 26.909 72.8914 26.581L72.8141 26.5422Z" fill="#1F384C"/>
<path d="M73.8576 22.8003C71.5816 25.7868 69.0394 27.2671 66.2309 27.2412C66.2223 27.2412 66.218 27.2412 66.218 27.2412C66.1321 27.2412 66.0205 27.2369 65.8831 27.2283C65.5052 27.2024 65.123 27.1377 64.7365 27.0341C63.4482 26.6974 61.6961 25.8429 61.0004 23.6289C60.9747 23.5642 62.2501 27.2153 66.656 26.5939C68.4596 26.2443 70.9976 25.2732 73.8576 22.8003Z" fill="#1F384C"/>
<path d="M66.2052 36.8224L67.661 35.3594V36.8224H66.2052Z" fill="white"/>
<path d="M64.3243 36.8223L63.5642 36.0455V34.1681L65.02 32.7051H66.888L67.661 33.469V35.3593L66.2052 36.8223H64.3243Z" fill="white"/>
<path d="M65.02 32.7051L63.5642 34.1681V32.7051H65.02Z" fill="white"/>
<path d="M72.8527 36.9518L74.3085 35.4888V36.9518H72.8527Z" fill="white"/>
<path d="M70.9718 36.9518L70.2117 36.1749V34.2975L71.6675 32.8345H73.5484L74.3085 33.5984V35.4887L72.8527 36.9518H70.9718Z" fill="white"/>
<path d="M71.6675 32.8345L70.2117 34.2975V32.8345H71.6675Z" fill="white"/>
<path d="M74.1797 32.1354C73.6386 31.7729 73.0331 31.6045 72.3632 31.6952C72.0926 31.734 71.8608 31.4751 71.9252 31.2032C71.9638 31.0607 72.054 30.9442 72.1957 30.9054C73.0975 30.6205 74.0122 30.7759 74.7079 31.501C74.7981 31.6045 74.8367 31.747 74.7981 31.8764V31.9023C74.7336 32.1742 74.4116 32.3037 74.1797 32.1354Z" fill="#2A445D"/>
<path d="M72.7368 34.8671C72.7368 35.2037 72.5178 35.4756 72.2601 35.4756C72.0025 35.4756 71.7963 35.2037 71.7963 34.8671C71.7963 34.5304 72.0025 34.2585 72.2601 34.2585C72.5178 34.2585 72.7368 34.5304 72.7368 34.8671Z" fill="#210601"/>
<path d="M66.0763 34.8153C66.0763 35.1519 65.8702 35.4238 65.6125 35.4238C65.3549 35.4238 65.1359 35.1519 65.1359 34.8153C65.1359 34.4916 65.3549 34.2197 65.6125 34.2197C65.8702 34.2197 66.0763 34.4916 66.0763 34.8153Z" fill="#210601"/>
<path fill-rule="evenodd" clip-rule="evenodd" d="M78.6114 33.0675C78.4654 33.1193 78.3924 33.1495 78.3924 33.1582C78.1605 33.0934 76.1121 33.7796 74.2183 34.4529C74.2441 34.591 74.257 34.7291 74.257 34.8672C74.257 35.9677 73.3681 36.874 72.2601 36.874C71.5258 36.874 70.8817 36.4597 70.5467 35.8642C70.4823 35.8512 70.4179 35.8253 70.3664 35.7994C70.3148 35.7735 70.2633 35.7347 70.2246 35.6958C70.1345 35.5923 70.0829 35.4757 70.0572 35.3463C70.0185 35.0614 70.0829 34.8543 70.1602 34.7248C69.851 34.3623 69.4001 34.1292 68.8848 34.1292C68.421 34.1292 67.9959 34.3234 67.6867 34.6342C67.7769 34.7636 67.8542 34.9837 67.8155 35.2945C67.7898 35.4239 67.7382 35.5405 67.6481 35.644C67.6094 35.6829 67.5579 35.7217 67.4935 35.7606C67.4548 35.7865 67.3904 35.7994 67.326 35.8124C66.991 36.4079 66.3469 36.8223 65.6126 36.8223C64.5046 36.8223 63.6157 35.9289 63.6157 34.8154C63.6157 34.6773 63.6286 34.5392 63.6544 34.4011C61.7992 33.7408 59.738 33.0675 59.4417 33.1064C59.4417 33.1064 59.4331 33.1193 59.4159 33.1452L59.2355 33.0805C59.2484 33.0287 59.3128 32.9251 59.3772 32.9122C59.5963 32.8733 60.4079 33.0287 63.7188 34.2069C63.9764 33.4042 64.7236 32.8215 65.6126 32.8215C66.5788 32.8215 67.3904 33.5207 67.5708 34.4529C67.9057 34.1163 68.3695 33.9091 68.8848 33.9091C69.4517 33.9091 69.9541 34.1681 70.3019 34.5565C70.4436 33.5984 71.2682 32.8604 72.2601 32.8604C73.1491 32.8604 73.8963 33.456 74.1539 34.2587C78.4568 32.718 78.547 32.9251 78.6114 33.0675ZM67.3904 34.8154C67.3904 33.8314 66.5917 33.0287 65.6126 33.0287C64.6206 33.0287 63.8218 33.8314 63.8218 34.8154C63.8218 35.8124 64.6206 36.6151 65.6126 36.6151C66.5917 36.6151 67.3904 35.8124 67.3904 34.8154ZM67.6352 34.9967C67.6352 34.9578 67.6094 34.919 67.5965 34.8802C67.5879 35.1132 67.545 35.3376 67.4677 35.5534C67.4806 35.5405 67.4935 35.5275 67.5063 35.5146C67.5493 35.48 67.5794 35.4412 67.5965 35.398C67.6481 35.2815 67.6609 35.1262 67.6352 34.9967ZM70.405 35.5923C70.3277 35.3851 70.2848 35.165 70.2762 34.9319C70.2633 34.9708 70.2375 35.0096 70.2375 35.0485C70.2118 35.1779 70.2246 35.3204 70.2762 35.4498C70.2933 35.493 70.3234 35.5318 70.3664 35.5664C70.3792 35.5793 70.3921 35.5923 70.405 35.5923ZM74.0509 34.8672C74.0509 33.8832 73.2521 33.0805 72.2601 33.0805C71.281 33.0805 70.4823 33.8832 70.4823 34.8672C70.4823 35.8512 71.281 36.6539 72.2601 36.6539C73.2521 36.6539 74.0509 35.8512 74.0509 34.8672Z" fill="#302420"/>
<path d="M63.0746 31.8504V31.8245C63.036 31.6951 63.0746 31.5527 63.1648 31.4491C63.8605 30.724 64.7752 30.5816 65.677 30.8535C65.8187 30.9053 65.9088 31.0218 65.9475 31.1513C66.0119 31.4232 65.78 31.6951 65.4966 31.6433C64.8396 31.5527 64.2341 31.721 63.693 32.0964C63.4611 32.2518 63.139 32.1223 63.0746 31.8504Z" fill="#2A445D"/>
<path d="M55.9117 63.7397C56.5558 61.5516 57.7153 60.4381 58.7073 60.3734C59.6993 60.3216 61.2452 60.723 62.0697 64.3223C62.6194 66.7306 62.8513 69.579 62.7654 72.8676C63.139 72.0002 62.8556 68.8928 62.6623 66.7565C62.5206 65.0992 62.044 61.461 60.163 60.464C59.5962 60.1662 58.8361 59.972 58.0116 60.2828C55.6326 61.2063 54.6191 65.2114 54.9712 72.2979C55.1688 68.0512 55.4823 65.1985 55.9117 63.7397Z" fill="#1A2026"/>
<path d="M57.1227 74.7062C57.0626 74.6027 57.054 74.348 57.0969 73.9423C56.762 74.2876 56.281 74.3869 55.654 74.2401C54.7007 74.02 54.4559 73.036 54.4559 73.0748C54.5075 74.3523 55.3964 74.8961 57.1227 74.7062Z" fill="#1A2026"/>
<path d="M63.3967 72.3499C63.3967 72.3369 63.4353 72.7901 63.2421 73.1656C62.9071 73.8388 62.6108 73.8647 62.263 74.059C61.6875 74.3611 61.2968 74.3093 61.0906 73.9036C61.1679 74.2834 61.1894 74.5337 61.1551 74.6545C62.7783 74.6028 63.5255 73.8345 63.3967 72.3499Z" fill="#1A2026"/>
<path d="M58.4238 54.0552L58.9778 53.9517L58.9391 54.2235L58.4238 54.3271V54.0552Z" fill="#1A2026"/>
<defs>
<linearGradient id="paint0_linear_469_341" x1="39.1926" y1="119.129" x2="80.7959" y2="8.38798" gradientUnits="userSpaceOnUse">
<stop stop-color="#2398D8"/>
<stop offset="1" stop-color="#C7EFFF"/>
</linearGradient>
</defs>
</svg>
