<svg width="148" height="113" viewBox="0 0 148 113" fill="none" xmlns="http://www.w3.org/2000/svg">
<g clip-path="url(#clip0_477_1417)">
<path d="M110.822 9.44474C118.984 21.1846 149 9.94856 148.013 30.8531C146.852 55.3245 117.521 61.1864 126.381 78.8361C135.24 96.4859 124.213 115.303 86.3635 113.192C48.5144 111.081 -11.6923 86.6654 3.74531 63.8814C19.1762 41.0895 9.44382 39.4341 9.06123 29.0378C8.68536 18.6335 16.8472 -3.77457 45.5545 16.5462C74.2617 36.875 90.1558 -20.2807 110.822 9.44474Z" fill="url(#paint0_linear_477_1417)"/>
<path d="M38.4129 108.05C38.4196 108.434 38.2854 108.818 38.0371 109.089C37.7954 109.361 37.4531 109.521 37.1041 109.521L9.06123 109.601C8.71221 109.601 8.34976 109.449 8.10812 109.185C7.85978 108.914 7.66513 108.554 7.66513 108.17V37.5228C7.66513 36.7311 8.36989 36.0593 9.08808 36.0593H35.9093C36.6208 36.0593 37.1981 36.6991 37.2115 37.4748L38.4129 108.05Z" fill="#178D7D"/>
<path d="M17.458 44.3846L9.81969 44.3686L9.75928 40.0662H17.4043L17.458 44.3846Z" fill="#EDF5F4"/>
<path d="M26.0225 44.3766L18.3909 44.3686L18.3372 40.0662H25.9822L26.0225 44.3766Z" fill="#EDF5F4"/>
<path d="M34.5803 44.3766L26.9555 44.3686L26.9085 40.0662H34.5468L34.5803 44.3766Z" fill="#EDF5F4"/>
<path d="M17.5519 52.11L9.92706 52.118L9.86665 47.8395L17.4982 47.8315L17.5519 52.11Z" fill="#EDF5F4"/>
<path d="M26.103 52.102L18.4849 52.11L18.4312 47.8315H26.0627L26.103 52.102Z" fill="#EDF5F4"/>
<path d="M34.6474 52.094L27.036 52.102L26.989 47.8315L34.6072 47.8235L34.6474 52.094Z" fill="#EDF5F4"/>
<path d="M17.6526 59.7794L10.0345 59.7954L9.97404 55.5329L17.5989 55.5249L17.6526 59.7794Z" fill="#EDF5F4"/>
<path d="M26.1836 59.7711L18.5789 59.7791L18.5252 55.5246L26.1433 55.5166L26.1836 59.7711Z" fill="#EDF5F4"/>
<path d="M34.7146 59.7633L27.1098 59.7713L27.0696 55.5168L34.6743 55.5088L34.7146 59.7633Z" fill="#EDF5F4"/>
<path d="M17.7466 67.4325L10.1418 67.4405L10.0814 63.194L17.6929 63.186L17.7466 67.4325Z" fill="#EDF5F4"/>
<path d="M26.2641 67.4164L18.6728 67.4324L18.6191 63.1859L26.2171 63.1699L26.2641 67.4164Z" fill="#EDF5F4"/>
<path d="M34.775 67.4006L27.1904 67.4166L27.1501 63.1701L34.7414 63.1621L34.775 67.4006Z" fill="#EDF5F4"/>
<path d="M17.8405 75.0538L10.2493 75.0698L10.1888 70.8312L17.7868 70.8232L17.8405 75.0538Z" fill="#EDF5F4"/>
<path d="M26.3447 75.0377L18.7668 75.0457L18.7131 70.8154L26.2977 70.8074L26.3447 75.0377Z" fill="#EDF5F4"/>
<path d="M34.8421 75.0138L27.2709 75.0297L27.224 70.8073L34.8085 70.7913L34.8421 75.0138Z" fill="#EDF5F4"/>
<path d="M17.9345 82.643L10.3566 82.667L10.2962 78.4445L17.8808 78.4285L17.9345 82.643Z" fill="#EDF5F4"/>
<path d="M26.4252 82.6269L18.8541 82.6429L18.8071 78.4283L26.3782 78.4124L26.4252 82.6269Z" fill="#EDF5F4"/>
<path d="M34.9092 82.603L27.3448 82.619L27.3045 78.4124L34.8689 78.3884L34.9092 82.603Z" fill="#EDF5F4"/>
<path d="M18.0285 90.2165L10.464 90.2405L10.4036 86.034L17.9748 86.01L18.0285 90.2165Z" fill="#EDF5F4"/>
<path d="M26.5058 90.1924L18.948 90.2084L18.8943 86.0099L26.4588 85.9939L26.5058 90.1924Z" fill="#EDF5F4"/>
<path d="M34.9696 90.1685L27.4253 90.1845L27.3783 85.986L34.9361 85.97L34.9696 90.1685Z" fill="#EDF5F4"/>
<path d="M18.1225 97.7577L10.5714 97.7816L10.511 93.5911L18.0688 93.5671L18.1225 97.7577Z" fill="#EDF5F4"/>
<path d="M26.5796 97.7257L19.042 97.7577L18.9883 93.5672L26.5393 93.5432L26.5796 97.7257Z" fill="#EDF5F4"/>
<path d="M35.0367 97.7018L27.4992 97.7258L27.4589 93.5433L34.9965 93.5193L35.0367 97.7018Z" fill="#EDF5F4"/>
<path d="M18.2164 105.275L10.6788 105.299L10.6184 101.125L18.1627 101.101L18.2164 105.275Z" fill="#EDF5F4"/>
<path d="M26.6601 105.243L19.1292 105.267L19.0823 101.101L26.6199 101.069L26.6601 105.243Z" fill="#EDF5F4"/>
<path d="M35.0972 105.211L27.5797 105.235L27.5327 101.069L35.0636 101.037L35.0972 105.211Z" fill="#EDF5F4"/>
<path d="M101.982 3.19076C104.546 12.3475 117.668 66.3844 77.3225 90.1599C66.4445 68.2104 74.2752 39.1274 100.815 2.91086C101.164 2.43903 101.815 2.59097 101.982 3.19076Z" fill="#26D8C0"/>
<path d="M99.4453 12.4035C99.4117 14.1709 99.3043 15.9222 99.1634 17.6736C99.0291 19.433 98.8546 21.1764 98.66 22.9198C98.2572 26.4065 97.7538 29.8773 97.1497 33.3241C96.5524 36.7709 95.8543 40.1937 95.0757 43.5925C94.2971 46.9833 93.4447 50.3581 92.4849 53.6849L92.1359 54.9404L91.76 56.18C91.5117 57.0117 91.27 57.8434 91.0083 58.6671C90.4847 60.3066 89.9679 61.962 89.3974 63.5854L88.9812 64.809L88.7732 65.4247L88.5584 66.0245L87.6791 68.4557L87.4576 69.0555L87.2294 69.6632L86.7663 70.8628L86.3099 72.0624L86.0749 72.6622L85.84 73.254C83.2962 79.6117 80.457 85.8015 77.3292 91.7834C77.2486 91.9354 77.0876 91.9834 76.96 91.8874C76.8325 91.7914 76.7922 91.5915 76.8728 91.4476V91.4396C80.014 85.4977 82.8599 79.3478 85.4239 73.0221L85.6655 72.4303L85.8937 71.8305L86.3568 70.6389L86.82 69.4393L87.0549 68.8475L87.2764 68.2397L88.1557 65.8246L88.3771 65.2248L88.5919 64.617L89.0081 63.3935C89.5786 61.778 90.1021 60.1386 90.6324 58.4992C90.8942 57.6755 91.1358 56.8518 91.3908 56.0281L91.7667 54.7885L92.1225 53.5409C93.089 50.2221 93.9548 46.8633 94.7468 43.4805C95.5389 40.0977 96.2436 36.6909 96.8544 33.2521C97.4652 29.8133 97.982 26.3585 98.3915 22.8798C98.5928 21.1364 98.7808 19.401 98.9217 17.6496C99.0627 15.9062 99.1768 14.1469 99.217 12.4035V12.3955C99.217 12.3235 99.2707 12.2595 99.3312 12.2675C99.3983 12.2675 99.4453 12.3315 99.4453 12.4035Z" fill="#F5F5F5"/>
<path d="M71.1139 101.052C67.288 82.059 85.7863 57.4117 105.204 45.9677C117.131 38.9382 129.294 20.8966 133.75 13.8511C134.207 13.1233 135.18 13.6192 135.059 14.5228C126.226 79.945 104.911 108.788 71.1139 101.052Z" fill="#26D8C0"/>
<path d="M129.998 25.175C129.898 25.407 129.797 25.6069 129.696 25.8228L129.388 26.4546L128.75 27.7102C128.32 28.5419 127.891 29.3656 127.455 30.1893C126.575 31.8367 125.683 33.4681 124.776 35.0915C122.964 38.3384 121.078 41.5293 119.152 44.6802C117.232 47.839 115.239 50.934 113.198 53.9809L112.433 55.1245L111.654 56.2521C111.138 57.0038 110.628 57.7715 110.097 58.5153L108.513 60.7465L106.902 62.9617C102.587 68.8236 98.0156 74.4296 93.1226 79.6198C92.9682 79.7878 92.8205 79.9477 92.6661 80.1077L92.1963 80.5875L91.2633 81.5391L90.3304 82.4828C90.0149 82.7947 89.6994 83.0986 89.3773 83.4105L88.4242 84.3302C88.102 84.634 87.7932 84.9459 87.4643 85.2418L85.5044 87.0092C82.8599 89.3124 80.1214 91.4636 77.2822 93.399C77.2553 93.4229 77.2084 93.4149 77.1949 93.375C77.1748 93.335 77.1882 93.287 77.2151 93.263C80.0274 91.2797 82.7256 89.0805 85.3366 86.7373L87.2764 84.9539C87.6053 84.666 87.914 84.3461 88.2295 84.0423L89.1759 83.1146C89.4914 82.8027 89.8068 82.4988 90.1223 82.1869L91.0418 81.2272L91.9681 80.2676L92.4312 79.7878C92.5856 79.6278 92.7333 79.4599 92.8809 79.2999L94.6932 77.3326C95.2906 76.6689 95.8745 75.9891 96.4719 75.3253C96.7605 74.9895 97.0625 74.6536 97.3511 74.3097L98.2237 73.2861L99.0896 72.2544L99.5191 71.7346L99.9487 71.2148L101.647 69.1115C102.211 68.4078 102.761 67.688 103.318 66.9763C103.593 66.6164 103.875 66.2645 104.15 65.9047L104.969 64.8171C105.513 64.0893 106.063 63.3776 106.6 62.6418C110.916 56.7959 114.984 50.694 118.883 44.4402C120.825 41.3107 122.718 38.1385 124.562 34.9236C125.481 33.3082 126.394 31.6927 127.287 30.0613C127.73 29.2456 128.173 28.4299 128.609 27.6062L129.253 26.3666L129.576 25.7428C129.676 25.5269 129.784 25.319 129.871 25.1191L129.878 25.1031C129.898 25.0631 129.938 25.0471 129.972 25.0711C129.998 25.0871 130.012 25.1351 129.998 25.175Z" fill="#EDF5F4"/>
<path d="M71.5367 105.107C74.3781 98.9704 79.8037 94.4014 87.8134 91.3998C98.962 87.2172 125.803 78.2045 134.871 69.5915C135.274 69.2077 135.824 69.7435 135.59 70.2873C133.079 76.1332 125.83 90.1842 111.024 99.3969C98.2931 107.319 85.1308 109.223 71.5367 105.107Z" fill="#26D8C0"/>
<path d="M127.441 78.2203C126.743 79.4119 125.917 80.4915 125.052 81.5072C124.944 81.6351 124.837 81.7711 124.729 81.8911L124.394 82.2669L123.723 83.0107L123.025 83.7144C122.79 83.9463 122.568 84.1942 122.32 84.4102C120.407 86.2095 118.366 87.833 116.219 89.2245C115.695 89.6003 115.138 89.9042 114.594 90.2401C114.051 90.56 113.514 90.9119 112.95 91.1918L111.272 92.0715C110.997 92.2234 110.708 92.3434 110.419 92.4793L109.567 92.8632L108.708 93.2551L108.278 93.447L107.849 93.6149L106.104 94.2947C105.815 94.4067 105.526 94.5266 105.231 94.6226L104.352 94.9265L102.6 95.5343L100.841 96.1101C100.251 96.302 99.6668 96.5019 99.0761 96.6859C97.9015 97.0537 96.7202 97.4216 95.5389 97.7655C94.3576 98.1254 93.1762 98.4612 91.9882 98.7971L88.4376 99.7808C86.0615 100.429 83.6922 101.076 81.343 101.812C80.759 101.988 80.1751 102.196 79.5911 102.388C79.2958 102.484 79.0139 102.604 78.7253 102.716C78.4367 102.828 78.148 102.932 77.8594 103.052C77.2956 103.308 76.7184 103.539 76.168 103.835L75.7519 104.051C75.6847 104.091 75.6109 104.123 75.5438 104.163L75.3424 104.283L74.537 104.779H74.5303C74.4967 104.803 74.4564 104.787 74.443 104.747C74.4229 104.707 74.4363 104.667 74.4632 104.643C75.5169 103.899 76.6378 103.3 77.7789 102.78C78.0608 102.652 78.3561 102.54 78.6447 102.42C78.9266 102.3 79.2153 102.172 79.5106 102.068C80.0945 101.86 80.6718 101.628 81.2624 101.436C83.6049 100.644 85.9742 99.9727 88.3369 99.285C90.6995 98.5892 93.0621 97.9094 95.4181 97.1897C97.774 96.4779 100.116 95.7182 102.459 94.9345L104.211 94.3347L105.083 94.0308C105.379 93.9348 105.661 93.8149 105.949 93.7029L107.681 93.0471L108.117 92.8792L108.54 92.6953L109.392 92.3114C111.668 91.3357 113.876 90.1202 116.024 88.7846C118.172 87.4571 120.226 85.8977 122.159 84.1543C122.407 83.9463 122.629 83.7144 122.87 83.4905L123.582 82.8107L124.273 82.107L124.615 81.7471C124.723 81.6271 124.837 81.4992 124.944 81.3792C125.166 81.1233 125.387 80.8834 125.602 80.6275L126.24 79.8518C126.649 79.324 127.065 78.7881 127.428 78.2123C127.432 78.207 127.437 78.2043 127.441 78.2043C127.441 78.2123 127.448 78.2123 127.441 78.2203Z" fill="#EDF5F4"/>
<path d="M28.2039 109.937C28.2106 110.145 28.0898 110.345 27.8616 110.489C27.6401 110.633 27.3313 110.721 27.0092 110.721L1.34912 110.769C1.03366 110.769 0.704767 110.689 0.476558 110.545C0.255062 110.393 0.0738373 110.201 0.0738373 109.993V71.7426C0.0738373 71.4707 0.523542 71.2468 0.953111 71.2468H26.3312C26.7474 71.2468 27.0897 71.4627 27.0964 71.7347L28.2039 109.937Z" fill="#1FA694"/>
<g style="mix-blend-mode:overlay">
<path d="M12.5246 73.958L4.22186 73.934V73.2703L12.5179 73.2863L12.5246 73.958Z" fill="#EDF5F4"/>
</g>
<g style="mix-blend-mode:overlay">
<path d="M12.5448 76.4292L4.20844 76.4052L4.21515 75.7253L12.5381 75.7493L12.5448 76.4292Z" fill="#EDF5F4"/>
</g>
<g style="mix-blend-mode:overlay">
<path d="M12.5716 78.9162L4.19502 78.8922L4.20173 78.2043L12.5649 78.2363L12.5716 78.9162Z" fill="#EDF5F4"/>
</g>
<g style="mix-blend-mode:overlay">
<path d="M12.5917 81.4273L4.18831 81.3953V80.7075L12.585 80.7395L12.5917 81.4273Z" fill="#EDF5F4"/>
</g>
<g style="mix-blend-mode:overlay">
<path d="M12.6119 83.9626L4.17488 83.9226V83.2268L12.6119 83.2668V83.9626Z" fill="#EDF5F4"/>
</g>
<g style="mix-blend-mode:overlay">
<path d="M12.6656 89.0966L4.14804 89.0407L4.15475 88.3369L12.6589 88.3849L12.6656 89.0966Z" fill="#EDF5F4"/>
</g>
<g style="mix-blend-mode:overlay">
<path d="M12.7327 96.9499L4.11447 96.8779L4.12118 96.1501L12.726 96.2301L12.7327 96.9499Z" fill="#EDF5F4"/>
</g>
<g style="mix-blend-mode:overlay">
<path d="M12.6387 86.5215L4.16147 86.4655L4.16818 85.7698L12.632 85.8178L12.6387 86.5215Z" fill="#EDF5F4"/>
</g>
<g style="mix-blend-mode:overlay">
<path d="M12.6857 91.6877L4.14133 91.6317V90.9199L12.679 90.9759L12.6857 91.6877Z" fill="#EDF5F4"/>
</g>
<g style="mix-blend-mode:overlay">
<path d="M12.7126 94.3108L4.1279 94.2389V93.5271L12.7059 93.5911L12.7126 94.3108Z" fill="#EDF5F4"/>
</g>
<g style="mix-blend-mode:overlay">
<path d="M12.7596 99.6209L4.10106 99.5329L4.10777 98.8052L12.7529 98.8851L12.7596 99.6209Z" fill="#EDF5F4"/>
</g>
<g style="mix-blend-mode:overlay">
<path d="M12.7864 102.308L4.08763 102.212L4.09434 101.476L12.7797 101.564L12.7864 102.308Z" fill="#EDF5F4"/>
</g>
<g style="mix-blend-mode:overlay">
<path d="M12.8065 105.011L4.0742 104.915L4.08092 104.171L12.7998 104.267L12.8065 105.011Z" fill="#EDF5F4"/>
</g>
<g style="mix-blend-mode:overlay">
<path d="M12.8334 107.746L4.06749 107.642V106.898L12.8267 106.994L12.8334 107.746Z" fill="#EDF5F4"/>
</g>
<g style="mix-blend-mode:overlay">
<path d="M23.4115 73.9821L15.0551 73.9661L15.0416 73.2864L23.3914 73.3024L23.4115 73.9821Z" fill="#EDF5F4"/>
</g>
<g style="mix-blend-mode:overlay">
<path d="M23.4786 76.4611L15.0886 76.4371L15.0752 75.7573L23.4585 75.7813L23.4786 76.4611Z" fill="#EDF5F4"/>
</g>
<g style="mix-blend-mode:overlay">
<path d="M23.5458 78.9564L15.1222 78.9324L15.1088 78.2446L23.5256 78.2766L23.5458 78.9564Z" fill="#EDF5F4"/>
</g>
<g style="mix-blend-mode:overlay">
<path d="M23.6129 81.4834L15.1558 81.4434L15.1423 80.7556L23.5927 80.7876L23.6129 81.4834Z" fill="#EDF5F4"/>
</g>
<g style="mix-blend-mode:overlay">
<path d="M23.68 84.0184L15.1893 83.9785L15.1759 83.2827L23.6666 83.3227L23.68 84.0184Z" fill="#EDF5F4"/>
</g>
<g style="mix-blend-mode:overlay">
<path d="M23.8209 89.1686L15.2564 89.1126L15.2497 88.4009L23.8008 88.4569L23.8209 89.1686Z" fill="#EDF5F4"/>
</g>
<g style="mix-blend-mode:overlay">
<path d="M24.0358 97.0539L15.3638 96.9739L15.3504 96.2542L24.0223 96.3261L24.0358 97.0539Z" fill="#EDF5F4"/>
</g>
<g style="mix-blend-mode:overlay">
<path d="M23.7538 86.5855L15.2229 86.5295L15.2162 85.8337L23.7337 85.8817L23.7538 86.5855Z" fill="#EDF5F4"/>
</g>
<g style="mix-blend-mode:overlay">
<path d="M23.8948 91.7757L15.29 91.7118L15.2833 91L23.8747 91.056L23.8948 91.7757Z" fill="#EDF5F4"/>
</g>
<g style="mix-blend-mode:overlay">
<path d="M23.9686 94.3987L15.3302 94.3347L15.3168 93.615L23.9485 93.679L23.9686 94.3987Z" fill="#EDF5F4"/>
</g>
<g style="mix-blend-mode:overlay">
<path d="M24.1096 99.7249L15.3974 99.6449L15.3907 98.9092L24.0894 98.9892L24.1096 99.7249Z" fill="#EDF5F4"/>
</g>
<g style="mix-blend-mode:overlay">
<path d="M24.1834 102.42L15.4376 102.332L15.4242 101.596L24.1633 101.684L24.1834 102.42Z" fill="#EDF5F4"/>
</g>
<g style="mix-blend-mode:overlay">
<path d="M24.2572 105.139L15.4712 105.043L15.4578 104.299L24.2371 104.395L24.2572 105.139Z" fill="#EDF5F4"/>
</g>
<g style="mix-blend-mode:overlay">
<path d="M24.3378 107.89L15.5048 107.778L15.4981 107.026L24.3176 107.13L24.3378 107.89Z" fill="#EDF5F4"/>
</g>
<path d="M7.7054 78.3405C11.0077 79.4761 29.9759 87.0494 27.2105 109.529C18.1672 108.762 11.5447 98.504 7.34295 78.7563C7.28925 78.4924 7.49062 78.2605 7.7054 78.3405Z" fill="#26D8C0"/>
<path d="M9.8331 81.5475C11.8534 83.3388 13.6791 85.3861 15.4175 87.5373L16.0686 88.3451C16.2901 88.617 16.4914 88.9049 16.6995 89.1768L17.3237 90.0165L17.6392 90.4323L17.9345 90.8642C18.3372 91.44 18.74 92.0158 19.136 92.5916L20.277 94.3749L20.5656 94.8148L20.8341 95.2786L21.3778 96.1903C21.7402 96.7981 22.1094 97.4059 22.4383 98.0376L23.4652 99.925C23.5525 100.077 23.6263 100.237 23.7069 100.405L23.9418 100.885L24.4183 101.852C25.0761 103.132 25.6332 104.475 26.2172 105.795L26.4387 106.291C26.5125 106.459 26.5729 106.627 26.64 106.795L27.036 107.818L27.8281 109.849C27.8952 110.009 27.8348 110.201 27.7005 110.273C27.5663 110.353 27.4052 110.281 27.3448 110.121L27.3381 110.113V110.105L26.5662 108.074L26.1836 107.058C26.1165 106.891 26.0561 106.723 25.9822 106.555L25.7742 106.059C25.1969 104.739 24.66 103.404 24.0223 102.124L23.5592 101.165L23.3243 100.677C23.2504 100.517 23.1699 100.357 23.0826 100.197L22.0893 98.3175C21.7671 97.6778 21.4046 97.078 21.0489 96.4622L20.5187 95.5505L20.2502 95.0867L19.9683 94.6468L18.8474 92.8635C18.4648 92.2797 18.062 91.7039 17.6727 91.1281L17.3774 90.6962L17.0687 90.2724L16.4579 89.4327C16.2498 89.1608 16.0551 88.8729 15.8337 88.601L15.196 87.7853C13.4912 85.626 11.6789 83.5547 9.69886 81.7714L9.69214 81.7634C9.64516 81.7154 9.63174 81.6354 9.67201 81.5714C9.71228 81.5155 9.7794 81.4995 9.8331 81.5475Z" fill="#EDF5F4"/>
<path d="M29.3114 14.9069C40.9903 14.0032 64.9052 16.6263 73.906 17.6979C75.9935 17.9458 77.6379 19.9371 77.8124 22.4242C79.2891 43.2249 78.6649 88.6248 78.3829 104.771C78.3293 108.13 76.0874 110.849 73.2684 110.985C59.7504 111.665 35.9697 110.849 27.7005 110.521C26.0292 110.457 24.6868 108.858 24.6331 106.866C24.1431 88.073 25.1768 35.0198 25.499 19.6412C25.5527 17.1301 27.2038 15.0668 29.3114 14.9069Z" fill="url(#paint1_linear_477_1417)"/>
<path d="M32.2177 20.369C41.9635 19.7372 63.6835 21.8884 72.1407 22.7921C74.1878 23.016 75.7719 25.0073 75.8457 27.4545C76.2753 42.777 74.6107 81.7952 74.0267 94.6386C73.9193 97.1097 72.295 99.093 70.2345 99.2929C58.7636 100.389 38.7149 99.189 30.8954 98.6372C28.9959 98.5092 27.4991 96.6779 27.432 94.4147C26.9823 78.9162 28.4053 37.0191 28.855 24.4235C28.9355 22.2403 30.392 20.4889 32.2177 20.369Z" fill="url(#paint2_linear_477_1417)"/>
<path opacity="0.5" d="M46.6418 16.7062C49.9643 16.5622 54.9781 17.0661 56.6427 17.25C56.9716 17.29 57.2401 17.5779 57.3005 17.9697L57.3206 18.0657C57.4079 18.6335 57.032 19.1533 56.542 19.1133C54.0854 18.9454 48.5883 18.6015 46.6351 18.4815C46.2391 18.4575 45.9303 18.0657 45.9303 17.5939C45.9303 17.122 46.2458 16.7222 46.6418 16.7062Z" fill="white"/>
<path d="M37.6611 28.1101C47.6956 27.9182 62.8514 28.598 67.872 28.8379C68.8654 28.8938 69.6775 29.2857 69.8722 29.8055L69.9192 29.9415C70.1943 30.7092 69.0466 31.405 67.5834 31.365C60.1532 31.1331 43.5342 30.6692 37.6343 30.5013C36.4395 30.4693 35.5066 29.9415 35.5066 29.3017C35.5066 28.6619 36.453 28.1341 37.6611 28.1101Z" fill="#91B3FA"/>
<path d="M37.6611 33.0606C47.6956 32.8686 62.8514 33.5484 67.872 33.7883C68.8654 33.8363 69.6775 34.2361 69.8722 34.756L69.9192 34.8919C70.1943 35.6516 69.0466 36.3554 67.5834 36.3074C60.1532 36.0835 43.5342 35.6197 37.6343 35.4517C36.4395 35.4197 35.5066 34.8919 35.5066 34.2521C35.5066 33.6124 36.453 33.0766 37.6611 33.0606Z" fill="#91B3FA"/>
<path d="M36.802 73.2222C44.1919 72.8063 63.1266 71.8387 70.1406 72.5424C71.3823 72.6624 72.3287 73.9099 72.3153 75.3894C72.3153 75.4214 72.3153 75.4534 72.3153 75.4854C72.2818 78.6043 70.2413 81.1634 67.6303 81.3633C60.3679 81.9231 45.3263 82.8828 37.4598 82.0271C35.5133 81.8192 33.9293 80.0438 33.6675 77.7406C33.663 77.7086 33.6585 77.6793 33.6541 77.6526C33.4124 75.3734 34.8756 73.3341 36.802 73.2222Z" fill="#F7B05C"/>
<path d="M33.7749 76.0132C34.1709 74.4697 35.3522 73.3101 36.802 73.2222C44.1919 72.8063 63.1265 71.8387 70.1406 72.5424C70.9125 72.6144 71.5703 73.1262 71.9528 73.8619C67.8719 78.3324 40.8426 77.3967 36.7819 77.1328C35.1039 77.0288 34.2112 76.573 33.7749 76.0132Z" fill="#F4CD4E"/>
<path d="M34.5468 69.2636C39.7755 68.8958 60.274 67.5682 69.55 68.8398C70.2547 68.9437 70.7246 69.7674 70.5366 70.5831C70.389 71.2149 70.1473 71.9587 69.7513 72.6784C69.503 73.1342 69.06 73.2862 68.6237 73.4461C62.0661 75.9012 46.8097 77.0928 35.6476 74.1179C34.6989 74.0379 34.0009 72.9663 33.5534 70.903C33.3789 70.1033 33.8555 69.3116 34.5468 69.2636Z" fill="url(#paint3_linear_477_1417)"/>
<path d="M63.9655 65.7847C69.1606 66.1766 71.295 68.0079 70.7581 68.6397C70.3889 69.0796 62.2472 72.5824 57.3072 74.6856C55.1728 75.5893 52.8303 75.5333 50.7227 74.5177C45.729 72.1185 36.8356 69.5754 34.2044 68.8476C33.9964 68.7917 33.9897 68.4478 34.191 68.3758L43.4469 65.0649C53.6626 65.2782 60.5021 65.5181 63.9655 65.7847Z" fill="#F4CD4E"/>
<path d="M36.312 59.2831L67.0263 59.6589C67.8518 59.6669 68.6372 60.1308 69.1271 60.9145C70.1608 62.5939 70.0937 64.0894 69.6641 65.273C69.06 66.9124 67.7109 67.9841 66.2141 68.08C60.3209 68.4559 43.071 68.3679 38.1645 68.336C37.2316 68.328 36.3456 67.8001 35.8019 66.8965C34.1776 64.2174 34.54 61.7862 34.9428 60.4187C35.1441 59.7309 35.6945 59.2751 36.312 59.2831Z" fill="url(#paint4_linear_477_1417)"/>
<path d="M58.8375 59.1951C55.6359 59.667 57.9717 62.1301 56.7031 63.8015C55.4345 65.4649 52.5685 63.4016 50.7697 63.1617C48.9709 62.9218 48.3735 63.9534 46.4404 62.45C45.1517 61.4423 43.2209 60.3041 40.648 59.0352C54.9043 58.8219 60.9675 58.8752 58.8375 59.1951Z" fill="url(#paint5_linear_477_1417)"/>
<path d="M60.2538 59.1152C65.7263 57.9529 69.2501 57.6357 70.8252 58.1635C73.1811 58.9552 73.2885 59.515 71.5434 60.8586C69.7982 62.2101 69.1807 62.53 66.308 62.45C63.4353 62.3701 55.7433 61.6583 60.2538 59.1152Z" fill="url(#paint6_linear_477_1417)"/>
<path d="M38.5136 62.9219C35.6408 63.0018 35.0233 62.6899 33.2782 61.3384C31.5331 59.9869 31.6405 59.4351 33.9964 58.6354C35.5715 58.1076 39.093 58.4275 44.5611 59.5951C49.0783 62.1301 41.3863 62.8419 38.5136 62.9219Z" fill="url(#paint7_linear_477_1417)"/>
<path d="M70.0533 55.4764C68.3418 56.2761 63.8648 56.7239 51.6356 57.2917C38.5673 57.8915 34.5065 57.0038 33.3118 56.1721C34.0299 49.9583 39.1646 40.1538 50.4408 39.586C66.0798 38.8023 69.3754 49.9903 70.0533 55.4764Z" fill="#F7B05C"/>
<path d="M51.6355 57.2917C63.8648 56.7239 68.3417 56.276 70.0533 55.4763C70.0891 55.7536 70.1182 56.0175 70.1406 56.268C70.2547 57.5156 69.5902 58.6672 68.5699 58.9951C57.4683 62.5218 40.2922 61.1623 34.728 60.5865C33.7212 60.4825 33.305 59.3789 33.2379 58.1794C33.2044 57.5716 33.2312 56.8918 33.3117 56.1721C34.5065 57.0038 38.5673 57.8915 51.6355 57.2917Z" fill="#F4CD4E"/>
<path d="M44.1114 41.6494C45.1854 41.1296 45.1786 42.1292 44.1114 43.0009C43.0442 43.8726 42.3125 42.5211 44.1114 41.6494Z" fill="url(#paint8_linear_477_1417)"/>
<path d="M47.709 41.0974C46.4941 41.0974 45.1115 42.7608 46.6418 42.5209C48.1721 42.289 48.8433 41.0974 47.709 41.0974Z" fill="url(#paint9_linear_477_1417)"/>
<path d="M45.9773 43.5525C44.9302 43.8644 45.1115 44.984 46.2391 44.5842C47.3735 44.1923 46.7761 43.3206 45.9773 43.5525Z" fill="url(#paint10_linear_477_1417)"/>
<path d="M50.2395 40.5377C49.4407 40.6416 48.9105 42.0492 50.2395 41.8093C51.5752 41.5693 51.5081 40.3777 50.2395 40.5377Z" fill="url(#paint11_linear_477_1417)"/>
<path d="M48.9709 43.9524C48.1252 44.1524 47.4406 46.5755 48.9709 46.3356C50.508 46.0957 50.3066 43.6325 48.9709 43.9524Z" fill="url(#paint12_linear_477_1417)"/>
<path d="M52.441 44.1125C51.9041 44.1924 51.1725 46.4157 52.1726 46.0958C53.1726 45.7759 53.4411 43.9525 52.441 44.1125Z" fill="url(#paint13_linear_477_1417)"/>
<path d="M53.1726 41.0974C52.441 41.0974 51.7026 41.9691 53.4411 42.129C55.1729 42.2889 54.307 41.0974 53.1726 41.0974Z" fill="url(#paint14_linear_477_1417)"/>
<path d="M56.4347 41.0976C55.5755 40.9057 54.9714 41.9693 56.1058 42.0492C57.2334 42.1292 57.5019 41.3295 56.4347 41.0976Z" fill="url(#paint15_linear_477_1417)"/>
<path d="M54.4345 43.4727C54.0452 43.1608 54.0385 43.9525 54.7701 44.1125C55.5017 44.2724 54.8372 43.7926 54.4345 43.4727Z" fill="url(#paint16_linear_477_1417)"/>
<path d="M59.1664 42.9209C58.3207 42.2491 56.5689 42.681 58.7033 43.7926C60.831 44.9042 59.9651 43.5527 59.1664 42.9209Z" fill="url(#paint17_linear_477_1417)"/>
<path d="M40.9098 44.6643C41.883 43.8966 42.514 44.9842 41.5139 45.616C40.5137 46.2558 39.9096 45.4641 40.9098 44.6643Z" fill="url(#paint18_linear_477_1417)"/>
<path opacity="0.8" d="M53.0182 55.8363C52.9175 55.8363 52.8303 55.7404 52.8169 55.6204C52.8034 55.4925 52.884 55.3725 52.9914 55.3565C53.4008 55.2925 53.8036 55.2286 54.1861 55.1646C54.2935 55.1406 54.4009 55.2286 54.4144 55.3645C54.4278 55.4925 54.354 55.6204 54.2466 55.6364C53.8573 55.7084 53.4545 55.7724 53.0451 55.8283C53.0361 55.8337 53.0272 55.8363 53.0182 55.8363Z" fill="white"/>
<path opacity="0.8" d="M48.0245 55.9403C41.4937 55.9403 35.8288 55.2925 35.7616 55.2845C35.6542 55.2685 35.5737 55.1486 35.5804 55.0206C35.5938 54.8847 35.6878 54.7887 35.8019 54.8047C35.8825 54.8127 43.7758 55.7164 51.6691 55.3805C51.7765 55.3805 51.8705 55.4845 51.8772 55.6124C51.8772 55.7484 51.79 55.8603 51.6826 55.8683C50.4543 55.9163 49.226 55.9403 48.0245 55.9403Z" fill="white"/>
<path d="M86.8736 25.6302C86.8736 32.8096 81.0812 38.6327 73.9396 38.6327C66.798 38.6327 61.0055 32.8096 61.0055 25.6302C61.0055 18.4508 66.798 12.6277 73.9396 12.6277C81.0812 12.6277 86.8736 18.4508 86.8736 25.6302Z" fill="url(#paint19_linear_477_1417)"/>
<g opacity="0.8">
<path opacity="0.8" d="M84.3365 29.2806C84.0613 30.2455 83.672 31.1834 83.1351 32.0336C83.0679 32.1415 83.0008 32.2495 82.9337 32.3507L82.7189 32.6611C82.5645 32.8635 82.4169 33.0659 82.2491 33.2616C82.0947 33.4573 81.9202 33.6395 81.7457 33.8217C81.6584 33.9161 81.5712 33.9971 81.4772 34.0916L81.343 34.2198L81.202 34.348C79.7119 35.7042 77.8191 36.6151 75.819 36.9525C73.8188 37.2899 71.7313 37.0267 69.8587 36.2373L69.5097 36.0821L69.1673 35.9134C69.0532 35.8594 68.9458 35.7919 68.8317 35.7312C68.7243 35.6637 68.6102 35.6098 68.5029 35.5423C68.0666 35.2791 67.6571 34.9755 67.2544 34.6584C66.8651 34.3345 66.496 33.9836 66.1469 33.6057C65.8046 33.2279 65.4824 32.8298 65.1938 32.4114C64.0394 30.7245 63.3682 28.707 63.2943 26.6625C63.2205 24.6113 63.7306 22.5465 64.7643 20.7854C64.8851 20.5628 65.026 20.3468 65.167 20.1377L65.3885 19.8205C65.4623 19.7193 65.5429 19.6181 65.6234 19.5169C65.9389 19.1188 66.2812 18.7409 66.6503 18.39C67.3954 17.6951 68.2277 17.1013 69.1338 16.6424C69.5835 16.4063 70.0533 16.2106 70.5299 16.0487C71.0064 15.88 71.4964 15.7585 71.9931 15.6573C72.9865 15.4684 74 15.4414 75.0001 15.5358C75.1276 15.5493 75.2216 15.6573 75.2082 15.7855C75.1947 15.9137 75.0873 16.0082 74.9665 16.0014H74.9598C74.0067 15.9474 73.0402 16.0149 72.1072 16.2308C71.6441 16.332 71.1877 16.467 70.738 16.6357C70.295 16.8044 69.8587 17.0068 69.4425 17.2295C67.7645 18.1336 66.355 19.5101 65.4153 21.1633C65.1871 21.5816 64.9723 22.0067 64.8045 22.4453C64.63 22.8907 64.4824 23.3427 64.3682 23.8016C64.2609 24.2672 64.1669 24.7327 64.1266 25.2051L64.1065 25.3872L64.0931 25.5627C64.0863 25.6774 64.0796 25.7988 64.0729 25.9203C64.0729 26.1565 64.0662 26.3926 64.0796 26.6288C64.1468 28.5248 64.7643 30.4007 65.8315 31.9728C66.0999 32.3642 66.3953 32.7353 66.7107 33.0929C67.0262 33.4438 67.3685 33.7677 67.731 34.0781C68.1001 34.375 68.4827 34.6584 68.8854 34.908C68.9861 34.9755 69.0935 35.0295 69.1942 35.0902C69.2949 35.1442 69.3956 35.2049 69.5029 35.2589L69.8184 35.4208L70.1473 35.5625L70.3084 35.6367L70.4762 35.7042C70.5836 35.7447 70.6977 35.7852 70.8051 35.8257C71.0333 35.8999 71.2548 35.9876 71.483 36.0416C71.9394 36.1765 72.4093 36.2643 72.8791 36.3317C73.3489 36.3992 73.8255 36.4195 74.2953 36.4195C74.7719 36.4127 75.2484 36.379 75.7183 36.3115C77.5976 36.0281 79.4032 35.1982 80.853 33.9499L80.9939 33.8352L81.1282 33.707C81.2154 33.626 81.3027 33.545 81.3899 33.464C81.551 33.2886 81.7255 33.1199 81.8799 32.9377C82.041 32.7623 82.1887 32.5666 82.3363 32.3777L82.5511 32.0875C82.6249 31.9931 82.6854 31.8919 82.7525 31.7907C83.2827 30.9809 83.6922 30.097 83.9875 29.1794V29.1726C84.0211 29.0781 84.1217 29.0242 84.2157 29.0579C84.3097 29.0849 84.3634 29.1861 84.3365 29.2806Z" fill="white"/>
<g opacity="0.8">
<path opacity="0.8" d="M73.7517 16.9596L74.537 15.7248L74.2014 14.3079L77.101 16.1634L73.7517 16.9596Z" fill="white"/>
</g>
</g>
<g opacity="0.8">
<path opacity="0.8" d="M66.9926 29.8339V28.5721L68.1068 27.5937C70.1137 25.7988 70.9662 24.8947 70.993 23.9568C70.993 23.2483 70.597 22.6545 69.5835 22.6545C68.825 22.6545 68.1605 23.0728 67.6907 23.4642L67.0799 21.973C67.7511 21.3927 68.7915 20.9541 69.9929 20.9541C71.832 20.9541 72.9597 22.0674 72.9597 23.7543C72.9597 25.1646 71.9931 26.2914 70.7447 27.3913L69.9057 28.0795V28.1065H73.1342V29.8339H66.9926Z" fill="white"/>
<path opacity="0.8" fill-rule="evenodd" clip-rule="evenodd" d="M77.9735 29.834V27.7558H74.1342V26.386L77.3157 21.1162H79.8663V26.1836H80.8798V27.7558H79.8663V29.834H77.9735ZM77.9735 26.1836V24.2133C77.9735 23.66 78.0004 23.1135 78.0205 22.5197H77.9735C77.6849 23.1135 77.45 23.66 77.1681 24.2268L76.0203 26.1566L76.0069 26.1836H77.9735Z" fill="white"/>
</g>
<path d="M41.4669 87.2651H62.3547C63.8515 87.2651 64.9992 88.8486 64.7777 90.6159L64.4086 93.5269C64.2273 94.9504 63.1937 96.006 61.9855 96.006H41.4669C40.1111 96.006 39.017 94.7025 39.017 93.0871V90.1841C39.017 88.5687 40.1111 87.2651 41.4669 87.2651Z" fill="url(#paint20_linear_477_1417)"/>
<path fill-rule="evenodd" clip-rule="evenodd" d="M44.3396 94.1828C43.0173 94.1828 42.1917 93.1032 42.1917 91.6877C42.1917 90.1762 43.0912 89.0886 44.4067 89.0886C45.7692 89.0886 46.5948 90.1602 46.5948 91.5997C46.5948 93.1272 45.6887 94.1828 44.3463 94.1828H44.3396ZM44.3933 93.2711C45.1182 93.2711 45.5612 92.5754 45.5612 91.6317C45.5612 90.744 45.1249 89.9923 44.3933 89.9923C43.655 89.9923 43.2187 90.728 43.2187 91.6477C43.2187 92.5594 43.6751 93.2711 44.3866 93.2711H44.3933Z" fill="white"/>
<path fill-rule="evenodd" clip-rule="evenodd" d="M47.2459 89.2404C47.5681 89.1845 48.0513 89.1365 48.6151 89.1365C49.2796 89.1365 49.7226 89.2564 50.0247 89.5283C50.273 89.7443 50.4207 90.1041 50.4207 90.56C50.4207 91.2157 49.9978 91.6396 49.6622 91.7675V91.7915C49.9508 91.9355 50.1186 92.2634 50.2327 92.6872C50.3737 93.247 50.5012 93.8948 50.5885 94.0947H49.5884C49.5213 93.9428 49.4206 93.5909 49.2863 92.9511C49.1588 92.3433 48.9642 92.1834 48.548 92.1754H48.2124V94.0947H47.2459V89.2404ZM48.2124 91.3437H48.6554C49.1588 91.3437 49.4541 91.0798 49.4541 90.6479C49.4541 90.1921 49.1588 89.9842 48.7091 89.9842C48.4339 89.9842 48.2863 90.0002 48.2124 90.0162V91.3437Z" fill="white"/>
<path fill-rule="evenodd" clip-rule="evenodd" d="M51.1254 89.2404C51.5215 89.1685 52.0114 89.1365 52.5283 89.1365C53.4008 89.1365 53.9646 89.3204 54.4076 89.6883C54.8573 90.0641 55.1527 90.6479 55.1527 91.4956C55.1527 92.4233 54.8439 93.0551 54.4345 93.455C53.9512 93.9348 53.1995 94.1507 52.3135 94.1507C51.7564 94.1507 51.3805 94.1107 51.1254 94.0707V89.2404ZM52.0987 93.223C52.1927 93.247 52.3537 93.247 52.488 93.247C53.4881 93.263 54.119 92.6632 54.119 91.5516C54.119 90.52 53.5283 90.0082 52.6155 90.0082C52.3537 90.0082 52.1927 90.0402 52.0987 90.0641V93.223Z" fill="white"/>
<path d="M58.4885 92.0395H56.777V93.1511H58.6899V94.0948H55.8104V89.1765H58.5892V90.1202H56.777V91.1038H58.4885V92.0395Z" fill="white"/>
<path fill-rule="evenodd" clip-rule="evenodd" d="M59.3544 89.2404C59.6766 89.1845 60.1598 89.1365 60.7169 89.1365C61.3882 89.1365 61.8244 89.2564 62.1332 89.5283C62.3748 89.7443 62.5292 90.1041 62.5292 90.56C62.5292 91.2157 62.0996 91.6396 61.7707 91.7675V91.7915C62.0594 91.9355 62.2272 92.2634 62.3413 92.6872C62.4822 93.247 62.6098 93.8948 62.697 94.0947H61.6969C61.6298 93.9428 61.5291 93.5909 61.3949 92.9511C61.2673 92.3433 61.0727 92.1834 60.6498 92.1754H60.3209V94.0947H59.3544V89.2404ZM60.3209 91.3437H60.7639C61.2673 91.3437 61.5627 91.0798 61.5627 90.6479C61.5627 90.1921 61.2673 89.9842 60.8176 89.9842C60.5424 89.9842 60.3948 90.0002 60.3209 90.0162V91.3437Z" fill="white"/>
<path d="M127.428 63.3934C126.841 68.5595 124.993 71.4198 121.884 71.9743C120.414 72.2302 116.608 71.8064 114.292 70.2469L116.245 64.537C117.879 66.6003 119.617 67.5652 121.461 67.432C123.011 67.32 124.656 66.1684 126.032 62.8496L127.428 63.3934Z" fill="url(#paint21_linear_477_1417)"/>
<path d="M88.5382 106.474C89.1759 108.058 89.7263 108.993 90.1625 109.537C90.0619 109.665 89.894 109.681 89.7799 109.537C88.0416 107.426 87.3301 103.851 87.1086 102.5C87.0549 102.156 87.1757 101.804 87.4039 101.636C87.3771 102.532 87.5583 104.035 88.5382 106.474Z" fill="url(#paint22_linear_477_1417)"/>
<path d="M90.2363 109.385C90.2229 109.449 90.196 109.497 90.1625 109.537C89.7262 108.993 89.1758 108.058 88.5381 106.474C87.5582 104.035 87.3769 102.532 87.4038 101.636C87.4083 101.636 87.4105 101.636 87.4105 101.636C88.1578 101.119 88.9051 101.103 89.6524 101.588C91.2566 104.283 90.5652 108.034 90.2363 109.385Z" fill="url(#paint23_linear_477_1417)"/>
<path d="M91.27 101.676L90.2565 102.836C90.0753 103.044 89.8001 103.076 89.592 102.908C89.4108 102.764 89.2094 102.532 89.0752 102.148C88.9947 101.924 89.0349 101.66 89.1692 101.476L90.1894 100.149C90.431 99.8287 90.8606 99.8847 91.0418 100.253L91.3573 100.892C91.4848 101.14 91.4512 101.468 91.27 101.676Z" fill="url(#paint24_linear_477_1417)"/>
<path d="M127.072 92.2792C127.918 90.8397 128.327 89.8081 128.508 89.0803C128.649 89.1283 128.743 89.2962 128.696 89.4802C128.012 92.3272 125.763 94.8303 124.884 95.726C124.662 95.9579 124.347 96.0059 124.112 95.8459C124.77 95.4381 125.777 94.5024 127.072 92.2792Z" fill="url(#paint25_linear_477_1417)"/>
<path d="M128.361 89.0805C128.414 89.0725 128.461 89.0725 128.508 89.0805C128.327 89.8082 127.918 90.8398 127.072 92.2793C125.776 94.5025 124.77 95.4381 124.112 95.846C124.107 95.846 124.103 95.846 124.098 95.846C123.356 95.3288 122.977 94.5611 122.964 93.5428C124.132 90.5519 127.213 89.4163 128.361 89.0805Z" fill="url(#paint26_linear_477_1417)"/>
<path d="M122.884 91.0318L123.944 92.1274C124.132 92.3274 124.186 92.6473 124.065 92.9112C123.964 93.1351 123.783 93.399 123.481 93.5909C123.293 93.7109 123.072 93.6869 122.904 93.535L121.702 92.4473C121.414 92.1914 121.42 91.6796 121.716 91.4237L122.219 90.9919C122.42 90.8159 122.696 90.8319 122.884 91.0318Z" fill="url(#paint27_linear_477_1417)"/>
<path d="M107.251 80.4198L107.587 84.9782L100.492 94.8067L91.6124 102.14C90.9546 101.953 90.355 101.244 89.8135 100.013C91.8943 96.2862 93.4179 94.0869 94.3844 93.4152C95.3465 92.7434 96.6083 92.2663 98.17 91.9837C99.0649 89.5152 100.202 85.4793 101.58 79.876L107.251 80.4198Z" fill="url(#paint28_linear_477_1417)"/>
<path d="M106.835 80.7472C107.614 80.9071 112.762 80.2434 115.514 79.7316C116.755 79.4996 117.386 79.8275 118.064 81.0911L122.964 90.7037C122.807 91.4234 122.376 92.1032 121.669 92.7429C117.01 89.6507 114.867 86.8197 115.239 84.2499C114.702 85.0763 112.303 85.8307 108.043 86.5132C103.788 87.1902 101.474 85.5162 101.103 81.4909L101.707 79.1877L106.835 80.7472Z" fill="url(#paint29_linear_477_1417)"/>
<path d="M105.171 66.8244L106.869 66.3845L105.171 66.8244Z" fill="url(#paint30_linear_477_1417)"/>
<path d="M125.844 63.8894C125.526 62.8551 125.526 62.2792 125.844 62.1619C126.161 62.0447 128.307 62.0447 132.28 62.1619C131.063 63.3082 130.244 63.884 129.824 63.8894C129.403 63.8894 128.786 63.7987 127.971 63.6175L125.844 63.8894Z" fill="url(#paint31_linear_477_1417)"/>
<path d="M135.234 47.5272L134.395 47.3273L134.67 45.6958C134.764 45.128 134.475 44.5602 134.012 44.4003C132.287 43.8085 130.535 44.1204 129.374 44.4883C128.897 44.6402 128.602 45.184 128.689 45.7598L128.918 47.3433L128.079 47.5112L127.85 45.9358C127.689 44.8321 128.253 43.7925 129.153 43.5046C130.421 43.1048 132.334 42.7689 134.247 43.4246C135.133 43.7285 135.69 44.8162 135.509 45.8958L135.234 47.5272Z" fill="url(#paint32_linear_477_1417)"/>
<path d="M131.482 46.4477C139.371 46.4104 143.188 51.398 142.932 61.4105C127.911 61.3358 120.306 61.3358 120.118 61.4105C119.805 51.4726 123.593 46.485 131.482 46.4477Z" fill="url(#paint33_linear_477_1417)"/>
<path d="M119.93 60.7385H143.335C143.805 60.7385 144.033 61.4183 143.691 61.7942L143.08 62.4819C142.986 62.5939 142.859 62.6499 142.731 62.6499H120.373C120.212 62.6499 120.058 62.5619 119.964 62.4099L119.521 61.7222C119.259 61.3223 119.501 60.7385 119.93 60.7385Z" fill="url(#paint34_linear_477_1417)"/>
<path opacity="0.7" d="M121.964 58.2114C121.96 58.2114 121.955 58.2114 121.951 58.2114C121.877 58.2034 121.823 58.1234 121.83 58.0354C121.83 58.0114 122.045 55.5483 123.199 53.0772C124.266 50.79 126.394 48.0149 130.421 47.807C130.495 47.799 130.562 47.871 130.562 47.959C130.569 48.0469 130.508 48.1269 130.435 48.1269C127.3 48.2868 124.944 49.9982 123.434 53.2291C122.306 55.6443 122.098 58.0434 122.098 58.0674C122.092 58.1554 122.031 58.2114 121.964 58.2114Z" fill="white"/>
<path d="M116.245 64.5613L116.004 66.4486C115.836 67.8002 115.4 69.0877 114.742 70.2073L108.627 80.6436C105.869 82.4989 102.432 81.3473 101.264 80.8595C101.043 80.7715 100.935 80.4676 101.029 80.2117C102.533 76.0852 103.768 71.6468 104.815 66.9844C103.607 67.3443 102.748 67.9041 102.15 68.5679C99.895 71.095 101.345 75.1975 101.741 76.1892C101.56 76.3971 101.271 76.605 100.815 76.757C97.0021 71.4868 97.8076 67.7202 99.9957 65.321C101.895 63.2338 104.835 62.1782 106.701 62.0662C109.404 61.9009 112.585 62.7326 116.245 64.5613Z" fill="url(#paint35_linear_477_1417)"/>
<path d="M101.687 79.8279C101.318 79.612 100.633 78.1005 100.841 76.797C100.832 76.781 100.823 76.7677 100.815 76.757C101.271 76.6051 101.56 76.3971 101.741 76.1892C101.745 76.1999 101.75 76.2105 101.754 76.2212C102.19 76.5011 103.097 77.1569 103.365 77.8526C103.714 78.7883 101.862 79.9239 101.687 79.8279Z" fill="url(#paint36_linear_477_1417)"/>
<path d="M108.09 54.3489C108.005 54.4395 107.916 54.5195 107.822 54.5888C105.097 56.5721 105.426 53.7971 105.62 52.7894C105.667 52.5735 105.667 52.3496 105.647 52.1337C105.52 50.9341 106.184 50.5102 106.835 50.3743C107.379 50.2623 107.829 49.8225 108.043 49.2147C108.238 48.6549 108.721 48.0391 109.869 47.7032C111.507 47.2154 111.896 48.279 111.977 49.0148C112.01 49.3506 112.138 49.6625 112.319 49.9184C112.95 50.8381 109.876 52.3256 109.755 52.4535L108.09 54.3489Z" fill="url(#paint37_linear_477_1417)"/>
<path d="M107.084 52.6933C107.943 51.3897 109.017 50.542 110.292 50.1422C110.782 49.9822 111.299 50.2941 111.493 50.8539L112.943 54.9804L109.869 57.8434L107.131 54.2767C106.788 53.8369 106.768 53.1651 107.084 52.6933Z" fill="url(#paint38_linear_477_1417)"/>
<path d="M112.943 60.6104L112.527 64.0012C112.5 64.2171 112.373 64.4011 112.198 64.465C110.607 65.0648 109.694 64.2251 109.305 63.7133C109.164 63.5214 109.137 63.2495 109.231 63.0255L110.829 59.2988L112.943 60.6104Z" fill="url(#paint39_linear_477_1417)"/>
<path d="M113.494 54.9724C114.12 56.6785 114.453 57.982 114.494 58.883C114.554 60.2266 114.802 61.0983 113.494 61.3702C112.185 61.6421 111.084 60.8664 110.493 59.5228C109.867 58.1473 109.625 57.177 109.768 56.6118C109.907 56.0467 111.149 55.5002 113.494 54.9724Z" fill="url(#paint40_linear_477_1417)"/>
<path d="M110.601 58.5632C110.547 58.5632 110.5 58.6271 110.513 58.6911L110.728 59.8587C110.742 59.9147 110.708 59.9707 110.661 59.9866C110.453 60.0266 109.929 60.0586 109.231 59.6108C108.547 59.1789 108.809 58.8511 108.99 58.7151C109.037 58.6831 109.037 58.5951 108.99 58.5472C108.023 57.6035 107.842 56.4519 108.285 56.0121C108.54 55.7562 108.728 55.7961 108.849 55.8841C108.909 55.9241 108.983 55.8761 108.983 55.7961C109.01 54.4686 110.077 53.6929 111.688 53.333C112.822 53.0851 113.245 52.5973 113.406 52.3014C113.447 52.2214 113.54 52.2374 113.561 52.3254C113.587 52.4213 113.688 52.4293 113.728 52.3494L113.782 52.2214C113.802 52.1734 113.856 52.1574 113.896 52.1814C114.554 52.5333 114.99 53.7729 114.5 54.7405C113.983 55.7402 111.614 56.316 111.017 56.6039C110.554 56.8358 110.916 57.8034 111.097 58.2273C111.144 58.3392 111.104 58.4752 111.01 58.5232L110.936 58.5632H110.601Z" fill="url(#paint41_linear_477_1417)"/>
<path d="M110.822 59.5228C110.325 59.4669 109.386 58.0913 110.003 57.6275C110.415 57.3236 110.739 57.7181 110.976 58.8111L110.822 59.5228Z" fill="url(#paint42_linear_477_1417)"/>
<path d="M39.6479 100.381L38.876 99.6448C38.7753 99.5488 38.6478 99.5488 38.5874 99.6368L35.1978 104.691C35.1374 104.779 35.0032 104.771 34.9092 104.683L32.4123 102.3C32.3116 102.212 32.2848 102.06 32.3452 101.972L35.7348 96.9178C35.7952 96.8298 35.7616 96.6778 35.6677 96.5819L34.8958 95.8461C34.7615 95.7262 34.7615 95.5182 34.8824 95.4623L40.4131 93.0311C40.5675 92.9591 40.7621 93.1511 40.742 93.335L39.9634 100.301C39.9432 100.461 39.7754 100.501 39.6479 100.381Z" fill="url(#paint43_linear_477_1417)"/>
<path d="M71.5971 85.2898C71.539 85.2898 71.4808 85.2898 71.4226 85.2898C71.3488 85.2819 71.2884 85.2099 71.2884 85.1219C71.2951 85.0339 71.3555 84.97 71.4293 84.962C71.4875 84.9673 71.5479 84.97 71.6106 84.97C71.6822 84.97 71.7537 84.9673 71.8253 84.962C71.8992 84.954 71.9596 85.0339 71.9663 85.1219C71.9663 85.2099 71.9059 85.2819 71.8321 85.2819C71.7515 85.2872 71.6732 85.2898 71.5971 85.2898ZM70.4897 85.2019C70.4807 85.2019 70.474 85.2019 70.4695 85.2019C70.3353 85.1806 70.201 85.1566 70.0668 85.1299C69.993 85.1139 69.9393 85.0259 69.9527 84.946C69.9661 84.858 70.0399 84.794 70.1138 84.81C70.2435 84.8367 70.3733 84.8607 70.5031 84.882C70.5769 84.898 70.6306 84.978 70.6172 85.0659C70.6105 85.1459 70.5568 85.2019 70.4897 85.2019ZM72.765 85.2019C72.6979 85.2019 72.6442 85.1459 72.6375 85.0579C72.6241 84.97 72.6778 84.89 72.7516 84.882C72.8814 84.8607 73.0134 84.8393 73.1476 84.818C73.2214 84.802 73.2886 84.858 73.302 84.946C73.3087 85.0339 73.2617 85.1139 73.1879 85.1299C73.0536 85.1566 72.9194 85.1806 72.7852 85.2019C72.7807 85.2019 72.774 85.2019 72.765 85.2019ZM74.0873 84.898C74.0269 84.898 73.9732 84.85 73.9598 84.778C73.9396 84.6901 73.9799 84.6021 74.0537 84.5861C74.1835 84.5434 74.311 84.5008 74.4363 84.4581C74.5102 84.4262 74.584 84.4741 74.6041 84.5621C74.6243 84.6501 74.584 84.738 74.5169 84.762C74.3826 84.81 74.2506 84.8527 74.1209 84.89C74.1119 84.8953 74.1007 84.898 74.0873 84.898ZM69.1741 84.874C69.1607 84.874 69.1473 84.8713 69.1338 84.866C68.9996 84.818 68.8698 84.7674 68.7445 84.7141C68.6707 84.6901 68.6371 84.5941 68.6573 84.5141C68.6841 84.4262 68.758 84.3862 68.8318 84.4182C68.9571 84.4661 69.0824 84.5141 69.2077 84.5621C69.2815 84.5861 69.3218 84.6741 69.3016 84.762C69.2815 84.826 69.2278 84.874 69.1741 84.874ZM75.3626 84.4022C75.3089 84.4022 75.2619 84.3622 75.2418 84.2982C75.2149 84.2182 75.2485 84.1223 75.3156 84.0903C75.4409 84.037 75.5639 83.9783 75.6848 83.9143C75.7519 83.8744 75.8324 83.9143 75.8593 83.9943C75.8928 84.0743 75.8593 84.1702 75.7921 84.2102C75.6669 84.2742 75.5416 84.3355 75.4163 84.3942C75.3984 84.3995 75.3805 84.4022 75.3626 84.4022ZM76.5909 83.7384C76.5372 83.7384 76.4902 83.7064 76.4701 83.6504C76.4365 83.5785 76.4633 83.4745 76.5238 83.4345C76.6446 83.3652 76.7632 83.2906 76.8795 83.2106C76.9399 83.1706 77.0272 83.1946 77.0607 83.2746C77.0943 83.3465 77.0741 83.4505 77.007 83.4905C76.8907 83.5705 76.7721 83.6478 76.6513 83.7224C76.6289 83.7331 76.6088 83.7384 76.5909 83.7384ZM77.7521 82.9307C77.7051 82.9307 77.6648 82.9067 77.6379 82.8587C77.5977 82.7867 77.6111 82.6828 77.6782 82.6348C77.7901 82.5495 77.8997 82.4615 78.0071 82.3709C78.0675 82.3229 78.1548 82.3389 78.1951 82.4109C78.2353 82.4828 78.2219 82.5868 78.1615 82.6348C78.0496 82.7254 77.9378 82.8161 77.8259 82.9067C77.799 82.9227 77.7744 82.9307 77.7521 82.9307ZM78.8394 81.995C78.7991 81.995 78.7656 81.971 78.7387 81.931C78.6917 81.8671 78.6985 81.7631 78.7589 81.7071C78.8618 81.6112 78.9647 81.5125 79.0676 81.4112C79.128 81.3472 79.2086 81.3632 79.2556 81.4272C79.3025 81.4992 79.2958 81.5952 79.2421 81.6511C79.1392 81.7578 79.0341 81.8617 78.9267 81.963C78.8998 81.987 78.873 81.995 78.8394 81.995ZM79.8596 80.9474C79.8261 80.9474 79.7858 80.9314 79.759 80.8914C79.712 80.8274 79.712 80.7315 79.7657 80.6675C79.8641 80.5609 79.9603 80.4516 80.0543 80.3396C80.108 80.2756 80.1952 80.2756 80.2422 80.3396C80.2959 80.3956 80.2959 80.4995 80.2422 80.5635C80.1482 80.6755 80.052 80.7874 79.9536 80.8994C79.9267 80.9314 79.8932 80.9474 79.8596 80.9474ZM80.7993 79.7958C80.7658 79.7958 80.7322 79.7798 80.7053 79.7558C80.6517 79.6918 80.6449 79.5959 80.6986 79.5239C80.7837 79.4066 80.8709 79.2866 80.9604 79.164C81.0074 79.1 81.0879 79.092 81.1483 79.148C81.202 79.204 81.2087 79.308 81.1618 79.3719C81.0767 79.4946 80.9895 79.6172 80.9 79.7398C80.8731 79.7798 80.8329 79.7958 80.7993 79.7958ZM81.645 78.5482C81.6182 78.5482 81.5913 78.5376 81.5645 78.5162C81.5041 78.4683 81.4907 78.3643 81.5376 78.2923C81.6182 78.1644 81.6965 78.0364 81.7726 77.9085C81.8128 77.8365 81.9001 77.8125 81.9605 77.8685C82.0209 77.9165 82.0343 78.0204 81.9941 78.0924C81.9135 78.2257 81.833 78.3563 81.7524 78.4843C81.7256 78.5242 81.6853 78.5482 81.645 78.5482ZM82.3968 77.2207C82.3744 77.2207 82.352 77.2127 82.3297 77.1967C82.2692 77.1487 82.2491 77.0528 82.2827 76.9728C82.3543 76.8395 82.4259 76.7036 82.4975 76.5649C82.531 76.493 82.6183 76.461 82.6787 76.509C82.7458 76.5569 82.7659 76.6529 82.7257 76.7329C82.6585 76.8715 82.5892 77.0074 82.5176 77.1407C82.4907 77.1887 82.4438 77.2207 82.3968 77.2207ZM83.0747 75.8292C83.0523 75.8292 83.0299 75.8239 83.0076 75.8132C82.9472 75.7732 82.9203 75.6693 82.9539 75.5973C83.0165 75.4533 83.0792 75.312 83.1418 75.1734C83.1754 75.0935 83.2559 75.0615 83.323 75.1015C83.3902 75.1414 83.417 75.2374 83.3834 75.3174C83.3208 75.4613 83.2581 75.6053 83.1955 75.7492C83.1687 75.7972 83.1217 75.8292 83.0747 75.8292ZM83.6788 74.3977C83.6564 74.3977 83.6363 74.3924 83.6184 74.3817C83.5512 74.3417 83.5244 74.2458 83.5512 74.1658C83.6094 74.0218 83.6653 73.8779 83.719 73.7339C83.7526 73.654 83.8331 73.614 83.9003 73.654C83.9674 73.686 83.9942 73.7819 83.9674 73.8619C83.9137 74.0112 83.8578 74.1578 83.7996 74.3017C83.7727 74.3657 83.7257 74.3977 83.6788 74.3977ZM84.2157 72.9262C84.1978 72.9262 84.1799 72.9236 84.162 72.9182C84.0949 72.8862 84.0614 72.7903 84.0882 72.7103C84.1419 72.561 84.1934 72.4117 84.2426 72.2625C84.2694 72.1825 84.3433 72.1425 84.4171 72.1745C84.4842 72.2065 84.5178 72.2944 84.4909 72.3824C84.4417 72.5317 84.3902 72.681 84.3365 72.8303C84.3164 72.8942 84.2694 72.9262 84.2157 72.9262ZM84.699 71.4308C84.6811 71.4308 84.6654 71.4281 84.652 71.4228C84.5849 71.3908 84.5446 71.3028 84.5715 71.2148C84.6162 71.0656 84.661 70.9163 84.7057 70.767C84.7326 70.679 84.8064 70.639 84.8802 70.671C84.9473 70.695 84.9876 70.791 84.9608 70.871C84.916 71.0256 84.8713 71.1775 84.8265 71.3268C84.8064 71.3908 84.7527 71.4308 84.699 71.4308ZM85.1353 69.9193C85.1219 69.9193 85.1084 69.9166 85.095 69.9113C85.0212 69.8793 84.9876 69.7913 85.0077 69.7034C85.048 69.5541 85.0883 69.4021 85.1286 69.2475C85.1554 69.1676 85.2292 69.1196 85.2964 69.1436C85.3702 69.1756 85.4105 69.2635 85.3903 69.3435C85.3456 69.4981 85.3031 69.6527 85.2628 69.8073C85.2427 69.8713 85.189 69.9193 85.1353 69.9193ZM85.538 68.3838C85.5246 68.3838 85.5112 68.3812 85.4977 68.3758C85.4239 68.3518 85.3836 68.2639 85.4038 68.1759C85.444 68.0266 85.4821 67.8747 85.5179 67.7201C85.5447 67.6321 85.6185 67.5841 85.6857 67.6081C85.7595 67.6321 85.7998 67.7201 85.7796 67.808C85.7394 67.9627 85.7013 68.1173 85.6655 68.2719C85.6454 68.3438 85.5917 68.3838 85.538 68.3838ZM85.9072 66.8484C85.8982 66.8484 85.887 66.8457 85.8736 66.8404C85.7998 66.8164 85.7595 66.7284 85.7796 66.6404L85.887 66.1766C85.9072 66.0886 85.981 66.0407 86.0548 66.0647C86.1219 66.0886 86.1689 66.1766 86.1488 66.2646L86.0414 66.7284C86.0213 66.8004 85.9676 66.8484 85.9072 66.8484ZM86.2629 65.2969C86.2539 65.2969 86.2428 65.2943 86.2293 65.2889C86.1555 65.2729 86.1152 65.185 86.1354 65.097L86.236 64.6332C86.2562 64.5452 86.33 64.4972 86.4039 64.5212C86.4777 64.5372 86.5179 64.6252 86.4978 64.7131L86.3904 65.177C86.377 65.2489 86.3233 65.2969 86.2629 65.2969ZM86.6119 63.7455C86.5985 63.7455 86.5873 63.7455 86.5784 63.7455C86.5045 63.7215 86.4575 63.6335 86.4777 63.5455L86.5851 63.0817C86.6052 62.9937 86.679 62.9458 86.7462 62.9698C86.82 62.9937 86.8603 63.0737 86.8468 63.1617L86.7395 63.6255C86.726 63.6975 86.6723 63.7455 86.6119 63.7455ZM86.9542 62.194C86.9453 62.194 86.9341 62.194 86.9207 62.194C86.8536 62.17 86.8066 62.0821 86.8267 61.9941L86.9341 61.5303C86.9542 61.4423 87.0281 61.3943 87.0952 61.4183C87.169 61.4423 87.2093 61.5303 87.1959 61.6182L87.0885 62.0821C87.0683 62.154 87.0146 62.194 86.9542 62.194ZM87.3167 60.6506C87.3033 60.6506 87.2898 60.6479 87.2764 60.6426C87.2093 60.6186 87.1623 60.5306 87.1824 60.4506L87.2965 59.9868C87.3167 59.8988 87.3905 59.8509 87.4643 59.8748C87.5315 59.8988 87.5717 59.9868 87.5516 60.0748L87.4442 60.5306C87.4241 60.6026 87.3704 60.6506 87.3167 60.6506ZM87.6926 59.1151C87.6791 59.1151 87.6657 59.1124 87.6523 59.1071C87.5785 59.0751 87.5382 58.9872 87.5583 58.9072C87.5986 58.7526 87.6389 58.598 87.6791 58.4434C87.6993 58.3554 87.7731 58.3074 87.8469 58.3394C87.9208 58.3634 87.961 58.4514 87.9342 58.5393C87.8939 58.6886 87.8559 58.8405 87.8201 58.9952C87.7999 59.0671 87.7463 59.1151 87.6926 59.1151ZM88.0886 57.5797C88.0751 57.5797 88.0617 57.577 88.0483 57.5717C87.9745 57.5477 87.9342 57.4517 87.961 57.3717C88.0013 57.2171 88.0416 57.0625 88.0819 56.9079C88.1087 56.8279 88.1825 56.7799 88.2564 56.8119C88.3235 56.8359 88.3638 56.9239 88.3369 57.0119C88.2966 57.1611 88.2564 57.3131 88.2161 57.4677C88.196 57.5397 88.1423 57.5797 88.0886 57.5797ZM88.5114 56.0522C88.4935 56.0522 88.4779 56.0495 88.4644 56.0442C88.3973 56.0202 88.357 55.9242 88.3839 55.8443C88.4242 55.6897 88.4667 55.5377 88.5114 55.3884C88.5383 55.3005 88.6121 55.2605 88.6792 55.2925C88.753 55.3165 88.7933 55.4124 88.7665 55.4924C88.7217 55.6417 88.6792 55.7936 88.6389 55.9482C88.6188 56.0122 88.5651 56.0522 88.5114 56.0522ZM88.9477 54.5407C88.9343 54.5407 88.9209 54.5381 88.9074 54.5327C88.8336 54.5008 88.8 54.4128 88.8269 54.3248C88.8716 54.1755 88.9164 54.0263 88.9611 53.877C88.988 53.789 89.0618 53.749 89.1356 53.781C89.2028 53.805 89.2363 53.901 89.2162 53.9809C89.167 54.1302 89.12 54.2822 89.0752 54.4368C89.0551 54.5008 89.0081 54.5407 88.9477 54.5407ZM89.4108 53.0373C89.3974 53.0373 89.3817 53.0346 89.3638 53.0293C89.2967 52.9973 89.2632 52.9013 89.29 52.8213C89.3348 52.6667 89.3817 52.5148 89.431 52.3655C89.4578 52.2855 89.5384 52.2455 89.6055 52.2775C89.6726 52.3095 89.7129 52.3975 89.686 52.4855C89.6368 52.6347 89.5876 52.784 89.5384 52.9333C89.5182 52.9973 89.4712 53.0373 89.4108 53.0373ZM89.9008 51.5418C89.8829 51.5418 89.865 51.5365 89.8471 51.5258C89.78 51.4938 89.7464 51.4058 89.7733 51.3179C89.8225 51.1686 89.874 51.0193 89.9277 50.87C89.9545 50.7901 90.0283 50.7501 90.1022 50.7821C90.1693 50.8141 90.2028 50.91 90.176 50.99C90.1268 51.1393 90.0753 51.2886 90.0216 51.4378C90.0015 51.5018 89.9545 51.5418 89.9008 51.5418ZM90.4042 50.0543C90.3863 50.0543 90.3706 50.049 90.3572 50.0383C90.2834 50.0063 90.2565 49.9104 90.2834 49.8304C90.3326 49.6811 90.3841 49.5345 90.4378 49.3906C90.4646 49.3026 90.5452 49.2706 90.6123 49.3026C90.6861 49.3346 90.713 49.4305 90.6861 49.5105C90.6324 49.6598 90.581 49.8091 90.5317 49.9584C90.5116 50.0143 90.4579 50.0543 90.4042 50.0543ZM90.9345 48.5749C90.9166 48.5802 90.8987 48.5775 90.8808 48.5669C90.8136 48.5269 90.7801 48.4389 90.8136 48.3509C90.8673 48.207 90.921 48.0604 90.9747 47.9111C91.0016 47.8311 91.0821 47.7991 91.1492 47.8311C91.2164 47.8711 91.2499 47.9591 91.2231 48.039C91.1649 48.1883 91.109 48.3349 91.0553 48.4789C91.0351 48.5429 90.9882 48.5749 90.9345 48.5749ZM91.4848 47.1114C91.4669 47.1114 91.4468 47.1087 91.4244 47.1034C91.3573 47.0634 91.3305 46.9674 91.364 46.8874C91.4177 46.7435 91.4737 46.5969 91.5318 46.4476C91.5587 46.3676 91.6392 46.3356 91.7063 46.3676C91.7735 46.4076 91.807 46.5036 91.7735 46.5836C91.7153 46.7275 91.6594 46.8741 91.6057 47.0234C91.5855 47.0794 91.5318 47.1114 91.4848 47.1114ZM92.0554 45.6639C92.033 45.6639 92.0129 45.6585 91.995 45.6479C91.9278 45.6079 91.901 45.5119 91.9345 45.432C91.9927 45.288 92.0509 45.1441 92.1091 45.0001C92.1426 44.9201 92.2232 44.8882 92.2903 44.9281C92.3574 44.9681 92.3843 45.0641 92.3507 45.1441C92.2925 45.288 92.2344 45.432 92.1762 45.5759C92.1493 45.6319 92.1024 45.6639 92.0554 45.6639ZM92.6594 44.2324C92.6371 44.2324 92.6169 44.2244 92.599 44.2084C92.5319 44.1684 92.5051 44.0724 92.5386 43.9925C92.6057 43.8539 92.6706 43.7126 92.7333 43.5686C92.7668 43.4886 92.8541 43.4647 92.9145 43.5046C92.9816 43.5446 93.0085 43.6486 92.9682 43.7206C92.9056 43.8645 92.8429 44.0058 92.7803 44.1444C92.7534 44.2004 92.7064 44.2324 92.6594 44.2324ZM93.3172 42.8329C93.2949 42.8329 93.2725 42.8249 93.2501 42.8089C93.1897 42.7609 93.1696 42.6649 93.2031 42.593C93.2747 42.4543 93.3463 42.3157 93.4179 42.1771C93.4582 42.1051 93.5387 42.0811 93.6058 42.1291C93.6662 42.1691 93.6864 42.2731 93.6461 42.3451C93.5745 42.4837 93.5052 42.6196 93.438 42.7529C93.4112 42.8089 93.3642 42.8329 93.3172 42.8329ZM94.0488 41.4894C94.022 41.4894 93.9974 41.4787 93.975 41.4574C93.9146 41.4094 93.9012 41.3054 93.9414 41.2334C94.0175 41.1002 94.0958 40.9695 94.1764 40.8416C94.2233 40.7696 94.3039 40.7536 94.3643 40.8016C94.4247 40.8576 94.4381 40.9615 94.3979 41.0335C94.3173 41.1561 94.239 41.2841 94.1629 41.4174C94.1361 41.4654 94.0958 41.4894 94.0488 41.4894ZM94.8677 40.2098C94.8409 40.2098 94.8073 40.2018 94.7804 40.1778C94.7267 40.1218 94.72 40.0179 94.767 39.9459C94.8565 39.8233 94.946 39.7033 95.0355 39.586C95.0825 39.5141 95.1697 39.5141 95.2234 39.57C95.2838 39.626 95.2838 39.73 95.2369 39.794C95.1474 39.9166 95.0601 40.0365 94.9751 40.1538C94.9482 40.1938 94.908 40.2098 94.8677 40.2098ZM95.794 39.0502C95.7537 39.0502 95.7201 39.0262 95.6933 38.9942C95.6463 38.9303 95.6463 38.8343 95.7 38.7703C95.7984 38.6584 95.8991 38.5491 96.002 38.4424C96.0557 38.3865 96.143 38.3865 96.19 38.4584C96.2437 38.5224 96.237 38.6264 96.1765 38.6824C96.0781 38.789 95.9819 38.8956 95.8879 39.0022C95.8611 39.0342 95.8275 39.0502 95.794 39.0502ZM96.8276 38.0186C96.7806 38.0186 96.7404 37.9946 96.7135 37.9546C96.6732 37.8826 96.6867 37.7867 96.7471 37.7307C96.841 37.6454 96.9372 37.5654 97.0357 37.4908L97.0827 37.4508C97.1431 37.4028 97.2303 37.4268 97.2706 37.4988C97.3109 37.5707 97.2907 37.6747 97.2303 37.7227L97.1901 37.7547C97.0916 37.8293 96.9954 37.9093 96.9014 37.9946C96.8791 38.0106 96.8545 38.0186 96.8276 38.0186ZM97.9619 37.1709C97.915 37.1709 97.868 37.1389 97.8478 37.0829C97.8143 37.0109 97.8344 36.915 97.9015 36.867C98.0223 36.7924 98.1432 36.7177 98.264 36.6431C98.3311 36.6111 98.4116 36.6431 98.4452 36.723C98.4788 36.803 98.4519 36.899 98.3848 36.931C98.264 37.0056 98.1454 37.0802 98.0291 37.1549C98.0067 37.1656 97.9843 37.1709 97.9619 37.1709ZM99.1835 36.4991C99.1298 36.4991 99.0828 36.4591 99.0627 36.3952C99.0292 36.3152 99.0627 36.2192 99.1365 36.1872C99.2618 36.1286 99.3871 36.0699 99.5124 36.0113C99.5862 35.9793 99.6601 36.0273 99.6869 36.1073C99.7138 36.1872 99.6802 36.2832 99.6064 36.3152C99.4811 36.3685 99.358 36.4245 99.2372 36.4831C99.2193 36.4938 99.2014 36.4991 99.1835 36.4991ZM100.452 35.9633C100.398 35.9633 100.345 35.9233 100.325 35.8513C100.304 35.7714 100.345 35.6754 100.412 35.6514C100.542 35.6034 100.671 35.5581 100.801 35.5155C100.875 35.4915 100.949 35.5395 100.969 35.6274C100.989 35.7154 100.949 35.8034 100.875 35.8274C100.75 35.87 100.622 35.9153 100.492 35.9633C100.479 35.9686 100.466 35.9686 100.452 35.9633ZM101.754 35.5475C101.694 35.5475 101.633 35.4995 101.62 35.4195C101.6 35.3395 101.647 35.2516 101.721 35.2276C101.85 35.1903 101.98 35.1529 102.11 35.1156C102.184 35.0996 102.258 35.1476 102.278 35.2356C102.291 35.3235 102.244 35.4115 102.177 35.4275C102.043 35.4648 101.911 35.5021 101.781 35.5395C101.772 35.5448 101.763 35.5475 101.754 35.5475ZM103.063 35.1876C103.003 35.1876 102.942 35.1396 102.929 35.0596C102.915 34.9797 102.962 34.8917 103.036 34.8757C103.166 34.8384 103.298 34.8037 103.432 34.7717C103.499 34.7557 103.573 34.8117 103.587 34.8997C103.607 34.9797 103.56 35.0676 103.486 35.0836C103.356 35.1209 103.224 35.1556 103.09 35.1876C103.081 35.1876 103.072 35.1876 103.063 35.1876ZM104.379 34.8597C104.318 34.8597 104.265 34.8037 104.251 34.7317C104.231 34.6438 104.278 34.5638 104.352 34.5398C104.486 34.5078 104.618 34.4758 104.748 34.4438C104.822 34.4199 104.889 34.4758 104.909 34.5638C104.922 34.6518 104.875 34.7397 104.801 34.7557C104.672 34.7877 104.54 34.8224 104.405 34.8597C104.397 34.8597 104.388 34.8597 104.379 34.8597ZM105.694 34.5158C105.634 34.5158 105.58 34.4678 105.567 34.3879C105.547 34.3079 105.594 34.2199 105.667 34.1959C105.797 34.1639 105.927 34.1266 106.057 34.084C106.13 34.068 106.204 34.116 106.218 34.2039C106.238 34.2919 106.191 34.3799 106.124 34.3959C105.99 34.4385 105.858 34.4758 105.728 34.5078C105.714 34.5132 105.703 34.5158 105.694 34.5158ZM107.003 34.116C106.943 34.116 106.889 34.076 106.869 34.004C106.849 33.916 106.889 33.8281 106.963 33.8041C107.093 33.7614 107.222 33.7161 107.352 33.6681C107.419 33.6441 107.493 33.6921 107.52 33.7721C107.54 33.8601 107.5 33.948 107.426 33.972C107.296 34.02 107.166 34.068 107.037 34.116C107.023 34.116 107.012 34.116 107.003 34.116ZM108.285 33.6281C108.225 33.6281 108.178 33.5882 108.157 33.5242C108.131 33.4362 108.164 33.3482 108.238 33.3162C108.363 33.2629 108.486 33.207 108.607 33.1483C108.681 33.1163 108.755 33.1563 108.782 33.2363C108.809 33.3242 108.775 33.4122 108.708 33.4442C108.583 33.5082 108.455 33.5668 108.325 33.6201C108.312 33.6255 108.298 33.6281 108.285 33.6281ZM109.52 33.0124C109.473 33.0124 109.426 32.9724 109.399 32.9164C109.366 32.8364 109.399 32.7405 109.466 32.7085L109.486 32.6925C109.598 32.6285 109.71 32.5618 109.822 32.4925C109.882 32.4446 109.97 32.4765 110.003 32.5565C110.037 32.6365 110.01 32.7325 109.943 32.7724C109.831 32.8417 109.719 32.9111 109.607 32.9804L109.58 32.9964C109.563 33.007 109.542 33.0124 109.52 33.0124ZM110.695 32.2206C110.648 32.2206 110.607 32.1966 110.581 32.1487C110.54 32.0767 110.56 31.9807 110.621 31.9327C110.733 31.8421 110.842 31.7515 110.95 31.6608C111.01 31.6129 111.097 31.6288 111.138 31.7008C111.185 31.7728 111.171 31.8768 111.104 31.9247C110.997 32.0207 110.885 32.1113 110.768 32.1966C110.746 32.2126 110.721 32.2206 110.695 32.2206ZM111.775 31.269C111.735 31.269 111.701 31.253 111.675 31.213C111.621 31.141 111.628 31.0451 111.688 30.9891C111.791 30.8824 111.889 30.7758 111.983 30.6692C112.044 30.6132 112.124 30.6132 112.178 30.6772C112.225 30.7492 112.225 30.8451 112.171 30.9091C112.068 31.0157 111.965 31.1224 111.863 31.229C111.836 31.253 111.802 31.269 111.775 31.269ZM112.735 30.1494C112.708 30.1494 112.675 30.1334 112.648 30.1094C112.594 30.0534 112.587 29.9494 112.634 29.8855C112.724 29.7628 112.811 29.6402 112.896 29.5176C112.943 29.4536 113.024 29.4456 113.084 29.4936C113.145 29.5496 113.151 29.6535 113.104 29.7255C113.019 29.8481 112.93 29.9708 112.836 30.0934C112.809 30.1334 112.775 30.1494 112.735 30.1494ZM113.554 28.8778C113.527 28.8778 113.502 28.8672 113.48 28.8458C113.42 28.7978 113.4 28.7019 113.44 28.6299C113.511 28.4966 113.581 28.3607 113.648 28.2221C113.681 28.1501 113.769 28.1181 113.829 28.1661C113.896 28.2061 113.916 28.31 113.883 28.382C113.811 28.5259 113.74 28.6646 113.668 28.7978C113.641 28.8458 113.594 28.8778 113.554 28.8778ZM114.185 27.4623C114.167 27.4623 114.149 27.457 114.131 27.4463C114.064 27.4143 114.031 27.3184 114.064 27.2384C114.113 27.0945 114.16 26.9478 114.205 26.7986C114.232 26.7186 114.312 26.6706 114.38 26.7026C114.447 26.7346 114.487 26.8225 114.46 26.9105C114.415 27.0651 114.364 27.2171 114.306 27.3664C114.286 27.4223 114.239 27.4623 114.185 27.4623ZM114.594 25.9349C114.585 25.9349 114.576 25.9349 114.567 25.9349C114.494 25.9189 114.447 25.8309 114.467 25.7429C114.494 25.5883 114.516 25.4337 114.534 25.2791C114.547 25.1911 114.614 25.1351 114.688 25.1431C114.762 25.1591 114.816 25.2391 114.802 25.3271C114.78 25.4924 114.755 25.655 114.729 25.8149C114.715 25.8869 114.661 25.9349 114.594 25.9349ZM114.742 24.3434C114.668 24.3434 114.608 24.2714 114.608 24.1835V24.0955C114.608 23.9676 114.606 23.8396 114.601 23.7116C114.601 23.6237 114.655 23.5517 114.729 23.5437C114.809 23.5437 114.87 23.6077 114.87 23.6957C114.878 23.8289 114.883 23.9622 114.883 24.0955L114.876 24.1915C114.876 24.2794 114.816 24.3434 114.742 24.3434ZM114.628 22.752C114.567 22.752 114.507 22.696 114.5 22.616C114.474 22.4668 114.444 22.3148 114.413 22.1602C114.393 22.0722 114.44 21.9843 114.514 21.9683C114.581 21.9443 114.655 21.9923 114.675 22.0802C114.706 22.2402 114.735 22.4001 114.762 22.5601C114.776 22.648 114.729 22.728 114.655 22.752C114.646 22.752 114.637 22.752 114.628 22.752ZM114.252 21.2165C114.198 21.2165 114.151 21.1765 114.124 21.1126C114.075 20.9686 114.022 20.8247 113.963 20.6807C113.937 20.6087 113.963 20.5128 114.031 20.4728C114.098 20.4328 114.178 20.4648 114.212 20.5448C114.27 20.6887 114.326 20.838 114.38 20.9926C114.406 21.0726 114.373 21.1685 114.306 21.2005C114.288 21.2112 114.27 21.2165 114.252 21.2165ZM108.359 20.9446C108.319 20.9446 108.278 20.9206 108.251 20.8807C108.166 20.742 108.097 20.5874 108.043 20.4168C108.023 20.3368 108.057 20.2409 108.124 20.2089C108.198 20.1849 108.272 20.2249 108.298 20.3049C108.343 20.4488 108.399 20.5794 108.466 20.6967C108.513 20.7687 108.5 20.8647 108.439 20.9206C108.413 20.9366 108.386 20.9446 108.359 20.9446ZM113.614 19.809C113.567 19.809 113.527 19.785 113.5 19.7371C113.424 19.6091 113.346 19.4865 113.265 19.3692C113.218 19.2972 113.225 19.1932 113.285 19.1373C113.339 19.0813 113.426 19.0973 113.473 19.1613C113.558 19.2892 113.641 19.4198 113.722 19.5531C113.762 19.6251 113.749 19.7291 113.688 19.777C113.666 19.7984 113.641 19.809 113.614 19.809ZM108.064 19.4172C108.059 19.4172 108.055 19.4172 108.05 19.4172C107.976 19.4092 107.923 19.3292 107.929 19.2412C107.947 19.0706 107.976 18.9027 108.017 18.7374C108.037 18.6574 108.117 18.6095 108.184 18.6334C108.258 18.6574 108.298 18.7534 108.272 18.8334C108.236 18.9773 108.211 19.1239 108.198 19.2732C108.191 19.3532 108.131 19.4172 108.064 19.4172ZM112.708 18.6175C112.681 18.6175 112.648 18.6095 112.621 18.5855C112.523 18.4788 112.42 18.3802 112.312 18.2896C112.259 18.2416 112.245 18.1376 112.285 18.0656C112.332 17.9937 112.413 17.9777 112.473 18.0337C112.585 18.1296 112.695 18.2309 112.802 18.3376C112.856 18.3935 112.863 18.4975 112.816 18.5615C112.789 18.6015 112.749 18.6175 112.708 18.6175ZM108.641 18.0097C108.607 18.0097 108.567 17.9937 108.54 17.9537C108.493 17.8897 108.5 17.7857 108.554 17.7298C108.585 17.6978 108.616 17.6685 108.647 17.6418C108.732 17.5672 108.82 17.5005 108.909 17.4419C108.976 17.3939 109.057 17.4259 109.097 17.5058C109.131 17.5778 109.104 17.6818 109.043 17.7218C108.958 17.7751 108.88 17.8337 108.809 17.8977C108.782 17.9244 108.757 17.9484 108.735 17.9697C108.708 18.0017 108.674 18.0097 108.641 18.0097ZM111.581 17.7698C111.563 17.7698 111.545 17.7644 111.527 17.7538C111.406 17.6898 111.283 17.6365 111.158 17.5938C111.091 17.5618 111.05 17.4739 111.071 17.3939C111.097 17.3059 111.171 17.2579 111.238 17.2899C111.373 17.3379 111.505 17.3939 111.634 17.4579C111.701 17.4978 111.728 17.5858 111.701 17.6738C111.681 17.7298 111.628 17.7698 111.581 17.7698ZM109.869 17.4179C109.802 17.4179 109.748 17.3539 109.735 17.2739C109.728 17.186 109.782 17.106 109.856 17.098C109.956 17.082 110.064 17.074 110.171 17.082C110.207 17.082 110.243 17.082 110.278 17.082C110.352 17.082 110.413 17.162 110.413 17.2499C110.406 17.3379 110.346 17.4099 110.272 17.4019C110.236 17.4019 110.2 17.4019 110.164 17.4019C110.07 17.4019 109.979 17.4072 109.889 17.4179C109.88 17.4179 109.874 17.4179 109.869 17.4179Z" fill="white"/>
</g>
<defs>
<linearGradient id="paint0_linear_477_1417" x1="148.564" y1="3.12698" x2="15.8889" y2="-1.19011" gradientUnits="userSpaceOnUse">
<stop stop-color="#25DEBE" stop-opacity="0.12"/>
<stop offset="1" stop-color="#25DEBE" stop-opacity="0.29"/>
</linearGradient>
<linearGradient id="paint1_linear_477_1417" x1="85.4776" y1="1.21572" x2="74.2103" y2="113.259" gradientUnits="userSpaceOnUse">
<stop stop-color="#09005D"/>
<stop offset="1" stop-color="#1A0F91"/>
</linearGradient>
<linearGradient id="paint2_linear_477_1417" x1="2.19488" y1="81.7472" x2="43.8487" y2="17.4398" gradientUnits="userSpaceOnUse">
<stop stop-color="#26D8C0"/>
<stop offset="1" stop-color="#178D7D"/>
</linearGradient>
<linearGradient id="paint3_linear_477_1417" x1="70.2346" y1="77.6846" x2="69.3303" y2="93.1194" gradientUnits="userSpaceOnUse">
<stop stop-color="#E1473D"/>
<stop offset="1" stop-color="#E9605A"/>
</linearGradient>
<linearGradient id="paint4_linear_477_1417" x1="70.0937" y1="59.515" x2="70.0937" y2="86.8176" gradientUnits="userSpaceOnUse">
<stop stop-color="#E1473D"/>
<stop offset="1" stop-color="#E9605A"/>
</linearGradient>
<linearGradient id="paint5_linear_477_1417" x1="40.648" y1="58.7793" x2="56.7501" y2="58.7793" gradientUnits="userSpaceOnUse">
<stop stop-color="#FE7062"/>
<stop offset="1" stop-color="#FF928E"/>
</linearGradient>
<linearGradient id="paint6_linear_477_1417" x1="61.3411" y1="57.7717" x2="72.3018" y2="57.7717" gradientUnits="userSpaceOnUse">
<stop stop-color="#FE7062"/>
<stop offset="1" stop-color="#FF928E"/>
</linearGradient>
<linearGradient id="paint7_linear_477_1417" x1="32.5197" y1="58.2515" x2="43.4805" y2="58.2515" gradientUnits="userSpaceOnUse">
<stop stop-color="#FE7062"/>
<stop offset="1" stop-color="#FF928E"/>
</linearGradient>
<linearGradient id="paint8_linear_477_1417" x1="45.3532" y1="39.0823" x2="41.4899" y2="61.3522" gradientUnits="userSpaceOnUse">
<stop stop-color="#F6EB5E"/>
<stop offset="1" stop-color="#D75878"/>
</linearGradient>
<linearGradient id="paint9_linear_477_1417" x1="49.1319" y1="38.3784" x2="43.927" y2="68.3703" gradientUnits="userSpaceOnUse">
<stop stop-color="#F6EB5E"/>
<stop offset="1" stop-color="#D75878"/>
</linearGradient>
<linearGradient id="paint10_linear_477_1417" x1="47.5614" y1="39.682" x2="43.4149" y2="63.5685" gradientUnits="userSpaceOnUse">
<stop stop-color="#F6EB5E"/>
<stop offset="1" stop-color="#D75878"/>
</linearGradient>
<linearGradient id="paint11_linear_477_1417" x1="51.8101" y1="39.0101" x2="47.1058" y2="66.0931" gradientUnits="userSpaceOnUse">
<stop stop-color="#F6EB5E"/>
<stop offset="1" stop-color="#D75878"/>
</linearGradient>
<linearGradient id="paint12_linear_477_1417" x1="51.1255" y1="39.578" x2="46.1945" y2="68.0084" gradientUnits="userSpaceOnUse">
<stop stop-color="#F6EB5E"/>
<stop offset="1" stop-color="#D75878"/>
</linearGradient>
<linearGradient id="paint13_linear_477_1417" x1="53.978" y1="39.8819" x2="49.0656" y2="68.2098" gradientUnits="userSpaceOnUse">
<stop stop-color="#F6EB5E"/>
<stop offset="1" stop-color="#D75878"/>
</linearGradient>
<linearGradient id="paint14_linear_477_1417" x1="55.3407" y1="39.3221" x2="50.0892" y2="69.5743" gradientUnits="userSpaceOnUse">
<stop stop-color="#F6EB5E"/>
<stop offset="1" stop-color="#D75878"/>
</linearGradient>
<linearGradient id="paint15_linear_477_1417" x1="57.6831" y1="39.914" x2="52.894" y2="67.5116" gradientUnits="userSpaceOnUse">
<stop stop-color="#F6EB5E"/>
<stop offset="1" stop-color="#D75878"/>
</linearGradient>
<linearGradient id="paint16_linear_477_1417" x1="55.656" y1="40.7376" x2="51.6602" y2="63.7531" gradientUnits="userSpaceOnUse">
<stop stop-color="#F6EB5E"/>
<stop offset="1" stop-color="#D75878"/>
</linearGradient>
<linearGradient id="paint17_linear_477_1417" x1="60.5558" y1="41.2895" x2="56.919" y2="62.2434" gradientUnits="userSpaceOnUse">
<stop stop-color="#F6EB5E"/>
<stop offset="1" stop-color="#D75878"/>
</linearGradient>
<linearGradient id="paint18_linear_477_1417" x1="42.6952" y1="40.1538" x2="39.0206" y2="61.3142" gradientUnits="userSpaceOnUse">
<stop stop-color="#F6EB5E"/>
<stop offset="1" stop-color="#D75878"/>
</linearGradient>
<linearGradient id="paint19_linear_477_1417" x1="92.1761" y1="19.3077" x2="83.4377" y2="41.9486" gradientUnits="userSpaceOnUse">
<stop stop-color="#FE7062"/>
<stop offset="1" stop-color="#FF928E"/>
</linearGradient>
<linearGradient id="paint20_linear_477_1417" x1="63.0057" y1="100.82" x2="55.7435" y2="125.904" gradientUnits="userSpaceOnUse">
<stop stop-color="#FE7062"/>
<stop offset="1" stop-color="#FF928E"/>
</linearGradient>
<linearGradient id="paint21_linear_477_1417" x1="132.368" y1="67.6799" x2="99.4127" y2="81.0797" gradientUnits="userSpaceOnUse">
<stop stop-color="#4042E2"/>
<stop offset="1" stop-color="#4F52FF"/>
</linearGradient>
<linearGradient id="paint22_linear_477_1417" x1="87.1354" y1="101.484" x2="90.1625" y2="101.484" gradientUnits="userSpaceOnUse">
<stop stop-color="#4042E2"/>
<stop offset="1" stop-color="#4F52FF"/>
</linearGradient>
<linearGradient id="paint23_linear_477_1417" x1="87.4239" y1="101.084" x2="90.1759" y2="101.084" gradientUnits="userSpaceOnUse">
<stop stop-color="#09005D"/>
<stop offset="1" stop-color="#1A0F91"/>
</linearGradient>
<linearGradient id="paint24_linear_477_1417" x1="89.0685" y1="99.7887" x2="91.3841" y2="99.7887" gradientUnits="userSpaceOnUse">
<stop stop-color="#FF928E"/>
<stop offset="1" stop-color="#FEB3B1"/>
</linearGradient>
<linearGradient id="paint25_linear_477_1417" x1="124.112" y1="88.9284" x2="128.676" y2="88.9284" gradientUnits="userSpaceOnUse">
<stop stop-color="#4042E2"/>
<stop offset="1" stop-color="#4F52FF"/>
</linearGradient>
<linearGradient id="paint26_linear_477_1417" x1="122.964" y1="88.9125" x2="128.508" y2="88.9125" gradientUnits="userSpaceOnUse">
<stop stop-color="#09005D"/>
<stop offset="1" stop-color="#1A0F91"/>
</linearGradient>
<linearGradient id="paint27_linear_477_1417" x1="121.561" y1="90.72" x2="124.078" y2="90.72" gradientUnits="userSpaceOnUse">
<stop stop-color="#FF928E"/>
<stop offset="1" stop-color="#FEB3B1"/>
</linearGradient>
<linearGradient id="paint28_linear_477_1417" x1="111.164" y1="78.4125" x2="71.7551" y2="131.675" gradientUnits="userSpaceOnUse">
<stop stop-color="#09005D"/>
<stop offset="1" stop-color="#1A0F91"/>
</linearGradient>
<linearGradient id="paint29_linear_477_1417" x1="126.26" y1="94.2064" x2="100.53" y2="89.4076" gradientUnits="userSpaceOnUse">
<stop stop-color="#09005D"/>
<stop offset="1" stop-color="#1A0F91"/>
</linearGradient>
<linearGradient id="paint30_linear_477_1417" x1="105.171" y1="66.2246" x2="106.869" y2="66.2246" gradientUnits="userSpaceOnUse">
<stop stop-color="#53D8FF"/>
<stop offset="1" stop-color="#3840F7"/>
</linearGradient>
<linearGradient id="paint31_linear_477_1417" x1="134.14" y1="58.2432" x2="129.799" y2="65.3817" gradientUnits="userSpaceOnUse">
<stop stop-color="#FF928E"/>
<stop offset="1" stop-color="#FEB3B1"/>
</linearGradient>
<linearGradient id="paint32_linear_477_1417" x1="135.797" y1="43.5526" x2="134.29" y2="54.7856" gradientUnits="userSpaceOnUse">
<stop stop-color="#FE7062"/>
<stop offset="1" stop-color="#FF928E"/>
</linearGradient>
<linearGradient id="paint33_linear_477_1417" x1="120.098" y1="65.7449" x2="119.955" y2="50.8066" gradientUnits="userSpaceOnUse">
<stop stop-color="#FE7062"/>
<stop offset="1" stop-color="#FF928E"/>
</linearGradient>
<linearGradient id="paint34_linear_477_1417" x1="143.362" y1="70.5431" x2="142.507" y2="79.1551" gradientUnits="userSpaceOnUse">
<stop stop-color="#FE7062"/>
<stop offset="1" stop-color="#FF928E"/>
</linearGradient>
<linearGradient id="paint35_linear_477_1417" x1="104.083" y1="84.6741" x2="78.8299" y2="47.2126" gradientUnits="userSpaceOnUse">
<stop stop-color="#4042E2"/>
<stop offset="1" stop-color="#4F52FF"/>
</linearGradient>
<linearGradient id="paint36_linear_477_1417" x1="106.056" y1="72.6145" x2="100.924" y2="81.0891" gradientUnits="userSpaceOnUse">
<stop stop-color="#FF928E"/>
<stop offset="1" stop-color="#FEB3B1"/>
</linearGradient>
<linearGradient id="paint37_linear_477_1417" x1="109.963" y1="40.4818" x2="111.671" y2="45.456" gradientUnits="userSpaceOnUse">
<stop stop-color="#4042E2"/>
<stop offset="1" stop-color="#4F52FF"/>
</linearGradient>
<linearGradient id="paint38_linear_477_1417" x1="110.856" y1="49.3504" x2="114.069" y2="53.1927" gradientUnits="userSpaceOnUse">
<stop stop-color="#4042E2"/>
<stop offset="1" stop-color="#4F52FF"/>
</linearGradient>
<linearGradient id="paint39_linear_477_1417" x1="113.507" y1="61.3461" x2="109.086" y2="70.0285" gradientUnits="userSpaceOnUse">
<stop stop-color="#FF928E"/>
<stop offset="1" stop-color="#FEB3B1"/>
</linearGradient>
<linearGradient id="paint40_linear_477_1417" x1="113.594" y1="52.4853" x2="115.24" y2="60.117" gradientUnits="userSpaceOnUse">
<stop stop-color="#FF928E"/>
<stop offset="1" stop-color="#FEB3B1"/>
</linearGradient>
<linearGradient id="paint41_linear_477_1417" x1="112.943" y1="50.3021" x2="119.008" y2="56.8567" gradientUnits="userSpaceOnUse">
<stop stop-color="#09005D"/>
<stop offset="1" stop-color="#1A0F91"/>
</linearGradient>
<linearGradient id="paint42_linear_477_1417" x1="110.379" y1="54.1327" x2="111.818" y2="60.8177" gradientUnits="userSpaceOnUse">
<stop stop-color="#FF928E"/>
<stop offset="1" stop-color="#FEB3B1"/>
</linearGradient>
<linearGradient id="paint43_linear_477_1417" x1="32.3385" y1="92.8552" x2="40.7218" y2="92.8552" gradientUnits="userSpaceOnUse">
<stop stop-color="#DAE3FE"/>
<stop offset="1" stop-color="#E9EFFD"/>
</linearGradient>
<clipPath id="clip0_477_1417">
<rect width="148" height="113" fill="white"/>
</clipPath>
</defs>
</svg>
