<svg width="160" height="94" viewBox="0 0 160 94" fill="none" xmlns="http://www.w3.org/2000/svg">
<g clip-path="url(#clip0_469_183)">
<path d="M150.158 29.1244C150.439 29.4343 150.655 29.7974 150.793 30.192C150.93 30.5867 150.986 31.0048 150.958 31.4215C150.895 32.2557 150.64 33.0643 150.213 33.7849C149.431 35.1975 147.97 36.3449 146.568 37.1564C145.763 35.5564 146.26 33.5381 146.568 32.5324C147.066 30.9324 148.942 28.3655 150.149 29.1244" fill="#EBEBEB"/>
<path d="M147.016 40.1965C147.105 39.7382 147.315 39.3116 147.624 38.96C147.933 38.6083 148.329 38.3441 148.774 38.1943C149.22 38.051 149.691 37.9974 150.158 38.0366C150.625 38.0759 151.08 38.2072 151.495 38.4228C151.882 38.6148 152.263 38.9074 152.357 39.3371C152.388 39.5363 152.365 39.74 152.29 39.9274C152.216 40.1149 152.093 40.2795 151.934 40.4045C151.612 40.6517 151.23 40.8095 150.827 40.8617C149.448 41.0903 148.094 41.072 147.016 40.2034" fill="#EBEBEB"/>
<path d="M143.531 44.08C143.58 43.9801 143.637 43.8845 143.702 43.7943L144.193 43.0354C144.616 42.4045 145.2 41.4925 146.133 40.7497C146.915 40.1058 147.855 39.6812 148.857 39.52C149.161 39.4755 149.47 39.4679 149.776 39.4971C149.859 39.5037 149.941 39.5151 150.022 39.5314C150.08 39.5314 150.107 39.5474 150.107 39.552C149.696 39.5274 149.283 39.5442 148.875 39.6023C147.892 39.7888 146.973 40.2206 146.204 40.8571C145.285 41.5771 144.701 42.4708 144.262 43.0903C144.044 43.4034 143.867 43.6571 143.738 43.8285C143.678 43.9189 143.609 44.0032 143.531 44.08Z" fill="#E0E0E0"/>
<path d="M148.903 31.2114C148.893 31.2589 148.879 31.3056 148.861 31.3509L148.728 31.7417C148.609 32.0823 148.429 32.5691 148.204 33.1703C147.744 34.3726 147.103 36.0251 146.347 37.8331C145.591 39.6411 144.869 41.2617 144.329 42.432C144.06 43.0148 143.837 43.4834 143.681 43.8034C143.605 43.9543 143.543 44.0777 143.497 44.1737C143.477 44.2177 143.453 44.2598 143.426 44.2994C143.437 44.2528 143.453 44.2076 143.474 44.1646C143.518 44.0663 143.571 43.936 143.639 43.7828L144.253 42.3931C144.773 41.2183 145.483 39.5931 146.239 37.7851C146.995 35.9771 147.655 34.3314 148.126 33.136L148.684 31.7211C148.749 31.5657 148.799 31.4377 148.841 31.3394C148.857 31.2946 148.877 31.2517 148.903 31.2114Z" fill="#E0E0E0"/>
<path d="M144.474 40.2124C144.694 39.2523 144.681 38.2538 144.436 37.2998C144.19 36.3457 143.719 35.4636 143.063 34.7267C142.727 34.3542 142.233 34.0022 141.759 34.1713C141.286 34.3404 141.134 34.9279 141.125 35.4284C141.124 36.4732 141.434 37.4949 142.015 38.3649C142.597 39.2349 143.424 39.9143 144.393 40.3176" fill="#EBEBEB"/>
<path d="M142.697 36.2192C142.778 36.287 142.852 36.3636 142.915 36.4478C142.999 36.536 143.075 36.63 143.145 36.729C143.23 36.8455 143.336 36.969 143.43 37.1244C143.54 37.2882 143.64 37.4576 143.731 37.6318C143.84 37.8295 143.938 38.0332 144.023 38.2421C144.219 38.7229 144.36 39.2245 144.442 39.737C144.515 40.2502 144.529 40.7702 144.483 41.2867C144.462 41.5118 144.428 41.7354 144.38 41.9564C144.342 42.1497 144.292 42.3406 144.23 42.5278C144.184 42.683 144.13 42.8356 144.067 42.985C144.024 43.0995 143.974 43.211 143.915 43.3187C143.875 43.4148 143.825 43.5067 143.766 43.593C143.741 43.593 143.954 43.1884 144.152 42.5027C144.206 42.317 144.25 42.1285 144.283 41.9381C144.326 41.7197 144.356 41.4992 144.375 41.2775C144.415 40.7691 144.399 40.2578 144.327 39.753C144.245 39.2504 144.11 38.7577 143.925 38.2832C143.833 38.0661 143.748 37.8604 143.646 37.6752C143.559 37.5013 143.464 37.3319 143.359 37.1678C142.973 36.5598 142.665 36.2352 142.697 36.2192Z" fill="#E0E0E0"/>
<path d="M7.3344 14.8776C7.3344 14.8776 5.21986 15.5633 7.27005 20.0661C9.32023 24.569 10.7843 26.8273 10.7843 26.8273C10.7843 26.8273 11.136 27.8673 10.2626 27.9861C9.38918 28.105 7.50449 27.7141 7.06319 28.7496C6.60351 29.8216 7.36198 30.889 8.9364 31.8696C10.5108 32.8501 13.8826 35.1199 14.186 35.3256C14.4894 35.5313 14.7698 36.0113 14.186 36.1942C13.6022 36.377 9.29725 36.6147 9.53628 38.6399C9.77532 40.665 14.6158 42.6856 15.1352 42.9142C15.6547 43.1427 15.7765 43.3713 15.719 43.6639C15.6616 43.9564 14.2067 43.8924 12.9839 44.0204C11.7611 44.1484 10.366 44.4913 10.6027 45.6479C10.8395 46.8044 13.6412 49.3439 20.6882 50.3633L23.9841 50.6239L25.9102 47.9336C29.6842 41.929 29.5463 38.1621 28.8131 37.2341C28.0799 36.3061 26.9054 37.1381 26.0251 37.9884C25.1448 38.8387 24.2415 39.977 23.9841 39.833C23.7267 39.689 23.6233 39.4513 23.7841 38.905C23.945 38.3587 25.5332 33.3873 24.1335 31.897C22.7338 30.4067 19.7665 33.5153 19.2517 33.8444C18.7368 34.1736 18.5507 33.6387 18.5874 33.2799C18.6242 32.921 19.0609 28.8913 19.3275 27.0627C19.5941 25.2341 19.2609 23.977 18.1461 23.6341C17.0705 23.2959 16.1465 24.9827 15.4915 25.5679C14.8364 26.153 14.2664 25.2136 14.2664 25.2136C14.2664 25.2136 13.4827 22.649 11.3497 18.1781C9.2168 13.7073 7.28843 14.9119 7.28843 14.9119" fill="#EBEBEB"/>
<path d="M24.122 51.3986C22.5682 48.1072 19.9067 42.2146 17.5945 37.1678C15.2823 32.1209 13.1861 27.5541 11.6485 24.2581L9.82584 20.3541L9.33168 19.2935L9.20527 19.0146C9.18792 18.9821 9.17257 18.9485 9.1593 18.9141C9.1593 18.9141 9.17769 18.9438 9.20987 19.0055L9.34547 19.2798C9.46269 19.5243 9.63507 19.8786 9.85802 20.3335C10.3016 21.2478 10.9337 22.5758 11.7105 24.2192C13.2643 27.5084 15.3719 32.0706 17.6864 37.1175C20.0009 42.1644 22.651 48.0706 24.1886 51.3712" fill="#E0E0E0"/>
<path d="M9.68799 29.4011C9.76684 29.4189 9.84381 29.4442 9.91783 29.4766C10.0603 29.5291 10.2672 29.6137 10.52 29.7188C11.0257 29.9314 11.7175 30.2423 12.476 30.5988L14.4112 31.5131L14.9996 31.7874C15.0735 31.8171 15.1443 31.8539 15.2111 31.8971C15.1317 31.8824 15.0545 31.8579 14.9812 31.824C14.8364 31.7714 14.6319 31.6868 14.379 31.5794C13.8734 31.3508 13.1862 31.0423 12.43 30.6857L10.4878 29.7714L9.89944 29.4994C9.82546 29.4747 9.75453 29.4417 9.68799 29.4011Z" fill="#E0E0E0"/>
<path d="M15.4432 31.7141C15.4179 31.7141 15.9994 30.2559 16.7418 28.4844C17.4842 26.713 18.1208 25.2844 18.1346 25.2844C18.1484 25.2844 17.5807 26.7427 16.836 28.5164C16.0913 30.2901 15.4708 31.7141 15.4432 31.7141Z" fill="#E0E0E0"/>
<path d="M18.6426 39.6113C18.6838 39.5417 18.7323 39.4765 18.7874 39.4171C18.8977 39.2776 19.0379 39.1062 19.2034 38.9028C19.5527 38.4685 20.0354 37.865 20.5434 37.1816C21.0513 36.4982 21.4903 35.8673 21.8052 35.4056L22.1775 34.8593C22.2197 34.7903 22.2682 34.7252 22.3223 34.665C22.2947 34.7414 22.2568 34.8137 22.2097 34.8799C22.1316 35.017 22.0143 35.209 21.865 35.4445C21.5662 35.9176 21.1364 36.5599 20.6238 37.2433C20.1113 37.9268 19.624 38.5256 19.2586 38.9485C19.0747 39.1588 18.9253 39.3279 18.8173 39.4422C18.7662 39.5055 18.7075 39.5623 18.6426 39.6113Z" fill="#E0E0E0"/>
<path d="M12.9747 38.6719C13.0516 38.6669 13.1288 38.6715 13.2046 38.6856L13.8137 38.761C14.3262 38.8319 15.0341 38.9347 15.8156 39.0536C16.597 39.1725 17.3026 39.2822 17.8129 39.3736L18.4174 39.4833C18.492 39.4919 18.5654 39.5095 18.6357 39.5359C18.5588 39.5409 18.4816 39.5363 18.4059 39.5222L17.7991 39.4467C17.2843 39.3759 16.5763 39.273 15.7949 39.1542C15.0134 39.0353 14.3078 38.9256 13.7976 38.8342L13.1954 38.7245C13.1201 38.7151 13.0461 38.6975 12.9747 38.6719Z" fill="#E0E0E0"/>
<path d="M14.9054 46.0115C15.0016 46.009 15.0978 46.0159 15.1927 46.032L15.9742 46.128C16.6315 46.2126 17.5394 46.336 18.5415 46.48C19.5436 46.624 20.4515 46.7589 21.1065 46.864L21.8834 46.9897C21.9791 47.0027 22.0737 47.0234 22.1661 47.0514C22.0691 47.0539 21.9721 47.047 21.8765 47.0309L21.0973 46.9349C20.44 46.8503 19.5298 46.7246 18.5277 46.5806C17.5256 46.4366 16.6177 46.3017 15.9627 46.1989L15.1881 46.0709C15.0922 46.0599 14.9976 46.04 14.9054 46.0115Z" fill="#E0E0E0"/>
<path d="M22.0005 46.9783C22.0519 46.8887 22.1111 46.8038 22.1775 46.7246C22.3062 46.5509 22.4763 46.3269 22.6809 46.0549C23.1061 45.488 23.6899 44.704 24.3105 43.8194C24.931 42.9349 25.4735 42.1211 25.8596 41.5337L26.3193 40.832C26.3713 40.7436 26.4305 40.6595 26.4962 40.5806C26.4561 40.6753 26.4076 40.7663 26.3514 40.8526C26.2526 41.024 26.1055 41.2709 25.9193 41.5703C25.547 42.1737 25.0138 42.9966 24.3909 43.8811C23.768 44.7657 23.1773 45.5474 22.736 46.1029C22.5062 46.3794 22.3338 46.6034 22.2051 46.7543C22.1444 46.8353 22.0758 46.9104 22.0005 46.9783Z" fill="#E0E0E0"/>
<path d="M75.6915 41.9199C69.8029 38.9736 67.5873 32.249 66.8977 26.0182C66.7828 24.9782 66.5093 23.9039 66.8725 22.9256C67.2356 21.9473 68.2998 21.1588 69.295 21.4628C70.1201 21.7119 70.5867 22.5576 71.1337 23.2342C71.8544 24.1381 72.8179 24.8204 73.9125 25.2022C74.625 25.449 75.4754 25.5405 76.0776 25.0879C76.9027 24.4662 76.8292 23.2182 76.6729 22.1896C76.3817 20.2711 76.0906 18.3542 75.7995 16.4388C75.6432 15.4102 75.4892 14.361 75.6685 13.337C75.8478 12.313 76.427 11.305 77.3716 10.889C78.3162 10.473 79.6171 10.8616 79.9711 11.8399C80.1182 12.2468 80.0952 12.6948 80.1872 13.1176C80.2791 13.5405 80.5457 13.9839 80.9709 14.0456C81.3961 14.1073 81.7754 13.7553 82.0397 13.4079C82.959 12.217 83.4877 10.7725 83.9726 9.3439C84.4576 7.91533 84.915 6.45705 85.7194 5.18391C86.5239 3.91076 87.7351 2.82048 89.2038 2.52334C90.6725 2.22619 92.3871 2.90962 92.9709 4.30391C93.5547 5.69819 92.9204 7.29591 92.1642 8.60333C91.0477 10.5453 89.6542 12.316 88.027 13.8605C87.7328 14.137 87.4157 14.4365 87.3375 14.8365C87.2134 15.5542 87.965 16.1416 88.6798 16.2696C89.4888 16.4136 90.314 16.2148 91.1345 16.1919C91.955 16.169 92.8813 16.3999 93.2973 17.1062C93.8742 18.0982 93.1502 19.3279 92.3779 20.1759C90.845 21.8732 89.0296 23.2951 87.0111 24.3793C86.2894 24.7656 85.5241 25.1245 84.9862 25.7508C84.4484 26.377 84.214 27.3508 84.6897 28.0205C85.1655 28.6902 86.1515 28.7885 86.9284 28.5256C87.7053 28.2628 88.3557 27.7302 89.0751 27.337C90.4197 26.5988 92.2699 26.4228 93.3594 27.5222C94.0742 28.2399 94.2902 29.3508 94.127 30.3542C93.9638 31.3576 93.4697 32.2673 92.9273 33.1222C91.0334 36.1096 88.427 38.6719 85.2919 40.2833C82.1569 41.8948 79.146 42.6422 75.6938 41.9222" fill="#F5F5F5"/>
<path d="M76.7327 37.8011C77.2778 34.275 78.0252 30.7828 78.9713 27.3416L79.7022 24.6285C79.9436 23.7393 80.1826 22.8571 80.4699 22.0091C81.0246 20.3808 81.67 18.7844 82.4029 17.2273C83.0924 15.7371 83.798 14.3473 84.4714 13.0513C85.1449 11.7553 85.7999 10.5622 86.4389 9.49934C87.4413 7.81709 88.5765 6.21664 89.8336 4.71306C90.2772 4.18049 90.6358 3.7782 90.8817 3.51077L91.1621 3.20677C91.1927 3.1703 91.2266 3.13664 91.2632 3.1062C91.2392 3.14656 91.2106 3.18413 91.1782 3.2182L90.9093 3.53592C90.6794 3.81249 90.3255 4.22163 89.8911 4.76106C88.6599 6.27612 87.5444 7.88059 86.5538 9.56106C85.9217 10.6262 85.2782 11.8216 84.6116 13.1176C83.9451 14.4136 83.2441 15.8056 82.5614 17.2936C81.8336 18.8499 81.1921 20.4446 80.64 22.0708C80.355 22.9165 80.1182 23.7896 79.8769 24.6811C79.6356 25.5725 79.3965 26.4776 79.1506 27.3919C78.2051 30.8262 77.4539 34.3106 76.9005 37.8285" fill="#E0E0E0"/>
<path d="M80.5228 21.9954C80.4521 21.8602 80.3966 21.7176 80.3573 21.5703C80.263 21.2937 80.1274 20.8846 79.9895 20.3886C79.6953 19.3829 79.3345 17.984 78.9438 16.4389C78.553 14.8937 78.1715 13.5017 77.8635 12.5052C77.7095 12.0069 77.5808 11.6046 77.4889 11.328C77.432 11.1865 77.3904 11.0394 77.3647 10.8892C77.4448 11.0185 77.5096 11.1565 77.5578 11.3006C77.6727 11.5703 77.8198 11.968 77.9922 12.464C78.3347 13.4514 78.7369 14.8434 79.1299 16.3909L80.1205 20.352C80.2416 20.8274 80.345 21.2267 80.4308 21.5497C80.4785 21.6943 80.5093 21.8439 80.5228 21.9954Z" fill="#E0E0E0"/>
<path d="M93.4697 17.6091C93.3006 17.6718 93.1259 17.7185 92.948 17.7486C92.6124 17.8286 92.1229 17.9406 91.5253 18.0983C90.3255 18.4046 88.6821 18.8846 86.894 19.4926C85.1058 20.1006 83.5107 20.7291 82.3707 21.2114C81.7984 21.44 81.341 21.6548 81.0238 21.7943C80.8637 21.8771 80.6959 21.9445 80.5228 21.9954C80.6672 21.8914 80.8211 21.8011 80.9824 21.7257C81.2904 21.5657 81.7409 21.3417 82.3063 21.0857C83.4372 20.5691 85.03 19.9246 86.8227 19.3097C88.3521 18.7822 89.9079 18.3336 91.4839 17.9657C92.0884 17.824 92.5825 17.7371 92.925 17.6754C93.104 17.6359 93.2864 17.6136 93.4697 17.6091Z" fill="#E0E0E0"/>
<path d="M76.8636 37.5337C76.8188 37.4903 76.7802 37.4411 76.7487 37.3874C76.6683 37.2662 76.5717 37.1177 76.4522 36.9302C76.1948 36.5417 75.8386 35.9702 75.4088 35.2594C74.5468 33.8354 73.4183 31.8308 72.2025 29.6022C70.9866 27.3737 69.8765 25.3714 69.0445 23.9428L68.0561 22.2423L67.7895 21.7851C67.7547 21.7325 67.7269 21.6757 67.7068 21.616C67.752 21.6598 67.7907 21.7098 67.8217 21.7645L68.1182 22.2217C68.3756 22.6103 68.7319 23.1817 69.1617 23.8948C70.0236 25.3188 71.1544 27.3234 72.3794 29.552C73.6045 31.7805 74.7031 33.7897 75.5352 35.2297L76.5235 36.9325C76.6315 37.1177 76.7188 37.2731 76.7901 37.3897C76.8201 37.4347 76.8448 37.483 76.8636 37.5337Z" fill="#E0E0E0"/>
<path d="M93.7226 29.3257C93.6717 29.3645 93.6161 29.3967 93.5571 29.4217L93.0698 29.6571L91.2656 30.5394C89.7417 31.2868 87.6479 32.3405 85.338 33.5108C83.0281 34.6811 80.9204 35.7142 79.3805 36.4297C78.6105 36.7862 77.9853 37.0697 77.5417 37.2571L77.0384 37.4674C76.9814 37.4972 76.9202 37.518 76.8568 37.5291C76.9082 37.491 76.9637 37.4588 77.0223 37.4331L77.5096 37.1885L79.3161 36.3062C80.84 35.5611 82.9315 34.5074 85.2437 33.3348C87.5559 32.1622 89.659 31.1314 91.1989 30.416C91.9689 30.0594 92.594 29.776 93.0376 29.5885L93.541 29.3783C93.5985 29.3516 93.6597 29.3339 93.7226 29.3257Z" fill="#E0E0E0"/>
<path d="M122.981 13.8056C122.981 10.0753 119.042 7.71418 115.024 9.5816C114.116 10.005 113.373 10.7133 112.91 11.5976C111.901 13.545 112.347 15.7667 113.264 17.6136L116.389 25.4925C116.488 25.7438 116.66 25.9597 116.884 26.1119C117.108 26.2641 117.373 26.3455 117.644 26.3455C117.916 26.3455 118.181 26.2641 118.404 26.1119C118.628 25.9597 118.801 25.7438 118.899 25.4925L121.965 17.5702C123.025 15.1496 122.981 13.8056 122.981 13.8056ZM119.207 17.0513C116.507 18.6125 113.769 15.7256 115.249 12.8776C115.443 12.4977 115.741 12.1805 116.109 11.9633C118.81 10.4022 121.545 13.289 120.065 16.137C119.872 16.5168 119.575 16.834 119.207 17.0513Z" fill="#F5F5F5"/>
<path d="M155.568 89.7897C155.568 89.8239 121.092 89.8491 78.5852 89.8491C36.0784 89.8491 1.58838 89.8239 1.58838 89.7897C1.58838 89.7554 36.0508 89.7302 78.5852 89.7302C121.12 89.7302 155.568 89.7576 155.568 89.7897Z" fill="#263238"/>
<path d="M66.8863 89.7897L36.3358 89.6503C34.572 89.6394 32.8845 88.9337 31.6429 87.6879C30.4013 86.442 29.7069 84.7575 29.7118 83.0034L30.0358 6.83657C30.0462 5.08174 30.7558 3.40259 32.0092 2.1673C33.2625 0.932003 34.9573 0.241382 36.7219 0.246858L67.2724 0.386286C69.0354 0.397165 70.7222 1.10221 71.9637 2.3471C73.2052 3.59198 73.9001 5.2753 73.8964 7.02857L73.5723 83.1954C73.5632 84.9511 72.8541 86.6314 71.6006 87.8677C70.3471 89.1039 68.6517 89.7952 66.8863 89.7897Z" fill="#455A64"/>
<path d="M67.2287 3.01497L61.3057 2.98754C60.9158 2.99476 60.5446 3.15544 60.2736 3.43438C60.0026 3.71331 59.8539 4.08773 59.86 4.47555V5.54526C59.8631 5.73726 59.828 5.92797 59.7569 6.10648C59.6857 6.28499 59.5799 6.4478 59.4454 6.58558C59.3109 6.72337 59.1504 6.83343 58.9731 6.90946C58.7958 6.98549 58.6051 7.02601 58.412 7.02869L46.8648 6.97612C46.475 6.96475 46.1056 6.80042 45.8373 6.51903C45.569 6.23764 45.4236 5.86207 45.4329 5.4744V4.40469C45.4397 4.01957 45.2938 3.64727 45.0267 3.36836C44.7595 3.08944 44.3927 2.92636 44.0056 2.9144H41.9232L36.7403 2.87555C35.5045 2.86947 34.3168 3.35171 33.4384 4.21624C32.56 5.08078 32.0628 6.25683 32.0561 7.48583L31.7413 81.831C31.7358 83.06 32.2213 84.2409 33.091 85.114C33.9608 85.9871 35.1436 86.4809 36.3795 86.487L66.8702 86.6264C67.4823 86.6291 68.089 86.5119 68.6555 86.2814C69.2221 86.051 69.7375 85.7118 70.1722 85.2833C70.607 84.8548 70.9526 84.3453 71.1894 83.7839C71.4261 83.2225 71.5494 82.6203 71.5521 82.0116L71.8669 7.66869C71.8697 7.06025 71.7519 6.45724 71.5202 5.89409C71.2886 5.33093 70.9477 4.81866 70.517 4.38652C70.0863 3.95438 69.5743 3.61084 69.0101 3.37551C68.4459 3.14018 67.8406 3.01767 67.2287 3.01497Z" fill="#FAFAFA"/>
<path d="M32.0193 16.4114H37.0161L41.475 20.8479L36.8391 25.4582L32.0722 20.7154L32.0193 16.4114Z" fill="#EBEBEB"/>
<path d="M42.4932 18.9005L39.988 16.4114H45.6237L42.4932 18.9005Z" fill="#EBEBEB"/>
<path d="M44.6836 20.935L49.0713 16.5715H64.4017C64.4017 16.5715 66.7484 26.9944 57.5064 33.687L44.6836 20.935Z" fill="#EBEBEB"/>
<path d="M42.8058 22.3245L38.1124 26.9942L51.1008 39.9107L55.7941 35.0856L42.8058 22.3245Z" fill="#EBEBEB"/>
<path d="M31.9619 29.6411L34.9039 26.6056L32.0194 23.7371L31.9619 29.6411Z" fill="#EBEBEB"/>
<path d="M36.6644 28.3955L32.1458 32.8892V39.1338L41.475 48.6264L49.3793 41.3121L36.6644 28.3955Z" fill="#EBEBEB"/>
<path d="M59.2648 34.9967C59.2648 34.9967 68.9457 27.9384 65.8153 16.5715H71.8348L71.7612 48.6538L59.2648 34.9967Z" fill="#EBEBEB"/>
<path d="M57.4444 36.8479L52.7648 41.7073L67.1161 55.9816L71.5061 51.3553L57.4444 36.8479Z" fill="#EBEBEB"/>
<path d="M50.8089 43.0376L43.4517 50.3016L58.1661 64.8319L65.5095 57.7713L50.8089 43.0376Z" fill="#EBEBEB"/>
<path d="M46.9521 79.4332L58.2006 67.8401L68.8997 78.6858L46.9521 79.4332Z" fill="#EBEBEB"/>
<path d="M59.9543 66.3429L71.6762 54.8C71.6762 55.312 71.5751 78.7338 71.5751 78.7338L59.9543 66.3429Z" fill="#EBEBEB"/>
<path d="M49.9263 59.8606L56.571 66.4686L43.4517 79.9315L37.3907 72.7017L49.9263 59.8606Z" fill="#EBEBEB"/>
<path d="M31.9734 73.6388C32.6009 73.5771 48.6691 58.6125 48.6691 58.6125L31.9734 41.408V73.6388Z" fill="#EBEBEB"/>
<path d="M31.7412 77.0489L35.6094 73.6387L40.967 79.9312H31.7412V77.5244" fill="#EBEBEB"/>
<path d="M36.7403 11.8812C36.3315 11.5812 35.9473 11.2495 35.5911 10.8892C35.5911 10.7154 35.5911 10.8412 35.5911 10.8023L35.6072 10.7886L35.6348 10.7634L35.6923 10.7109L35.8026 10.608L36.0117 10.416L36.3726 10.096C36.4819 9.98497 36.6055 9.88889 36.7403 9.8103C36.6583 9.93459 36.5593 10.0469 36.4461 10.144L36.1014 10.4823L35.8968 10.6789L35.7865 10.784L35.7313 10.8366L35.7014 10.8617L35.6877 10.8754V10.7886C36.0666 11.125 36.4186 11.4903 36.7403 11.8812Z" fill="#263238"/>
<path d="M68.5158 10.1372C68.5163 10.1867 68.5019 10.2352 68.4746 10.2765C68.4472 10.3178 68.4081 10.3501 68.3622 10.3693C68.3164 10.3884 68.2658 10.3935 68.217 10.384C68.1682 10.3745 68.1233 10.3507 68.0882 10.3157C68.053 10.2807 68.0291 10.2361 68.0195 10.1876C68.0099 10.139 68.015 10.0887 68.0343 10.0431C68.0535 9.99751 68.086 9.95863 68.1275 9.93143C68.1691 9.90422 68.2178 9.88994 68.2676 9.89039C68.3334 9.89039 68.3966 9.9164 68.4431 9.9627C68.4897 10.009 68.5158 10.0718 68.5158 10.1372Z" fill="#263238"/>
<path d="M68.4446 10.816C68.4797 10.8508 68.5036 10.8952 68.5133 10.9436C68.523 10.9919 68.5181 11.042 68.4991 11.0876C68.4802 11.1331 68.4481 11.1721 68.4068 11.1995C68.3656 11.2269 68.3172 11.2415 68.2676 11.2415C68.218 11.2415 68.1696 11.2269 68.1284 11.1995C68.0872 11.1721 68.0551 11.1331 68.0361 11.0876C68.0172 11.042 68.0122 10.9919 68.0219 10.9436C68.0316 10.8952 68.0556 10.8508 68.0906 10.816C68.1379 10.7699 68.2014 10.7441 68.2676 10.7441C68.3338 10.7441 68.3973 10.7699 68.4446 10.816Z" fill="#263238"/>
<path d="M68.5158 11.8448C68.5099 11.9064 68.481 11.9637 68.4349 12.0053C68.3888 12.047 68.3288 12.0701 68.2665 12.0701C68.2042 12.0701 68.1441 12.047 68.098 12.0053C68.0519 11.9637 68.023 11.9064 68.0171 11.8448C68.0137 11.8102 68.0177 11.7753 68.0287 11.7423C68.0397 11.7094 68.0575 11.6791 68.081 11.6534C68.1045 11.6277 68.1331 11.6071 68.1651 11.5931C68.197 11.579 68.2315 11.5718 68.2665 11.5718C68.3014 11.5718 68.3359 11.579 68.3678 11.5931C68.3998 11.6071 68.4284 11.6277 68.4519 11.6534C68.4754 11.6791 68.4932 11.7094 68.5042 11.7423C68.5152 11.7753 68.5192 11.8102 68.5158 11.8448Z" fill="#263238"/>
<path d="M57.7455 11.1497H46.9935V12.0411H57.7455V11.1497Z" fill="#263238"/>
<path d="M56.5756 27.1428C56.5756 22.9782 52.1764 20.3405 47.6899 22.4274C46.6748 22.8989 45.8443 23.6903 45.3272 24.6788C44.1986 26.8525 44.6974 29.3348 45.7202 31.3965L49.2138 40.1988C49.3241 40.4793 49.5169 40.7201 49.767 40.8899C50.0172 41.0597 50.313 41.1506 50.6158 41.1506C50.9187 41.1506 51.2145 41.0597 51.4646 40.8899C51.7147 40.7201 51.9075 40.4793 52.0178 40.1988L55.4402 31.3508C56.6262 28.6536 56.5756 27.1428 56.5756 27.1428ZM52.3695 30.7771C49.354 32.5211 46.2971 29.2982 47.9496 26.1165C48.1674 25.6969 48.4996 25.3468 48.9081 25.1062C51.9259 23.3622 54.9828 26.5851 53.3279 29.7668C53.1111 30.187 52.7787 30.5374 52.3695 30.7771Z" fill="#26D8C0"/>
<path d="M148 58.9417H20.4791V77.5497H148V58.9417Z" fill="#26D8C0"/>
<g opacity="0.5">
<path opacity="0.5" d="M148 58.9417H20.4791V77.5497H148V58.9417Z" fill="black"/>
</g>
<path d="M38.4419 89.6241C45.2177 89.1706 50.341 83.3404 49.885 76.602C49.429 69.8636 43.5665 64.7687 36.7906 65.2221C30.0148 65.6756 24.8915 71.5058 25.3475 78.2442C25.8035 84.9826 31.666 90.0776 38.4419 89.6241Z" fill="#263238"/>
<path d="M25.3218 77.2161C25.3218 77.2275 25.3218 77.2389 25.3218 77.2481C25.2984 78.8539 25.5933 80.4487 26.1896 81.9412C26.786 83.4338 27.6721 84.7949 28.7974 85.9469C29.9227 87.0988 31.2651 88.0191 32.7481 88.6551C34.231 89.2912 35.8254 89.6305 37.4402 89.6538C39.055 89.677 40.6586 89.3838 42.1594 88.7907C43.6602 88.1977 45.0289 87.3164 46.1873 86.1974C47.3457 85.0783 48.2711 83.7433 48.9106 82.2685C49.5502 80.7938 49.8914 79.2082 49.9148 77.6024C49.9148 77.5909 49.9148 77.5795 49.9148 77.5703L25.3218 77.2161Z" fill="#263238"/>
<path d="M28.9832 77.3005C28.9579 78.9986 29.4396 80.6659 30.3672 82.0916C31.2949 83.5174 32.627 84.6375 34.1949 85.3103C35.7627 85.9831 37.4961 86.1784 39.1756 85.8714C40.8551 85.5644 42.4053 84.769 43.6302 83.5858C44.855 82.4025 45.6995 80.8846 46.0568 79.224C46.4141 77.5634 46.2682 75.8347 45.6374 74.2566C45.0067 72.6785 43.9195 71.3218 42.5133 70.3583C41.1072 69.3947 39.4453 68.8675 37.7378 68.8434C35.4494 68.811 33.2417 69.6837 31.6 71.2696C29.9583 72.8555 29.0171 75.0247 28.9832 77.3005Z" fill="#FAFAFA"/>
<path d="M37.7378 68.8412C35.4492 68.8083 33.2411 69.6807 31.5993 71.2668C29.9575 72.8528 29.0164 75.0224 28.9832 77.2984L46.2465 77.5475C46.2791 75.2709 45.4009 73.0747 43.8052 71.442C42.2096 69.8093 40.0271 68.8737 37.7378 68.8412Z" fill="#E0E0E0"/>
<path d="M32.3573 77.3486C32.3419 78.383 32.6354 79.3986 33.2005 80.2671C33.7657 81.1356 34.5772 81.8179 35.5323 82.2277C36.4875 82.6375 37.5434 82.7564 38.5664 82.5693C39.5895 82.3822 40.5338 81.8976 41.2799 81.1767C42.026 80.4559 42.5404 79.5311 42.7579 78.5195C42.9755 77.5079 42.8865 76.4549 42.5021 75.4936C42.1178 74.5323 41.4554 73.7059 40.5988 73.1191C39.7421 72.5322 38.7297 72.2112 37.6896 72.1966C36.9993 72.1866 36.3138 72.312 35.6722 72.5655C35.0306 72.819 34.4455 73.1958 33.9503 73.6742C33.4552 74.1526 33.0596 74.7233 32.7863 75.3538C32.5129 75.9843 32.3672 76.6621 32.3573 77.3486Z" fill="#263238"/>
<path d="M132.36 89.6198C139.14 89.2287 144.317 83.4459 143.924 76.7035C143.531 69.9612 137.716 64.8126 130.936 65.2037C124.156 65.5948 118.979 71.3776 119.372 78.1199C119.766 84.8622 125.58 90.0109 132.36 89.6198Z" fill="#263238"/>
<path d="M119.35 77.2161C119.35 77.2275 119.35 77.2389 119.35 77.2481C119.326 78.8539 119.621 80.4487 120.218 81.9412C120.814 83.4338 121.7 84.7949 122.825 85.9469C123.951 87.0988 125.293 88.0191 126.776 88.6551C128.259 89.2912 129.853 89.6305 131.468 89.6538C133.083 89.677 134.687 89.3838 136.187 88.7907C137.688 88.1977 139.057 87.3164 140.215 86.1974C141.374 85.0783 142.299 83.7433 142.939 82.2685C143.578 80.7938 143.919 79.2082 143.943 77.6024C143.943 77.5909 143.943 77.5795 143.943 77.5703L119.35 77.2161Z" fill="#263238"/>
<path d="M123.011 77.3005C122.986 78.9986 123.468 80.6659 124.395 82.0916C125.323 83.5174 126.655 84.6375 128.223 85.3103C129.791 85.9831 131.524 86.1784 133.204 85.8714C134.883 85.5644 136.433 84.769 137.658 83.5858C138.883 82.4025 139.728 80.8846 140.085 79.224C140.442 77.5634 140.296 75.8347 139.665 74.2566C139.035 72.6785 137.948 71.3218 136.541 70.3583C135.135 69.3947 133.473 68.8675 131.766 68.8434C129.477 68.811 127.27 69.6837 125.628 71.2696C123.986 72.8555 123.045 75.0247 123.011 77.3005Z" fill="#FAFAFA"/>
<path d="M131.766 68.8412C129.477 68.8083 127.269 69.6807 125.627 71.2668C123.986 72.8528 123.045 75.0224 123.011 77.2984L140.275 77.5475C140.307 75.2709 139.429 73.0747 137.833 71.442C136.238 69.8093 134.055 68.8737 131.766 68.8412Z" fill="#E0E0E0"/>
<path d="M126.378 77.3486C126.363 78.383 126.656 79.3986 127.222 80.2671C127.787 81.1356 128.598 81.8179 129.553 82.2277C130.509 82.6375 131.564 82.7564 132.588 82.5693C133.611 82.3822 134.555 81.8976 135.301 81.1767C136.047 80.4559 136.561 79.5311 136.779 78.5195C136.997 77.5079 136.908 76.4549 136.523 75.4936C136.139 74.5323 135.477 73.7059 134.62 73.1191C133.763 72.5322 132.751 72.2112 131.711 72.1966C131.02 72.1866 130.335 72.312 129.693 72.5655C129.052 72.819 128.467 73.1958 127.971 73.6742C127.476 74.1526 127.081 74.7233 126.807 75.3538C126.534 75.9843 126.388 76.6621 126.378 77.3486Z" fill="#263238"/>
<path d="M53.7325 48.4732C53.7325 48.4732 35.6256 49.8012 28.9096 51.2983C24.1795 52.352 15.0594 54.1738 15.1697 59.8789L15.8937 63.9703C15.8937 63.9703 12.5127 65.5063 12.5127 69.4286C12.5127 73.3509 11.6876 79.4309 19.585 79.6755C20.8859 79.7143 23.3567 79.6755 23.3567 79.6755C23.3567 79.6755 21.842 62.9486 37.2919 62.4595C53.0108 61.9612 51.9673 79.5223 51.9673 79.5223H117.571C117.571 79.5223 114.877 62.4138 131.798 62.3795C148.719 62.3452 146.145 79.6343 146.145 79.6343C146.145 79.6343 152.369 80.1692 155.265 74.9669C158.161 69.7646 157.409 66.0526 157.409 66.0526L157.313 62.7635C157.294 62.2237 157.071 61.711 156.687 61.3291C156.303 60.9472 155.787 60.7246 155.244 60.7063C155.244 60.7063 156.375 52.4275 154.64 50.9943C152.904 49.5612 143.396 40.9143 143.396 40.9143L143.856 40.6332C144.026 40.5261 144.162 40.3731 144.249 40.192C144.335 40.011 144.369 39.8092 144.345 39.6101C144.321 39.4111 144.24 39.2229 144.113 39.0674C143.986 38.9119 143.817 38.7954 143.626 38.7315C140.015 37.4972 132.876 35.0538 131.198 34.4709C130.947 34.3821 130.685 34.3267 130.419 34.3063C129.417 34.2309 126.581 34.0526 121.375 33.9978C115.033 33.9292 89.8566 33.9978 89.8566 33.9978C89.8566 33.9978 81.1916 34.7063 76.365 36.8183C71.3038 39.04 53.7325 48.4732 53.7325 48.4732Z" fill="#26D8C0"/>
<g opacity="0.4">
<path opacity="0.4" d="M17.105 68.9715C16.4476 68.8389 15.4409 68.8275 14.9399 69.2686C14.5675 69.5978 14.4687 70.1304 14.4135 70.6218C14.308 71.295 14.3235 71.9814 14.4595 72.6492C14.5288 72.9828 14.6667 73.2985 14.8645 73.5765C15.0622 73.8546 15.3156 74.0891 15.6087 74.2652C16.2109 74.5898 17.0337 74.5372 17.5003 74.0366C17.9278 73.5795 17.9761 72.8938 17.96 72.2835C17.9439 71.4012 18.0152 70.6538 17.852 69.7875C17.816 69.6036 17.7373 69.4306 17.6221 69.2824C17.5649 69.1936 17.4878 69.1192 17.3969 69.0649C17.306 69.0106 17.2038 68.9778 17.0981 68.9692" fill="black"/>
</g>
<path d="M15.8983 63.9704C17.8198 63.9704 19.6838 63.8652 21.603 63.7418C21.812 63.7509 22.018 63.6889 22.1868 63.5658C22.264 63.4703 22.3214 63.3605 22.3557 63.2429C22.39 63.1252 22.4006 63.0019 22.3867 62.8801C22.3867 61.8561 22.3454 60.6904 21.5639 60.023C21.0858 59.6161 20.4308 59.4881 19.8033 59.431C18.2451 59.2635 16.669 59.4192 15.1743 59.8881L15.8983 63.9704Z" fill="#FAFAFA"/>
<path d="M55.8171 78.9989C55.8171 78.9989 55.8171 78.9441 55.8033 78.8344C55.7896 78.7246 55.785 78.5624 55.7712 78.3544C55.7482 77.9292 55.7137 77.3098 55.67 76.5098C55.6264 75.7098 55.5712 74.7292 55.4563 73.5955C55.3376 72.3118 55.1108 71.0403 54.7783 69.7944C54.3587 68.2893 53.7363 66.8477 52.928 65.5086C52.0125 63.9624 50.7959 62.6134 49.3494 61.5406C46.2488 59.3464 42.0588 58.1121 37.6758 58.0526C33.2927 57.9932 29.1004 59.3715 26.0757 61.6824C24.6258 62.7491 23.3558 64.0383 22.3132 65.5018C21.4028 66.7724 20.6627 68.1555 20.1113 69.6161C19.6565 70.8233 19.3441 72.0789 19.1804 73.3578C19.0523 74.3221 19.0146 75.2962 19.0678 76.2675C19.1055 76.8812 19.1823 77.492 19.2977 78.0961C19.3344 78.2995 19.3643 78.4572 19.3827 78.5669C19.4011 78.6767 19.408 78.7292 19.408 78.7292C19.408 78.7292 19.3942 78.6767 19.3712 78.5715L19.2724 78.1144C19.1473 77.5113 19.0643 76.9003 19.0242 76.2858C18.9617 75.3114 18.9924 74.3333 19.1161 73.3646C19.2745 72.0793 19.583 70.8167 20.0355 69.6024C20.5849 68.1302 21.3251 66.7355 22.2373 65.4538C23.2823 63.9785 24.558 62.679 26.0159 61.6046C29.0544 59.2824 33.2559 57.8904 37.6735 57.9475C42.091 58.0046 46.2879 59.2504 49.4138 61.4652C50.8689 62.5486 52.0918 63.9101 53.0108 65.4698C53.8183 66.8192 54.4369 68.2718 54.8495 69.7875C55.1802 71.0387 55.4024 72.3157 55.5137 73.6046C55.6218 74.7475 55.67 75.7212 55.7068 76.5212C55.7436 77.3212 55.7689 77.9429 55.7873 78.3681C55.7873 78.5761 55.8011 78.7361 55.8056 78.8481C55.8102 78.9601 55.8171 78.9989 55.8171 78.9989Z" fill="white"/>
<path d="M56.5067 79.2824V79.1453L56.4929 78.7407C56.4814 78.3796 56.4653 77.8516 56.4423 77.1613C56.4032 75.7738 56.3458 73.7464 56.2722 71.1659C56.1987 68.5853 56.1136 65.4516 56.0148 61.863C55.9895 60.9647 55.9665 60.0344 55.939 59.0859C55.9228 58.6011 55.9443 58.1159 56.0033 57.6344L56.1067 56.8984L56.2584 56.1601C56.4964 55.1515 56.8392 54.1703 57.2812 53.2321C57.7364 52.2488 58.2991 51.3182 58.9591 50.4573L70.3201 43.3396L73.3885 41.4196C74.4227 40.7361 75.5085 40.1332 76.6362 39.6161C77.7893 39.0761 78.9726 38.6022 80.1803 38.1967C80.7825 37.9864 81.4008 37.815 82.019 37.6321C82.6373 37.4493 83.2671 37.2984 83.906 37.175C86.3154 36.6624 88.7645 36.3565 91.2265 36.2607C93.5889 36.1481 95.9555 36.1558 98.3171 36.2836H98.3837L98.3676 36.3499L95.3154 49.9293C94.7515 50.8501 94.2891 51.8287 93.9363 52.8481C93.5891 53.815 93.433 54.8395 93.4766 55.8653C93.5548 56.8687 93.5824 57.8516 93.6076 58.8047C93.6329 59.7579 93.6444 60.6813 93.6628 61.5796C93.7157 65.1681 93.7295 68.2973 93.7386 70.8756C93.7478 73.4538 93.7386 75.4813 93.7386 76.8664C93.7386 77.5521 93.7386 78.0847 93.7386 78.4459C93.7386 78.6219 93.7386 78.7567 93.7386 78.8504C93.7386 78.9441 93.7386 78.9876 93.7386 78.9876C93.7386 78.9876 93.7386 78.9396 93.7386 78.8504C93.7386 78.7613 93.7386 78.6219 93.7386 78.4459C93.7386 78.0847 93.7386 77.5567 93.7386 76.8664C93.7386 75.4813 93.718 73.4538 93.7019 70.8778C93.6858 68.3019 93.6628 65.1636 93.6007 61.5796C93.5824 60.6836 93.5624 59.7594 93.541 58.807C93.5134 57.8539 93.4858 56.8756 93.4054 55.8721C93.3587 54.8335 93.5148 53.7957 93.8651 52.8161C94.2155 51.7885 94.6779 50.802 95.2441 49.8744V49.8904C96.1796 45.7099 97.2024 41.1476 98.2849 36.3087L98.3378 36.3773C95.9815 36.251 93.6202 36.2449 91.2633 36.359C88.8073 36.4535 86.3641 36.7595 83.9612 37.2733C83.3245 37.399 82.704 37.575 82.0811 37.7304C81.4582 37.8859 80.8491 38.0847 80.2424 38.2927C79.0346 38.6988 77.8513 39.1735 76.6982 39.7144C75.5762 40.2281 74.4958 40.8272 73.4667 41.5064L70.396 43.4264L59.0349 50.5281V50.5167C58.3762 51.3719 57.815 52.2972 57.3617 53.2756C56.9202 54.2065 56.5781 55.181 56.3412 56.183C55.824 58.1419 56.0838 60.0687 56.0884 61.863L56.3182 71.1659C56.3803 73.7441 56.4285 75.7739 56.4607 77.159C56.4768 77.8447 56.486 78.3796 56.4952 78.7407C56.4952 78.9159 56.4952 79.0508 56.4952 79.1453C56.5067 79.2367 56.5067 79.2824 56.5067 79.2824Z" fill="#263238"/>
<path d="M98.2344 36.6605H98.3424L98.6573 36.6491L99.8777 36.6194L104.403 36.5325L119.66 36.272H119.69L119.708 36.2948L121.846 38.8983C124.011 41.5428 126.075 44.0571 127.951 46.3428L128.64 47.1885C128.863 47.472 129.055 47.7785 129.212 48.1028C129.497 48.7043 129.652 49.3584 129.666 50.023C129.681 50.6876 129.555 51.3479 129.297 51.9611L128.608 53.5611L126.498 58.416L125.919 59.7325L125.765 60.0754C125.73 60.1508 125.71 60.1897 125.71 60.1897C125.71 60.1897 125.723 60.1486 125.753 60.0708C125.783 59.9931 125.836 59.872 125.896 59.7234C126.027 59.4171 126.213 58.9691 126.454 58.3977L128.523 53.5291C128.918 52.496 129.615 51.408 129.566 50.0823C129.556 49.4085 129.399 48.7449 129.107 48.1371C128.953 47.8215 128.765 47.5233 128.546 47.248L127.856 46.4023L121.745 38.9645L119.61 36.3611L119.656 36.384L104.396 36.6125L99.8709 36.6651H98.6504H98.3378L98.2344 36.6605Z" fill="#263238"/>
<path d="M90.5232 56.839C90.5232 56.839 90.5875 56.839 90.7047 56.8115C90.8772 56.7811 91.0414 56.7157 91.1874 56.6195C91.419 56.4693 91.5924 56.2452 91.6793 55.9841C91.7319 55.8219 91.7538 55.6514 91.7436 55.4813C91.7382 55.2915 91.6895 55.1055 91.6011 54.9373C91.4984 54.7458 91.3459 54.5852 91.1595 54.4722C90.9732 54.3592 90.7598 54.298 90.5415 54.295H88.9924H85.4414C85.1415 54.2954 84.8527 54.408 84.6323 54.6104C84.4173 54.8051 84.2801 55.0705 84.2462 55.3578C84.2113 55.6354 84.2627 55.9169 84.3933 56.1647C84.5266 56.3973 84.7335 56.5797 84.9817 56.6835C85.2275 56.7674 85.4882 56.7993 85.7471 56.7773H86.4986H87.8501L89.8061 56.7955L90.337 56.807C90.3993 56.8057 90.4617 56.8103 90.5232 56.8207C90.4614 56.8279 90.3992 56.8317 90.337 56.8321H89.8061L87.8501 56.8504H86.4986H85.7471C85.6161 56.8504 85.4896 56.8504 85.3494 56.8504C85.2088 56.8418 85.0706 56.8102 84.9403 56.7567C84.6678 56.6453 84.4405 56.4466 84.2945 56.1921C84.1486 55.9247 84.0915 55.6183 84.1313 55.3167C84.1674 54.996 84.3209 54.6998 84.5625 54.4844C84.8041 54.269 85.1169 54.1495 85.4414 54.1487H88.9924H90.5438C90.7784 54.1536 91.0073 54.2214 91.2063 54.3449C91.4053 54.4684 91.5671 54.643 91.6747 54.8504C91.7667 55.0305 91.8162 55.229 91.8195 55.431C91.8269 55.6094 91.8012 55.7876 91.7436 55.9567C91.6465 56.2282 91.4592 56.4588 91.2127 56.6104C91.0606 56.7065 90.8884 56.7667 90.7093 56.7864C90.6496 56.8112 90.5871 56.8289 90.5232 56.839Z" fill="#263238"/>
<path d="M124.54 56.839C124.54 56.839 124.604 56.839 124.721 56.8115C124.894 56.7811 125.058 56.7157 125.204 56.6195C125.436 56.4693 125.609 56.2452 125.696 55.9841C125.749 55.8219 125.77 55.6514 125.76 55.4813C125.755 55.2915 125.706 55.1055 125.618 54.9373C125.515 54.7458 125.362 54.5852 125.176 54.4722C124.99 54.3592 124.776 54.298 124.558 54.295H123.009H119.458C119.158 54.2954 118.869 54.408 118.649 54.6104C118.434 54.8051 118.297 55.0705 118.263 55.3578C118.228 55.6354 118.279 55.9169 118.41 56.1647C118.543 56.3973 118.75 56.5797 118.998 56.6835C119.244 56.7674 119.505 56.7993 119.764 56.7773H120.515H121.867L123.823 56.7955L124.354 56.807C124.416 56.8057 124.478 56.8103 124.54 56.8207C124.478 56.8279 124.416 56.8317 124.354 56.8321H123.823L121.867 56.8504H120.515H119.764C119.633 56.8504 119.506 56.8504 119.366 56.8504C119.225 56.8418 119.087 56.8102 118.957 56.7567C118.684 56.6453 118.457 56.4466 118.311 56.1921C118.165 55.9247 118.108 55.6183 118.148 55.3167C118.184 54.996 118.337 54.6998 118.579 54.4844C118.821 54.269 119.133 54.1495 119.458 54.1487H123.009H124.56C124.795 54.1536 125.024 54.2214 125.223 54.3449C125.422 54.4684 125.584 54.643 125.691 54.8504C125.783 55.0305 125.833 55.229 125.836 55.431C125.843 55.6094 125.818 55.7876 125.76 55.9567C125.663 56.2282 125.476 56.4588 125.229 56.6104C125.077 56.7065 124.905 56.7667 124.726 56.7864C124.666 56.8112 124.604 56.8289 124.54 56.839Z" fill="#263238"/>
<path d="M154.348 51.3213H147.544C147.087 51.3212 146.638 51.4452 146.247 51.6801C145.855 51.9149 145.535 52.2516 145.322 52.6539C145.147 52.9867 145.049 53.3546 145.036 53.7301C145.023 54.1056 145.096 54.4792 145.248 54.823L147.915 60.8504L154.727 60.7841C154.727 60.7841 156.177 53.143 154.348 51.3213Z" fill="#FAFAFA"/>
<path d="M59.8624 50.4685L94.966 49.824L117.812 49.408L125.346 45.0811C125.49 44.9982 125.614 44.8859 125.71 44.7518C125.806 44.6176 125.873 44.4647 125.905 44.303C125.938 44.1414 125.935 43.9747 125.898 43.8141C125.86 43.6535 125.789 43.5026 125.689 43.3714L120.998 37.2434C120.757 36.9279 120.446 36.6715 120.09 36.494C119.734 36.3165 119.342 36.2225 118.943 36.2194L93.3893 36.0137C93.3893 36.0137 83.7682 35.456 76.1857 39.6708C68.2125 44.1211 59.8624 50.4685 59.8624 50.4685Z" fill="#263238"/>
<path d="M75.949 36.647C75.949 36.647 77.7095 37.4447 76.5649 38.183C75.4203 38.9213 57.6352 50.0687 57.6352 50.0687L53.5463 48.2287C60.7886 44.2218 68.1022 40.3247 75.949 36.647Z" fill="#455A64"/>
<path d="M58.2098 50.3521L58.0995 50.3795L57.7754 50.4503L56.5274 50.7063C55.4425 50.9212 53.8704 51.2229 51.9305 51.5566C48.0232 52.224 42.6174 53.0012 36.6024 53.5178C35.097 53.648 33.6145 53.7463 32.2079 53.8469C30.8012 53.9475 29.4176 54.0275 28.1167 54.144C25.5126 54.3726 23.182 54.7475 21.2881 55.3075C19.7828 55.7237 18.334 56.3209 16.974 57.0858C16.4844 57.3418 16.1351 57.5932 15.8891 57.744L15.6087 57.92L15.5099 57.9772C15.5394 57.9535 15.5701 57.9314 15.6018 57.9109L15.8753 57.7235C16.119 57.5658 16.4637 57.3075 16.951 57.0378C18.3028 56.252 19.7483 55.6377 21.2536 55.2092C23.1521 54.6355 25.4896 54.2492 28.096 54.0183C29.3992 53.8949 30.769 53.808 32.1895 53.7143C33.6099 53.6206 35.0786 53.5109 36.5817 53.3806C42.5944 52.864 48.0071 52.1006 51.9076 51.4538C53.8589 51.1315 55.431 50.8435 56.5182 50.6423L57.7708 50.4138L58.0972 50.3543L58.2098 50.3521Z" fill="#263238"/>
<path d="M157.067 65.984C157.067 66.0183 154.727 66.0434 151.843 66.0434C148.958 66.0434 146.616 66.0183 146.616 65.984C146.616 65.9497 148.956 65.9246 151.843 65.9246C154.729 65.9246 157.067 65.952 157.067 65.984Z" fill="#263238"/>
<path d="M114.263 71.9222C114.263 71.9565 101.057 71.9817 84.768 71.9817C68.4791 71.9817 55.2701 71.9565 55.2701 71.9222C55.2701 71.8879 68.4745 71.8628 84.768 71.8628C101.061 71.8628 114.263 71.8902 114.263 71.9222Z" fill="#263238"/>
<path d="M21.8006 66.1808C21.8006 66.2151 19.932 66.2402 17.629 66.2402C15.326 66.2402 13.4574 66.2151 13.4574 66.1808C13.4574 66.1465 15.326 66.1213 17.629 66.1213C19.932 66.1213 21.8006 66.1488 21.8006 66.1808Z" fill="#263238"/>
<path d="M143.219 40.6768C143.219 40.6768 141.651 42.4208 142.267 43.7008C142.883 44.9808 149.252 49.4653 149.252 49.4653L153.874 50.327L143.219 40.6768Z" fill="#455A64"/>
<path d="M99.2733 37.552L98.2344 48.7154L116.833 48.1874L124.328 43.8537L119.476 37.552H99.2733Z" fill="#455A64"/>
<path d="M64.2661 49.2869C64.2661 49.2869 75.487 41.2275 79.9137 39.6252C84.1864 38.08 86.4136 37.6915 90.4266 37.568C94.2627 37.4583 96.6002 37.568 96.6002 37.568L93.6352 48.9166L64.2661 49.2869Z" fill="#455A64"/>
<path d="M62.6251 49.3142C62.6252 48.9671 62.7181 48.6264 62.8942 48.3268C63.0703 48.0272 63.3232 47.7795 63.6272 47.609L66.206 46.169C66.9406 45.7578 67.7695 45.5421 68.6124 45.5427C69.1315 45.5434 69.6473 45.6252 70.1409 45.785C70.6782 45.9699 71.146 46.3133 71.482 46.7695C71.8179 47.2257 72.0059 47.7729 72.021 48.3382C72.0355 48.7178 71.9728 49.0965 71.8367 49.4514C71.7006 49.8064 71.4938 50.1304 71.2288 50.404C70.9637 50.6776 70.6459 50.8952 70.2942 51.0438C69.9426 51.1923 69.5645 51.2687 69.1824 51.2684H64.5856C64.0652 51.2672 63.5666 51.0608 63.199 50.6944C62.8315 50.3281 62.6251 49.8317 62.6251 49.3142Z" fill="#26D8C0"/>
<path d="M62.6251 49.3144C62.6251 49.3144 62.6251 49.4013 62.6549 49.5613C62.6896 49.7966 62.7675 50.0236 62.8848 50.231C63.0705 50.5575 63.3444 50.8259 63.6754 51.0058C63.8819 51.1133 64.1061 51.183 64.3374 51.2115C64.6012 51.2309 64.8659 51.2363 65.1303 51.2275L69.0629 51.2138C69.4356 51.2237 69.8069 51.1632 70.157 51.0355C70.5264 50.8981 70.8623 50.6845 71.1428 50.4088C71.4233 50.133 71.6419 49.8013 71.7842 49.4355C71.929 49.0497 71.9878 48.6371 71.9566 48.2264C71.9258 47.8216 71.8059 47.4286 71.6053 47.075C71.4047 46.7215 71.1284 46.4162 70.7959 46.1807C70.475 45.9601 70.1133 45.8047 69.7318 45.7235C68.6836 45.4771 67.583 45.5823 66.6013 46.023C66.3048 46.1556 66.0336 46.3224 65.7647 46.4664L64.997 46.8915L63.6754 47.6184C63.3429 47.7964 63.0686 48.0653 62.8848 48.3933C62.7688 48.6012 62.691 48.8279 62.6549 49.063C62.632 49.223 62.6343 49.3098 62.6274 49.3098C62.6187 49.2262 62.6187 49.142 62.6274 49.0584C62.6532 48.8185 62.725 48.5857 62.8388 48.3727C63.0195 48.0313 63.2967 47.75 63.6364 47.5635L64.9488 46.8207L65.7118 46.3887C65.9784 46.2424 66.2497 46.0733 66.553 45.9315C67.5531 45.4737 68.6784 45.361 69.7501 45.6116C70.1454 45.6897 70.5212 45.8451 70.8557 46.0687C71.2032 46.3135 71.4921 46.6316 71.7019 47.0002C71.9117 47.3688 72.0371 47.7789 72.0692 48.2013C72.1029 48.6298 72.0417 49.0605 71.89 49.463C71.7416 49.8451 71.5132 50.1915 71.22 50.4792C70.9268 50.7668 70.5754 50.9892 70.1891 51.1315C69.8261 51.2616 69.4418 51.3228 69.056 51.3121L65.1234 51.3007C64.8558 51.3064 64.588 51.298 64.3213 51.2755C64.0793 51.2421 63.8455 51.1646 63.6318 51.047C63.2931 50.8586 63.0156 50.5778 62.8319 50.2378C62.7196 50.0243 62.6486 49.7917 62.6228 49.5521C62.6172 49.4729 62.6179 49.3935 62.6251 49.3144Z" fill="#263238"/>
<path d="M149.073 79.1018C149.073 79.1018 149.073 79.0492 149.073 78.9441C149.073 78.839 149.091 78.6812 149.105 78.487C149.119 78.2927 149.142 78.0298 149.156 77.7327C149.169 77.4355 149.179 77.0881 149.19 76.7018C149.202 76.3155 149.19 75.8812 149.19 75.4104C149.19 74.9395 149.156 74.4252 149.091 73.8767C148.987 72.6334 148.764 71.4028 148.427 70.2012C148.228 69.5003 147.983 68.8131 147.694 68.1441C147.386 67.4213 147.016 66.7269 146.586 66.0687C145.628 64.6176 144.41 63.3546 142.991 62.343C141.43 61.2158 139.688 60.3609 137.838 59.815C135.921 59.2321 133.834 59.0195 131.711 59.0035C129.639 58.9847 127.577 59.283 125.597 59.8881C124.659 60.1827 123.749 60.5566 122.876 61.0058C122.043 61.4458 121.252 61.9599 120.513 62.5418C119.138 63.6123 117.914 64.8607 116.872 66.2538C116.414 66.8932 116.01 67.569 115.663 68.2744C115.347 68.9282 115.068 69.599 114.827 70.2835C114.092 72.3466 113.645 74.4999 113.498 76.6835C113.461 77.4584 113.466 78.055 113.487 78.471C113.498 78.6721 113.507 78.8252 113.512 78.9281C113.517 79.031 113.512 79.0858 113.512 79.0858C113.512 79.0858 113.512 79.0332 113.494 78.9281C113.475 78.823 113.471 78.6652 113.454 78.471C113.424 77.8748 113.424 77.2774 113.454 76.6812C113.582 74.4854 114.017 72.3181 114.748 70.2424C114.99 69.5548 115.268 68.8803 115.58 68.2218C115.93 67.5112 116.336 66.8294 116.794 66.183C117.839 64.7809 119.067 63.5234 120.446 62.4435C121.19 61.8571 121.985 61.3384 122.823 60.8938C123.702 60.441 124.619 60.064 125.562 59.767C127.554 59.1547 129.629 58.8533 131.713 58.8732C133.846 58.8892 135.942 59.1018 137.875 59.6915C139.737 60.2426 141.49 61.1053 143.06 62.2424C143.787 62.7746 144.467 63.3681 145.092 64.0161C145.686 64.6241 146.215 65.2912 146.671 66.007C147.102 66.6712 147.474 67.3718 147.781 68.1007C148.07 68.7694 148.314 69.4567 148.51 70.1578C148.845 71.3655 149.063 72.6024 149.16 73.8515C149.222 74.4001 149.222 74.9144 149.248 75.3875C149.273 75.8607 149.248 76.3018 149.248 76.6812C149.248 77.0607 149.213 77.415 149.199 77.7144C149.186 78.0138 149.156 78.263 149.137 78.4687C149.119 78.6744 149.105 78.823 149.096 78.9258C149.087 79.0287 149.073 79.1018 149.073 79.1018Z" fill="white"/>
<path d="M93.1434 50.4685H93.0905H92.9342L92.3343 50.4822L90.1302 50.5211C88.2684 50.5554 85.6988 50.6239 82.858 50.7017C80.0171 50.7794 77.4452 50.8319 75.5835 50.8457C74.6527 50.8457 73.8988 50.8457 73.377 50.8457H72.7771H72.6232C72.6049 50.8491 72.5862 50.8491 72.568 50.8457C72.5863 50.8427 72.6049 50.8427 72.6232 50.8457H72.7771L73.377 50.8319L75.5812 50.7931C77.4429 50.7588 80.0148 50.6902 82.8557 50.6148C85.6965 50.5394 88.2684 50.4822 90.1302 50.4685C91.0495 50.4685 91.8149 50.4685 92.3343 50.4685H92.9342H93.0905H93.1434Z" fill="white"/>
<path d="M90.0957 53.904C89.4264 53.9642 88.754 53.984 88.0823 53.9634C87.4105 53.984 86.7382 53.9642 86.0688 53.904C86.7382 53.8451 87.4105 53.8253 88.0823 53.8445C88.754 53.8253 89.4263 53.8451 90.0957 53.904Z" fill="white"/>
<path d="M90.8357 41.6733C90.8472 41.703 88.3489 42.7384 85.2529 43.9841C82.1569 45.2298 79.6379 46.2173 79.6241 46.1853C79.6103 46.1533 82.111 45.1201 85.2069 43.8744C88.3029 42.6287 90.8219 41.6435 90.8357 41.6733Z" fill="white"/>
<path d="M85.7701 42.4572C85.7839 42.4892 83.4027 43.5314 80.4539 44.7863C77.505 46.0412 75.1055 47.0354 75.0917 47.0057C75.0779 46.976 77.459 45.9337 80.4079 44.6766C83.3568 43.4194 85.7563 42.4229 85.7701 42.4572Z" fill="white"/>
<path d="M117.893 41.2412C117.906 41.2709 115.406 42.3064 112.31 43.5521C109.214 44.7978 106.695 45.783 106.681 45.7532C106.667 45.7235 109.168 44.6881 112.266 43.4424C115.364 42.1967 117.874 41.2092 117.893 41.2412Z" fill="white"/>
<path d="M112.818 42.0206C112.832 42.0526 110.45 43.0949 107.504 44.3497C104.557 45.6046 102.153 46.5989 102.139 46.5692C102.126 46.5394 104.507 45.4972 107.456 44.24C110.404 42.9829 112.818 42 112.818 42.0206Z" fill="white"/>
<path d="M118.382 50.4572C118.382 50.4892 113.411 50.5463 107.279 50.5829C101.146 50.6195 96.175 50.6218 96.175 50.5829C96.175 50.5441 101.144 50.4938 107.279 50.4595C113.413 50.4252 118.382 50.4321 118.382 50.4572Z" fill="white"/>
<path d="M123.887 53.7144C123.887 53.7464 122.494 53.7853 120.773 53.8013C119.051 53.8173 117.658 53.8013 117.658 53.7716C117.658 53.7419 119.051 53.6984 120.773 53.6824C122.494 53.6664 123.887 53.6802 123.887 53.7144Z" fill="white"/>
<path d="M28.6959 52.0229C28.652 52.0377 28.6065 52.0469 28.5603 52.0504L28.1718 52.1007C28.0018 52.1189 27.7949 52.1441 27.5559 52.1852C27.3168 52.2264 27.0433 52.2561 26.7445 52.3155C26.1446 52.4207 25.4344 52.5761 24.6576 52.7727C23.816 53.0036 22.9868 53.2767 22.173 53.5909C21.3088 53.9315 20.5066 54.3041 19.7895 54.6721C19.0724 55.0401 18.4519 55.4104 17.9508 55.7418C17.6911 55.8995 17.4658 56.0595 17.2613 56.1989C17.0567 56.3384 16.8889 56.4527 16.751 56.5532L16.4316 56.7818C16.395 56.8099 16.3557 56.8344 16.3143 56.8549C16.3448 56.8211 16.3787 56.7904 16.4155 56.7635L16.7235 56.5189C16.8568 56.4138 17.0222 56.2904 17.2222 56.1464C17.4222 56.0024 17.6405 55.8424 17.9117 55.6892C18.4174 55.3487 19.0425 54.9761 19.7505 54.5944C21.3003 53.7704 22.9418 53.1299 24.6415 52.6858C25.4229 52.4847 26.1377 52.3361 26.7422 52.2424C27.0433 52.1875 27.3168 52.1601 27.5582 52.1281C27.7995 52.0961 28.0179 52.0755 28.1764 52.0641L28.5695 52.0344C28.6113 52.0276 28.6535 52.0238 28.6959 52.0229Z" fill="white"/>
<path d="M69.7409 46.6309C69.7409 46.6309 69.6743 46.5417 69.5111 46.4183C69.2907 46.2504 69.0285 46.1454 68.7526 46.1143C68.3389 46.08 67.9224 46.1242 67.5253 46.2446C66.1258 46.5951 64.8259 47.2606 63.726 48.1897C63.179 48.6469 62.8894 48.9829 62.8733 48.9669C62.9289 48.8796 62.9936 48.7984 63.0664 48.7246C63.2564 48.5146 63.4574 48.3147 63.6685 48.1257C64.3707 47.5038 65.1683 46.9976 66.0313 46.6263C66.505 46.4201 66.9966 46.2571 67.5 46.1394C67.9101 46.0208 68.3396 45.9835 68.7641 46.0297C69.0525 46.069 69.3228 46.1923 69.541 46.384C69.599 46.4357 69.6507 46.494 69.695 46.5577C69.7317 46.6034 69.7455 46.6286 69.7409 46.6309Z" fill="white"/>
<path d="M143.741 40.5944C143.42 40.6714 143.091 40.7052 142.762 40.6949C142.375 40.6834 141.99 40.636 141.612 40.5532C141.114 40.4366 140.624 40.2838 140.148 40.0961C139.617 39.8972 139.052 39.6389 138.441 39.3852L137.487 39.0035C137.158 38.8732 136.811 38.7612 136.462 38.6332C134.927 38.1166 133.363 37.6929 131.777 37.3646C128.895 36.7679 125.967 36.407 123.025 36.2858C122.46 36.2561 121.949 36.2561 121.499 36.2446H120.35L119.623 36.2606H119.368C119.39 36.2566 119.411 36.2566 119.433 36.2606L119.621 36.2469L120.35 36.2081L121.499 36.1875C121.959 36.1875 122.46 36.1875 123.025 36.2149C125.975 36.3107 128.912 36.6625 131.8 37.2664C133.39 37.591 134.956 38.0155 136.491 38.5372C136.841 38.6652 137.181 38.7795 137.519 38.9121L138.473 39.3029C139.084 39.5658 139.647 39.8218 140.174 40.0252C140.643 40.2135 141.126 40.3663 141.619 40.4824C141.992 40.5711 142.372 40.6247 142.755 40.6424C142.996 40.6506 143.238 40.6422 143.479 40.6172L143.665 40.5944H143.741Z" fill="#263238"/>
<path d="M33.157 40.9098C32.2377 35.9087 31.6194 35.1407 31.1 33.4196C30.5805 31.6984 29.7554 30.5807 28.728 30.1853C28.0385 29.9201 24.5748 28.679 23.3704 29.0904C22.1921 29.507 21.0703 30.0675 20.0308 30.759C19.2241 31.2911 18.6128 32.0691 18.2886 32.9761L16.4499 38.135L19.6861 41.335L21.3087 37.9064L23.0693 42.0207L22.8096 46.1693L32.9065 48.871C33.8167 47.4081 33.6788 43.7464 33.157 40.9098Z" fill="#26D8C0"/>
<g opacity="0.2">
<path opacity="0.2" d="M30.5346 35.4536C30.0887 38.057 30.0175 38.425 29.5716 41.0193C29.4176 41.913 28.9694 43.305 28.3304 43.9542C27.857 44.4319 27.3927 44.8913 26.733 45.0468C26.1217 45.1908 25.1908 45.2068 24.6162 44.9553C24.0416 44.7039 23.5497 43.5839 23.7865 43.0102C24.6438 43.193 24.9081 43.4673 25.6459 43.0102C26.2894 42.6033 27.2042 41.7028 27.5536 41.0285C29.0268 38.1942 29.4337 38.0936 30.5415 35.4536" fill="black"/>
</g>
<path d="M23.2187 40.4984C23.0554 40.2796 22.9065 40.0505 22.7728 39.8126L21.7339 38.1144L20.6675 36.4435C20.5085 36.2187 20.3649 35.9835 20.2377 35.7395C20.293 35.7895 20.3416 35.8464 20.3825 35.9086C20.4698 36.0206 20.5916 36.1875 20.7364 36.3955C21.0306 36.8115 21.4259 37.3944 21.8351 38.0504C22.2442 38.7064 22.6004 39.3144 22.8464 39.7601C22.9705 39.9886 23.0762 40.1624 23.1314 40.2904C23.1712 40.3547 23.2007 40.4249 23.2187 40.4984Z" fill="#263238"/>
<path d="M30.2657 45.168C30.1925 45.2059 30.1154 45.2358 30.0358 45.2572C29.9416 45.2885 29.8457 45.3145 29.7485 45.3349C29.6215 45.3691 29.4926 45.3959 29.3624 45.4149C29.0255 45.4745 28.6841 45.5059 28.3419 45.5086C27.922 45.5093 27.5028 45.4734 27.0893 45.4012C26.6761 45.3238 26.2707 45.2098 25.878 45.0606C25.5602 44.9372 25.2528 44.7889 24.9586 44.6172C24.8299 44.5463 24.7288 44.4686 24.6277 44.4069C24.544 44.3528 24.4634 44.294 24.3863 44.2309C24.3163 44.1831 24.2522 44.1271 24.1956 44.064C24.2093 44.0458 24.4944 44.2675 25 44.544C25.2964 44.703 25.6036 44.8412 25.9194 44.9578C26.6953 45.2454 27.5161 45.3947 28.3442 45.3989C28.6816 45.3993 29.0187 45.3771 29.3532 45.3326C29.914 45.2526 30.2588 45.1452 30.2657 45.168Z" fill="#263238"/>
<path d="M26.2135 37.3761C26.1951 37.4652 25.1103 39.6138 25.1103 39.6138L19.9894 36.9303L19.4677 34.7361C19.3816 34.3837 19.1587 34.0796 18.8477 33.8903C18.5367 33.7009 18.1629 33.6418 17.8082 33.7258L16.2982 34.3406C16.2359 34.3648 16.1806 34.404 16.1373 34.4547C16.094 34.5053 16.064 34.5659 16.0499 34.6309C16.0293 34.7406 16.0499 34.8595 16.2499 34.8343C16.6245 34.8046 17.3991 34.7223 17.3991 34.7223L17.0429 35.9726C16.9488 36.3003 16.985 36.6514 17.144 36.9532L17.3738 37.3852L17.8726 38.1875H17.8611C17.8611 38.1875 22.8395 43.2732 25.6343 43.6046C27.3145 43.8035 29.2176 39.1201 29.2176 39.1201L26.2135 37.3761Z" fill="#B78876"/>
<path d="M17.3624 34.8067C17.3624 34.8067 17.4014 34.7542 17.4865 34.697C17.6004 34.6182 17.7361 34.5766 17.8749 34.5782C17.9474 34.5822 18.0174 34.6056 18.0776 34.6458C18.1379 34.686 18.1862 34.7416 18.2174 34.8067C18.2656 34.9096 18.2335 34.9782 18.2174 34.9736C18.2013 34.969 18.2174 34.9096 18.1622 34.8319C18.1283 34.7825 18.0836 34.7415 18.0315 34.7118C17.9793 34.6821 17.9211 34.6645 17.8611 34.6605C17.7367 34.6622 17.6146 34.6936 17.5049 34.7519C17.4336 34.7862 17.3693 34.8159 17.3624 34.8067Z" fill="#AA6550"/>
<path d="M18.0082 35.5863C18.0082 35.5863 17.9737 35.5452 17.9255 35.4835C17.8638 35.4047 17.782 35.3439 17.6886 35.3073C17.5952 35.2707 17.4937 35.2597 17.3945 35.2755C17.3164 35.2755 17.2681 35.3029 17.2635 35.2938C17.2589 35.2846 17.3003 35.2503 17.383 35.2229C17.4924 35.1912 17.6093 35.1964 17.7153 35.2377C17.8214 35.2791 17.9106 35.3543 17.9691 35.4515C18.0105 35.5292 18.0151 35.5841 18.0082 35.5863Z" fill="#AA6550"/>
<path d="M27.2754 30.5943L25.8964 37.1291L29.5738 39.3257L30.9851 35.3097C30.9851 35.3097 30.3921 30.432 27.2754 30.5943Z" fill="#26D8C0"/>
<path d="M29.2567 30.7087C29.2567 30.7087 29.2268 30.7339 29.1625 30.7682C29.0981 30.8025 29.0062 30.8527 28.8844 30.9145C28.6407 31.0379 28.2822 31.2116 27.834 31.4105C26.6688 31.9401 25.442 32.324 24.1818 32.5533C22.9136 32.7787 21.6119 32.7351 20.3618 32.4253C19.9877 32.3276 19.6231 32.1968 19.2724 32.0345C19.146 31.9819 19.0425 31.9247 18.9897 31.8927C18.9567 31.8764 18.9252 31.8573 18.8954 31.8356C19.03 31.8809 19.162 31.9335 19.2908 31.9933C19.648 32.1368 20.0152 32.2544 20.3894 32.3453C21.63 32.6277 22.9151 32.6588 24.168 32.4367C25.4198 32.2076 26.6413 31.8372 27.8087 31.3327C28.2684 31.1453 28.62 30.983 28.8706 30.8756C28.9954 30.8115 29.1244 30.7558 29.2567 30.7087Z" fill="#EBEBEB"/>
<path d="M30.2243 31.4309C30.1928 31.4592 30.1581 31.4838 30.1209 31.5041L29.8175 31.6983C29.6571 31.8028 29.4914 31.8989 29.321 31.9863C29.1234 32.0892 28.9027 32.2149 28.643 32.3292L28.2431 32.5121C28.1029 32.5761 27.9512 32.6286 27.7972 32.6903C27.4915 32.8161 27.1513 32.9189 26.7974 33.0332C25.2455 33.4987 23.6235 33.6898 22.0052 33.5978C21.6328 33.5681 21.2789 33.5475 20.9525 33.4949C20.787 33.4698 20.6284 33.4538 20.4767 33.4263L20.0423 33.3395C19.7665 33.2915 19.5206 33.2183 19.3045 33.1635C19.1187 33.1189 18.9354 33.0647 18.7552 33.0012L18.4128 32.8823C18.3717 32.8715 18.3323 32.8553 18.2955 32.8343C18.3379 32.8366 18.3797 32.8451 18.4196 32.8595L18.769 32.9555C18.9184 33.0012 19.1023 33.0538 19.3206 33.0995C19.539 33.1452 19.7803 33.2161 20.0607 33.2572L20.4928 33.3349C20.6422 33.3623 20.8008 33.3761 20.9525 33.3966C21.2789 33.4446 21.642 33.4629 21.9983 33.4881C23.6046 33.5693 25.2131 33.3799 26.756 32.9281C27.1076 32.8183 27.4455 32.7201 27.7512 32.5966C27.9029 32.5372 28.0546 32.4869 28.1948 32.4275L28.597 32.2515C28.8567 32.1463 29.0774 32.0229 29.2865 31.9269C29.4957 31.8309 29.6566 31.7372 29.7899 31.6595L30.1071 31.4858C30.1435 31.4623 30.1829 31.4439 30.2243 31.4309Z" fill="#EBEBEB"/>
<path d="M29.5646 39.3257C29.4616 39.2824 29.3617 39.232 29.2658 39.1749L28.4568 38.7177L25.6987 37.1337L25.6642 37.1132V37.0743C25.763 36.5874 25.8687 36.0617 25.9791 35.5223C26.1446 34.7086 26.3054 33.936 26.4387 33.2366C26.5146 32.8846 26.5767 32.5509 26.6456 32.2332C26.708 31.9395 26.8068 31.6546 26.9398 31.3852C27.1325 30.9849 27.4735 30.6745 27.8913 30.5189C28.0045 30.4801 28.1234 30.4608 28.243 30.4617C28.2841 30.4589 28.3254 30.4636 28.3648 30.4754C28.208 30.4807 28.053 30.51 27.9051 30.5623C27.5103 30.7279 27.1922 31.0345 27.0134 31.4217C26.8891 31.688 26.7973 31.9681 26.7398 32.256C26.6778 32.5692 26.6134 32.9052 26.5445 33.2549C26.402 33.9634 26.2457 34.736 26.0848 35.5406C25.9745 36.0823 25.8664 36.6057 25.7676 37.0926L25.74 37.0332L28.482 38.6537L29.275 39.1337C29.3767 39.1896 29.4736 39.2538 29.5646 39.3257Z" fill="#263238"/>
<path d="M30.6886 35.1155C30.7088 35.3188 30.7026 35.524 30.6702 35.7258C30.622 36.2143 30.5344 36.6981 30.4082 37.1726C30.282 37.6477 30.1191 38.1123 29.9209 38.5623C29.849 38.7537 29.7524 38.9351 29.6336 39.1018C29.6899 38.9067 29.7597 38.7157 29.8428 38.5303C30.1916 37.6209 30.4413 36.6768 30.5874 35.7143C30.6084 35.5128 30.6421 35.3128 30.6886 35.1155Z" fill="#263238"/>
<path d="M10.7498 71.4651L10.7085 74.9531C10.7085 74.9531 7.12755 76.0845 7.05859 76.7291L13.8573 77.0491L14.1469 71.6159L10.7498 71.4651Z" fill="#455A64"/>
<path d="M12.8368 74.7589C12.9013 74.7818 12.9551 74.8276 12.9877 74.8875C13.0204 74.9474 13.0297 75.0172 13.0138 75.0835C12.9935 75.1486 12.9488 75.2035 12.8888 75.2367C12.8289 75.2699 12.7584 75.2789 12.692 75.2617C12.6239 75.2368 12.5673 75.188 12.533 75.1244C12.4986 75.0607 12.489 74.9868 12.5058 74.9166C12.5347 74.8512 12.5879 74.7994 12.6543 74.7722C12.7207 74.7449 12.7952 74.7442 12.8621 74.7703" fill="#E0E0E0"/>
<path d="M13.8573 77.0491V76.5006L7.33438 76.3977C7.33438 76.3977 7.0241 76.5143 7.04938 76.7291L13.8573 77.0491Z" fill="#E0E0E0"/>
<path d="M10.6004 74.9144C10.6004 74.9464 10.7659 74.9693 10.9222 75.0835C11.0785 75.1978 11.152 75.3395 11.1934 75.3281C11.2348 75.3167 11.1934 75.1247 10.9888 74.9898C10.7843 74.855 10.5935 74.8824 10.6004 74.9144Z" fill="#263238"/>
<path d="M9.87183 75.1725C9.87183 75.2045 10.0051 75.2685 10.1017 75.4125C10.1982 75.5565 10.2327 75.7074 10.2672 75.7074C10.3016 75.7074 10.3292 75.5222 10.1936 75.344C10.058 75.1657 9.87412 75.1428 9.87183 75.1725Z" fill="#263238"/>
<path d="M9.42596 76.0022C9.45584 76.0022 9.511 75.8491 9.42596 75.6639C9.34092 75.4788 9.19612 75.4011 9.18233 75.4354C9.16854 75.4697 9.25818 75.5634 9.31794 75.7165C9.3777 75.8697 9.38919 75.9977 9.42596 76.0022Z" fill="#263238"/>
<path d="M10.697 74.1189C10.7108 74.1509 10.8648 74.1189 11.0532 74.1326C11.2417 74.1463 11.3819 74.2217 11.4003 74.1943C11.4187 74.1669 11.2854 74.0412 11.0647 74.0183C10.8441 73.9955 10.6832 74.0937 10.697 74.1189Z" fill="#263238"/>
<g opacity="0.3">
<path opacity="0.3" d="M10.743 72.1555L10.7338 72.7772L14.078 72.9052L14.1078 72.3452L10.743 72.1555Z" fill="black"/>
</g>
<path d="M10.72 73.4148C10.8297 73.4511 10.9474 73.4567 11.0601 73.4308C11.1839 73.4149 11.3052 73.3834 11.421 73.3371C11.4902 73.3116 11.5571 73.2802 11.6209 73.2434C11.6607 73.225 11.6971 73.2003 11.729 73.1703C11.752 73.1477 11.7668 73.1181 11.771 73.0862C11.7751 73.0543 11.7684 73.022 11.752 72.9943C11.7361 72.9706 11.7151 72.9509 11.6904 72.9366C11.6657 72.9223 11.638 72.9139 11.6095 72.912C11.5662 72.9098 11.5229 72.9136 11.4807 72.9234C11.4077 72.9375 11.3362 72.9581 11.267 72.9851C11.15 73.0319 11.0408 73.0958 10.9429 73.1749C10.7774 73.3143 10.7131 73.4354 10.7292 73.4423C10.7453 73.4491 10.8257 73.3531 10.9912 73.2411C11.0885 73.1767 11.1935 73.1245 11.3038 73.0857C11.3682 73.0639 11.4343 73.047 11.5014 73.0354C11.575 73.0194 11.637 73.0217 11.6531 73.0537C11.6692 73.0857 11.6531 73.072 11.6531 73.0926C11.6293 73.1138 11.6031 73.1322 11.575 73.1474C11.5129 73.1817 11.4509 73.2137 11.3911 73.2411C11.2828 73.2877 11.1705 73.3244 11.0555 73.3508C10.9424 73.3649 10.8303 73.3863 10.72 73.4148Z" fill="#263238"/>
<path d="M10.7682 73.4652C10.8365 73.3716 10.8728 73.2586 10.8716 73.143C10.8844 73.0181 10.875 72.892 10.844 72.7704C10.8255 72.6977 10.7993 72.6272 10.7659 72.5601C10.7497 72.5146 10.722 72.474 10.6853 72.4423C10.6486 72.4107 10.6043 72.389 10.5567 72.3795C10.5267 72.3784 10.497 72.386 10.4713 72.4014C10.4455 72.4168 10.4249 72.4394 10.4119 72.4664C10.3916 72.5051 10.3777 72.5467 10.3706 72.5898C10.3591 72.6656 10.3591 72.7426 10.3706 72.8184C10.3831 72.946 10.4274 73.0685 10.4993 73.175C10.6234 73.3578 10.7613 73.4035 10.7636 73.3921C10.7659 73.3807 10.6625 73.3075 10.5682 73.1338C10.5143 73.0343 10.4829 72.9243 10.4763 72.8115C10.4726 72.7456 10.478 72.6794 10.4924 72.6149C10.5062 72.5441 10.5361 72.4869 10.5636 72.4961C10.5912 72.5052 10.651 72.5532 10.6763 72.6127C10.7074 72.6726 10.7328 72.7354 10.7521 72.8001C10.7851 72.9107 10.8021 73.0253 10.8027 73.1407C10.7843 73.3372 10.7429 73.4584 10.7682 73.4652Z" fill="#263238"/>
<path d="M24.6092 46.2057C24.6092 46.2057 13.986 41.7714 10.6992 41.5863C8.63067 41.4674 7.07695 42.784 7.35735 44.9051C7.49755 45.968 10.4326 58.3909 10.4326 58.3909L14.9053 56.3611L12.754 47.7691L21.488 51.9886L24.6092 46.2057Z" fill="#263238"/>
<path d="M11.4187 45.5953C11.3842 45.625 11.7358 46.0753 12.1082 46.6718C12.4805 47.2684 12.7288 47.7827 12.7701 47.7667C12.8115 47.7507 12.6207 47.1998 12.2415 46.5918C11.8623 45.9838 11.4577 45.5678 11.4187 45.5953Z" fill="#455A64"/>
<path d="M10.5498 46.089C10.5269 46.1279 11.0624 46.4662 11.6991 46.9279C12.3357 47.3896 12.8138 47.7942 12.8483 47.7622C12.8827 47.7302 12.423 47.257 11.7841 46.7999C11.1451 46.3428 10.5682 46.0525 10.5498 46.089Z" fill="#455A64"/>
<path d="M32.895 48.871C32.895 48.871 31.5597 50.583 30.2863 51.0515C28.6775 51.639 16.8498 57.191 16.8498 57.191C16.8498 57.191 14.7031 73.0515 14.8732 72.3887L9.9201 72.2698L10.4579 57.6618C10.5223 55.7921 12.03 53.6435 13.6504 52.6881L24.6093 46.2058L32.895 48.871Z" fill="#263238"/>
<path d="M10.3637 60.3361C10.3794 60.2702 10.3864 60.2026 10.3844 60.1349C10.3844 59.9886 10.4028 59.7989 10.4143 59.5612C10.4424 58.858 10.5084 58.1568 10.6119 57.4606C10.757 56.4318 11.124 55.4462 11.6876 54.5715C12.0364 54.0686 12.4667 53.6268 12.9609 53.2641C13.4973 52.8754 14.0585 52.5219 14.6411 52.2058C17.0245 50.8481 19.0816 49.4629 20.6032 48.5144C21.3616 48.0344 21.9822 47.6526 22.4051 47.3921L22.897 47.0904C22.9565 47.0577 23.0126 47.0194 23.0648 46.9761C23.0014 46.9989 22.9406 47.028 22.8832 47.0629C22.766 47.1246 22.5936 47.2161 22.3752 47.3395C21.9362 47.5841 21.3111 47.9544 20.5365 48.4206C18.9989 49.3486 16.9303 50.7178 14.5606 52.0778C13.9721 52.3976 13.4055 52.7557 12.8644 53.1498C12.3578 53.5235 11.918 53.9794 11.5635 54.4984C10.9965 55.3959 10.6348 56.4064 10.5039 57.4584C10.4093 58.1592 10.3601 58.8655 10.3568 59.5726C10.3568 59.8012 10.3568 60.0001 10.3568 60.1486C10.3535 60.2112 10.3558 60.2739 10.3637 60.3361Z" fill="#455A64"/>
<path d="M28.5235 50.5418C28.4317 50.4003 28.3303 50.2651 28.2201 50.1373C27.9918 49.8071 27.8333 49.4342 27.7543 49.0413C27.6752 48.6484 27.6773 48.2436 27.7604 47.8515C27.8114 47.6906 27.8514 47.5264 27.8799 47.3601C27.7683 47.4925 27.6896 47.6491 27.6501 47.8173C27.5324 48.2231 27.515 48.6513 27.5995 49.0652C27.682 49.4792 27.865 49.8669 28.1327 50.1944C28.3419 50.4573 28.5143 50.5555 28.5235 50.5418Z" fill="#455A64"/>
<path d="M11.7405 72.2695C11.7486 72.2436 11.7532 72.2167 11.7543 72.1895C11.7543 72.1255 11.7726 72.0478 11.7841 71.9495C11.8094 71.7209 11.8416 71.4192 11.883 71.0352C11.9634 70.2215 12.0783 69.0626 12.2208 67.6364C12.2875 66.9186 12.3633 66.1324 12.4507 65.2889C12.538 64.4455 12.6185 63.5426 12.6805 62.5918C12.7426 61.6409 12.8437 60.6466 13.0184 59.6204C13.189 58.5675 13.4981 57.5416 13.9377 56.5689C14.3969 55.6078 15.0032 54.7234 15.7351 53.9472C16.4209 53.2252 17.1718 52.5672 17.9784 51.9815C19.3607 51.0134 20.7964 50.1229 22.2787 49.3141C23.5359 48.5964 24.538 47.9838 25.2023 47.5221C25.5378 47.2935 25.7907 47.1084 25.9607 46.9781L26.1515 46.8295C26.1944 46.796 26.2151 46.7777 26.2136 46.7747C26.188 46.785 26.164 46.7988 26.1423 46.8158L25.9424 46.9529C25.7677 47.0741 25.508 47.2524 25.1701 47.4741C24.4944 47.9175 23.4876 48.5141 22.2235 49.2204C20.7291 50.0173 19.2832 50.9012 17.8933 51.8672C17.076 52.4544 16.3157 53.1163 15.6225 53.8444C14.8775 54.631 14.261 55.5287 13.7952 56.5049C13.3537 57.4896 13.0446 58.5279 12.8759 59.5929C12.7035 60.6215 12.6162 61.6204 12.5449 62.5644C12.4737 63.5084 12.4024 64.4181 12.3151 65.2615C12.2277 66.1049 12.1726 66.8912 12.1105 67.6112C11.9887 69.0398 11.8807 70.1986 11.8232 71.0146C11.7926 71.4078 11.7696 71.7125 11.7543 71.9289C11.7543 72.0272 11.7428 72.1072 11.7382 72.1689C11.7336 72.2306 11.7359 72.2695 11.7405 72.2695Z" fill="#455A64"/>
<path d="M23.4095 21.0491C23.2427 20.622 22.9282 20.2679 22.5226 20.0505C22.1169 19.8331 21.6466 19.7665 21.1961 19.8629C20.9979 19.935 20.7906 19.9796 20.5802 19.9954C20.3251 19.952 20.0743 19.8862 19.8309 19.7989C19.555 19.7544 19.2723 19.8135 19.0379 19.9648C18.8034 20.116 18.6338 20.3485 18.5621 20.6171C18.3462 20.565 18.1215 20.5602 17.9036 20.6033C17.6857 20.6463 17.4798 20.736 17.3003 20.8663C17.1243 21.0018 16.9993 21.1923 16.9456 21.4071C16.8918 21.6219 16.9123 21.8485 17.0038 22.0503C17.0935 22.2171 17.2337 22.3497 17.3233 22.5211C17.4589 22.8023 17.3968 23.1406 17.4911 23.4354C17.5795 23.6498 17.7269 23.8352 17.9163 23.9702C18.1057 24.1052 18.3296 24.1844 18.5621 24.1989C19.0301 24.2228 19.4983 24.1568 19.9412 24.0046" fill="#263238"/>
<path d="M21.2697 30.089C21.2122 29.6456 21.1755 29.3347 21.1755 29.3347C21.1755 29.3347 19.693 29.3347 19.1069 27.5062C18.8104 26.5919 18.6127 25.065 18.4932 23.8033C18.4671 23.5345 18.496 23.2633 18.5781 23.0059C18.6602 22.7485 18.7939 22.5103 18.9711 22.3057C19.1483 22.1011 19.3653 21.9343 19.609 21.8154C19.8528 21.6964 20.1183 21.6278 20.3894 21.6136L24.3243 21.4102L24.4093 22.0159L25.4459 29.5405C25.4834 29.8133 25.4663 30.0908 25.3955 30.357C25.3248 30.6232 25.2019 30.8729 25.0338 31.0916C24.8657 31.3104 24.6557 31.494 24.416 31.6318C24.1763 31.7697 23.9116 31.859 23.6371 31.8947C23.3623 31.9313 23.083 31.9136 22.8152 31.8426C22.5473 31.7716 22.2962 31.6487 22.0762 31.4809C21.8563 31.3131 21.6718 31.1038 21.5334 30.8649C21.395 30.6261 21.3054 30.3624 21.2697 30.089Z" fill="#B78876"/>
<path d="M19.0425 24.88C19.0522 24.9425 19.0858 24.9988 19.1364 25.0372C19.187 25.0755 19.2505 25.0929 19.3137 25.0857C19.345 25.0837 19.3755 25.0754 19.4035 25.0613C19.4314 25.0472 19.4561 25.0275 19.4762 25.0036C19.4962 24.9796 19.5111 24.9518 19.5199 24.9219C19.5287 24.892 19.5313 24.8606 19.5275 24.8297C19.5189 24.7666 19.4855 24.7096 19.4347 24.671C19.3838 24.6324 19.3196 24.6155 19.2562 24.624C19.225 24.6259 19.1944 24.6342 19.1665 24.6483C19.1385 24.6624 19.1138 24.6821 19.0938 24.7061C19.0738 24.73 19.0589 24.7578 19.0501 24.7877C19.0412 24.8176 19.0387 24.849 19.0425 24.88Z" fill="#263238"/>
<path d="M18.9414 24.5416C18.9758 24.5668 19.1367 24.4045 19.401 24.3633C19.6654 24.3222 19.8607 24.4228 19.8952 24.3862C19.9297 24.3496 19.8676 24.3176 19.7757 24.2719C19.651 24.2111 19.5102 24.1911 19.3735 24.2148C19.2381 24.2349 19.1131 24.2982 19.0172 24.3953C18.9414 24.4685 18.923 24.5302 18.9414 24.5416Z" fill="#263238"/>
<path d="M21.5064 24.4639C21.5161 24.5263 21.5498 24.5824 21.6005 24.6204C21.6511 24.6584 21.7147 24.6752 21.7776 24.6673C21.8089 24.6657 21.8395 24.6577 21.8675 24.6438C21.8955 24.63 21.9204 24.6106 21.9407 24.5868C21.9609 24.5631 21.976 24.5354 21.9851 24.5057C21.9942 24.4759 21.9972 24.4446 21.9937 24.4136C21.984 24.3511 21.9503 24.2948 21.8997 24.2564C21.8492 24.2181 21.7856 24.2007 21.7225 24.2079C21.691 24.2096 21.6602 24.2176 21.632 24.2316C21.6038 24.2456 21.5788 24.2652 21.5585 24.2892C21.5382 24.3132 21.5231 24.3411 21.5142 24.3712C21.5052 24.4012 21.5026 24.4328 21.5064 24.4639Z" fill="#263238"/>
<path d="M21.5018 24.1852C21.5363 24.2126 21.6972 24.048 21.9615 24.0092C22.2258 23.9703 22.4212 24.0663 22.4557 24.0297C22.4901 23.9932 22.4281 23.9634 22.3361 23.9154C22.2109 23.8567 22.0707 23.8367 21.9339 23.8583C21.7991 23.88 21.6745 23.9431 21.5777 24.0389C21.5018 24.112 21.4857 24.1714 21.5018 24.1852Z" fill="#263238"/>
<path d="M20.8651 26.2514C20.721 26.2321 20.5749 26.2321 20.4307 26.2514C20.3641 26.2514 20.2997 26.2514 20.2813 26.208C20.2602 26.1418 20.2602 26.0707 20.2813 26.0045C20.3181 25.8354 20.3572 25.6571 20.3986 25.472C20.5108 25.0176 20.5876 24.5553 20.6284 24.0891C20.4778 24.5365 20.3633 24.9951 20.2859 25.4605C20.2492 25.648 20.2124 25.8263 20.1802 25.9977C20.1481 26.0824 20.1481 26.1758 20.1802 26.2605C20.1936 26.2822 20.2117 26.3006 20.2332 26.3145C20.2547 26.3283 20.279 26.3372 20.3043 26.3405C20.3425 26.3453 20.3811 26.3453 20.4192 26.3405C20.5711 26.3297 20.7209 26.2997 20.8651 26.2514Z" fill="#263238"/>
<path d="M21.1754 29.3348C22.0637 29.208 22.8992 28.8384 23.5888 28.2673C23.5888 28.2673 23.1796 29.657 21.2697 29.7736L21.1754 29.3348Z" fill="#AA6550"/>
<path d="M21.6581 26.3086C21.6144 26.3086 21.6581 26.592 21.4512 26.8297C21.2444 27.0674 20.9364 27.0834 20.9387 27.1223C20.941 27.1612 21.0145 27.168 21.1432 27.1497C21.3089 27.1276 21.4608 27.0463 21.5707 26.9212C21.6784 26.8026 21.7346 26.6465 21.727 26.4869C21.7201 26.368 21.6765 26.304 21.6581 26.3086Z" fill="#263238"/>
<path d="M21.272 23.1841C21.3087 23.2504 21.5639 23.1841 21.8741 23.1635C22.1844 23.143 22.4441 23.1955 22.474 23.127C22.5039 23.0584 22.435 23.0355 22.3246 22.983C22.1783 22.9195 22.0193 22.8904 21.8599 22.8979C21.7004 22.9054 21.5449 22.9494 21.4053 23.0264C21.3041 23.0881 21.2559 23.1521 21.272 23.1841Z" fill="#263238"/>
<path d="M18.9161 23.7783C18.9712 23.8286 19.1459 23.7394 19.3551 23.7029C19.5642 23.6663 19.7596 23.68 19.7918 23.6114C19.8055 23.5794 19.7665 23.5246 19.6791 23.4834C19.5616 23.4314 19.4306 23.4171 19.3045 23.4423C19.1786 23.4644 19.0629 23.5251 18.9735 23.616C18.9069 23.6892 18.8908 23.7532 18.9161 23.7783Z" fill="#263238"/>
<path d="M18.2863 22.9782C18.2863 22.9782 19.3275 23.3279 20.5227 22.5325C21.3064 22.0113 22.258 21.6845 22.4947 21.8262C22.7315 21.9679 22.8855 22.8182 23.7474 22.969C23.7474 22.969 23.8991 24.6148 24.5495 24.473C25.0092 24.3725 24.7426 22.5576 24.5495 21.5222C24.5092 21.322 24.4026 21.141 24.2468 21.008C24.091 20.8751 23.895 20.7978 23.6899 20.7885L22.4786 20.7405L20.9663 21.161L19.3436 21.5999L18.1071 22.1142L18.2863 22.9782Z" fill="#263238"/>
<path d="M24.4047 23.8035C24.4276 23.7875 25.4321 23.2617 25.6182 24.352C25.8044 25.4423 24.6667 25.4012 24.6575 25.3715C24.6483 25.3417 24.4047 23.8035 24.4047 23.8035Z" fill="#B78876"/>
<path d="M24.9218 24.9006C24.9218 24.9006 24.9448 24.9121 24.9793 24.9212C25.0277 24.9326 25.0787 24.9253 25.1218 24.9006C25.1843 24.8438 25.2308 24.7718 25.2566 24.6916C25.2824 24.6114 25.2866 24.5258 25.2689 24.4435C25.2556 24.3498 25.2219 24.26 25.1701 24.1806C25.1534 24.1485 25.1293 24.1208 25.0997 24.0997C25.0701 24.0786 25.036 24.0649 25 24.0595C24.9772 24.0576 24.9544 24.0636 24.9355 24.0765C24.9166 24.0894 24.9029 24.1085 24.8966 24.1304C24.8966 24.1624 24.8966 24.1829 24.8966 24.1875C24.8966 24.1921 24.8713 24.1715 24.8713 24.1258C24.8732 24.0978 24.8846 24.0712 24.9035 24.0504C24.93 24.0228 24.9662 24.0064 25.0046 24.0046C25.0513 24.0055 25.0971 24.0184 25.1373 24.042C25.1776 24.0656 25.2111 24.0992 25.2344 24.1395C25.2973 24.2258 25.3376 24.3264 25.3516 24.4321C25.3744 24.5283 25.3678 24.6291 25.3326 24.7215C25.2974 24.814 25.2352 24.8939 25.154 24.9509C25.126 24.9641 25.0953 24.971 25.0643 24.971C25.0333 24.971 25.0027 24.9641 24.9747 24.9509C24.9287 24.9281 24.9195 24.9052 24.9218 24.9006Z" fill="#AA6550"/>
<path d="M18.8127 20.2147C18.8127 20.2147 18.8495 20.2742 18.9276 20.361C19.0395 20.4842 19.1823 20.5757 19.3413 20.6262C19.5776 20.7021 19.8301 20.7131 20.0722 20.6582C20.3732 20.5854 20.6689 20.4922 20.9571 20.3793C21.2555 20.2625 21.5742 20.2057 21.8949 20.2124C22.166 20.2222 22.4226 20.337 22.6097 20.5325C22.7371 20.66 22.8145 20.8286 22.828 21.0079C22.8376 21.0729 22.8263 21.1393 22.7958 21.1976C22.7843 21.1976 22.7958 21.129 22.782 21.0124C22.7534 20.8505 22.6727 20.7022 22.5522 20.5896C22.3751 20.4208 22.1401 20.3252 21.8949 20.3222C21.5888 20.3224 21.2855 20.3798 21.0008 20.4913C20.7078 20.6072 20.4056 20.699 20.0975 20.7656C19.8373 20.8191 19.5673 20.7985 19.3183 20.7062C19.1494 20.6445 19.0023 20.5348 18.8954 20.3907C18.8127 20.2856 18.8127 20.217 18.8127 20.2147Z" fill="#455A64"/>
<path d="M22.5154 21.2595C22.5154 21.2595 22.4602 21.2023 22.3453 21.1223C22.1814 21.0226 21.9927 20.9703 21.8006 20.9715C21.5092 20.9704 21.222 21.0402 20.964 21.1749C20.6415 21.3481 20.3083 21.5008 19.9665 21.632C19.6421 21.7322 19.3005 21.765 18.9628 21.7284C18.6252 21.6918 18.2987 21.5867 18.0036 21.4195C17.8251 21.3196 17.6618 21.1949 17.5186 21.0492C17.4629 20.9997 17.4163 20.9409 17.3807 20.8755C17.5842 21.0543 17.8061 21.2114 18.0427 21.344C18.6239 21.6474 19.3019 21.7106 19.9297 21.52C20.2667 21.3845 20.5966 21.2319 20.918 21.0629C21.1923 20.9248 21.4981 20.8603 21.8052 20.8755C22.0139 20.8834 22.2148 20.9562 22.3798 21.0835C22.4401 21.1289 22.4869 21.1897 22.5154 21.2595Z" fill="#455A64"/>
<path d="M19.1115 39.8332L13.7746 35.3098L12.014 35.7052C12.014 35.7052 13.8688 39.5407 15.2111 40.9464C15.2111 40.9464 16.5373 42.711 18.7253 41.9475C20.9134 41.1841 19.1115 39.8332 19.1115 39.8332Z" fill="#B78876"/>
<path d="M13.37 30.3269H11.1015C11.0159 30.3315 10.9324 30.3551 10.8571 30.3958C10.7818 30.4365 10.7165 30.4935 10.6661 30.5624C10.6157 30.6314 10.5814 30.7106 10.5657 30.7944C10.5499 30.8783 10.5532 30.9645 10.5751 31.0469L12.8575 35.4652C12.9007 35.5493 12.9666 35.6199 13.0477 35.6691C13.1289 35.7184 13.2221 35.7443 13.3171 35.744H16.0752C16.1401 35.7368 16.2021 35.7138 16.2558 35.677C16.3096 35.6401 16.3533 35.5907 16.3831 35.533C16.4129 35.4753 16.4279 35.4111 16.4267 35.3462C16.4255 35.2814 16.4082 35.2178 16.3763 35.1612L14.1768 30.8343C14.1019 30.6844 13.9871 30.5578 13.8448 30.4683C13.7025 30.3789 13.5383 30.3299 13.37 30.3269Z" fill="#455A64"/>
<path d="M13.2183 30.5942H10.9498C10.8847 30.5938 10.8206 30.6101 10.7636 30.6415C10.7067 30.6729 10.6588 30.7183 10.6246 30.7734C10.5904 30.8285 10.5711 30.8915 10.5685 30.9562C10.5659 31.0209 10.58 31.0851 10.6096 31.1428L12.8368 35.4651C12.8805 35.5489 12.9464 35.6192 13.0275 35.6684C13.1085 35.7176 13.2015 35.7437 13.2965 35.744H16.0316C16.0691 35.7424 16.1057 35.7317 16.1382 35.7128C16.1706 35.6939 16.1979 35.6674 16.2176 35.6356C16.2373 35.6038 16.2489 35.5677 16.2514 35.5304C16.2538 35.4931 16.247 35.4558 16.2315 35.4217L14.0297 31.0971C13.9553 30.9462 13.8398 30.8191 13.6964 30.7302C13.5529 30.6413 13.3873 30.5942 13.2183 30.5942Z" fill="#263238"/>
<path d="M13.0252 32.3999L11.6462 32.9485L11.352 34.0548L12.0162 35.7005L14.4457 36.057L13.7331 35.3325L13.8228 34.6993C13.8228 34.6993 14.5123 34.4868 14.5123 34.3839C14.5123 34.281 14.4273 33.9268 14.3238 33.9153C14.0517 33.9771 13.785 34.0604 13.5263 34.1645C13.5263 34.1645 14.3698 33.4993 14.3468 33.3919C14.3238 33.2845 14.2319 33.0125 14.0641 32.9805C13.8963 32.9485 12.5311 33.5908 12.5311 33.5908L12.3012 34.0913L12.1082 33.289C12.1082 33.289 13.324 32.9508 13.0252 32.3999Z" fill="#B78876"/>
<path d="M13.1999 34.9966C13.1999 34.9966 13.1654 34.9509 13.1517 34.8595C13.1371 34.7431 13.1504 34.6249 13.1903 34.5145C13.2302 34.4041 13.2957 34.3046 13.3815 34.2241C13.4504 34.1646 13.5033 34.1441 13.5079 34.1509C13.403 34.2664 13.3169 34.3975 13.2528 34.5395C13.2119 34.6883 13.194 34.8425 13.1999 34.9966Z" fill="#AA6550"/>
<path d="M12.5426 34.7566C12.5695 34.6384 12.588 34.5185 12.5978 34.3977C12.6033 34.2627 12.6265 34.1291 12.6667 34C12.693 33.9171 12.7388 33.8417 12.8004 33.7801C12.862 33.7184 12.9375 33.6724 13.0207 33.6457C13.3493 33.5269 13.6481 33.4309 13.8642 33.36C13.9797 33.3166 14.0989 33.2837 14.2204 33.2617C14.1134 33.3224 14.0002 33.3715 13.8826 33.408C13.6688 33.4903 13.37 33.5954 13.046 33.712C12.9703 33.7379 12.9012 33.7801 12.8437 33.8354C12.7927 33.8893 12.7535 33.9531 12.7288 34.0229C12.6867 34.1464 12.6597 34.2746 12.6483 34.4046C12.6439 34.529 12.6075 34.6501 12.5426 34.7566Z" fill="#AA6550"/>
<path d="M12.2254 34.5098C12.2037 34.4204 12.2037 34.3272 12.2254 34.2378C12.2507 34.0915 12.2852 33.9772 12.3059 33.9795C12.3274 34.0689 12.3274 34.1621 12.3059 34.2515C12.2806 34.3978 12.2461 34.5121 12.2254 34.5098Z" fill="#AA6550"/>
<path d="M12.1887 31.4284C12.1887 31.4854 12.2057 31.541 12.2375 31.5884C12.2693 31.6358 12.3145 31.6727 12.3674 31.6945C12.4204 31.7163 12.4786 31.722 12.5348 31.7109C12.5909 31.6998 12.6425 31.6723 12.683 31.632C12.7235 31.5918 12.7511 31.5404 12.7623 31.4846C12.7735 31.4287 12.7677 31.3708 12.7458 31.3182C12.7239 31.2656 12.6868 31.2206 12.6392 31.1889C12.5915 31.1573 12.5355 31.1404 12.4783 31.1404C12.4402 31.1401 12.4024 31.1473 12.3671 31.1617C12.3318 31.1761 12.2998 31.1973 12.2728 31.2241C12.2459 31.2509 12.2245 31.2827 12.2101 31.3178C12.1956 31.3529 12.1884 31.3905 12.1887 31.4284Z" fill="#FAFAFA"/>
<path d="M4.24072 74.9963C4.60073 75.1073 4.93449 75.2894 5.22201 75.5317C5.50954 75.7741 5.74489 76.0716 5.91397 76.4066C6.24904 77.0797 6.42439 77.8202 6.42652 78.5712C6.47248 80.0158 5.8703 81.5701 5.16009 82.8341C3.80173 81.9655 3.2593 80.1712 3.03865 79.2569C2.69389 77.7986 2.95821 74.9552 4.24072 74.994" fill="#26D8C0"/>
<path d="M6.90459 84.9827C6.76299 84.5878 6.7288 84.1628 6.80549 83.7505C6.88217 83.3383 7.06701 82.9536 7.34128 82.6352C7.62119 82.322 7.96112 82.0675 8.34118 81.8865C8.72125 81.7056 9.13379 81.6019 9.55466 81.5815C9.94079 81.5541 10.3729 81.6044 10.6372 81.8878C10.7534 82.0273 10.83 82.1952 10.859 82.374C10.8881 82.5528 10.8687 82.7361 10.8027 82.9049C10.6653 83.2412 10.4409 83.5354 10.1522 83.7575C9.203 84.5621 8.13654 85.1655 6.90459 84.9827Z" fill="#26D8C0"/>
<path d="M5.99904 89.5701C5.9886 89.4713 5.9886 89.3717 5.99904 89.2729C5.99904 89.0604 6.01743 88.7884 6.02892 88.4615C6.03791 87.5611 6.19314 86.6681 6.4886 85.8169C6.79757 84.9641 7.32905 84.2084 8.02854 83.6272C8.24081 83.4566 8.47218 83.3108 8.71806 83.1929C8.8054 83.1495 8.87895 83.1289 8.92492 83.1084C8.97089 83.0878 8.99847 83.0832 9.00077 83.0878C8.43371 83.3667 7.92798 83.7548 7.51291 84.2295C7.09785 84.7043 6.78171 85.2563 6.58284 85.8535C6.29522 86.6962 6.13489 87.5766 6.10706 88.4661C6.08408 88.8067 6.06339 89.0832 6.04501 89.2752C6.03788 89.3746 6.0225 89.4732 5.99904 89.5701Z" fill="#263238"/>
<path d="M4.23156 77.1792C4.24531 77.2203 4.25607 77.2623 4.26373 77.3049C4.28365 77.3994 4.30893 77.5205 4.33958 77.6683C4.40394 77.9838 4.49128 78.4432 4.59241 79.0101C4.79697 80.1529 5.05209 81.7186 5.30262 83.4603C5.55314 85.2021 5.73932 86.7838 5.85883 87.9312C5.91859 88.5049 5.96226 88.9689 5.98984 89.2912C6.00057 89.4436 6.00976 89.567 6.01742 89.6615C6.02403 89.7039 6.02403 89.7471 6.01742 89.7895C6.00596 89.7476 5.99826 89.7047 5.99444 89.6615C5.98295 89.5678 5.96686 89.4466 5.94617 89.2935C5.9048 88.962 5.84964 88.5026 5.78069 87.9403C5.64278 86.7975 5.44282 85.2158 5.19689 83.4741C4.95096 81.7323 4.70273 80.1712 4.51886 79.0283C4.42692 78.4683 4.35337 78.0112 4.28902 77.6798C4.26603 77.5289 4.24764 77.4078 4.23156 77.3141C4.22555 77.2693 4.22555 77.224 4.23156 77.1792Z" fill="#263238"/>
<path d="M4.94633 86.1507C4.67594 85.3104 4.20825 84.5463 3.58196 83.9215C2.95567 83.2966 2.18877 82.8291 1.34472 82.5575C0.912623 82.4227 0.370197 82.3747 0.0805976 82.7198C-0.209002 83.065 -0.0527104 83.5907 0.170236 83.9815C0.64978 84.789 1.35916 85.4371 2.20881 85.8439C3.05845 86.2507 4.01026 86.398 4.94404 86.2672" fill="#26D8C0"/>
<path d="M1.72855 83.8784C1.821 83.8946 1.91178 83.919 1.99977 83.9516C2.10543 83.9825 2.20906 84.0199 2.31005 84.0636C2.42957 84.1161 2.56977 84.1618 2.71227 84.2396C2.86979 84.3162 3.02323 84.4009 3.17196 84.4933C3.34702 84.5981 3.51656 84.7118 3.67991 84.8338C4.43206 85.3956 5.03485 86.1316 5.43589 86.9778C5.52303 87.1616 5.59976 87.3501 5.66573 87.5424C5.72616 87.7083 5.77606 87.8778 5.81513 88.0498C5.85083 88.1914 5.87846 88.3349 5.89787 88.4796C5.91785 88.5876 5.9309 88.6967 5.93695 88.8064C5.94645 88.8991 5.94799 88.9924 5.94154 89.0853C5.91626 89.0853 5.90017 88.6853 5.73698 88.0658C5.6935 87.8979 5.64133 87.7324 5.58069 87.5698C5.51475 87.3813 5.43801 87.1966 5.35085 87.0167C5.14702 86.6104 4.89966 86.2273 4.61306 85.8738C4.31833 85.5217 3.98705 85.2014 3.62474 84.9184C3.46601 84.7965 3.30108 84.6829 3.13059 84.5778C2.98226 84.482 2.82881 84.3943 2.6709 84.315C2.10779 84.011 1.71936 83.899 1.72855 83.8784Z" fill="#263238"/>
</g>
<defs>
<clipPath id="clip0_469_183">
<rect width="160" height="94" fill="white"/>
</clipPath>
</defs>
</svg>
