<svg width="274" height="537" viewBox="0 0 274 537" fill="none" xmlns="http://www.w3.org/2000/svg">
<path d="M109.256 394.892C69.9883 373.618 25.6623 334.835 8.45398 290.948C51.0014 312.892 86.8502 349.873 109.256 394.892Z" fill="#26D8C0"/>
<path d="M106.692 328.923C67.4243 307.626 23.0984 268.867 5.86694 224.979C48.4374 246.923 84.2862 283.904 106.692 328.923Z" fill="#26D8C0"/>
<path d="M100.825 264.408C61.5574 243.135 17.2084 204.352 0 160.465C42.5474 182.432 78.4193 219.413 100.825 264.408Z" fill="#26D8C0"/>
<path d="M92.2091 196.66C55.6904 170.05 16.3998 125.47 4.43481 79.4351C44.0487 107.153 75.2317 148.846 92.2091 196.66Z" fill="#26D8C0"/>
<path d="M81.0987 144.389C56.3832 104.867 35.2942 47.5136 40.1219 0C67.6705 43.0582 81.9228 93.2784 81.0987 144.389Z" fill="#26D8C0"/>
<path d="M86.7578 169.243C97.1521 119.928 122.468 59.0633 158.918 24.7852C148.231 78.5297 123.31 128.419 86.7578 169.243Z" fill="#26D8C0"/>
<path d="M94.8191 225.072C109.695 174.602 141.016 113.437 181.854 80.8911C166.337 135.904 136.269 185.714 94.8191 225.072Z" fill="#26D8C0"/>
<path d="M103.758 293.006C118.657 242.559 149.955 181.371 190.816 148.848C175.296 203.859 145.22 253.662 103.758 293.006Z" fill="#26D8C0"/>
<path d="M108.263 375.812C123.161 325.342 154.46 264.177 195.321 231.655C179.789 286.66 149.714 336.46 108.263 375.812Z" fill="#26D8C0"/>
<path d="M80.1056 134.458C80.1056 134.458 80.2211 134.712 80.3597 135.243C80.4983 135.774 80.6831 136.652 80.9141 137.553L82.9236 146.792C84.656 154.738 86.9428 166.31 89.5067 180.631C92.0706 194.952 94.8655 212.091 97.568 231.171C100.271 250.25 102.696 271.27 104.752 293.398C106.807 315.526 108.124 336.685 109.025 355.903C109.926 375.121 110.272 392.491 110.318 407.066C110.365 421.641 110.318 433.398 110.018 441.552C109.903 445.525 109.81 448.666 109.718 450.93C109.718 451.923 109.718 452.708 109.602 453.355C109.642 453.631 109.642 453.911 109.602 454.187C109.572 453.91 109.572 453.631 109.602 453.355C109.602 452.708 109.602 451.9 109.602 450.907V441.552C109.602 433.398 109.602 421.618 109.394 407.066C109.187 392.514 108.655 375.213 107.754 355.995C106.854 336.777 105.445 315.665 103.366 293.629C101.287 271.593 98.7461 250.527 96.2976 231.448C93.8492 212.369 91.0773 195.276 88.6058 180.932C86.1343 166.587 83.9862 154.992 82.5079 147C81.7918 143.096 81.2143 140.07 80.8216 137.761L80.4059 135.451C80.2758 135.129 80.1753 134.797 80.1056 134.458Z" fill="#263238"/>
<g opacity="0.3">
<path opacity="0.3" d="M109.256 394.892C69.9883 373.618 25.6623 334.836 8.45398 290.949C51.0014 312.892 86.8502 349.873 109.256 394.892Z" fill="black"/>
</g>
<g opacity="0.3">
<path opacity="0.3" d="M106.692 328.922C67.4243 307.625 23.0984 268.866 5.86694 224.979C48.4374 246.923 84.2862 283.903 106.692 328.922Z" fill="black"/>
</g>
<g opacity="0.3">
<path opacity="0.3" d="M100.825 264.408C61.5574 243.135 17.2084 204.352 0 160.465C42.5474 182.432 78.4193 219.413 100.825 264.408Z" fill="black"/>
</g>
<g opacity="0.3">
<path opacity="0.3" d="M92.2092 196.659C55.6905 170.05 16.4 125.47 4.43494 79.4346C44.0488 107.153 75.2318 148.846 92.2092 196.659Z" fill="black"/>
</g>
<g opacity="0.3">
<path opacity="0.3" d="M81.0987 144.389C56.3832 104.867 35.2942 47.5136 40.1219 0C67.6705 43.0582 81.9228 93.2784 81.0987 144.389Z" fill="black"/>
</g>
<g opacity="0.3">
<path opacity="0.3" d="M86.7578 169.243C97.1521 119.927 122.468 59.0628 158.918 24.7847C148.231 78.5292 123.31 128.419 86.7578 169.243Z" fill="black"/>
</g>
<g opacity="0.3">
<path opacity="0.3" d="M94.8191 225.072C109.695 174.602 141.016 113.437 181.854 80.8911C166.337 135.904 136.269 185.714 94.8191 225.072Z" fill="black"/>
</g>
<g opacity="0.3">
<path opacity="0.3" d="M103.758 293.005C118.657 242.558 149.955 181.37 190.816 148.848C175.296 203.858 145.22 253.661 103.758 293.005Z" fill="black"/>
</g>
<g opacity="0.3">
<path opacity="0.3" d="M108.263 375.812C123.161 325.342 154.46 264.177 195.321 231.655C179.789 286.66 149.714 336.46 108.263 375.812Z" fill="black"/>
</g>
<path d="M119.211 408.219C95.2581 376.597 73.0143 329.8 73.2684 289.631C99.8044 323.843 115.772 365.059 119.211 408.219Z" fill="#26D8C0"/>
<path d="M137.736 357.079C113.783 325.457 91.539 278.66 91.793 238.492C118.321 272.708 134.288 313.922 137.736 357.079Z" fill="#26D8C0"/>
<path d="M153.235 305.777C129.282 274.155 107.038 227.358 107.269 187.189C133.804 221.404 149.779 262.617 153.235 305.777Z" fill="#26D8C0"/>
<path d="M167.602 250.941C147.53 216.294 130.876 167.071 135.981 127.457C158.268 164.683 169.254 207.585 167.602 250.941Z" fill="#26D8C0"/>
<path d="M175.248 206.87C168.319 167.14 169.797 115.284 188.322 81.0986C196.45 123.395 191.902 167.15 175.248 206.87Z" fill="#26D8C0"/>
<path d="M171.853 227.983C195.321 194.652 233.849 158.318 272.816 146.607C247.95 183.121 212.815 211.44 171.853 227.983Z" fill="#26D8C0"/>
<path d="M160.811 273.532C188.045 241.056 231.423 206.916 273.209 198.231C244.039 233.922 204.915 260.133 160.811 273.532Z" fill="#26D8C0"/>
<path d="M146.629 328.621C173.862 296.145 217.264 261.982 259.049 253.297C229.868 288.991 190.739 315.208 146.629 328.621Z" fill="#26D8C0"/>
<path d="M124.362 393.297C151.618 360.797 194.997 326.658 236.782 317.973C207.603 353.668 168.473 379.886 124.362 393.297Z" fill="#26D8C0"/>
<path d="M177.558 198.924C177.558 198.924 177.558 199.178 177.558 199.617C177.558 200.056 177.396 200.818 177.281 201.626C176.957 203.497 176.542 206.038 176.01 209.272C174.902 215.924 173.1 225.441 170.675 237.313C165.847 260.943 158.178 293.397 147.576 328.622C142.24 346.246 136.72 362.9 131.407 377.937C126.094 392.974 120.967 406.371 116.416 417.528C111.866 428.684 108.124 437.716 105.352 443.86L102.165 451.044L101.31 452.868C101.102 453.284 100.986 453.492 100.963 453.469C101 453.244 101.07 453.026 101.171 452.822C101.356 452.314 101.61 451.69 101.887 450.928C102.603 449.173 103.597 446.77 104.821 443.745C107.408 437.531 111.057 428.476 115.446 417.274C119.835 406.071 124.801 392.605 130.114 377.591C135.426 362.577 140.785 345.899 146.098 328.321C156.677 293.119 164.577 260.758 169.589 237.221C172.153 225.441 174.209 215.901 175.387 209.295C176.033 206.084 176.542 203.544 176.934 201.673C177.096 200.887 177.258 200.24 177.373 199.709C177.392 199.439 177.455 199.174 177.558 198.924Z" fill="#263238"/>
<path d="M156.769 536.994H72.5984L56.8915 420.993H172.915L156.769 536.994Z" fill="#455A64"/>
<path d="M183.356 419.815H46.4741V437.855H183.356V419.815Z" fill="#455A64"/>
<path d="M183.333 438.155C183.333 438.479 153.05 438.756 115.677 438.756C78.3038 438.756 48.0217 438.479 48.0217 438.155C48.0217 437.832 78.3269 437.555 115.677 437.555C153.027 437.555 183.333 437.809 183.333 438.155Z" fill="#263238"/>
</svg>
