<svg width="299" height="387" viewBox="0 0 299 387" fill="none" xmlns="http://www.w3.org/2000/svg">
<path d="M154.674 5.77331L14.205 62.7921C10.4173 64.3723 7.41222 67.3919 5.85027 71.1871C4.28832 74.9823 4.29739 79.2424 5.87548 83.0309L123.253 372.196C124.764 376.011 127.727 379.07 131.492 380.703C135.256 382.335 139.514 382.407 143.332 380.903L283.801 323.885C287.59 322.304 290.597 319.284 292.162 315.488C293.727 311.692 293.723 307.43 292.149 303.638L174.771 14.4731C173.259 10.655 170.292 7.59385 166.523 5.96247C162.755 4.3311 158.492 4.26305 154.674 5.77331ZM279.633 298.304C282.725 305.92 279.524 314.386 272.501 317.237L146.829 368.249C139.787 371.107 131.592 367.268 128.5 359.651L19.2015 90.3892C12.9091 74.8876 18.2991 71.8147 25.3411 68.9562L50.5161 58.7372C51.9708 58.1467 53.8431 59.3294 54.6705 61.3678L55.0467 62.2944C57.0062 67.1219 59.6637 66.0647 62.9067 64.7483L121.123 41.1171C124.394 39.7895 127.016 38.7251 125.049 33.8791L124.673 32.9525C123.838 30.8955 124.345 28.7685 125.828 28.1668L151.012 17.944C158.036 15.0931 164.573 14.8462 170.335 29.0414L279.633 298.304Z" fill="#263238"/>
<path d="M97.4951 43.6609L81.6229 50.1037C81.4941 50.1575 81.3558 50.185 81.2163 50.1846C81.0767 50.1843 80.9386 50.1562 80.81 50.1018C80.6814 50.0475 80.565 49.9681 80.4675 49.8682C80.3699 49.7684 80.2933 49.6501 80.242 49.5202C80.1363 49.2598 80.1384 48.9679 80.2478 48.709C80.3572 48.45 80.565 48.2451 80.8255 48.1394L96.6977 41.6966C96.9582 41.5908 97.2501 41.5929 97.509 41.7023C97.768 41.8118 97.9729 42.0196 98.0786 42.2801C98.1323 42.4089 98.1598 42.5471 98.1595 42.6867C98.1592 42.8263 98.131 42.9644 98.0767 43.093C98.0224 43.2215 97.943 43.338 97.8431 43.4355C97.7432 43.533 97.6249 43.6097 97.4951 43.6609Z" fill="white"/>
<path d="M170.335 29.0415L279.633 298.304C282.725 305.92 279.524 314.386 272.501 317.237L146.829 368.249C139.787 371.107 131.592 367.268 128.5 359.652L19.2015 90.3893C12.9091 74.8877 18.2991 71.8148 25.3411 68.9564L50.5161 58.7374C51.9708 58.1469 53.8431 59.3295 54.6706 61.368L55.0467 62.2946C57.0062 67.122 59.6637 66.0649 62.9068 64.7485L121.123 41.1173C124.394 39.7896 127.016 38.7252 125.049 33.8792L124.673 32.9527C123.838 30.8957 124.346 28.7687 125.828 28.1669L151.012 17.9442C158.036 15.0932 164.573 14.8464 170.335 29.0415Z" fill="white"/>
<path d="M48.6264 66.5516L48.4833 66.8903L48.4008 67.0857C47.5264 66.7336 46.5481 66.7425 45.6804 67.1107C45.2442 67.2775 44.8455 67.5295 44.5076 67.8519C44.1697 68.1744 43.8993 68.5608 43.7123 68.9888L43.5207 68.9155L43.1912 68.7686L43.3842 68.3665C43.5298 68.1 43.7088 67.8532 43.9171 67.6322C44.1498 67.3645 44.4172 67.129 44.712 66.9318C44.8695 66.8678 45.0271 66.8039 45.162 66.6844L45.579 66.5151L45.894 66.3872C46.2071 66.3058 46.5282 66.2587 46.8515 66.2468C47.0829 66.2396 47.3145 66.2502 47.5443 66.2785C47.7852 66.3194 48.0235 66.374 48.2582 66.442L48.6117 66.5684L48.6264 66.5516Z" fill="#A6A6A6"/>
<path d="M44.7657 69.4569L44.2186 69.2258C44.4695 68.6153 44.9146 68.1046 45.4851 67.7727C45.8841 67.5334 46.3342 67.3925 46.7984 67.3618C47.2626 67.331 47.7275 67.4112 48.1545 67.5957L47.9196 68.1336C47.6297 68.0101 47.3183 67.9451 47.0033 67.9424C46.6883 67.9397 46.3758 67.9993 46.0839 68.1178C45.7919 68.2363 45.5263 68.4114 45.3023 68.6329C45.0783 68.8544 44.9003 69.118 44.7785 69.4086L44.7657 69.4569Z" fill="#A6A6A6"/>
<path d="M47.6996 68.7086L47.4739 69.2427C47.3251 69.1798 47.1653 69.1468 47.0038 69.1456C46.8422 69.1445 46.6819 69.1751 46.5322 69.2359C46.3825 69.2967 46.2462 69.3864 46.1312 69.4998C46.0161 69.6133 45.9246 69.7483 45.8617 69.8972L45.3276 69.6715C45.419 69.4516 45.5532 69.2521 45.7222 69.0845C45.8913 68.9168 46.092 68.7844 46.3126 68.6948C46.5332 68.6053 46.7694 68.5604 47.0075 68.5628C47.2456 68.5651 47.4808 68.6147 47.6996 68.7086Z" fill="#A6A6A6"/>
<path d="M47.1629 69.7789C47.1828 69.8668 47.1709 69.9589 47.1292 70.0388C47.0875 70.1187 47.0188 70.1812 46.9352 70.2151C46.8517 70.249 46.7589 70.2521 46.6733 70.2239C46.5877 70.1956 46.5149 70.1379 46.468 70.061C46.4393 70.0139 46.4211 69.9612 46.4148 69.9065C46.4085 69.8517 46.4142 69.7963 46.4314 69.744C46.4487 69.6916 46.4771 69.6437 46.5148 69.6034C46.5524 69.5632 46.5983 69.5316 46.6494 69.5109C46.7005 69.4902 46.7554 69.4808 46.8104 69.4834C46.8655 69.486 46.9193 69.5006 46.9681 69.5261C47.017 69.5516 47.0597 69.5874 47.0933 69.6311C47.127 69.6747 47.1507 69.7251 47.1629 69.7789Z" fill="#A6A6A6"/>
<path d="M26.6102 77.5068C27.1629 77.2825 27.429 76.6526 27.2047 76.0999C26.9804 75.5472 26.3505 75.2811 25.7978 75.5054C25.2451 75.7298 24.979 76.3596 25.2033 76.9123C25.4277 77.465 26.0575 77.7312 26.6102 77.5068Z" fill="#A6A6A6"/>
<path d="M28.3629 75.6296C28.2826 75.4317 28.2628 75.2144 28.3059 75.0052C28.3491 74.796 28.4533 74.6043 28.6054 74.4543C28.7575 74.3044 28.9507 74.2029 29.1605 74.1627C29.3702 74.1225 29.5872 74.1454 29.784 74.2286C29.9808 74.3117 30.1484 74.4513 30.2659 74.6298C30.3833 74.8082 30.4451 75.0175 30.4436 75.2311C30.4421 75.4447 30.3773 75.653 30.2573 75.8298C30.1374 76.0065 29.9678 76.1438 29.7698 76.2241C29.5044 76.3318 29.2071 76.3297 28.9433 76.2182C28.6794 76.1067 28.4707 75.895 28.3629 75.6296Z" fill="#A6A6A6"/>
<path d="M32.9202 74.9453C33.4729 74.721 33.739 74.0911 33.5147 73.5384C33.2904 72.9857 32.6605 72.7196 32.1078 72.9439C31.5551 73.1682 31.289 73.7981 31.5133 74.3508C31.7377 74.9035 32.3675 75.1696 32.9202 74.9453Z" fill="#A6A6A6"/>
<path d="M34.6729 73.0686C34.5925 72.8706 34.5727 72.6533 34.6158 72.4441C34.659 72.235 34.7632 72.0433 34.9153 71.8933C35.0674 71.7433 35.2606 71.6418 35.4704 71.6016C35.6802 71.5615 35.8972 71.5844 36.0939 71.6675C36.2907 71.7507 36.4584 71.8903 36.5758 72.0687C36.6932 72.2472 36.7551 72.4564 36.7535 72.67C36.752 72.8836 36.6872 73.092 36.5673 73.2687C36.4473 73.4455 36.2777 73.5827 36.0798 73.6631C35.8144 73.7708 35.517 73.7687 35.2532 73.6572C34.9894 73.5457 34.7806 73.334 34.6729 73.0686Z" fill="#A6A6A6"/>
<path d="M37.8233 71.7898C37.7699 71.6583 37.743 71.5177 37.744 71.3759C37.745 71.2341 37.7739 71.0938 37.8291 70.9632C37.8843 70.8325 37.9647 70.7141 38.0657 70.6145C38.1667 70.5149 38.2863 70.4362 38.4178 70.3829C38.5492 70.3295 38.6898 70.3026 38.8316 70.3036C38.9735 70.3046 39.1137 70.3335 39.2443 70.3887C39.375 70.4439 39.4935 70.5243 39.593 70.6253C39.6926 70.7263 39.7713 70.8459 39.8247 70.9774C39.878 71.1088 39.9049 71.2494 39.9039 71.3912C39.9029 71.533 39.874 71.6733 39.8188 71.8039C39.7636 71.9346 39.6832 72.0531 39.5822 72.1526C39.4812 72.2522 39.3616 72.3309 39.2302 72.3843C39.0987 72.4376 38.9581 72.4645 38.8163 72.4635C38.6745 72.4625 38.5342 72.4336 38.4036 72.3784C38.2729 72.3232 38.1545 72.2428 38.0549 72.1418C37.9553 72.0408 37.8766 71.9212 37.8233 71.7898Z" fill="#A6A6A6"/>
<path d="M154.382 22.8682L146.645 26.0088L148.01 29.3723L155.747 26.2317L154.382 22.8682Z" fill="#A6A6A6"/>
<path d="M156.073 26.3692L147.873 29.6978L146.319 25.8711L154.519 22.5425L156.073 26.3692ZM148.148 29.0465L155.421 26.094L154.244 23.1938L146.98 26.1426L148.148 29.0465Z" fill="white"/>
<path d="M152.548 24.1199L147.294 26.2524L148.306 28.7449L153.56 26.6124L152.548 24.1199Z" fill="#A6A6A6"/>
<path d="M155.588 23.1554L154.866 23.4487L155.686 25.4687L156.408 25.1753L155.588 23.1554Z" fill="#A6A6A6"/>
<path d="M237.894 321.582L174.655 347.252C174.307 347.427 174.038 347.726 173.901 348.091C173.764 348.456 173.769 348.858 173.915 349.219C174.062 349.58 174.339 349.873 174.691 350.039C175.044 350.205 175.446 350.232 175.817 350.115L239.056 324.445C239.26 324.381 239.449 324.275 239.61 324.134C239.771 323.993 239.901 323.821 239.992 323.627C240.084 323.433 240.134 323.223 240.14 323.009C240.145 322.795 240.107 322.582 240.026 322.384C239.946 322.185 239.825 322.006 239.672 321.857C239.518 321.707 239.336 321.591 239.136 321.516C238.935 321.441 238.721 321.408 238.508 321.419C238.294 321.43 238.085 321.486 237.894 321.582Z" fill="#A6A6A6"/>
<path d="M156.272 182.405C159.567 174.606 155.916 165.613 148.117 162.317C140.319 159.022 131.325 162.672 128.029 170.471C124.734 178.27 128.385 187.264 136.184 190.559C143.982 193.855 152.976 190.204 156.272 182.405Z" fill="#455A64"/>
<path d="M135.327 170.948C135.059 171.059 134.83 171.247 134.668 171.488C134.507 171.729 134.42 172.013 134.419 172.303C134.419 172.594 134.504 172.878 134.665 173.119C134.825 173.361 135.054 173.55 135.322 173.662C135.59 173.774 135.885 173.805 136.17 173.749C136.455 173.694 136.717 173.555 136.923 173.351C137.13 173.147 137.271 172.886 137.329 172.602C137.388 172.318 137.361 172.022 137.252 171.753C137.179 171.574 137.071 171.41 136.934 171.272C136.798 171.135 136.636 171.025 136.457 170.95C136.278 170.875 136.086 170.837 135.892 170.836C135.698 170.836 135.506 170.874 135.327 170.948Z" fill="white"/>
<path d="M139.275 169.346C139.005 169.455 138.774 169.642 138.611 169.882C138.448 170.123 138.36 170.406 138.357 170.697C138.355 170.988 138.44 171.273 138.599 171.516C138.759 171.758 138.987 171.949 139.255 172.062C139.523 172.175 139.818 172.206 140.104 172.151C140.39 172.097 140.652 171.959 140.859 171.754C141.067 171.55 141.208 171.289 141.267 171.005C141.326 170.72 141.299 170.424 141.189 170.155C141.043 169.793 140.759 169.505 140.4 169.354C140.04 169.202 139.636 169.199 139.275 169.346Z" fill="white"/>
<path d="M144.318 170.471C144.586 170.36 144.816 170.172 144.977 169.931C145.139 169.69 145.225 169.406 145.226 169.116C145.227 168.826 145.141 168.542 144.981 168.3C144.82 168.058 144.591 167.869 144.324 167.757C144.056 167.645 143.761 167.615 143.476 167.67C143.191 167.725 142.929 167.864 142.722 168.068C142.516 168.272 142.375 168.533 142.316 168.817C142.258 169.101 142.285 169.397 142.394 169.666C142.467 169.845 142.575 170.009 142.711 170.147C142.847 170.285 143.01 170.394 143.188 170.469C143.367 170.544 143.559 170.583 143.753 170.583C143.947 170.583 144.139 170.545 144.318 170.471Z" fill="white"/>
<path d="M136.877 174.765C136.606 174.875 136.373 175.063 136.209 175.306C136.044 175.548 135.956 175.833 135.954 176.126C135.952 176.419 136.036 176.705 136.197 176.95C136.358 177.195 136.588 177.386 136.857 177.5C137.127 177.614 137.424 177.645 137.712 177.59C137.999 177.535 138.264 177.396 138.473 177.19C138.681 176.985 138.824 176.722 138.883 176.436C138.942 176.149 138.915 175.851 138.805 175.58C138.733 175.399 138.626 175.234 138.489 175.095C138.353 174.956 138.191 174.845 138.011 174.769C137.832 174.694 137.639 174.654 137.444 174.653C137.25 174.653 137.057 174.691 136.877 174.765Z" fill="white"/>
<path d="M140.824 173.163C140.552 173.272 140.318 173.459 140.152 173.7C139.986 173.942 139.895 174.227 139.892 174.52C139.888 174.813 139.972 175.101 140.132 175.347C140.292 175.592 140.521 175.785 140.791 175.9C141.06 176.015 141.358 176.047 141.646 175.993C141.934 175.938 142.2 175.799 142.409 175.594C142.618 175.389 142.761 175.126 142.821 174.839C142.88 174.552 142.853 174.253 142.743 173.982C142.596 173.62 142.312 173.33 141.952 173.177C141.593 173.024 141.187 173.019 140.824 173.163Z" fill="white"/>
<path d="M144.762 171.565C144.49 171.673 144.256 171.86 144.09 172.101C143.924 172.343 143.833 172.629 143.829 172.922C143.826 173.215 143.909 173.502 144.07 173.748C144.23 173.993 144.459 174.186 144.729 174.301C144.998 174.416 145.296 174.448 145.584 174.394C145.872 174.34 146.138 174.201 146.347 173.995C146.556 173.79 146.699 173.527 146.759 173.24C146.818 172.953 146.791 172.655 146.681 172.383C146.534 172.021 146.25 171.732 145.89 171.578C145.531 171.425 145.125 171.42 144.762 171.565Z" fill="white"/>
<path d="M138.43 178.592C138.159 178.702 137.927 178.89 137.762 179.132C137.598 179.374 137.509 179.66 137.507 179.953C137.505 180.245 137.59 180.532 137.751 180.777C137.911 181.021 138.141 181.213 138.411 181.326C138.68 181.44 138.978 181.472 139.265 181.417C139.553 181.362 139.817 181.223 140.026 181.017C140.234 180.812 140.377 180.549 140.436 180.262C140.496 179.976 140.468 179.678 140.358 179.406C140.286 179.226 140.179 179.061 140.043 178.922C139.906 178.782 139.744 178.672 139.565 178.596C139.385 178.52 139.193 178.481 138.998 178.48C138.803 178.479 138.61 178.517 138.43 178.592Z" fill="white"/>
<path d="M142.377 176.99C142.105 177.098 141.871 177.285 141.705 177.527C141.539 177.768 141.448 178.054 141.445 178.347C141.441 178.64 141.525 178.928 141.685 179.173C141.845 179.419 142.074 179.611 142.344 179.726C142.614 179.841 142.911 179.874 143.2 179.819C143.488 179.765 143.753 179.626 143.962 179.421C144.171 179.215 144.315 178.952 144.374 178.665C144.433 178.378 144.406 178.08 144.296 177.808C144.149 177.446 143.865 177.157 143.505 177.004C143.146 176.85 142.741 176.845 142.377 176.99Z" fill="white"/>
<path d="M146.315 175.391C146.043 175.5 145.809 175.687 145.643 175.928C145.477 176.17 145.386 176.455 145.383 176.748C145.379 177.041 145.463 177.329 145.623 177.575C145.783 177.82 146.012 178.013 146.282 178.128C146.552 178.243 146.849 178.275 147.138 178.221C147.426 178.166 147.691 178.027 147.9 177.822C148.109 177.617 148.253 177.354 148.312 177.067C148.371 176.78 148.344 176.481 148.234 176.21C148.087 175.848 147.803 175.558 147.443 175.405C147.084 175.252 146.679 175.247 146.315 175.391Z" fill="white"/>
<path d="M143.931 180.817C143.658 180.925 143.424 181.112 143.258 181.355C143.092 181.597 143.001 181.883 142.998 182.176C142.995 182.47 143.08 182.758 143.24 183.003C143.401 183.249 143.632 183.441 143.902 183.555C144.173 183.669 144.471 183.7 144.759 183.645C145.047 183.589 145.312 183.449 145.521 183.242C145.729 183.035 145.871 182.771 145.929 182.483C145.987 182.196 145.958 181.897 145.846 181.626C145.699 181.265 145.415 180.976 145.056 180.825C144.697 180.673 144.292 180.67 143.931 180.817Z" fill="white"/>
<path d="M204.911 215.681C212.756 212.497 216.534 203.556 213.35 195.711C210.166 187.866 201.225 184.088 193.38 187.272C185.535 190.457 181.757 199.398 184.941 207.242C188.126 215.087 197.067 218.865 204.911 215.681Z" fill="#455A64"/>
<path d="M200.547 196.181C200.791 196.783 200.852 197.445 200.72 198.083C200.589 198.72 200.271 199.304 199.808 199.761C199.345 200.218 198.756 200.527 198.117 200.649C197.478 200.772 196.817 200.702 196.218 200.448C195.618 200.195 195.107 199.77 194.75 199.226C194.392 198.683 194.204 198.045 194.208 197.395C194.213 196.744 194.41 196.109 194.776 195.571C195.141 195.032 195.658 194.614 196.261 194.37C197.069 194.041 197.975 194.048 198.779 194.387C199.582 194.727 200.218 195.372 200.547 196.181Z" fill="white"/>
<path d="M206.185 203.691L206.697 204.951C206.025 205.866 205.217 206.671 204.299 207.339C203.134 208.179 201.815 208.779 200.416 209.104C199.017 209.429 197.568 209.472 196.153 209.232L195.641 207.971C195.073 206.573 195.085 205.007 195.672 203.617C196.259 202.227 197.375 201.127 198.773 200.559C200.171 199.992 201.738 200.003 203.128 200.59C204.518 201.177 205.618 202.293 206.185 203.691Z" fill="white"/>
<path d="M116.063 198.736C119.358 190.937 115.708 181.943 107.909 178.648C100.11 175.352 91.1163 179.003 87.8208 186.802C84.5253 194.601 88.176 203.594 95.9749 206.89C103.774 210.185 112.767 206.535 116.063 198.736Z" fill="#455A64"/>
<path d="M105.175 200.704C105.089 200.739 104.992 200.738 104.907 200.702C104.821 200.666 104.754 200.597 104.719 200.511L103.184 196.731C103.149 196.645 103.15 196.548 103.186 196.463C103.222 196.377 103.291 196.31 103.377 196.275C103.463 196.24 103.559 196.24 103.645 196.277C103.73 196.313 103.798 196.381 103.833 196.467L105.367 200.248C105.402 200.334 105.402 200.43 105.366 200.516C105.329 200.601 105.261 200.669 105.175 200.704Z" fill="white"/>
<path d="M107.241 199.865L103.099 201.546C103.013 201.581 102.917 201.58 102.831 201.544C102.746 201.508 102.678 201.439 102.643 201.353C102.608 201.267 102.609 201.171 102.645 201.085C102.681 201 102.75 200.932 102.836 200.897L106.978 199.216C107.064 199.181 107.16 199.182 107.246 199.218C107.331 199.254 107.399 199.323 107.434 199.409C107.469 199.495 107.468 199.591 107.432 199.676C107.396 199.762 107.327 199.83 107.241 199.865Z" fill="white"/>
<path d="M102.471 186.411L104.701 191.906C104.87 192.26 104.964 192.645 104.979 193.037C104.994 193.429 104.928 193.821 104.786 194.186C104.644 194.552 104.428 194.885 104.153 195.165C103.877 195.445 103.548 195.665 103.184 195.813C102.82 195.96 102.43 196.032 102.038 196.023C101.646 196.015 101.259 195.926 100.902 195.763C100.545 195.599 100.226 195.365 99.9627 195.073C99.6998 194.782 99.4992 194.44 99.3732 194.068L97.1429 188.574C96.8394 187.875 96.8257 187.085 97.1049 186.377C97.3841 185.668 97.9332 185.1 98.6315 184.796C99.3298 184.493 100.12 184.479 100.828 184.758C101.537 185.038 102.105 185.587 102.409 186.285C102.434 186.324 102.455 186.367 102.471 186.411Z" fill="white"/>
<path d="M103.627 196.918C103.12 197.125 102.577 197.23 102.029 197.227C101.481 197.224 100.939 197.112 100.434 196.899C99.9294 196.685 99.4717 196.375 99.0875 195.984C98.7032 195.593 98.3999 195.13 98.195 194.622L97.2548 192.306C97.2279 192.262 97.2109 192.214 97.2048 192.163C97.1987 192.113 97.2037 192.061 97.2195 192.013C97.2353 191.964 97.2615 191.92 97.2962 191.883C97.3309 191.845 97.3734 191.816 97.4206 191.797C97.4678 191.778 97.5187 191.769 97.5695 191.772C97.6204 191.774 97.6702 191.788 97.7152 191.812C97.7603 191.835 97.7997 191.869 97.8306 191.909C97.8615 191.95 97.8832 191.996 97.8941 192.046L98.8344 194.363C99.0131 194.797 99.2775 195.191 99.6119 195.52C99.9464 195.85 100.344 196.108 100.781 196.281C101.217 196.453 101.684 196.536 102.154 196.523C102.623 196.511 103.085 196.404 103.512 196.209C104.328 195.809 104.961 195.113 105.281 194.263C105.602 193.413 105.587 192.473 105.238 191.634L104.343 189.428C104.308 189.342 104.309 189.246 104.345 189.161C104.381 189.075 104.45 189.007 104.536 188.973C104.622 188.938 104.718 188.938 104.804 188.974C104.889 189.011 104.957 189.079 104.992 189.165L105.887 191.37C106.314 192.377 106.335 193.51 105.944 194.532C105.554 195.553 104.784 196.384 103.794 196.85L103.627 196.918Z" fill="white"/>
<path d="M164.707 232C172.552 228.816 176.33 219.875 173.146 212.03C169.961 204.185 161.021 200.407 153.176 203.592C145.331 206.776 141.553 215.717 144.737 223.562C147.921 231.407 156.862 235.185 164.707 232Z" fill="#455A64"/>
<path d="M166.486 212.64L167.953 216.253C168.007 216.404 168.026 216.565 168.01 216.724C167.993 216.883 167.942 217.037 167.859 217.174C167.776 217.311 167.664 217.427 167.531 217.516C167.397 217.604 167.246 217.661 167.087 217.684L165.31 217.931L164.447 218.065L162.698 213.757L164.626 212.337L164.883 212.147C165.016 212.057 165.168 211.998 165.327 211.975C165.486 211.952 165.648 211.964 165.802 212.011C165.956 212.059 166.097 212.139 166.215 212.248C166.333 212.357 166.426 212.491 166.486 212.64Z" fill="white"/>
<path d="M159.08 212.581L152.835 215.116C151.827 215.525 151.341 216.674 151.751 217.682L153.868 222.899C154.277 223.907 155.426 224.393 156.435 223.983L162.68 221.448C163.688 221.039 164.173 219.89 163.764 218.882L161.647 213.665C161.237 212.657 160.088 212.172 159.08 212.581Z" fill="white"/>
<path d="M124.494 248.324C132.339 245.139 136.117 236.198 132.933 228.353C129.748 220.509 120.807 216.73 112.962 219.915C105.118 223.099 101.339 232.04 104.524 239.885C107.708 247.73 116.649 251.508 124.494 248.324Z" fill="#455A64"/>
<path d="M123.799 231.058L119.24 232.908L117.393 228.359C117.301 228.13 117.121 227.948 116.894 227.852C116.666 227.756 116.41 227.754 116.182 227.847C115.953 227.939 115.771 228.119 115.675 228.346C115.579 228.574 115.577 228.83 115.67 229.058L117.517 233.608L112.967 235.454C112.841 235.491 112.724 235.554 112.623 235.639C112.522 235.724 112.441 235.829 112.383 235.947C112.326 236.065 112.294 236.195 112.29 236.326C112.285 236.458 112.309 236.589 112.358 236.711C112.408 236.833 112.482 236.943 112.577 237.034C112.672 237.125 112.785 237.196 112.908 237.241C113.032 237.286 113.164 237.304 113.295 237.295C113.426 237.286 113.554 237.249 113.671 237.187L118.22 235.34L120.067 239.89C120.159 240.118 120.339 240.301 120.566 240.397C120.794 240.493 121.05 240.494 121.278 240.402C121.507 240.309 121.689 240.129 121.785 239.902C121.881 239.675 121.883 239.419 121.79 239.19L119.943 234.641L124.502 232.79C124.707 232.681 124.865 232.5 124.944 232.281C125.024 232.062 125.019 231.822 124.932 231.607C124.844 231.391 124.68 231.216 124.471 231.114C124.262 231.013 124.022 230.993 123.799 231.058Z" fill="white"/>
<path d="M196.48 166.093C199.776 158.294 196.125 149.301 188.326 146.005C180.527 142.71 171.533 146.36 168.238 154.159C164.943 161.958 168.593 170.952 176.392 174.247C184.191 177.543 193.185 173.892 196.48 166.093Z" fill="#455A64"/>
<path d="M189.163 156.65C189.031 156.325 188.821 156.022 188.634 155.72C188.226 155.087 187.732 154.514 187.166 154.017C186.7 153.588 186.186 153.214 185.634 152.902L184.809 152.492L184.512 153.195L184.334 153.581C185.241 153.961 186.064 154.518 186.756 155.218C187.448 155.918 187.994 156.747 188.364 157.659C188.735 158.571 188.921 159.547 188.913 160.531C188.904 161.515 188.702 162.488 188.317 163.393L188.721 163.564L189.437 163.866C189.532 163.623 189.628 163.379 189.71 163.13C189.868 162.641 189.983 162.14 190.051 161.631C190.118 161.149 190.144 160.662 190.129 160.175C190.109 159.505 190.006 158.84 189.822 158.195C189.732 157.973 189.638 157.741 189.603 157.496C189.505 157.493 189.208 156.761 189.163 156.65Z" fill="white"/>
<path d="M186.726 157.348C186.05 156.177 185.007 155.261 183.758 154.742L183.289 155.872C183.897 156.128 184.448 156.501 184.911 156.971C185.374 157.44 185.739 157.997 185.986 158.608C186.239 159.218 186.367 159.872 186.362 160.532C186.358 161.192 186.221 161.845 185.959 162.451L187.092 162.93C187.473 162.036 187.638 161.065 187.575 160.095C187.511 159.125 187.22 158.184 186.726 157.348Z" fill="white"/>
<path d="M182.828 156.998L182.355 158.118C182.668 158.247 182.953 158.437 183.191 158.678C183.43 158.918 183.618 159.204 183.744 159.519C183.872 159.831 183.937 160.166 183.935 160.504C183.933 160.842 183.865 161.176 183.733 161.487L184.854 161.961C185.051 161.502 185.154 161.009 185.159 160.51C185.164 160.012 185.069 159.517 184.88 159.055C184.692 158.593 184.413 158.173 184.061 157.82C183.709 157.467 183.29 157.187 182.828 156.998Z" fill="white"/>
<path d="M176.74 159.706L174.387 160.662L176.237 165.22L178.591 164.265L176.74 159.706Z" fill="white"/>
<path d="M176.74 159.707L180.336 156.121L183.668 164.331L178.591 164.265L176.74 159.707Z" fill="white"/>
<path d="M193.563 303.087C202.82 299.33 207.278 288.779 203.521 279.522C199.763 270.264 189.212 265.806 179.955 269.564C170.698 273.321 166.239 283.872 169.997 293.129C173.755 302.387 184.305 306.845 193.563 303.087Z" fill="#92E3A9"/>
<path d="M196.316 282.565C196.135 282.327 195.942 282.1 195.737 281.882C195.5 281.682 195.249 281.499 194.986 281.335L194.126 280.971C193.791 280.891 193.471 280.795 193.135 280.737C191.875 280.502 190.58 280.521 189.327 280.794C186.371 281.357 183.555 282.499 181.043 284.156C179.944 284.842 178.991 285.739 178.24 286.794C178.052 287.076 177.886 287.359 177.716 287.632L177.333 288.522L177.222 289.074C177.134 289.49 177.164 289.923 177.309 290.323L182.701 288.134C182.741 288.121 182.774 288.095 182.797 288.06C182.82 288.025 182.831 287.984 182.828 287.943C182.862 287.596 182.985 287.265 183.186 286.981C183.387 286.697 183.658 286.47 183.973 286.323C185.505 285.582 187.084 284.942 188.699 284.405C189.025 284.282 189.378 284.25 189.721 284.312C190.064 284.374 190.383 284.529 190.645 284.759C190.68 284.792 190.724 284.814 190.771 284.821C190.819 284.829 190.867 284.822 190.911 284.802L196.146 282.677L196.316 282.565Z" fill="white"/>
<path d="M177.754 291.449L178.556 293.422C178.58 293.518 178.626 293.606 178.691 293.681C178.755 293.755 178.836 293.814 178.926 293.853C179.017 293.891 179.116 293.908 179.214 293.902C179.312 293.896 179.408 293.867 179.493 293.818L183.496 292.194C183.594 292.169 183.684 292.121 183.761 292.055C183.837 291.989 183.897 291.906 183.935 291.813C183.974 291.72 183.99 291.619 183.983 291.518C183.976 291.418 183.946 291.32 183.894 291.233L183.259 289.668C183.202 289.529 183.146 289.39 183.097 289.269L177.754 291.449Z" fill="white"/>
<path d="M196.714 283.677L191.423 285.824C191.694 286.491 191.964 287.159 192.239 287.835C192.267 287.924 192.314 288.006 192.377 288.075C192.44 288.144 192.518 288.198 192.604 288.233C192.691 288.268 192.784 288.283 192.877 288.278C192.971 288.273 193.061 288.247 193.143 288.202L197.183 286.562C197.275 286.536 197.361 286.49 197.433 286.428C197.505 286.365 197.562 286.286 197.6 286.199C197.638 286.111 197.655 286.016 197.651 285.92C197.648 285.824 197.622 285.731 197.578 285.646C197.322 285.016 197.07 284.395 196.826 283.793L196.714 283.677Z" fill="white"/>
<path d="M118.305 92.7302C115.706 91.6325 112.839 92.0935 110.745 93.6889C109.729 94.4638 108.894 95.5074 108.361 96.7697C108.347 96.8032 108.333 96.8379 108.319 96.8721C107.586 98.6786 107.6 100.608 108.219 102.311C108.73 103.717 109.653 104.97 110.908 105.875C111.363 106.203 111.862 106.485 112.401 106.713C114.456 107.581 116.679 107.474 118.554 106.603L119.548 109.295L122.344 102.673C123.974 98.8125 122.166 94.3604 118.305 92.7302ZM116.874 102.611C115.717 103.081 114.453 102.873 113.523 102.173C114.102 100.389 113.981 98.5197 113.291 96.8886C113.579 96.6294 113.916 96.4146 114.296 96.2603C116.05 95.5483 118.048 96.3927 118.76 98.1468C119.472 99.9003 118.628 101.899 116.874 102.611Z" fill="url(#paint0_linear_505_21863)"/>
<path d="M113.291 96.8887C113.981 98.5201 114.102 100.389 113.523 102.173C113.044 101.812 112.653 101.321 112.41 100.724C111.852 99.3504 112.25 97.8264 113.291 96.8887Z" fill="url(#paint1_linear_505_21863)"/>
<path d="M110.746 93.6892C110.292 93.3616 109.794 93.08 109.257 92.8531C105.397 91.2203 100.944 93.0262 99.3114 96.8867C97.6791 100.746 99.4852 105.199 103.345 106.832L109.965 109.631L108.801 107.008C109.556 106.745 110.268 106.363 110.908 105.875C111.924 105.101 112.758 104.059 113.29 102.798C113.378 102.591 113.455 102.383 113.522 102.174C114.101 100.389 113.981 98.5201 113.291 96.8891C112.762 95.6313 111.892 94.5153 110.746 93.6892ZM103.008 100.843C102.297 99.0892 103.141 97.09 104.895 96.3783C106.083 95.896 107.382 96.1283 108.319 96.8724C107.586 98.6789 107.6 100.608 108.219 102.311C107.994 102.478 107.745 102.619 107.473 102.729C105.719 103.441 103.72 102.596 103.008 100.843Z" fill="url(#paint2_linear_505_21863)"/>
<path d="M109.359 98.2644C109.961 99.7468 109.451 101.404 108.219 102.311C107.6 100.608 107.586 98.6783 108.319 96.8719C108.766 97.2269 109.13 97.6989 109.359 98.2644Z" fill="url(#paint3_linear_505_21863)"/>
<path d="M93.9424 128.044C93.4257 128.057 92.7746 128.125 92.0002 128.243C91.2573 128.374 90.6891 128.421 90.3003 128.396C89.9002 128.375 89.6475 128.202 89.5197 127.887C89.3918 127.573 89.4325 127.255 89.6351 126.95C89.8488 126.641 90.2447 126.362 90.8498 126.116C91.7014 125.771 92.6647 125.668 93.7126 125.806L93.7118 123.907C93.1765 123.81 92.6013 123.807 91.9862 123.9C91.3666 123.981 90.7565 124.15 90.1626 124.391C89.311 124.737 88.6441 125.152 88.1664 125.647C87.6887 126.142 87.3932 126.668 87.2799 127.225C87.1666 127.782 87.2172 128.324 87.4363 128.864C87.6873 129.483 88.045 129.914 88.5206 130.153C88.9962 130.392 89.4868 130.507 90.0035 130.494C90.5201 130.481 91.1713 130.413 91.9457 130.295C92.4462 130.21 92.8459 130.165 93.1513 130.146C93.4568 130.127 93.7265 130.149 93.9539 130.227C94.1814 130.304 94.344 130.448 94.4353 130.673C94.5586 130.977 94.5088 131.272 94.2905 131.57C94.0722 131.868 93.6605 132.14 93.0554 132.386C92.5063 132.609 91.9207 132.742 91.3098 132.78C90.6877 132.823 90.1212 132.778 89.6104 132.645L89.5393 134.56C90.0817 134.706 90.7358 134.742 91.5015 134.667C92.2672 134.592 93.0142 134.406 93.7425 134.111C94.5942 133.765 95.2611 133.35 95.7388 132.855C96.2277 132.355 96.5232 131.829 96.6477 131.268C96.761 130.711 96.7216 130.164 96.5071 129.635C96.256 129.017 95.8983 128.586 95.4273 128.358C94.9608 128.141 94.4591 128.031 93.9424 128.044Z" fill="#444444"/>
<path d="M103.516 119.154L101.13 120.123L98.7905 126.128L97.0285 121.788L94.8995 122.652L98.6699 131.94L100.799 131.076L99.8449 128.726L100.564 126.928L105.012 129.366L107.511 128.352L101.353 124.852L103.516 119.154Z" fill="#444444"/>
<path d="M111.097 120.884L106.945 117.762L104.671 118.686L110.68 123.201L112.027 126.519L114.167 125.65L112.83 122.355L113.994 114.901L111.898 115.752L111.097 120.884Z" fill="#444444"/>
<path d="M115.613 116.287L118.583 115.082L121.641 122.616L123.781 121.747L120.723 114.213L123.681 113.012L122.969 111.258L114.901 114.533L115.613 116.287Z" fill="#444444"/>
<path d="M128.549 115.293L132.852 113.547L132.176 111.882L127.873 113.629L127.051 111.605L131.926 109.626L131.227 107.906L124.224 110.749L127.994 120.037L135.166 117.126L134.468 115.406L129.425 117.452L128.549 115.293Z" fill="#444444"/>
<path d="M134.836 106.441L132.695 107.31L136.466 116.598L143.245 113.846L142.533 112.092L137.894 113.975L134.836 106.441Z" fill="#444444"/>
<path d="M145.883 110.732L142.825 103.198L140.685 104.067L144.455 113.355L151.235 110.604L150.522 108.849L145.883 110.732Z" fill="#444444"/>
<path d="M86.9256 85.4974L84.9223 86.3106L84.5698 85.4735L86.3886 84.7352C86.689 84.6133 86.9308 84.4561 87.1141 84.2637C87.2974 84.0712 87.4123 83.8559 87.459 83.6178C87.5078 83.3745 87.4786 83.1208 87.3713 82.8566C87.2538 82.567 87.1022 82.3545 86.9165 82.2191C86.733 82.0786 86.5104 82.013 86.2485 82.0223C85.9889 82.0265 85.6853 82.0991 85.3378 82.2402L83.796 82.8661L86.6565 89.9131L85.6087 90.3384L82.3999 82.4336L84.9896 81.3824C85.395 81.2178 85.7739 81.1125 86.1262 81.0665C86.477 81.0168 86.7981 81.0341 87.0894 81.1182C87.3828 81.1972 87.6411 81.3453 87.8642 81.5625C88.0872 81.7797 88.2737 82.0729 88.4236 82.4421C88.5558 82.7678 88.5923 83.0966 88.533 83.4284C88.4723 83.7566 88.3274 84.0642 88.0982 84.3511C87.8726 84.6366 87.5721 84.883 87.1966 85.0902L86.9256 85.4974ZM88.3775 89.2145L86.0104 90.1753L86.2562 89.0828L88.0315 88.3621C88.3645 88.227 88.6233 88.0544 88.808 87.8446C88.9962 87.6333 89.1093 87.3977 89.1471 87.1378C89.1835 86.8743 89.1429 86.5978 89.0254 86.3082C88.9064 86.015 88.751 85.783 88.5594 85.612C88.3677 85.4411 88.1362 85.3433 87.8648 85.3185C87.5934 85.2938 87.2803 85.3534 86.9256 85.4974L85.4326 86.1035L85.1019 85.2575L87.1432 84.4289L87.4892 84.6426C87.8825 84.5209 88.2487 84.4987 88.5878 84.5761C88.9255 84.6498 89.2204 84.7999 89.4726 85.0264C89.7283 85.2514 89.9252 85.534 90.0634 85.8742C90.2632 86.3665 90.3235 86.8268 90.2445 87.2552C90.1676 87.6785 89.9697 88.0581 89.6507 88.3941C89.3304 88.7265 88.906 89 88.3775 89.2145ZM91.6448 83.3984L93.4092 82.6822C93.8834 82.4897 94.3171 82.4106 94.7105 82.4449C95.1023 82.4756 95.4403 82.6019 95.7243 82.8238C96.0105 83.0407 96.2278 83.3319 96.3761 83.6975C96.4863 83.969 96.5429 84.2432 96.5457 84.5203C96.5471 84.7938 96.4897 85.0574 96.3735 85.3111C96.2609 85.5634 96.0876 85.796 95.8537 86.0091C95.6219 86.217 95.3286 86.3929 94.9739 86.5369L92.4765 87.5506L90.092 81.6763L91.0964 81.2686L93.1459 86.3177L94.639 85.7117C94.9285 85.5941 95.1389 85.4476 95.27 85.2721C95.4011 85.0966 95.4709 84.9102 95.4793 84.7129C95.4877 84.5155 95.4552 84.3264 95.3818 84.1454C95.3098 83.9681 95.2012 83.8098 95.0562 83.6705C94.9111 83.5312 94.729 83.4408 94.5097 83.3991C94.2889 83.3538 94.0338 83.3899 93.7442 83.5074L91.9797 84.2237L91.6448 83.3984ZM96.873 78.9238L99.2575 84.7981L98.2531 85.2058L95.8686 79.3315L96.873 78.9238ZM102.071 80.3869L100.99 80.8254L100.739 80.2065L101.738 79.801C102.017 79.6879 102.223 79.5639 102.358 79.429C102.492 79.2905 102.567 79.1439 102.585 78.9894C102.602 78.8348 102.576 78.6724 102.507 78.5023C102.445 78.3503 102.348 78.2235 102.214 78.1219C102.082 78.0152 101.914 77.9547 101.71 77.9406C101.505 77.9227 101.259 77.9719 100.973 78.0879C100.741 78.182 100.548 78.3088 100.394 78.4684C100.238 78.6245 100.133 78.7958 100.078 78.9825C100.025 79.1641 100.034 79.3418 100.104 79.5156L99.1 79.9233C98.9545 79.5649 98.931 79.2161 99.0294 78.8769C99.1299 78.5325 99.3216 78.2207 99.6045 77.9415C99.8911 77.6607 100.237 77.4381 100.642 77.2736C100.983 77.1355 101.302 77.05 101.601 77.0173C101.902 76.9795 102.176 76.9948 102.423 77.0632C102.668 77.128 102.883 77.2473 103.067 77.4212C103.254 77.5899 103.404 77.8137 103.517 78.0924C103.598 78.2915 103.627 78.4988 103.605 78.7143C103.583 78.9299 103.511 79.1424 103.39 79.3519C103.267 79.5578 103.094 79.7502 102.871 79.9291C102.652 80.1065 102.385 80.2591 102.071 80.3869ZM100.836 80.4454L101.916 80.0068C102.267 79.8643 102.591 79.7731 102.887 79.7331C103.181 79.6896 103.445 79.6962 103.679 79.7531C103.913 79.8099 104.114 79.9159 104.282 80.071C104.453 80.221 104.588 80.419 104.688 80.6652C104.799 80.9402 104.844 81.2109 104.821 81.4773C104.801 81.7385 104.72 81.9863 104.579 82.2206C104.438 82.4549 104.243 82.6691 103.993 82.8633C103.746 83.0561 103.453 83.2215 103.113 83.3596C102.733 83.5139 102.337 83.5986 101.926 83.6138C101.515 83.6289 101.138 83.5478 100.796 83.3703C100.453 83.1893 100.196 82.887 100.024 82.4636L101.028 82.0559C101.1 82.2332 101.224 82.3787 101.401 82.4924C101.578 82.6062 101.786 82.6715 102.025 82.6884C102.267 82.7038 102.52 82.6579 102.784 82.5507C103.067 82.4361 103.284 82.2972 103.437 82.1339C103.59 81.9706 103.684 81.7975 103.72 81.6145C103.759 81.4301 103.744 81.2528 103.675 81.0827C103.585 80.8619 103.47 80.7022 103.328 80.6035C103.187 80.5049 103.014 80.4615 102.808 80.4734C102.604 80.4803 102.363 80.5403 102.084 80.6534L101.085 81.0589L100.836 80.4454ZM105.231 79.0281L105.18 78.9032C105.008 78.4798 104.911 78.0621 104.887 77.6502C104.861 77.2347 104.91 76.846 105.033 76.4841C105.155 76.1186 105.35 75.7948 105.619 75.5127C105.887 75.227 106.225 75.0012 106.634 74.8351C107.047 74.6677 107.448 74.5931 107.84 74.6114C108.233 74.6246 108.6 74.72 108.942 74.8974C109.286 75.0697 109.594 75.3137 109.865 75.6293C110.135 75.9413 110.356 76.309 110.528 76.7325L110.579 76.8574C110.751 77.2808 110.849 77.6985 110.872 78.1104C110.896 78.5223 110.846 78.9117 110.721 79.2787C110.598 79.6406 110.402 79.9644 110.135 80.2501C109.869 80.5307 109.53 80.7548 109.117 80.9222C108.705 81.0897 108.304 81.1661 107.914 81.1514C107.523 81.1331 107.156 81.0378 106.812 80.8654C106.47 80.688 106.164 80.4433 105.894 80.1313C105.624 79.8193 105.403 79.4516 105.231 79.0281ZM106.185 78.4955L106.235 78.6204C106.354 78.9136 106.501 79.1765 106.676 79.4092C106.849 79.6383 107.045 79.8244 107.263 79.9676C107.485 80.1094 107.724 80.1956 107.981 80.2262C108.237 80.2532 108.504 80.2101 108.783 80.097C109.058 79.9854 109.276 79.8315 109.436 79.6356C109.599 79.4346 109.709 79.2066 109.766 78.9517C109.822 78.6968 109.833 78.4269 109.798 78.142C109.764 77.852 109.688 77.5605 109.569 77.2673L109.518 77.1424C109.401 76.8529 109.254 76.5943 109.077 76.3667C108.902 76.134 108.704 75.9468 108.482 75.805C108.262 75.6581 108.024 75.5694 107.767 75.5388C107.514 75.5067 107.248 75.5473 106.969 75.6604C106.694 75.772 106.475 75.9284 106.312 76.1294C106.153 76.329 106.044 76.5588 105.985 76.8187C105.928 77.0736 105.918 77.3454 105.955 77.6339C105.991 77.9188 106.067 78.206 106.185 78.4955ZM114.713 75.5143L112.786 76.2967L112.449 75.4976L114.023 74.8585C114.334 74.7321 114.581 74.5963 114.762 74.451C114.947 74.3043 115.067 74.1481 115.122 73.9824C115.177 73.8167 115.168 73.6434 115.094 73.4624C115.037 73.3213 114.956 73.2107 114.852 73.1307C114.75 73.0457 114.626 72.993 114.478 72.9727C114.329 72.9488 114.16 72.9565 113.969 72.996C113.781 73.0303 113.569 73.0952 113.334 73.1907L112.047 73.713L114.101 78.7729L113.096 79.1807L110.712 73.3063L113.003 72.3763C113.376 72.225 113.724 72.1217 114.047 72.0663C114.374 72.0095 114.67 72.0055 114.934 72.0542C115.2 72.0978 115.431 72.1982 115.625 72.3554C115.82 72.5125 115.973 72.7286 116.084 73.0037C116.156 73.181 116.188 73.364 116.181 73.5527C116.173 73.7413 116.124 73.9258 116.032 74.1062C115.941 74.2865 115.809 74.4584 115.635 74.6218C115.459 74.7815 115.242 74.9266 114.983 75.057L114.713 75.5143ZM115.762 78.0986L113.471 79.0286L113.64 78.0115L115.432 77.2842C115.71 77.1711 115.928 77.0427 116.085 76.899C116.24 76.7517 116.336 76.5945 116.374 76.4275C116.414 76.2553 116.396 76.077 116.321 75.8924C116.246 75.7078 116.135 75.5695 115.988 75.4774C115.843 75.3802 115.665 75.3347 115.452 75.3408C115.238 75.3434 114.992 75.4012 114.713 75.5143L113.188 76.1336L112.872 75.3257L114.778 74.5521L115.265 74.7085C115.597 74.6031 115.903 74.5718 116.182 74.6146C116.461 74.6575 116.7 74.7585 116.899 74.9178C117.097 75.0735 117.245 75.2708 117.342 75.5096C117.454 75.7847 117.499 76.0485 117.48 76.3011C117.464 76.5521 117.386 76.7879 117.248 77.0084C117.109 77.2253 116.914 77.4265 116.665 77.612C116.414 77.7939 116.113 77.9561 115.762 78.0986ZM119.167 76.0966C119.098 75.9265 119.093 75.7622 119.151 75.6038C119.211 75.4403 119.342 75.3174 119.545 75.2351C119.748 75.1528 119.926 75.1501 120.079 75.2269C120.235 75.2987 120.347 75.4196 120.416 75.5897C120.484 75.7562 120.487 75.9194 120.425 76.0793C120.367 76.2378 120.237 76.3581 120.034 76.4404C119.831 76.5227 119.652 76.5279 119.497 76.4562C119.345 76.383 119.235 76.2631 119.167 76.0966ZM122.099 74.9066C122.03 74.7364 122.025 74.5722 122.082 74.4138C122.143 74.2502 122.274 74.1273 122.477 74.0451C122.679 73.9628 122.857 73.9601 123.011 74.0369C123.166 74.1086 123.279 74.2296 123.348 74.3997C123.415 74.5662 123.418 74.7294 123.357 74.8893C123.299 75.0477 123.169 75.1681 122.966 75.2503C122.763 75.3326 122.584 75.3379 122.428 75.2661C122.276 75.1929 122.167 75.0731 122.099 74.9066ZM125.031 73.7165C124.962 73.5464 124.956 73.3821 125.014 73.2237C125.074 73.0602 125.206 72.9373 125.408 72.855C125.611 72.7727 125.789 72.77 125.943 72.8469C126.098 72.9186 126.211 73.0395 126.28 73.2096C126.347 73.3761 126.35 73.5393 126.289 73.6992C126.231 73.8577 126.1 73.978 125.898 74.0603C125.695 74.1426 125.516 74.1478 125.36 74.0761C125.208 74.0029 125.098 73.883 125.031 73.7165Z" fill="#A6A6A6"/>
<defs>
<linearGradient id="paint0_linear_505_21863" x1="107.952" y1="99.3991" x2="122.998" y2="101.426" gradientUnits="userSpaceOnUse">
<stop stop-color="#2D82DD"/>
<stop offset="1" stop-color="#25DEBE"/>
</linearGradient>
<linearGradient id="paint1_linear_505_21863" x1="112.16" y1="99.5748" x2="113.885" y2="99.5144" gradientUnits="userSpaceOnUse">
<stop stop-color="#2D82DD"/>
<stop offset="1" stop-color="#25DEBE"/>
</linearGradient>
<linearGradient id="paint2_linear_505_21863" x1="98.7557" y1="101.267" x2="113.928" y2="100.736" gradientUnits="userSpaceOnUse">
<stop stop-color="#FE7316"/>
<stop offset="1" stop-color="#EB4E91"/>
</linearGradient>
<linearGradient id="paint3_linear_505_21863" x1="107.932" y1="99.546" x2="122.992" y2="101.574" gradientUnits="userSpaceOnUse">
<stop stop-color="#2D82DD"/>
<stop offset="1" stop-color="#25DEBE"/>
</linearGradient>
</defs>
</svg>
