<svg width="28" height="28" viewBox="0 0 28 28" fill="none" xmlns="http://www.w3.org/2000/svg">
<path d="M4.65741 21.5162L5.99191 16.6348C5.17145 15.2012 4.74103 13.5775 4.74354 11.9257C4.73368 6.71846 8.93693 2.48927 14.1032 2.48927C16.6098 2.48927 18.9638 3.46732 20.7367 5.25114C22.5097 7.03497 23.4815 9.40354 23.4815 11.9257C23.4815 17.1236 19.2788 21.3533 14.1125 21.3533C12.546 21.3553 11.0047 20.9593 9.63323 20.2025L4.65741 21.5162ZM9.85271 18.5048L10.1386 18.6776C11.3379 19.392 12.7077 19.7697 14.1037 19.7708C18.3926 19.7708 21.8907 16.2509 21.8907 11.9356C21.8907 9.84457 21.0807 7.86929 19.6129 6.3921C18.144 4.91596 16.1807 4.09098 14.1027 4.09098C9.80394 4.09098 6.30581 7.6109 6.30581 11.9262C6.30581 13.4034 6.71571 14.8515 7.49762 16.0978L7.6787 16.3956L6.88745 19.2919L9.85167 18.5053L9.85271 18.5048Z" fill="white"/>
<path d="M4.98169 21.1899L6.26845 16.4719C5.475 15.0882 5.05767 13.5208 5.05796 11.9257C5.05796 6.91045 9.11852 2.82498 14.1032 2.82498C16.5242 2.82498 18.7926 3.77449 20.5079 5.49086C21.3509 6.33662 22.0188 7.34029 22.4735 8.44445C22.9282 9.54861 23.1607 10.7316 23.1577 11.9257C23.1577 16.9415 19.0977 21.027 14.1125 21.027C12.5975 21.027 11.1104 20.643 9.78525 19.9145L4.98169 21.1899Z" fill="url(#paint0_linear_301_24)"/>
<g filter="url(#filter0_d_301_24)">
<path d="M4.65741 21.5162L5.99191 16.6348C5.17145 15.2012 4.74103 13.5775 4.74354 11.9257C4.73368 6.71846 8.93693 2.48927 14.1032 2.48927C16.6098 2.48927 18.9638 3.46732 20.7367 5.25114C22.5097 7.03497 23.4815 9.40354 23.4815 11.9257C23.4815 17.1236 19.2788 21.3533 14.1125 21.3533C12.546 21.3553 11.0047 20.9593 9.63323 20.2025L4.65741 21.5162ZM9.85271 18.5048L10.1386 18.6776C11.3379 19.392 12.7077 19.7697 14.1037 19.7708C18.3926 19.7708 21.8907 16.2509 21.8907 11.9356C21.8907 9.84457 21.0807 7.86929 19.6129 6.3921C18.144 4.91596 16.1807 4.09098 14.1027 4.09098C9.80394 4.09098 6.30581 7.6109 6.30581 11.9262C6.30581 13.4034 6.71571 14.8515 7.49762 16.0978L7.6787 16.3956L6.88745 19.2919L9.85167 18.5053L9.85271 18.5048Z" fill="url(#paint1_linear_301_24)"/>
<path d="M3.23531 22.926L3.69281 21.2525L4.92107 16.7597C4.14617 15.2686 3.74125 13.6105 3.74354 11.9259C3.73356 6.17175 8.37914 1.48927 14.1032 1.48927C16.8762 1.48927 19.4855 2.57361 21.446 4.5462C23.4064 6.51864 24.4815 9.14116 24.4815 11.9257C24.4815 17.6695 19.8377 22.3526 14.1138 22.3533L3.23531 22.926ZM3.23531 22.926L4.91269 22.4831M3.23531 22.926L4.91269 22.4831M4.91269 22.4831L9.51244 21.2686M4.91269 22.4831L9.51244 21.2686M9.51244 21.2686C10.9386 21.9829 12.5137 22.3552 14.1125 22.3533L9.51244 21.2686ZM8.30987 17.8798L8.64335 16.6592L8.7568 16.2439L8.53316 15.8761L8.35208 15.5783L8.35217 15.5782L8.34471 15.5664C7.66455 14.4823 7.30581 13.2189 7.30581 11.9262C7.30581 8.15816 10.3612 5.09098 14.1027 5.09098C15.9113 5.09098 17.6204 5.80755 18.9038 7.09725C20.1839 8.38557 20.8907 10.1067 20.8907 11.9356C20.8907 15.7042 17.8349 18.7704 14.1045 18.7708C12.8894 18.7698 11.6971 18.4414 10.653 17.82L10.3699 17.6489L9.89845 17.364L9.49622 17.565L8.30987 17.8798Z" stroke="#20B038" stroke-width="2"/>
</g>
<path fill-rule="evenodd" clip-rule="evenodd" d="M11.7678 7.97462C11.5966 7.58133 11.4056 7.57199 11.2437 7.57199C11.1005 7.56213 10.948 7.56213 10.7861 7.56213C10.6336 7.56213 10.3762 7.61973 10.1573 7.85944C9.93778 8.09915 9.33746 8.66522 9.33746 9.8259C9.33746 10.9861 10.1765 12.1083 10.2906 12.2614C10.4047 12.415 11.911 14.8702 14.2936 15.8197C16.2761 16.6058 16.6767 16.4527 17.1058 16.4045C17.5343 16.3567 18.4875 15.8389 18.6878 15.2822C18.8782 14.7358 18.8782 14.2564 18.8211 14.1604C18.764 14.0644 18.6016 14.0068 18.3728 13.8823C18.1347 13.7671 16.9911 13.1922 16.7716 13.1149C16.5527 13.0381 16.4001 12.9997 16.2476 13.2301C16.095 13.4698 15.6473 13.9975 15.5041 14.1506C15.3707 14.3041 15.228 14.3233 14.9992 14.2082C14.7605 14.0935 14.0082 13.8439 13.1116 13.0381C12.4164 12.415 11.9494 11.6383 11.8062 11.4079C11.6728 11.1682 11.787 11.0437 11.911 10.9285C12.0158 10.8231 12.1497 10.6504 12.2638 10.516C12.378 10.3816 12.4158 10.2763 12.502 10.1227C12.5782 9.96962 12.5398 9.82538 12.4828 9.71071C12.4257 9.60487 11.9774 8.44471 11.7678 7.97462Z" fill="white"/>
<defs>
<filter id="filter0_d_301_24" x="0.72821" y="0.489258" width="26.7533" height="26.9607" filterUnits="userSpaceOnUse" color-interpolation-filters="sRGB">
<feFlood flood-opacity="0" result="BackgroundImageFix"/>
<feColorMatrix in="SourceAlpha" type="matrix" values="0 0 0 0 0 0 0 0 0 0 0 0 0 0 0 0 0 0 127 0" result="hardAlpha"/>
<feOffset dy="2"/>
<feGaussianBlur stdDeviation="1"/>
<feComposite in2="hardAlpha" operator="out"/>
<feColorMatrix type="matrix" values="0 0 0 0 0 0 0 0 0 0 0 0 0 0 0 0 0 0 0.25 0"/>
<feBlend mode="normal" in2="BackgroundImageFix" result="effect1_dropShadow_301_24"/>
<feBlend mode="normal" in="SourceGraphic" in2="effect1_dropShadow_301_24" result="shape"/>
</filter>
<linearGradient id="paint0_linear_301_24" x1="14.0679" y1="21.1888" x2="14.0679" y2="2.82135" gradientUnits="userSpaceOnUse">
<stop stop-color="#20B038"/>
<stop offset="1" stop-color="#60D66A"/>
</linearGradient>
<linearGradient id="paint1_linear_301_24" x1="14.0679" y1="21.5183" x2="14.0679" y2="2.49187" gradientUnits="userSpaceOnUse">
<stop stop-color="#F9F9F9"/>
<stop offset="1" stop-color="white"/>
</linearGradient>
</defs>
</svg>
