<svg width="181" height="42" viewBox="0 0 181 42" fill="none" xmlns="http://www.w3.org/2000/svg">
<path d="M65.4734 17.7884C64.5365 17.4357 63.3184 17.0831 61.8427 16.7305C60.4139 16.4249 59.3598 16.0959 58.6805 15.7668C57.9778 15.4377 57.6499 14.944 57.6499 14.2858C57.6499 13.6276 57.9544 13.0869 58.54 12.6873C59.149 12.2877 60.0625 12.0761 61.3274 12.0761C63.1076 12.0761 64.9112 12.5933 66.6914 13.6041L68.0734 10.1956C67.1833 9.63141 66.1527 9.20828 64.9815 8.92619C63.8103 8.6206 62.5923 8.47957 61.3508 8.47957C59.5706 8.47957 58.0715 8.73814 56.8534 9.2788C55.6354 9.81946 54.7219 10.5482 54.1129 11.465C53.5038 12.3817 53.1993 13.3925 53.1993 14.5209C53.1993 15.8138 53.5273 16.8481 54.2066 17.6238C54.8858 18.3995 55.6823 18.9637 56.6192 19.3163C57.5562 19.6689 58.7742 20.0215 60.2499 20.3741C61.2103 20.5857 61.9598 20.7972 62.522 20.9853C63.0842 21.1734 63.5527 21.4084 63.904 21.714C64.2554 22.0196 64.4428 22.3957 64.4428 22.8659C64.4428 23.5006 64.1382 23.9942 63.5292 24.3703C62.9202 24.7464 61.9833 24.9345 60.7184 24.9345C59.5706 24.9345 58.4228 24.7464 57.2985 24.3703C56.1507 23.9942 55.1669 23.5006 54.3471 22.8894L52.8246 26.2744C53.6912 26.9326 54.839 27.4733 56.2679 27.8964C57.6967 28.3195 59.1724 28.5311 60.695 28.5311C62.4752 28.5311 63.9743 28.2725 65.1923 27.7318C66.4338 27.1912 67.3473 26.4625 67.9798 25.5457C68.5888 24.6289 68.9167 23.6181 68.9167 22.5133C68.9167 21.2204 68.5888 20.1861 67.9095 19.4338C67.2302 18.7051 66.4104 18.141 65.4734 17.7884Z" fill="#444444"/>
<path d="M89.1319 8.80864H84.1427L75.5696 17.8824V8.80864H71.119V28.2255H75.5696V23.3125L78.1696 20.6092L84.3769 28.2255H89.6004L81.0976 17.4592L89.1319 8.80864Z" fill="#444444"/>
<path d="M101.476 17.4357L96.2996 8.80864H91.5446L99.0402 21.2909V28.2255H103.514V21.3379L111.033 8.80864H106.653L101.476 17.4357Z" fill="#444444"/>
<path d="M112.93 12.4757H119.138V28.2255H123.612V12.4757H129.796V8.80864H112.93V12.4757Z" fill="#444444"/>
<path d="M136.87 20.1155H145.864V16.6365H136.87V12.4052H147.059V8.80864H132.419V28.2255H147.41V24.6289H136.87V20.1155Z" fill="#444444"/>
<path d="M154.601 8.80864H150.127V28.2255H164.299V24.5584H154.601V8.80864Z" fill="#444444"/>
<path d="M171.303 24.5584V8.80864H166.829V28.2255H181V24.5584H171.303Z" fill="#444444"/>
<path d="M41.4232 10.6795C37.5582 6.81609 32.0776 5.55509 27.1577 6.89292C24.7681 7.54289 22.5109 8.80803 20.6347 10.6853C20.5848 10.7351 20.5345 10.787 20.4847 10.8384C17.8526 13.5462 16.4722 17.0188 16.3424 20.5266C16.235 23.4219 16.9789 26.3431 18.5727 28.8812C19.1499 29.8027 19.8394 30.6722 20.6409 31.4738C23.6971 34.5284 27.7635 35.9555 31.7635 35.7572L31.586 41.3131L41.4284 31.466C47.167 25.7253 47.1644 16.4176 41.4232 10.6795ZM31.6566 27.3705C29.2384 27.3705 27.1219 26.0768 25.9611 24.143C28.3003 21.3624 29.4461 17.92 29.3957 14.49C30.1002 14.2341 30.8623 14.0945 31.6566 14.0945C35.3233 14.0945 38.2943 17.0655 38.2943 20.7322C38.2943 24.3979 35.3233 27.3705 31.6566 27.3705Z" fill="url(#paint0_linear_301_5)"/>
<path d="M29.3957 14.4901C29.4455 17.9205 28.3003 21.363 25.9611 24.143C25.364 23.1462 25.0204 21.9792 25.0204 20.7322C25.0199 17.8598 26.8441 15.4146 29.3957 14.4901Z" fill="url(#paint1_linear_301_5)"/>
<path d="M27.1577 6.89343C26.582 5.97507 25.8941 5.10706 25.0956 4.30862C19.3576 -1.43361 10.0499 -1.43673 4.30765 4.30239C-1.43355 10.0399 -1.43614 19.3476 4.30142 25.0888L14.1423 34.9359L13.9647 29.3801C15.5118 29.4574 17.0676 29.2908 18.5721 28.8817C20.9586 28.2317 23.2148 26.9697 25.0889 25.0951C25.3962 24.7877 25.6875 24.4711 25.96 24.1435C28.2993 21.363 29.445 17.9205 29.3947 14.4906C29.3609 11.8476 28.6139 9.2114 27.1577 6.89343ZM8.06052 14.095C8.06052 10.4298 11.0331 7.45722 14.6983 7.45722C17.1818 7.45722 19.3451 8.821 20.4846 10.8389C17.8526 13.5468 16.4722 17.0193 16.3424 20.5271C15.8165 20.6621 15.2667 20.7332 14.6983 20.7332C11.0336 20.7327 8.06052 17.7601 8.06052 14.095Z" fill="url(#paint2_linear_301_5)"/>
<path d="M21.3365 14.095C21.3365 17.1937 19.2138 19.7967 16.3424 20.5266C16.4727 17.0188 17.8531 13.5462 20.4846 10.8384C21.0276 11.8009 21.3365 12.9129 21.3365 14.095Z" fill="url(#paint3_linear_301_5)"/>
<defs>
<linearGradient id="paint0_linear_301_5" x1="17.984" y1="15.1057" x2="43.5104" y2="29.7034" gradientUnits="userSpaceOnUse">
<stop stop-color="#2D82DD"/>
<stop offset="1" stop-color="#25DEBE"/>
</linearGradient>
<linearGradient id="paint1_linear_301_5" x1="25.4093" y1="18.487" x2="28.5487" y2="19.6351" gradientUnits="userSpaceOnUse">
<stop stop-color="#2D82DD"/>
<stop offset="1" stop-color="#25DEBE"/>
</linearGradient>
<linearGradient id="paint2_linear_301_5" x1="0.119037" y1="11.7593" x2="27.7353" y2="21.8592" gradientUnits="userSpaceOnUse">
<stop stop-color="#FE7316"/>
<stop offset="1" stop-color="#EB4E91"/>
</linearGradient>
<linearGradient id="paint3_linear_301_5" x1="17.8413" y1="15.3552" x2="43.3917" y2="29.9666" gradientUnits="userSpaceOnUse">
<stop stop-color="#2D82DD"/>
<stop offset="1" stop-color="#25DEBE"/>
</linearGradient>
</defs>
</svg>
