<svg width="24" height="24" viewBox="0 0 24 24" fill="none" xmlns="http://www.w3.org/2000/svg">
<path d="M2.65741 21.5162L3.99191 16.6348C3.17145 15.2012 2.74103 13.5775 2.74354 11.9257C2.73368 6.71848 6.93693 2.48929 12.1032 2.48929C14.6098 2.48929 16.9638 3.46733 18.7367 5.25116C20.5097 7.03498 21.4815 9.40356 21.4815 11.9257C21.4815 17.1236 17.2788 21.3533 12.1125 21.3533C10.546 21.3553 9.00473 20.9594 7.63323 20.2025L2.65741 21.5162V21.5162ZM7.85271 18.5048L8.1386 18.6776C9.33789 19.392 10.7077 19.7697 12.1037 19.7708C16.3926 19.7708 19.8907 16.2509 19.8907 11.9356C19.8907 9.84458 19.0807 7.8693 17.6129 6.39212C16.144 4.91598 14.1807 4.091 12.1027 4.091C7.80394 4.091 4.30581 7.61091 4.30581 11.9262C4.30581 13.4034 4.71571 14.8515 5.49762 16.0978L5.6787 16.3957L4.88745 19.2919L7.85167 18.5053L7.85271 18.5048Z" fill="white"/>
<path d="M2.98169 21.1899L4.26845 16.4719C3.475 15.0882 3.05767 13.5208 3.05796 11.9257C3.05796 6.91045 7.11852 2.82498 12.1032 2.82498C14.5242 2.82498 16.7926 3.77449 18.5079 5.49086C19.3509 6.33662 20.0188 7.34029 20.4735 8.44445C20.9282 9.54861 21.1607 10.7316 21.1577 11.9257C21.1577 16.9415 17.0977 21.027 12.1125 21.027C10.5975 21.027 9.11041 20.643 7.78525 19.9145L2.98169 21.1899V21.1899Z" fill="url(#paint0_linear_917_126)"/>
<path d="M2.65741 21.5162L1.69281 21.2525L2.92108 16.7597C2.14617 15.2686 1.74125 13.6105 1.74354 11.9259C1.73356 6.17177 6.37914 1.48929 12.1032 1.48929C14.8762 1.48929 17.4855 2.57363 19.446 4.54622C21.4064 6.51866 22.4815 9.14118 22.4815 11.9257C22.4815 17.6695 17.8377 22.3526 12.1138 22.3533L2.65741 21.5162ZM2.65741 21.5162L2.91269 22.4831L7.51244 21.2687C8.93862 21.9829 10.5137 22.3552 12.1125 22.3533L2.65741 21.5162ZM6.30987 17.8798L6.64335 16.6592L6.7568 16.2439L6.53316 15.8761L6.35208 15.5783L6.35217 15.5783L6.34471 15.5664C5.66455 14.4823 5.30581 13.2189 5.30581 11.9262C5.30581 8.15818 8.36123 5.091 12.1027 5.091C13.9113 5.091 15.6204 5.80756 16.9038 7.09726C18.1839 8.38559 18.8907 10.1067 18.8907 11.9356C18.8907 15.7042 15.8349 18.7704 12.1045 18.7708C10.8894 18.7698 9.69709 18.4414 8.65297 17.82L8.36995 17.649L7.89803 17.3638L7.49585 17.5651L6.30987 17.8798Z" fill="url(#paint1_linear_917_126)" stroke="#20B038" stroke-width="2"/>
<path fill-rule="evenodd" clip-rule="evenodd" d="M9.76778 7.97462C9.59656 7.58133 9.40562 7.57199 9.24374 7.57199C9.10053 7.56213 8.94799 7.56213 8.78611 7.56213C8.63356 7.56213 8.37621 7.61973 8.15726 7.85944C7.93778 8.09915 7.33746 8.66522 7.33746 9.8259C7.33746 10.9861 8.17645 12.1083 8.2906 12.2614C8.40475 12.415 9.91099 14.8702 12.2936 15.8197C14.2761 16.6058 14.6767 16.4527 15.1058 16.4045C15.5343 16.3567 16.4875 15.8389 16.6878 15.2822C16.8782 14.7358 16.8782 14.2564 16.8211 14.1604C16.764 14.0644 16.6016 14.0068 16.3728 13.8823C16.1347 13.7671 14.9911 13.1922 14.7716 13.1149C14.5527 13.0381 14.4001 12.9997 14.2476 13.2301C14.095 13.4698 13.6473 13.9975 13.5041 14.1506C13.3707 14.3041 13.228 14.3233 12.9992 14.2082C12.7605 14.0935 12.0082 13.8439 11.1116 13.0381C10.4164 12.415 9.94938 11.6383 9.80618 11.4079C9.67283 11.1682 9.78698 11.0437 9.91099 10.9285C10.0158 10.8231 10.1497 10.6504 10.2638 10.516C10.378 10.3816 10.4158 10.2763 10.502 10.1227C10.5782 9.96962 10.5398 9.82538 10.4828 9.71071C10.4257 9.60487 9.9774 8.44471 9.76778 7.97462V7.97462Z" fill="white"/>
<defs>
<linearGradient id="paint0_linear_917_126" x1="12.0679" y1="21.1888" x2="12.0679" y2="2.82135" gradientUnits="userSpaceOnUse">
<stop stop-color="#20B038"/>
<stop offset="1" stop-color="#60D66A"/>
</linearGradient>
<linearGradient id="paint1_linear_917_126" x1="12.0679" y1="21.5183" x2="12.0679" y2="2.49188" gradientUnits="userSpaceOnUse">
<stop stop-color="#F9F9F9"/>
<stop offset="1" stop-color="white"/>
</linearGradient>
</defs>
</svg>
